G04 EAGLE Gerber RS-274X export*
G75*
%MOMM*%
%FSLAX34Y34*%
%LPD*%
%INSilkscreen Top*%
%IPPOS*%
%AMOC8*
5,1,8,0,0,1.08239X$1,22.5*%
G01*
%ADD10C,0.101600*%
%ADD11C,0.152400*%
%ADD12R,0.254000X2.540000*%
%ADD13C,0.000000*%
%ADD14C,0.203200*%


D10*
X43942Y121986D02*
X43942Y119389D01*
X43940Y119290D01*
X43934Y119190D01*
X43925Y119091D01*
X43912Y118993D01*
X43895Y118895D01*
X43874Y118797D01*
X43849Y118701D01*
X43821Y118606D01*
X43789Y118512D01*
X43754Y118419D01*
X43715Y118327D01*
X43672Y118237D01*
X43627Y118149D01*
X43577Y118062D01*
X43525Y117978D01*
X43469Y117895D01*
X43411Y117815D01*
X43349Y117737D01*
X43284Y117662D01*
X43216Y117589D01*
X43146Y117519D01*
X43073Y117451D01*
X42998Y117386D01*
X42920Y117324D01*
X42840Y117266D01*
X42757Y117210D01*
X42673Y117158D01*
X42586Y117108D01*
X42498Y117063D01*
X42408Y117020D01*
X42316Y116981D01*
X42223Y116946D01*
X42129Y116914D01*
X42034Y116886D01*
X41938Y116861D01*
X41840Y116840D01*
X41742Y116823D01*
X41644Y116810D01*
X41545Y116801D01*
X41445Y116795D01*
X41346Y116793D01*
X34854Y116793D01*
X34854Y116792D02*
X34755Y116794D01*
X34655Y116800D01*
X34556Y116809D01*
X34458Y116822D01*
X34360Y116840D01*
X34262Y116860D01*
X34166Y116885D01*
X34070Y116913D01*
X33976Y116945D01*
X33883Y116980D01*
X33792Y117019D01*
X33702Y117062D01*
X33613Y117107D01*
X33527Y117157D01*
X33442Y117209D01*
X33360Y117265D01*
X33280Y117324D01*
X33202Y117385D01*
X33126Y117450D01*
X33053Y117518D01*
X32983Y117588D01*
X32915Y117661D01*
X32850Y117737D01*
X32789Y117815D01*
X32730Y117895D01*
X32674Y117977D01*
X32622Y118062D01*
X32573Y118148D01*
X32527Y118237D01*
X32484Y118327D01*
X32445Y118418D01*
X32410Y118511D01*
X32378Y118605D01*
X32350Y118701D01*
X32325Y118797D01*
X32305Y118895D01*
X32287Y118993D01*
X32274Y119091D01*
X32265Y119190D01*
X32259Y119289D01*
X32257Y119389D01*
X32258Y119389D02*
X32258Y121986D01*
X34854Y126351D02*
X32258Y129596D01*
X43942Y129596D01*
X43942Y126351D02*
X43942Y132842D01*
X62239Y25908D02*
X64836Y25908D01*
X62239Y25908D02*
X62140Y25910D01*
X62040Y25916D01*
X61941Y25925D01*
X61843Y25938D01*
X61745Y25955D01*
X61647Y25976D01*
X61551Y26001D01*
X61456Y26029D01*
X61362Y26061D01*
X61269Y26096D01*
X61177Y26135D01*
X61087Y26178D01*
X60999Y26223D01*
X60912Y26273D01*
X60828Y26325D01*
X60745Y26381D01*
X60665Y26439D01*
X60587Y26501D01*
X60512Y26566D01*
X60439Y26634D01*
X60369Y26704D01*
X60301Y26777D01*
X60236Y26852D01*
X60174Y26930D01*
X60116Y27010D01*
X60060Y27093D01*
X60008Y27177D01*
X59958Y27264D01*
X59913Y27352D01*
X59870Y27442D01*
X59831Y27534D01*
X59796Y27627D01*
X59764Y27721D01*
X59736Y27816D01*
X59711Y27912D01*
X59690Y28010D01*
X59673Y28108D01*
X59660Y28206D01*
X59651Y28305D01*
X59645Y28405D01*
X59643Y28504D01*
X59643Y34996D01*
X59645Y35095D01*
X59651Y35195D01*
X59660Y35294D01*
X59673Y35392D01*
X59690Y35490D01*
X59711Y35588D01*
X59736Y35684D01*
X59764Y35779D01*
X59796Y35873D01*
X59831Y35966D01*
X59870Y36058D01*
X59913Y36148D01*
X59958Y36236D01*
X60008Y36323D01*
X60060Y36407D01*
X60116Y36490D01*
X60174Y36570D01*
X60236Y36648D01*
X60301Y36723D01*
X60369Y36796D01*
X60439Y36866D01*
X60512Y36934D01*
X60587Y36999D01*
X60665Y37061D01*
X60745Y37119D01*
X60828Y37175D01*
X60912Y37227D01*
X60999Y37277D01*
X61087Y37322D01*
X61177Y37365D01*
X61269Y37404D01*
X61361Y37439D01*
X61456Y37471D01*
X61551Y37499D01*
X61647Y37524D01*
X61745Y37545D01*
X61843Y37562D01*
X61941Y37575D01*
X62040Y37584D01*
X62140Y37590D01*
X62239Y37592D01*
X64836Y37592D01*
X72771Y37592D02*
X72878Y37590D01*
X72984Y37584D01*
X73090Y37574D01*
X73196Y37561D01*
X73302Y37543D01*
X73406Y37522D01*
X73510Y37497D01*
X73613Y37468D01*
X73714Y37436D01*
X73814Y37399D01*
X73913Y37359D01*
X74011Y37316D01*
X74107Y37269D01*
X74201Y37218D01*
X74293Y37164D01*
X74383Y37107D01*
X74471Y37047D01*
X74556Y36983D01*
X74639Y36916D01*
X74720Y36846D01*
X74798Y36774D01*
X74874Y36698D01*
X74946Y36620D01*
X75016Y36539D01*
X75083Y36456D01*
X75147Y36371D01*
X75207Y36283D01*
X75264Y36193D01*
X75318Y36101D01*
X75369Y36007D01*
X75416Y35911D01*
X75459Y35813D01*
X75499Y35714D01*
X75536Y35614D01*
X75568Y35513D01*
X75597Y35410D01*
X75622Y35306D01*
X75643Y35202D01*
X75661Y35096D01*
X75674Y34990D01*
X75684Y34884D01*
X75690Y34778D01*
X75692Y34671D01*
X72771Y37592D02*
X72650Y37590D01*
X72529Y37584D01*
X72409Y37574D01*
X72288Y37561D01*
X72169Y37543D01*
X72049Y37522D01*
X71931Y37497D01*
X71814Y37468D01*
X71697Y37435D01*
X71582Y37399D01*
X71468Y37358D01*
X71355Y37315D01*
X71243Y37267D01*
X71134Y37216D01*
X71026Y37161D01*
X70919Y37103D01*
X70815Y37042D01*
X70713Y36977D01*
X70613Y36909D01*
X70515Y36838D01*
X70419Y36764D01*
X70326Y36687D01*
X70236Y36606D01*
X70148Y36523D01*
X70063Y36437D01*
X69980Y36348D01*
X69901Y36257D01*
X69824Y36163D01*
X69751Y36067D01*
X69681Y35969D01*
X69614Y35868D01*
X69550Y35765D01*
X69490Y35660D01*
X69433Y35553D01*
X69379Y35445D01*
X69329Y35335D01*
X69283Y35223D01*
X69240Y35110D01*
X69201Y34995D01*
X74719Y32399D02*
X74798Y32476D01*
X74874Y32557D01*
X74947Y32640D01*
X75017Y32725D01*
X75084Y32813D01*
X75148Y32903D01*
X75208Y32995D01*
X75265Y33090D01*
X75319Y33186D01*
X75370Y33284D01*
X75417Y33384D01*
X75461Y33486D01*
X75501Y33589D01*
X75537Y33693D01*
X75569Y33799D01*
X75598Y33905D01*
X75623Y34013D01*
X75645Y34121D01*
X75662Y34231D01*
X75676Y34340D01*
X75685Y34450D01*
X75691Y34561D01*
X75693Y34671D01*
X74718Y32399D02*
X69201Y25908D01*
X75692Y25908D01*
D11*
X139700Y25400D02*
X190500Y25400D01*
X190500Y50800D01*
X139700Y50800D01*
X139700Y25400D01*
D12*
X187960Y38100D03*
D10*
X152908Y55118D02*
X152908Y64262D01*
X155448Y64262D01*
X155548Y64260D01*
X155647Y64254D01*
X155747Y64244D01*
X155845Y64231D01*
X155944Y64213D01*
X156041Y64192D01*
X156137Y64167D01*
X156233Y64138D01*
X156327Y64105D01*
X156420Y64069D01*
X156511Y64029D01*
X156601Y63985D01*
X156689Y63938D01*
X156775Y63888D01*
X156859Y63834D01*
X156941Y63777D01*
X157020Y63717D01*
X157098Y63653D01*
X157172Y63587D01*
X157244Y63518D01*
X157313Y63446D01*
X157379Y63372D01*
X157443Y63294D01*
X157503Y63215D01*
X157560Y63133D01*
X157614Y63049D01*
X157664Y62963D01*
X157711Y62875D01*
X157755Y62785D01*
X157795Y62694D01*
X157831Y62601D01*
X157864Y62507D01*
X157893Y62411D01*
X157918Y62315D01*
X157939Y62218D01*
X157957Y62119D01*
X157970Y62021D01*
X157980Y61921D01*
X157986Y61822D01*
X157988Y61722D01*
X157986Y61622D01*
X157980Y61523D01*
X157970Y61423D01*
X157957Y61325D01*
X157939Y61226D01*
X157918Y61129D01*
X157893Y61033D01*
X157864Y60937D01*
X157831Y60843D01*
X157795Y60750D01*
X157755Y60659D01*
X157711Y60569D01*
X157664Y60481D01*
X157614Y60395D01*
X157560Y60311D01*
X157503Y60229D01*
X157443Y60150D01*
X157379Y60072D01*
X157313Y59998D01*
X157244Y59926D01*
X157172Y59857D01*
X157098Y59791D01*
X157020Y59727D01*
X156941Y59667D01*
X156859Y59610D01*
X156775Y59556D01*
X156689Y59506D01*
X156601Y59459D01*
X156511Y59415D01*
X156420Y59375D01*
X156327Y59339D01*
X156233Y59306D01*
X156137Y59277D01*
X156041Y59252D01*
X155944Y59231D01*
X155845Y59213D01*
X155747Y59200D01*
X155647Y59190D01*
X155548Y59184D01*
X155448Y59182D01*
X152908Y59182D01*
X161900Y55118D02*
X161900Y64262D01*
X161900Y60198D02*
X166980Y60198D01*
X166980Y64262D02*
X166980Y55118D01*
X171348Y62230D02*
X173888Y64262D01*
X173888Y55118D01*
X171348Y55118D02*
X176428Y55118D01*
X229108Y81975D02*
X240792Y81975D01*
X229108Y81975D02*
X229108Y85220D01*
X229110Y85333D01*
X229116Y85446D01*
X229126Y85559D01*
X229140Y85672D01*
X229157Y85784D01*
X229179Y85895D01*
X229204Y86005D01*
X229234Y86115D01*
X229267Y86223D01*
X229304Y86330D01*
X229344Y86436D01*
X229389Y86540D01*
X229437Y86643D01*
X229488Y86744D01*
X229543Y86843D01*
X229601Y86940D01*
X229663Y87035D01*
X229728Y87128D01*
X229796Y87218D01*
X229867Y87306D01*
X229942Y87392D01*
X230019Y87475D01*
X230099Y87555D01*
X230182Y87632D01*
X230268Y87707D01*
X230356Y87778D01*
X230446Y87846D01*
X230539Y87911D01*
X230634Y87973D01*
X230731Y88031D01*
X230830Y88086D01*
X230931Y88137D01*
X231034Y88185D01*
X231138Y88230D01*
X231244Y88270D01*
X231351Y88307D01*
X231459Y88340D01*
X231569Y88370D01*
X231679Y88395D01*
X231790Y88417D01*
X231902Y88434D01*
X232015Y88448D01*
X232128Y88458D01*
X232241Y88464D01*
X232354Y88466D01*
X232467Y88464D01*
X232580Y88458D01*
X232693Y88448D01*
X232806Y88434D01*
X232918Y88417D01*
X233029Y88395D01*
X233139Y88370D01*
X233249Y88340D01*
X233357Y88307D01*
X233464Y88270D01*
X233570Y88230D01*
X233674Y88185D01*
X233777Y88137D01*
X233878Y88086D01*
X233977Y88031D01*
X234074Y87973D01*
X234169Y87911D01*
X234262Y87846D01*
X234352Y87778D01*
X234440Y87707D01*
X234526Y87632D01*
X234609Y87555D01*
X234689Y87475D01*
X234766Y87392D01*
X234841Y87306D01*
X234912Y87218D01*
X234980Y87128D01*
X235045Y87035D01*
X235107Y86940D01*
X235165Y86843D01*
X235220Y86744D01*
X235271Y86643D01*
X235319Y86540D01*
X235364Y86436D01*
X235404Y86330D01*
X235441Y86223D01*
X235474Y86115D01*
X235504Y86005D01*
X235529Y85895D01*
X235551Y85784D01*
X235568Y85672D01*
X235582Y85559D01*
X235592Y85446D01*
X235598Y85333D01*
X235600Y85220D01*
X235599Y85220D02*
X235599Y81975D01*
X235599Y85869D02*
X240792Y88466D01*
X231704Y93331D02*
X229108Y96576D01*
X240792Y96576D01*
X240792Y93331D02*
X240792Y99822D01*
X121412Y112455D02*
X109728Y112455D01*
X109728Y115700D01*
X109730Y115813D01*
X109736Y115926D01*
X109746Y116039D01*
X109760Y116152D01*
X109777Y116264D01*
X109799Y116375D01*
X109824Y116485D01*
X109854Y116595D01*
X109887Y116703D01*
X109924Y116810D01*
X109964Y116916D01*
X110009Y117020D01*
X110057Y117123D01*
X110108Y117224D01*
X110163Y117323D01*
X110221Y117420D01*
X110283Y117515D01*
X110348Y117608D01*
X110416Y117698D01*
X110487Y117786D01*
X110562Y117872D01*
X110639Y117955D01*
X110719Y118035D01*
X110802Y118112D01*
X110888Y118187D01*
X110976Y118258D01*
X111066Y118326D01*
X111159Y118391D01*
X111254Y118453D01*
X111351Y118511D01*
X111450Y118566D01*
X111551Y118617D01*
X111654Y118665D01*
X111758Y118710D01*
X111864Y118750D01*
X111971Y118787D01*
X112079Y118820D01*
X112189Y118850D01*
X112299Y118875D01*
X112410Y118897D01*
X112522Y118914D01*
X112635Y118928D01*
X112748Y118938D01*
X112861Y118944D01*
X112974Y118946D01*
X113087Y118944D01*
X113200Y118938D01*
X113313Y118928D01*
X113426Y118914D01*
X113538Y118897D01*
X113649Y118875D01*
X113759Y118850D01*
X113869Y118820D01*
X113977Y118787D01*
X114084Y118750D01*
X114190Y118710D01*
X114294Y118665D01*
X114397Y118617D01*
X114498Y118566D01*
X114597Y118511D01*
X114694Y118453D01*
X114789Y118391D01*
X114882Y118326D01*
X114972Y118258D01*
X115060Y118187D01*
X115146Y118112D01*
X115229Y118035D01*
X115309Y117955D01*
X115386Y117872D01*
X115461Y117786D01*
X115532Y117698D01*
X115600Y117608D01*
X115665Y117515D01*
X115727Y117420D01*
X115785Y117323D01*
X115840Y117224D01*
X115891Y117123D01*
X115939Y117020D01*
X115984Y116916D01*
X116024Y116810D01*
X116061Y116703D01*
X116094Y116595D01*
X116124Y116485D01*
X116149Y116375D01*
X116171Y116264D01*
X116188Y116152D01*
X116202Y116039D01*
X116212Y115926D01*
X116218Y115813D01*
X116220Y115700D01*
X116219Y115700D02*
X116219Y112455D01*
X116219Y116349D02*
X121412Y118946D01*
X112649Y130302D02*
X112542Y130300D01*
X112436Y130294D01*
X112330Y130284D01*
X112224Y130271D01*
X112118Y130253D01*
X112014Y130232D01*
X111910Y130207D01*
X111807Y130178D01*
X111706Y130146D01*
X111606Y130109D01*
X111507Y130069D01*
X111409Y130026D01*
X111313Y129979D01*
X111219Y129928D01*
X111127Y129874D01*
X111037Y129817D01*
X110949Y129757D01*
X110864Y129693D01*
X110781Y129626D01*
X110700Y129556D01*
X110622Y129484D01*
X110546Y129408D01*
X110474Y129330D01*
X110404Y129249D01*
X110337Y129166D01*
X110273Y129081D01*
X110213Y128993D01*
X110156Y128903D01*
X110102Y128811D01*
X110051Y128717D01*
X110004Y128621D01*
X109961Y128523D01*
X109921Y128424D01*
X109884Y128324D01*
X109852Y128223D01*
X109823Y128120D01*
X109798Y128016D01*
X109777Y127912D01*
X109759Y127806D01*
X109746Y127700D01*
X109736Y127594D01*
X109730Y127488D01*
X109728Y127381D01*
X109730Y127260D01*
X109736Y127139D01*
X109746Y127019D01*
X109759Y126898D01*
X109777Y126779D01*
X109798Y126659D01*
X109823Y126541D01*
X109852Y126424D01*
X109885Y126307D01*
X109921Y126192D01*
X109962Y126078D01*
X110005Y125965D01*
X110053Y125853D01*
X110104Y125744D01*
X110159Y125636D01*
X110217Y125529D01*
X110278Y125425D01*
X110343Y125323D01*
X110411Y125223D01*
X110482Y125125D01*
X110556Y125029D01*
X110633Y124936D01*
X110714Y124846D01*
X110797Y124758D01*
X110883Y124673D01*
X110972Y124590D01*
X111063Y124511D01*
X111157Y124434D01*
X111253Y124361D01*
X111351Y124291D01*
X111452Y124224D01*
X111555Y124160D01*
X111660Y124100D01*
X111767Y124042D01*
X111875Y123989D01*
X111985Y123939D01*
X112097Y123893D01*
X112210Y123850D01*
X112325Y123811D01*
X114921Y129328D02*
X114843Y129407D01*
X114763Y129483D01*
X114680Y129556D01*
X114594Y129626D01*
X114507Y129693D01*
X114416Y129757D01*
X114324Y129817D01*
X114230Y129875D01*
X114133Y129929D01*
X114035Y129979D01*
X113935Y130026D01*
X113834Y130070D01*
X113731Y130110D01*
X113626Y130146D01*
X113521Y130178D01*
X113414Y130207D01*
X113307Y130232D01*
X113198Y130254D01*
X113089Y130271D01*
X112980Y130285D01*
X112870Y130294D01*
X112759Y130300D01*
X112649Y130302D01*
X114921Y129328D02*
X121412Y123811D01*
X121412Y130302D01*
X94742Y112455D02*
X83058Y112455D01*
X83058Y115700D01*
X83060Y115813D01*
X83066Y115926D01*
X83076Y116039D01*
X83090Y116152D01*
X83107Y116264D01*
X83129Y116375D01*
X83154Y116485D01*
X83184Y116595D01*
X83217Y116703D01*
X83254Y116810D01*
X83294Y116916D01*
X83339Y117020D01*
X83387Y117123D01*
X83438Y117224D01*
X83493Y117323D01*
X83551Y117420D01*
X83613Y117515D01*
X83678Y117608D01*
X83746Y117698D01*
X83817Y117786D01*
X83892Y117872D01*
X83969Y117955D01*
X84049Y118035D01*
X84132Y118112D01*
X84218Y118187D01*
X84306Y118258D01*
X84396Y118326D01*
X84489Y118391D01*
X84584Y118453D01*
X84681Y118511D01*
X84780Y118566D01*
X84881Y118617D01*
X84984Y118665D01*
X85088Y118710D01*
X85194Y118750D01*
X85301Y118787D01*
X85409Y118820D01*
X85519Y118850D01*
X85629Y118875D01*
X85740Y118897D01*
X85852Y118914D01*
X85965Y118928D01*
X86078Y118938D01*
X86191Y118944D01*
X86304Y118946D01*
X86417Y118944D01*
X86530Y118938D01*
X86643Y118928D01*
X86756Y118914D01*
X86868Y118897D01*
X86979Y118875D01*
X87089Y118850D01*
X87199Y118820D01*
X87307Y118787D01*
X87414Y118750D01*
X87520Y118710D01*
X87624Y118665D01*
X87727Y118617D01*
X87828Y118566D01*
X87927Y118511D01*
X88024Y118453D01*
X88119Y118391D01*
X88212Y118326D01*
X88302Y118258D01*
X88390Y118187D01*
X88476Y118112D01*
X88559Y118035D01*
X88639Y117955D01*
X88716Y117872D01*
X88791Y117786D01*
X88862Y117698D01*
X88930Y117608D01*
X88995Y117515D01*
X89057Y117420D01*
X89115Y117323D01*
X89170Y117224D01*
X89221Y117123D01*
X89269Y117020D01*
X89314Y116916D01*
X89354Y116810D01*
X89391Y116703D01*
X89424Y116595D01*
X89454Y116485D01*
X89479Y116375D01*
X89501Y116264D01*
X89518Y116152D01*
X89532Y116039D01*
X89542Y115926D01*
X89548Y115813D01*
X89550Y115700D01*
X89549Y115700D02*
X89549Y112455D01*
X89549Y116349D02*
X94742Y118946D01*
X94742Y123811D02*
X94742Y127056D01*
X94740Y127169D01*
X94734Y127282D01*
X94724Y127395D01*
X94710Y127508D01*
X94693Y127620D01*
X94671Y127731D01*
X94646Y127841D01*
X94616Y127951D01*
X94583Y128059D01*
X94546Y128166D01*
X94506Y128272D01*
X94461Y128376D01*
X94413Y128479D01*
X94362Y128580D01*
X94307Y128679D01*
X94249Y128776D01*
X94187Y128871D01*
X94122Y128964D01*
X94054Y129054D01*
X93983Y129142D01*
X93908Y129228D01*
X93831Y129311D01*
X93751Y129391D01*
X93668Y129468D01*
X93582Y129543D01*
X93494Y129614D01*
X93404Y129682D01*
X93311Y129747D01*
X93216Y129809D01*
X93119Y129867D01*
X93020Y129922D01*
X92919Y129973D01*
X92816Y130021D01*
X92712Y130066D01*
X92606Y130106D01*
X92499Y130143D01*
X92391Y130176D01*
X92281Y130206D01*
X92171Y130231D01*
X92060Y130253D01*
X91948Y130270D01*
X91835Y130284D01*
X91722Y130294D01*
X91609Y130300D01*
X91496Y130302D01*
X91383Y130300D01*
X91270Y130294D01*
X91157Y130284D01*
X91044Y130270D01*
X90932Y130253D01*
X90821Y130231D01*
X90711Y130206D01*
X90601Y130176D01*
X90493Y130143D01*
X90386Y130106D01*
X90280Y130066D01*
X90176Y130021D01*
X90073Y129973D01*
X89972Y129922D01*
X89873Y129867D01*
X89776Y129809D01*
X89681Y129747D01*
X89588Y129682D01*
X89498Y129614D01*
X89410Y129543D01*
X89324Y129468D01*
X89241Y129391D01*
X89161Y129311D01*
X89084Y129228D01*
X89009Y129142D01*
X88938Y129054D01*
X88870Y128964D01*
X88805Y128871D01*
X88743Y128776D01*
X88685Y128679D01*
X88630Y128580D01*
X88579Y128479D01*
X88531Y128376D01*
X88486Y128272D01*
X88446Y128166D01*
X88409Y128059D01*
X88376Y127951D01*
X88346Y127841D01*
X88321Y127731D01*
X88299Y127620D01*
X88282Y127508D01*
X88268Y127395D01*
X88258Y127282D01*
X88252Y127169D01*
X88250Y127056D01*
X83058Y127706D02*
X83058Y123811D01*
X83058Y127706D02*
X83060Y127807D01*
X83066Y127907D01*
X83076Y128007D01*
X83089Y128107D01*
X83107Y128206D01*
X83128Y128305D01*
X83153Y128402D01*
X83182Y128499D01*
X83215Y128594D01*
X83251Y128688D01*
X83291Y128780D01*
X83334Y128871D01*
X83381Y128960D01*
X83431Y129047D01*
X83485Y129133D01*
X83542Y129216D01*
X83602Y129296D01*
X83665Y129375D01*
X83732Y129451D01*
X83801Y129524D01*
X83873Y129594D01*
X83947Y129662D01*
X84024Y129727D01*
X84104Y129788D01*
X84186Y129847D01*
X84270Y129902D01*
X84356Y129954D01*
X84444Y130003D01*
X84534Y130048D01*
X84626Y130090D01*
X84719Y130128D01*
X84814Y130162D01*
X84909Y130193D01*
X85006Y130220D01*
X85104Y130243D01*
X85203Y130263D01*
X85303Y130278D01*
X85403Y130290D01*
X85503Y130298D01*
X85604Y130302D01*
X85704Y130302D01*
X85805Y130298D01*
X85905Y130290D01*
X86005Y130278D01*
X86105Y130263D01*
X86204Y130243D01*
X86302Y130220D01*
X86399Y130193D01*
X86494Y130162D01*
X86589Y130128D01*
X86682Y130090D01*
X86774Y130048D01*
X86864Y130003D01*
X86952Y129954D01*
X87038Y129902D01*
X87122Y129847D01*
X87204Y129788D01*
X87284Y129727D01*
X87361Y129662D01*
X87435Y129594D01*
X87507Y129524D01*
X87576Y129451D01*
X87643Y129375D01*
X87706Y129296D01*
X87766Y129216D01*
X87823Y129133D01*
X87877Y129047D01*
X87927Y128960D01*
X87974Y128871D01*
X88017Y128780D01*
X88057Y128688D01*
X88093Y128594D01*
X88126Y128499D01*
X88155Y128402D01*
X88180Y128305D01*
X88201Y128206D01*
X88219Y128107D01*
X88232Y128007D01*
X88242Y127907D01*
X88248Y127807D01*
X88250Y127706D01*
X88251Y127706D02*
X88251Y125109D01*
X68072Y110998D02*
X56388Y110998D01*
X56388Y114244D01*
X56390Y114357D01*
X56396Y114470D01*
X56406Y114583D01*
X56420Y114696D01*
X56437Y114808D01*
X56459Y114919D01*
X56484Y115029D01*
X56514Y115139D01*
X56547Y115247D01*
X56584Y115354D01*
X56624Y115460D01*
X56669Y115564D01*
X56717Y115667D01*
X56768Y115768D01*
X56823Y115867D01*
X56881Y115964D01*
X56943Y116059D01*
X57008Y116152D01*
X57076Y116242D01*
X57147Y116330D01*
X57222Y116416D01*
X57299Y116499D01*
X57379Y116579D01*
X57462Y116656D01*
X57548Y116731D01*
X57636Y116802D01*
X57726Y116870D01*
X57819Y116935D01*
X57914Y116997D01*
X58011Y117055D01*
X58110Y117110D01*
X58211Y117161D01*
X58314Y117209D01*
X58418Y117254D01*
X58524Y117294D01*
X58631Y117331D01*
X58739Y117364D01*
X58849Y117394D01*
X58959Y117419D01*
X59070Y117441D01*
X59182Y117458D01*
X59295Y117472D01*
X59408Y117482D01*
X59521Y117488D01*
X59634Y117490D01*
X59747Y117488D01*
X59860Y117482D01*
X59973Y117472D01*
X60086Y117458D01*
X60198Y117441D01*
X60309Y117419D01*
X60419Y117394D01*
X60529Y117364D01*
X60637Y117331D01*
X60744Y117294D01*
X60850Y117254D01*
X60954Y117209D01*
X61057Y117161D01*
X61158Y117110D01*
X61257Y117055D01*
X61354Y116997D01*
X61449Y116935D01*
X61542Y116870D01*
X61632Y116802D01*
X61720Y116731D01*
X61806Y116656D01*
X61889Y116579D01*
X61969Y116499D01*
X62046Y116416D01*
X62121Y116330D01*
X62192Y116242D01*
X62260Y116152D01*
X62325Y116059D01*
X62387Y115964D01*
X62445Y115867D01*
X62500Y115768D01*
X62551Y115667D01*
X62599Y115564D01*
X62644Y115460D01*
X62684Y115354D01*
X62721Y115247D01*
X62754Y115139D01*
X62784Y115029D01*
X62809Y114919D01*
X62831Y114808D01*
X62848Y114696D01*
X62862Y114583D01*
X62872Y114470D01*
X62878Y114357D01*
X62880Y114244D01*
X62879Y114244D02*
X62879Y110998D01*
X62879Y114893D02*
X68072Y117489D01*
X65476Y122354D02*
X56388Y124951D01*
X65476Y122354D02*
X65476Y128845D01*
X62879Y126898D02*
X68072Y126898D01*
D13*
X163830Y101092D02*
X163930Y101049D01*
X164032Y101010D01*
X164135Y100975D01*
X164239Y100943D01*
X164345Y100915D01*
X164451Y100890D01*
X164558Y100869D01*
X164666Y100852D01*
X164774Y100839D01*
X164882Y100830D01*
X164991Y100824D01*
X165100Y100822D01*
X165209Y100824D01*
X165318Y100830D01*
X165426Y100839D01*
X165534Y100852D01*
X165642Y100869D01*
X165749Y100890D01*
X165855Y100915D01*
X165961Y100943D01*
X166065Y100975D01*
X166168Y101010D01*
X166270Y101049D01*
X166370Y101092D01*
D14*
X146264Y114231D02*
X146264Y127827D01*
X146264Y114231D02*
X146266Y114088D01*
X146272Y113945D01*
X146282Y113803D01*
X146295Y113661D01*
X146313Y113519D01*
X146334Y113378D01*
X146359Y113237D01*
X146388Y113097D01*
X146421Y112958D01*
X146458Y112820D01*
X146498Y112683D01*
X146542Y112547D01*
X146590Y112413D01*
X146642Y112280D01*
X146697Y112148D01*
X146756Y112018D01*
X146818Y111889D01*
X146884Y111762D01*
X146953Y111637D01*
X147025Y111514D01*
X147101Y111393D01*
X147180Y111274D01*
X147263Y111157D01*
X147348Y111043D01*
X147437Y110931D01*
X147528Y110821D01*
X147623Y110714D01*
X147721Y110610D01*
X147821Y110508D01*
X147924Y110409D01*
X148030Y110313D01*
X148138Y110220D01*
X148249Y110130D01*
X148362Y110043D01*
X148478Y109959D01*
X148595Y109878D01*
X148715Y109801D01*
X148837Y109727D01*
X148961Y109656D01*
X149087Y109588D01*
X149215Y109524D01*
X149344Y109464D01*
X149475Y109407D01*
X149608Y109354D01*
X149742Y109304D01*
X149877Y109258D01*
X150014Y109216D01*
X150151Y109177D01*
X150290Y109142D01*
X150429Y109111D01*
X150569Y109084D01*
X150710Y109061D01*
X150852Y109041D01*
X150994Y109026D01*
X151136Y109014D01*
X151279Y109006D01*
X151422Y109002D01*
X151564Y109002D01*
X151707Y109006D01*
X151850Y109014D01*
X151992Y109026D01*
X152134Y109041D01*
X152276Y109061D01*
X152417Y109084D01*
X152557Y109111D01*
X152696Y109142D01*
X152835Y109177D01*
X152972Y109216D01*
X153109Y109258D01*
X153244Y109304D01*
X153378Y109354D01*
X153511Y109407D01*
X153642Y109464D01*
X153771Y109524D01*
X153899Y109588D01*
X154025Y109656D01*
X154149Y109727D01*
X154271Y109801D01*
X154391Y109878D01*
X154508Y109959D01*
X154624Y110043D01*
X154737Y110130D01*
X154848Y110220D01*
X154956Y110313D01*
X155062Y110409D01*
X155165Y110508D01*
X155265Y110610D01*
X155363Y110714D01*
X155458Y110821D01*
X155549Y110931D01*
X155638Y111043D01*
X155723Y111157D01*
X155806Y111274D01*
X155885Y111393D01*
X155961Y111514D01*
X156033Y111637D01*
X156102Y111762D01*
X156168Y111889D01*
X156230Y112018D01*
X156289Y112148D01*
X156344Y112280D01*
X156396Y112413D01*
X156444Y112547D01*
X156488Y112683D01*
X156528Y112820D01*
X156565Y112958D01*
X156598Y113097D01*
X156627Y113237D01*
X156652Y113378D01*
X156673Y113519D01*
X156691Y113661D01*
X156704Y113803D01*
X156714Y113945D01*
X156720Y114088D01*
X156722Y114231D01*
X156722Y127827D01*
X164714Y123644D02*
X169943Y127827D01*
X169943Y109002D01*
X164714Y109002D02*
X175173Y109002D01*
M02*
