G04 Panel Editor  V12.2 (Build 1133) Date:  Mon Apr 13 15:19:44 2020 *
G04 Database: C:\Users\sergey\Documents\EAGLE\projects\Led_amp\export\CAMOutputs\Panel\Led_amp.cam *
G04 Layer 11: copper_top.gbr *
%FSLAX34Y34*%
%MOMM*%
%SFA1.000B1.000*%

%MIA0B0*%
%IPPOS*%
%ADD10C,1.27000*%
%ADD11R,1.67640X1.67640*%
%ADD12C,1.67640*%
%ADD13C,0.75640*%
%ADD14C,0.30480*%
%ADD15R,1.50000X1.30000*%
%ADD16R,1.30000X1.50000*%
%ADD17R,1.47320X0.55880*%
%ADD18C,1.00000*%
%LNcopper_top.gbr*%
%SRX1Y1I0J0*%
%LPD*%
%SRX5Y4I37.754J30.254*%
G36*
X4271Y5794D02*
G01Y296746D01*
X4290Y296990*
X4298Y297015*
X4300Y297041*
X4345Y297182*
X4385Y297325*
X4398Y297348*
X4406Y297373*
X4482Y297500*
X4554Y297630*
X4571Y297650*
X4585Y297672*
X4688Y297779*
X4787Y297889*
X4809Y297904*
X4827Y297923*
X4952Y298003*
X5073Y298088*
X5098Y298098*
X5120Y298112*
X5259Y298162*
X5397Y298217*
X5423Y298221*
X5448Y298229*
X5595Y298246*
X5742Y298268*
X5768Y298266*
X5794Y298269*
X371746*
X371990Y298250*
X372015Y298242*
X372041Y298240*
X372182Y298195*
X372325Y298155*
X372348Y298142*
X372373Y298134*
X372500Y298058*
X372630Y297986*
X372650Y297969*
X372672Y297955*
X372779Y297852*
X372889Y297753*
X372904Y297731*
X372923Y297713*
X373003Y297588*
X373088Y297467*
X373098Y297442*
X373112Y297420*
X373162Y297281*
X373217Y297143*
X373221Y297117*
X373229Y297092*
X373246Y296945*
X373268Y296798*
Y296791*
Y296787*
X373267Y296767*
X373269Y296746*
Y5794*
X373250Y5550*
X373242Y5525*
X373240Y5499*
X373195Y5358*
X373155Y5215*
X373142Y5192*
X373134Y5167*
X373058Y5040*
X372986Y4910*
X372969Y4890*
X372955Y4868*
X372852Y4761*
X372753Y4651*
X372731Y4636*
X372713Y4617*
X372588Y4537*
X372467Y4452*
X372442Y4442*
X372420Y4428*
X372281Y4378*
X372143Y4323*
X372117Y4319*
X372092Y4311*
X371945Y4294*
X371798Y4272*
X371772Y4274*
X371746Y4271*
X5794*
X5550Y4290*
X5525Y4298*
X5499Y4300*
X5358Y4345*
X5215Y4385*
X5192Y4398*
X5167Y4406*
X5040Y4482*
X4910Y4554*
X4890Y4571*
X4868Y4585*
X4761Y4688*
X4651Y4787*
X4636Y4809*
X4617Y4827*
X4537Y4952*
X4452Y5073*
X4442Y5098*
X4428Y5120*
X4378Y5259*
X4323Y5397*
X4319Y5423*
X4311Y5448*
X4294Y5595*
X4272Y5742*
X4274Y5768*
X4271Y5794*
G37*
%LPC*%
G36*
X24357Y254140D02*
G01X29140Y249357D01*
X35388Y246769*
X42152*
X48400Y249357*
X53183Y254140*
X55771Y260388*
Y267152*
X53183Y273400*
X48400Y278183*
X42152Y280771*
X35388*
X29140Y278183*
X24357Y273400*
X21769Y267152*
Y260388*
X24357Y254140*
G37*
G36*
X33613Y88903D02*
G01X33614Y88658D01*
X33612Y88648*
X33613Y88637*
X33547Y87884*
X33592Y87785*
X33645Y87689*
X33663Y87626*
X33690Y87567*
X33711Y87459*
X33741Y87354*
X33744Y87289*
X33757Y87225*
X33753Y87115*
X33758Y87006*
X33746Y86942*
X33744Y86877*
X33715Y86771*
X33696Y86663*
X33670Y86603*
X33661Y86570*
X33858Y85835*
X33902Y85594*
Y85584*
X33904Y85573*
X33970Y84820*
X34031Y84730*
X34100Y84645*
X34129Y84586*
X34166Y84532*
X34205Y84430*
X34253Y84332*
X34267Y84268*
X34291Y84207*
X34306Y84099*
X34330Y83992*
Y83927*
X34339Y83862*
X34329Y83753*
Y83643*
X34313Y83580*
X34310Y83545*
X34632Y82856*
X34717Y82626*
X34719Y82616*
X34723Y82606*
X34919Y81876*
X34995Y81798*
X35077Y81726*
X35116Y81673*
X35161Y81627*
X35218Y81533*
X35282Y81444*
X35308Y81384*
X35341Y81328*
X35375Y81224*
X35417Y81123*
X35428Y81059*
X35449Y80997*
X35458Y80887*
X35476Y80779*
X35472Y80714*
X35475Y80680*
X35912Y80056*
X36036Y79845*
X36039Y79835*
X36045Y79826*
X36364Y79141*
X36453Y79078*
X36547Y79021*
X36593Y78976*
X36646Y78938*
X36718Y78855*
X36797Y78779*
X36833Y78724*
X36875Y78675*
X36927Y78578*
X36986Y78486*
X37008Y78425*
X37039Y78367*
X37067Y78261*
X37104Y78158*
X37111Y78093*
X37120Y78060*
X37658Y77522*
X37817Y77336*
X37822Y77326*
X37829Y77318*
X38262Y76699*
X38361Y76652*
X38463Y76613*
X38517Y76576*
X38576Y76548*
X38661Y76479*
X38752Y76418*
X38796Y76370*
X38847Y76329*
X38914Y76243*
X38989Y76162*
X39021Y76105*
X39061Y76054*
X39107Y75955*
X39162Y75859*
X39180Y75797*
X39195Y75766*
X39818Y75329*
X40007Y75173*
X40013Y75165*
X40022Y75158*
X40556Y74624*
X40661Y74594*
X40769Y74574*
X40828Y74547*
X40891Y74529*
X40987Y74476*
X41087Y74432*
X41139Y74392*
X41196Y74361*
X41278Y74287*
X41365Y74221*
X41407Y74171*
X41455Y74127*
X41517Y74038*
X41588Y73953*
X41617Y73895*
X41636Y73866*
X42326Y73545*
X42539Y73424*
X42547Y73417*
X42556Y73412*
X43175Y72978*
X43284Y72967*
X43394Y72966*
X43457Y72950*
X43522Y72943*
X43625Y72908*
X43732Y72881*
X43790Y72851*
X43851Y72830*
X43944Y72772*
X44042Y72722*
X44092Y72680*
X44147Y72645*
X44224Y72568*
X44308Y72497*
X44346Y72444*
X44371Y72420*
X45106Y72223*
X45337Y72141*
X45346Y72135*
X45356Y72132*
X46041Y71813*
X46149Y71821*
X46258Y71838*
X46323Y71833*
X46388Y71838*
X46496Y71821*
X46605Y71814*
X46668Y71794*
X46732Y71784*
X46834Y71743*
X46938Y71711*
X46995Y71678*
X47055Y71653*
X47145Y71590*
X47239Y71535*
X47287Y71490*
X47315Y71470*
X48073Y71404*
X48314Y71363*
X48324Y71359*
X48335Y71358*
X49065Y71162*
X49170Y71189*
X49274Y71225*
X49339Y71232*
X49402Y71248*
X49512Y71250*
X49621Y71261*
X49685Y71253*
X49750Y71254*
X49858Y71231*
X49966Y71218*
X50028Y71195*
X50091Y71182*
X50190Y71135*
X50293Y71097*
X50348Y71061*
X50379Y71046*
X51137Y71113*
X51382Y71114*
X51392Y71112*
X51403Y71113*
X52156Y71047*
X52255Y71092*
X52351Y71145*
X52414Y71163*
X52473Y71190*
X52581Y71211*
X52686Y71241*
X52751Y71244*
X52815Y71257*
X52925Y71253*
X53034Y71258*
X53098Y71246*
X53163Y71244*
X53269Y71215*
X53377Y71196*
X53437Y71170*
X53470Y71161*
X54205Y71358*
X54446Y71402*
X54456*
X54467Y71404*
X55220Y71470*
X55310Y71531*
X55395Y71600*
X55454Y71629*
X55508Y71666*
X55610Y71705*
X55708Y71753*
X55772Y71767*
X55833Y71791*
X55941Y71806*
X56048Y71830*
X56113*
X56178Y71839*
X56287Y71829*
X56397*
X56460Y71813*
X56495Y71810*
X57184Y72132*
X57414Y72217*
X57424Y72219*
X57434Y72223*
X58164Y72419*
X58242Y72495*
X58314Y72577*
X58367Y72616*
X58413Y72661*
X58507Y72718*
X58596Y72782*
X58656Y72808*
X58712Y72841*
X58816Y72875*
X58917Y72917*
X58981Y72928*
X59043Y72949*
X59153Y72958*
X59261Y72976*
X59326Y72972*
X59360Y72975*
X59984Y73412*
X60195Y73536*
X60205Y73539*
X60214Y73545*
X60899Y73864*
X60962Y73953*
X61019Y74047*
X61064Y74093*
X61102Y74146*
X61185Y74218*
X61261Y74297*
X61316Y74333*
X61365Y74375*
X61462Y74427*
X61554Y74486*
X61615Y74508*
X61673Y74539*
X61779Y74567*
X61882Y74604*
X61947Y74611*
X61980Y74620*
X62518Y75158*
X62704Y75317*
X62714Y75322*
X62722Y75329*
X63341Y75762*
X63388Y75861*
X63427Y75963*
X63464Y76017*
X63492Y76076*
X63561Y76161*
X63622Y76252*
X63670Y76296*
X63711Y76347*
X63797Y76414*
X63878Y76489*
X63935Y76521*
X63986Y76561*
X64085Y76607*
X64181Y76662*
X64243Y76680*
X64274Y76695*
X64711Y77318*
X64867Y77507*
X64875Y77513*
X64882Y77522*
X65416Y78056*
X65446Y78161*
X65466Y78269*
X65493Y78328*
X65511Y78391*
X65564Y78487*
X65608Y78587*
X65648Y78639*
X65679Y78696*
X65753Y78778*
X65819Y78865*
X65869Y78907*
X65913Y78955*
X66002Y79017*
X66087Y79088*
X66145Y79117*
X66174Y79136*
X66495Y79826*
X66616Y80039*
X66623Y80047*
X66628Y80056*
X67062Y80675*
X67073Y80784*
X67074Y80894*
X67090Y80957*
X67097Y81022*
X67132Y81125*
X67159Y81232*
X67189Y81290*
X67210Y81351*
X67268Y81444*
X67318Y81542*
X67360Y81592*
X67395Y81647*
X67472Y81724*
X67543Y81808*
X67596Y81846*
X67620Y81871*
X67817Y82606*
X67899Y82837*
X67905Y82846*
X67908Y82856*
X68227Y83541*
X68219Y83649*
X68202Y83758*
X68207Y83823*
X68202Y83888*
X68219Y83996*
X68226Y84105*
X68246Y84168*
X68256Y84232*
X68297Y84334*
X68329Y84438*
X68362Y84495*
X68387Y84555*
X68450Y84645*
X68505Y84739*
X68550Y84787*
X68570Y84815*
X68636Y85573*
X68677Y85814*
X68681Y85824*
X68682Y85835*
X68878Y86565*
X68851Y86670*
X68815Y86774*
X68808Y86839*
X68792Y86902*
X68790Y87012*
X68779Y87121*
X68787Y87185*
X68786Y87250*
X68809Y87358*
X68822Y87466*
X68845Y87528*
X68858Y87591*
X68905Y87690*
X68943Y87793*
X68979Y87848*
X68994Y87879*
X68927Y88637*
X68926Y88882*
X68928Y88892*
X68927Y88903*
X68993Y89656*
X68948Y89755*
X68895Y89851*
X68877Y89914*
X68850Y89973*
X68829Y90081*
X68799Y90186*
X68796Y90251*
X68783Y90315*
X68787Y90425*
X68782Y90534*
X68794Y90598*
X68796Y90663*
X68825Y90769*
X68844Y90877*
X68870Y90937*
X68879Y90970*
X68682Y91705*
X68638Y91946*
Y91957*
X68636Y91967*
X68570Y92720*
X68509Y92810*
X68440Y92895*
X68411Y92954*
X68374Y93008*
X68335Y93110*
X68287Y93208*
X68273Y93272*
X68249Y93333*
X68234Y93441*
X68210Y93548*
Y93613*
X68201Y93678*
X68211Y93787*
Y93897*
X68227Y93960*
X68230Y93995*
X67908Y94684*
X67823Y94914*
X67821Y94924*
X67817Y94934*
X67621Y95664*
X67545Y95742*
X67463Y95814*
X67424Y95867*
X67379Y95913*
X67322Y96007*
X67258Y96096*
X67232Y96156*
X67199Y96212*
X67165Y96316*
X67123Y96417*
X67112Y96481*
X67091Y96543*
X67082Y96653*
X67064Y96761*
X67068Y96826*
X67065Y96860*
X66628Y97484*
X66504Y97695*
X66501Y97705*
X66495Y97714*
X66176Y98399*
X66087Y98462*
X65993Y98519*
X65947Y98564*
X65894Y98602*
X65822Y98685*
X65743Y98761*
X65707Y98816*
X65665Y98865*
X65613Y98962*
X65554Y99054*
X65532Y99115*
X65501Y99173*
X65473Y99279*
X65436Y99382*
X65429Y99447*
X65420Y99480*
X64882Y100018*
X64723Y100204*
X64718Y100214*
X64711Y100222*
X64278Y100841*
X64179Y100888*
X64077Y100927*
X64023Y100964*
X63964Y100992*
X63879Y101061*
X63788Y101122*
X63744Y101170*
X63693Y101211*
X63626Y101297*
X63551Y101378*
X63519Y101435*
X63479Y101486*
X63433Y101585*
X63378Y101681*
X63360Y101743*
X63345Y101774*
X62722Y102211*
X62533Y102367*
X62527Y102375*
X62518Y102382*
X61984Y102916*
X61879Y102946*
X61771Y102966*
X61712Y102993*
X61649Y103011*
X61553Y103064*
X61453Y103108*
X61401Y103148*
X61344Y103179*
X61262Y103253*
X61175Y103319*
X61133Y103369*
X61085Y103413*
X61023Y103502*
X60952Y103587*
X60923Y103645*
X60904Y103674*
X60214Y103995*
X60001Y104116*
X59993Y104123*
X59984Y104128*
X59365Y104562*
X59256Y104573*
X59146Y104574*
X59083Y104590*
X59018Y104597*
X58915Y104632*
X58808Y104659*
X58750Y104689*
X58689Y104710*
X58596Y104768*
X58498Y104818*
X58448Y104860*
X58393Y104895*
X58316Y104972*
X58232Y105043*
X58194Y105096*
X58169Y105120*
X57434Y105317*
X57203Y105399*
X57194Y105405*
X57184Y105408*
X56499Y105727*
X56391Y105719*
X56282Y105702*
X56217Y105707*
X56152Y105702*
X56044Y105719*
X55935Y105726*
X55872Y105746*
X55808Y105756*
X55706Y105797*
X55602Y105829*
X55545Y105862*
X55485Y105887*
X55395Y105950*
X55301Y106005*
X55253Y106050*
X55225Y106070*
X54467Y106136*
X54226Y106177*
X54216Y106181*
X54205Y106182*
X53475Y106378*
X53370Y106351*
X53266Y106315*
X53201Y106308*
X53138Y106292*
X53028Y106290*
X52919Y106279*
X52855Y106287*
X52790Y106286*
X52682Y106309*
X52574Y106322*
X52512Y106345*
X52449Y106358*
X52350Y106405*
X52247Y106443*
X52192Y106479*
X52161Y106494*
X51403Y106427*
X51158Y106426*
X51148Y106428*
X51137Y106427*
X50384Y106493*
X50285Y106448*
X50189Y106395*
X50126Y106377*
X50067Y106350*
X49959Y106329*
X49854Y106299*
X49789Y106296*
X49725Y106283*
X49615Y106287*
X49506Y106282*
X49442Y106294*
X49377Y106296*
X49271Y106325*
X49163Y106344*
X49103Y106370*
X49070Y106379*
X48335Y106182*
X48094Y106138*
X48083*
X48073Y106136*
X47320Y106070*
X47230Y106009*
X47145Y105940*
X47086Y105911*
X47032Y105874*
X46930Y105835*
X46832Y105787*
X46768Y105773*
X46707Y105749*
X46599Y105734*
X46492Y105710*
X46427*
X46362Y105701*
X46253Y105711*
X46143*
X46080Y105727*
X46045Y105730*
X45356Y105408*
X45126Y105323*
X45116Y105321*
X45106Y105317*
X44376Y105121*
X44298Y105045*
X44226Y104963*
X44173Y104924*
X44127Y104879*
X44033Y104822*
X43944Y104758*
X43884Y104732*
X43828Y104699*
X43724Y104665*
X43623Y104623*
X43559Y104612*
X43497Y104591*
X43387Y104582*
X43279Y104564*
X43214Y104568*
X43180Y104565*
X42556Y104128*
X42345Y104004*
X42335Y104001*
X42326Y103995*
X41641Y103676*
X41578Y103587*
X41521Y103493*
X41476Y103447*
X41438Y103394*
X41355Y103322*
X41279Y103243*
X41224Y103207*
X41175Y103165*
X41078Y103113*
X40986Y103054*
X40925Y103032*
X40867Y103001*
X40761Y102973*
X40658Y102936*
X40593Y102929*
X40560Y102920*
X40022Y102382*
X39836Y102223*
X39826Y102218*
X39818Y102211*
X39199Y101777*
X39152Y101679*
X39113Y101577*
X39076Y101523*
X39048Y101464*
X38979Y101379*
X38918Y101288*
X38870Y101244*
X38829Y101193*
X38743Y101126*
X38662Y101051*
X38605Y101019*
X38554Y100979*
X38455Y100933*
X38359Y100878*
X38297Y100860*
X38266Y100845*
X37829Y100222*
X37673Y100033*
X37665Y100026*
X37658Y100018*
X37124Y99484*
X37094Y99379*
X37074Y99271*
X37047Y99212*
X37029Y99149*
X36976Y99053*
X36932Y98953*
X36892Y98901*
X36861Y98844*
X36787Y98762*
X36721Y98675*
X36671Y98633*
X36627Y98585*
X36538Y98523*
X36453Y98452*
X36395Y98423*
X36366Y98404*
X36045Y97714*
X35924Y97501*
X35917Y97493*
X35912Y97484*
X35478Y96865*
X35467Y96756*
X35466Y96646*
X35450Y96583*
X35443Y96518*
X35408Y96415*
X35381Y96308*
X35351Y96250*
X35330Y96189*
X35272Y96096*
X35222Y95998*
X35180Y95948*
X35145Y95893*
X35068Y95816*
X34997Y95732*
X34944Y95694*
X34920Y95669*
X34723Y94934*
X34641Y94703*
X34635Y94694*
X34632Y94684*
X34313Y93999*
X34321Y93891*
X34338Y93782*
X34333Y93717*
X34338Y93652*
X34321Y93544*
X34314Y93435*
X34294Y93372*
X34284Y93308*
X34243Y93206*
X34211Y93102*
X34178Y93045*
X34153Y92985*
X34090Y92895*
X34035Y92801*
X33990Y92753*
X33970Y92725*
X33904Y91967*
X33863Y91726*
X33859Y91716*
X33858Y91705*
X33662Y90975*
X33689Y90870*
X33725Y90766*
X33732Y90701*
X33748Y90638*
X33750Y90528*
X33761Y90419*
X33753Y90355*
X33754Y90290*
X33731Y90182*
X33718Y90074*
X33695Y90012*
X33682Y89949*
X33635Y89850*
X33597Y89747*
X33561Y89692*
X33546Y89661*
X33613Y88903*
G37*
G36*
X58613Y251403D02*
G01X58614Y251158D01*
X58612Y251148*
X58613Y251137*
X58547Y250384*
X58592Y250285*
X58645Y250189*
X58663Y250126*
X58690Y250067*
X58711Y249959*
X58741Y249854*
X58744Y249789*
X58757Y249725*
X58753Y249615*
X58758Y249506*
X58746Y249442*
X58744Y249377*
X58715Y249271*
X58696Y249163*
X58670Y249103*
X58661Y249070*
X58858Y248335*
X58902Y248094*
Y248084*
X58904Y248073*
X58970Y247320*
X59031Y247230*
X59100Y247145*
X59129Y247086*
X59166Y247032*
X59205Y246930*
X59253Y246832*
X59268Y246768*
X59291Y246707*
X59306Y246599*
X59330Y246492*
Y246427*
X59339Y246362*
X59329Y246253*
Y246143*
X59314Y246080*
X59310Y246045*
X59632Y245356*
X59717Y245126*
X59719Y245116*
X59723Y245106*
X59919Y244376*
X59995Y244298*
X60077Y244226*
X60116Y244173*
X60161Y244127*
X60218Y244033*
X60282Y243944*
X60308Y243884*
X60341Y243828*
X60375Y243724*
X60417Y243623*
X60428Y243559*
X60449Y243497*
X60458Y243387*
X60476Y243279*
X60472Y243214*
X60475Y243180*
X60912Y242556*
X61036Y242345*
X61039Y242335*
X61045Y242326*
X61364Y241641*
X61453Y241578*
X61547Y241521*
X61593Y241476*
X61646Y241438*
X61718Y241355*
X61797Y241279*
X61833Y241224*
X61875Y241175*
X61927Y241078*
X61986Y240986*
X62008Y240925*
X62039Y240867*
X62067Y240761*
X62104Y240658*
X62111Y240593*
X62120Y240560*
X62658Y240022*
X62817Y239836*
X62822Y239826*
X62829Y239818*
X63262Y239199*
X63361Y239152*
X63463Y239113*
X63517Y239076*
X63576Y239048*
X63661Y238979*
X63752Y238918*
X63796Y238870*
X63847Y238829*
X63914Y238743*
X63989Y238662*
X64021Y238605*
X64061Y238554*
X64107Y238455*
X64162Y238359*
X64180Y238297*
X64195Y238266*
X64818Y237829*
X65007Y237673*
X65013Y237665*
X65022Y237658*
X65556Y237124*
X65661Y237094*
X65769Y237074*
X65828Y237047*
X65891Y237029*
X65987Y236976*
X66087Y236932*
X66139Y236892*
X66196Y236861*
X66278Y236787*
X66365Y236721*
X66407Y236671*
X66455Y236627*
X66517Y236538*
X66588Y236453*
X66617Y236395*
X66636Y236366*
X67326Y236045*
X67539Y235924*
X67547Y235917*
X67556Y235912*
X68175Y235478*
X68284Y235467*
X68394Y235466*
X68457Y235450*
X68522Y235443*
X68625Y235408*
X68732Y235381*
X68790Y235351*
X68851Y235330*
X68944Y235272*
X69042Y235222*
X69092Y235180*
X69147Y235145*
X69224Y235068*
X69308Y234997*
X69346Y234944*
X69371Y234920*
X70106Y234723*
X70337Y234641*
X70346Y234635*
X70356Y234632*
X71041Y234313*
X71149Y234321*
X71258Y234338*
X71323Y234333*
X71388Y234338*
X71496Y234321*
X71605Y234314*
X71668Y234294*
X71732Y234284*
X71834Y234243*
X71938Y234211*
X71995Y234178*
X72055Y234153*
X72145Y234090*
X72239Y234035*
X72287Y233990*
X72315Y233970*
X73073Y233904*
X73314Y233863*
X73324Y233859*
X73335Y233858*
X74065Y233662*
X74170Y233689*
X74274Y233725*
X74339Y233732*
X74402Y233748*
X74512Y233750*
X74621Y233761*
X74685Y233753*
X74750Y233754*
X74858Y233731*
X74966Y233718*
X75028Y233695*
X75091Y233682*
X75190Y233635*
X75293Y233597*
X75348Y233561*
X75379Y233546*
X76137Y233613*
X76382Y233614*
X76392Y233612*
X76403Y233613*
X77156Y233547*
X77255Y233592*
X77351Y233645*
X77414Y233663*
X77473Y233690*
X77581Y233711*
X77686Y233741*
X77751Y233744*
X77815Y233757*
X77925Y233753*
X78034Y233758*
X78098Y233746*
X78163Y233744*
X78269Y233715*
X78377Y233696*
X78437Y233670*
X78470Y233661*
X79205Y233858*
X79446Y233902*
X79456*
X79467Y233904*
X80220Y233970*
X80310Y234031*
X80395Y234100*
X80454Y234129*
X80508Y234166*
X80610Y234205*
X80708Y234253*
X80772Y234267*
X80833Y234291*
X80941Y234306*
X81048Y234330*
X81113*
X81178Y234339*
X81287Y234329*
X81397*
X81460Y234313*
X81495Y234310*
X82184Y234632*
X82414Y234717*
X82424Y234719*
X82434Y234723*
X83164Y234919*
X83242Y234995*
X83314Y235077*
X83367Y235116*
X83413Y235161*
X83507Y235218*
X83596Y235282*
X83656Y235308*
X83712Y235341*
X83816Y235375*
X83917Y235417*
X83981Y235428*
X84043Y235449*
X84153Y235458*
X84261Y235476*
X84326Y235472*
X84360Y235475*
X84984Y235912*
X85195Y236036*
X85205Y236039*
X85214Y236045*
X85899Y236364*
X85962Y236453*
X86019Y236547*
X86064Y236593*
X86102Y236646*
X86185Y236718*
X86261Y236797*
X86316Y236833*
X86365Y236875*
X86462Y236927*
X86554Y236986*
X86615Y237008*
X86673Y237039*
X86779Y237067*
X86882Y237104*
X86947Y237111*
X86980Y237120*
X87518Y237658*
X87704Y237817*
X87714Y237822*
X87722Y237829*
X88341Y238262*
X88388Y238361*
X88427Y238463*
X88464Y238517*
X88492Y238576*
X88561Y238661*
X88622Y238752*
X88670Y238796*
X88711Y238847*
X88797Y238914*
X88878Y238989*
X88935Y239021*
X88986Y239061*
X89085Y239107*
X89181Y239162*
X89243Y239180*
X89274Y239195*
X89711Y239818*
X89867Y240007*
X89875Y240013*
X89882Y240022*
X90416Y240556*
X90446Y240661*
X90466Y240769*
X90493Y240828*
X90511Y240891*
X90564Y240987*
X90608Y241087*
X90648Y241139*
X90679Y241196*
X90753Y241278*
X90819Y241365*
X90869Y241407*
X90913Y241455*
X91002Y241517*
X91087Y241588*
X91145Y241617*
X91174Y241636*
X91495Y242326*
X91616Y242539*
X91623Y242547*
X91628Y242556*
X92062Y243175*
X92073Y243284*
X92074Y243394*
X92090Y243457*
X92097Y243522*
X92132Y243625*
X92159Y243732*
X92189Y243790*
X92210Y243851*
X92268Y243944*
X92318Y244042*
X92360Y244092*
X92395Y244147*
X92472Y244224*
X92543Y244308*
X92596Y244346*
X92620Y244371*
X92817Y245106*
X92899Y245337*
X92905Y245346*
X92908Y245356*
X93227Y246041*
X93219Y246149*
X93202Y246258*
X93207Y246323*
X93202Y246388*
X93219Y246496*
X93226Y246605*
X93246Y246668*
X93256Y246732*
X93297Y246834*
X93329Y246938*
X93362Y246995*
X93387Y247055*
X93450Y247145*
X93505Y247239*
X93550Y247287*
X93570Y247315*
X93636Y248073*
X93677Y248314*
X93681Y248324*
X93682Y248335*
X93878Y249065*
X93851Y249170*
X93815Y249274*
X93808Y249339*
X93792Y249402*
X93790Y249512*
X93779Y249621*
X93787Y249685*
X93786Y249750*
X93809Y249858*
X93822Y249966*
X93845Y250028*
X93858Y250091*
X93905Y250190*
X93943Y250293*
X93979Y250348*
X93994Y250379*
X93927Y251137*
X93926Y251382*
X93928Y251392*
X93927Y251403*
X93993Y252156*
X93948Y252255*
X93895Y252351*
X93877Y252414*
X93850Y252473*
X93829Y252581*
X93799Y252686*
X93796Y252751*
X93783Y252815*
X93787Y252925*
X93782Y253034*
X93794Y253098*
X93796Y253163*
X93825Y253269*
X93844Y253377*
X93870Y253437*
X93879Y253470*
X93682Y254205*
X93638Y254446*
Y254457*
X93636Y254467*
X93570Y255220*
X93509Y255310*
X93440Y255395*
X93411Y255454*
X93374Y255508*
X93335Y255610*
X93287Y255708*
X93273Y255772*
X93249Y255833*
X93234Y255941*
X93210Y256048*
Y256113*
X93201Y256178*
X93211Y256287*
Y256397*
X93227Y256460*
X93230Y256495*
X92908Y257184*
X92823Y257414*
X92821Y257424*
X92817Y257434*
X92621Y258164*
X92545Y258242*
X92463Y258314*
X92424Y258367*
X92379Y258413*
X92322Y258507*
X92258Y258596*
X92232Y258656*
X92199Y258712*
X92165Y258816*
X92123Y258917*
X92112Y258981*
X92091Y259043*
X92082Y259153*
X92064Y259261*
X92068Y259326*
X92065Y259360*
X91628Y259984*
X91504Y260195*
X91501Y260205*
X91495Y260214*
X91176Y260899*
X91087Y260962*
X90993Y261019*
X90947Y261064*
X90894Y261102*
X90822Y261185*
X90743Y261261*
X90707Y261316*
X90665Y261365*
X90613Y261462*
X90554Y261554*
X90532Y261615*
X90501Y261673*
X90473Y261779*
X90436Y261882*
X90429Y261947*
X90420Y261980*
X89882Y262518*
X89723Y262704*
X89718Y262714*
X89711Y262722*
X89278Y263341*
X89179Y263388*
X89077Y263427*
X89023Y263464*
X88964Y263492*
X88879Y263561*
X88788Y263622*
X88744Y263670*
X88693Y263711*
X88626Y263797*
X88551Y263878*
X88519Y263935*
X88479Y263986*
X88433Y264085*
X88378Y264181*
X88360Y264243*
X88345Y264274*
X87722Y264711*
X87533Y264867*
X87526Y264875*
X87518Y264882*
X86984Y265416*
X86879Y265446*
X86771Y265466*
X86712Y265493*
X86649Y265511*
X86553Y265564*
X86453Y265608*
X86401Y265648*
X86344Y265679*
X86262Y265753*
X86175Y265819*
X86133Y265869*
X86085Y265913*
X86023Y266002*
X85952Y266087*
X85923Y266145*
X85904Y266174*
X85214Y266495*
X85001Y266616*
X84993Y266623*
X84984Y266628*
X84365Y267062*
X84256Y267073*
X84146Y267074*
X84083Y267090*
X84018Y267097*
X83915Y267132*
X83808Y267159*
X83750Y267189*
X83689Y267210*
X83596Y267268*
X83498Y267318*
X83448Y267360*
X83393Y267395*
X83316Y267472*
X83232Y267543*
X83194Y267596*
X83169Y267620*
X82434Y267817*
X82203Y267899*
X82194Y267905*
X82184Y267908*
X81499Y268227*
X81391Y268219*
X81282Y268202*
X81217Y268207*
X81152Y268202*
X81044Y268219*
X80935Y268226*
X80872Y268246*
X80808Y268256*
X80706Y268297*
X80602Y268329*
X80545Y268362*
X80485Y268387*
X80395Y268450*
X80301Y268505*
X80253Y268550*
X80225Y268570*
X79467Y268636*
X79226Y268677*
X79216Y268681*
X79205Y268682*
X78475Y268878*
X78370Y268851*
X78266Y268815*
X78201Y268808*
X78138Y268792*
X78028Y268790*
X77919Y268779*
X77855Y268787*
X77790Y268786*
X77682Y268809*
X77574Y268822*
X77512Y268845*
X77449Y268858*
X77350Y268905*
X77247Y268943*
X77192Y268979*
X77161Y268994*
X76403Y268927*
X76158Y268926*
X76148Y268928*
X76137Y268927*
X75384Y268993*
X75285Y268948*
X75189Y268895*
X75126Y268877*
X75067Y268850*
X74959Y268829*
X74854Y268799*
X74789Y268796*
X74725Y268783*
X74615Y268787*
X74506Y268782*
X74442Y268794*
X74377Y268796*
X74271Y268825*
X74163Y268844*
X74103Y268870*
X74070Y268879*
X73335Y268682*
X73094Y268638*
X73083*
X73073Y268636*
X72320Y268570*
X72230Y268509*
X72145Y268440*
X72086Y268411*
X72032Y268374*
X71930Y268335*
X71832Y268287*
X71768Y268273*
X71707Y268249*
X71599Y268234*
X71492Y268210*
X71427*
X71362Y268201*
X71253Y268211*
X71143*
X71080Y268227*
X71045Y268230*
X70356Y267908*
X70126Y267823*
X70116Y267821*
X70106Y267817*
X69376Y267621*
X69298Y267545*
X69226Y267463*
X69173Y267424*
X69127Y267379*
X69033Y267322*
X68944Y267258*
X68884Y267232*
X68828Y267199*
X68724Y267165*
X68623Y267123*
X68559Y267112*
X68497Y267091*
X68387Y267082*
X68279Y267064*
X68214Y267068*
X68180Y267065*
X67556Y266628*
X67345Y266504*
X67335Y266501*
X67326Y266495*
X66641Y266176*
X66578Y266087*
X66521Y265993*
X66476Y265947*
X66438Y265894*
X66355Y265822*
X66279Y265743*
X66224Y265707*
X66175Y265665*
X66078Y265613*
X65986Y265554*
X65925Y265532*
X65867Y265501*
X65761Y265473*
X65658Y265436*
X65593Y265429*
X65560Y265420*
X65022Y264882*
X64836Y264723*
X64826Y264718*
X64818Y264711*
X64199Y264277*
X64152Y264179*
X64113Y264077*
X64076Y264023*
X64048Y263964*
X63979Y263879*
X63918Y263788*
X63870Y263744*
X63829Y263693*
X63743Y263626*
X63662Y263551*
X63605Y263519*
X63554Y263479*
X63455Y263433*
X63359Y263378*
X63297Y263360*
X63266Y263345*
X62829Y262722*
X62673Y262533*
X62665Y262526*
X62658Y262518*
X62124Y261984*
X62094Y261879*
X62074Y261771*
X62047Y261712*
X62029Y261649*
X61976Y261553*
X61932Y261453*
X61892Y261401*
X61861Y261344*
X61787Y261262*
X61721Y261175*
X61671Y261133*
X61627Y261085*
X61538Y261023*
X61453Y260952*
X61395Y260923*
X61366Y260904*
X61045Y260214*
X60924Y260001*
X60917Y259993*
X60912Y259984*
X60478Y259365*
X60467Y259256*
X60466Y259146*
X60450Y259083*
X60443Y259018*
X60408Y258915*
X60381Y258808*
X60351Y258750*
X60330Y258689*
X60272Y258596*
X60222Y258498*
X60180Y258448*
X60145Y258393*
X60068Y258316*
X59997Y258232*
X59944Y258194*
X59920Y258169*
X59723Y257434*
X59641Y257203*
X59635Y257194*
X59632Y257184*
X59313Y256499*
X59321Y256391*
X59338Y256282*
X59333Y256217*
X59338Y256152*
X59321Y256044*
X59314Y255935*
X59294Y255872*
X59284Y255808*
X59243Y255706*
X59211Y255602*
X59178Y255545*
X59153Y255485*
X59090Y255395*
X59035Y255301*
X58990Y255253*
X58970Y255225*
X58904Y254467*
X58863Y254226*
X58859Y254216*
X58858Y254205*
X58662Y253475*
X58689Y253369*
X58725Y253266*
X58732Y253201*
X58748Y253138*
X58750Y253028*
X58761Y252919*
X58753Y252855*
X58754Y252790*
X58731Y252682*
X58718Y252574*
X58695Y252512*
X58682Y252449*
X58635Y252350*
X58597Y252247*
X58561Y252192*
X58546Y252161*
X58613Y251403*
G37*
G36*
X67369Y175141D02*
G01X68541Y173969D01*
X71822*
X72066Y173950*
X72091Y173942*
X72117Y173940*
X72258Y173895*
X72401Y173855*
X72424Y173842*
X72449Y173834*
X72576Y173758*
X72706Y173686*
X72726Y173669*
X72748Y173655*
X72855Y173552*
X72965Y173453*
X72980Y173431*
X72999Y173413*
X73079Y173288*
X73164Y173167*
X73174Y173142*
X73188Y173120*
X73238Y172981*
X73293Y172843*
X73297Y172817*
X73305Y172792*
X73322Y172645*
X73344Y172498*
X73342Y172472*
X73345Y172446*
Y165111*
Y165110*
X75410Y163045*
X146222*
X146466Y163026*
X146491Y163018*
X146517Y163016*
X146658Y162971*
X146801Y162931*
X146824Y162918*
X146849Y162910*
X146976Y162834*
X147106Y162762*
X147126Y162745*
X147148Y162731*
X147255Y162628*
X147365Y162529*
X147380Y162507*
X147399Y162489*
X147479Y162364*
X147564Y162243*
X147574Y162218*
X147588Y162196*
X147638Y162057*
X147693Y161919*
X147697Y161893*
X147705Y161868*
X147722Y161721*
X147744Y161574*
X147742Y161548*
X147745Y161522*
Y126366*
X147743Y126337*
X147745Y126318*
X147738Y126271*
X147726Y126122*
X147705Y126049*
X147694Y125973*
X147658Y125882*
X147631Y125787*
X147594Y125720*
X147566Y125649*
X147510Y125568*
X147462Y125482*
X147411Y125425*
X147368Y125362*
X147295Y125296*
X147229Y125223*
X147166Y125179*
X147110Y125128*
X147024Y125080*
X146943Y125024*
X146872Y124996*
X146805Y124959*
X145389Y124372*
X142468Y121451*
X140887Y117635*
Y113505*
X142468Y109689*
X145389Y106768*
X149205Y105187*
X153335*
X157151Y106768*
X160072Y109689*
X161653Y113505*
Y117635*
X160072Y121451*
X157151Y124372*
X155735Y124959*
X155709Y124972*
X155691Y124978*
X155651Y125002*
X155517Y125070*
X155457Y125118*
X155392Y125157*
X155321Y125225*
X155244Y125286*
X155196Y125346*
X155141Y125399*
X155088Y125482*
X155026Y125558*
X154994Y125628*
X154952Y125692*
X154919Y125784*
X154877Y125873*
X154860Y125948*
X154835Y126020*
X154823Y126117*
X154802Y126214*
X154803Y126290*
X154795Y126366*
Y161522*
X154814Y161766*
X154822Y161791*
X154824Y161817*
X154869Y161958*
X154909Y162101*
X154922Y162124*
X154930Y162149*
X155006Y162276*
X155078Y162406*
X155095Y162426*
X155109Y162448*
X155212Y162555*
X155311Y162665*
X155333Y162680*
X155351Y162699*
X155476Y162779*
X155597Y162864*
X155622Y162874*
X155644Y162888*
X155783Y162938*
X155921Y162993*
X155947Y162997*
X155972Y163005*
X156119Y163022*
X156266Y163044*
X156292Y163042*
X156318Y163045*
X179929*
X179930*
X181995Y165110*
Y180730*
X176628Y186097*
X176627*
X176164*
X175921Y186116*
X175872Y186130*
X175821Y186136*
X175704Y186177*
X175585Y186211*
X175541Y186236*
X175493Y186253*
X175389Y186320*
X175280Y186380*
X175242Y186414*
X175199Y186441*
X175113Y186530*
X175021Y186613*
X174992Y186655*
X174957Y186692*
X174893Y186798*
X174822Y186899*
X174804Y186947*
X174777Y186990*
X174739Y187108*
X174694Y187223*
X174686Y187274*
X174671Y187322*
X174660Y187445*
X174642Y187568*
X174646Y187619*
X174642Y187669*
X174660Y187792*
X174670Y187915*
X174686Y187964*
X174693Y188014*
X174915Y188841*
Y190447*
X165008*
X155101*
Y188841*
X155274Y188195*
X155557Y187707*
X155661Y187486*
X155662Y187484*
Y187483*
X155706Y187311*
X155747Y187148*
Y187147*
Y187145*
X155750Y186968*
X155754Y186800*
X155753Y186798*
Y186797*
X155717Y186626*
X155681Y186459*
X155680Y186457*
Y186456*
X155641Y186374*
Y178950*
Y178949*
X156813Y177777*
X173422*
X173666Y177758*
X173691Y177750*
X173717Y177748*
X173858Y177703*
X174001Y177663*
X174024Y177650*
X174049Y177642*
X174176Y177566*
X174306Y177494*
X174326Y177477*
X174348Y177463*
X174455Y177360*
X174565Y177261*
X174580Y177239*
X174599Y177221*
X174679Y177096*
X174764Y176975*
X174774Y176950*
X174788Y176928*
X174838Y176789*
X174893Y176651*
X174897Y176625*
X174905Y176600*
X174922Y176453*
X174944Y176306*
X174942Y176280*
X174945Y176254*
Y171618*
X174926Y171374*
X174918Y171349*
X174916Y171323*
X174871Y171182*
X174831Y171039*
X174818Y171016*
X174810Y170991*
X174734Y170864*
X174662Y170734*
X174645Y170714*
X174631Y170692*
X174528Y170585*
X174429Y170475*
X174407Y170460*
X174389Y170441*
X174264Y170361*
X174143Y170276*
X174118Y170266*
X174096Y170252*
X173957Y170202*
X173819Y170147*
X173793Y170143*
X173768Y170135*
X173621Y170118*
X173474Y170096*
X173448Y170098*
X173422Y170095*
X107318*
X107074Y170114*
X107049Y170122*
X107023Y170124*
X106882Y170169*
X106739Y170209*
X106716Y170222*
X106691Y170230*
X106564Y170306*
X106434Y170378*
X106414Y170395*
X106392Y170409*
X106285Y170512*
X106175Y170611*
X106160Y170633*
X106141Y170651*
X106061Y170776*
X105976Y170897*
X105966Y170922*
X105952Y170944*
X105902Y171083*
X105847Y171221*
X105843Y171247*
X105835Y171272*
X105818Y171419*
X105796Y171566*
X105798Y171592*
X105795Y171618*
Y172446*
X105814Y172690*
X105822Y172715*
X105824Y172741*
X105869Y172882*
X105909Y173025*
X105922Y173048*
X105930Y173073*
X106006Y173200*
X106078Y173330*
X106095Y173350*
X106109Y173372*
X106212Y173479*
X106311Y173589*
X106333Y173604*
X106351Y173623*
X106476Y173703*
X106597Y173788*
X106622Y173798*
X106644Y173812*
X106783Y173862*
X106921Y173917*
X106947Y173921*
X106972Y173929*
X107119Y173946*
X107266Y173968*
X107292Y173966*
X107318Y173969*
X110598*
X110599*
X111771Y175141*
Y189799*
X110677Y190893*
X110518Y191079*
X110505Y191102*
X110488Y191122*
X110420Y191254*
X110348Y191383*
X110341Y191409*
X110329Y191432*
X110292Y191576*
X110251Y191718*
X110250Y191744*
X110244Y191770*
X110241Y191918*
X110233Y192066*
X110238Y192092*
Y192118*
X110269Y192263*
X110295Y192409*
X110305Y192433*
X110311Y192459*
X110374Y192593*
X110433Y192729*
X110449Y192750*
X110460Y192774*
X110552Y192890*
X110640Y193010*
X110660Y193027*
X110677Y193047*
X111771Y194141*
Y208799*
X110599Y209971*
X110598*
X107318*
X107074Y209990*
X107049Y209998*
X107023Y210000*
X106882Y210045*
X106739Y210085*
X106716Y210098*
X106691Y210106*
X106564Y210182*
X106434Y210254*
X106414Y210271*
X106392Y210285*
X106285Y210388*
X106175Y210487*
X106160Y210509*
X106141Y210527*
X106061Y210652*
X105976Y210773*
X105966Y210798*
X105952Y210820*
X105902Y210959*
X105847Y211097*
X105843Y211123*
X105835Y211148*
X105818Y211295*
X105796Y211442*
X105798Y211468*
X105795Y211494*
Y212322*
X105814Y212566*
X105822Y212591*
X105824Y212617*
X105869Y212758*
X105909Y212901*
X105922Y212924*
X105930Y212949*
X106006Y213076*
X106078Y213206*
X106095Y213226*
X106109Y213248*
X106212Y213355*
X106311Y213465*
X106333Y213480*
X106351Y213499*
X106476Y213579*
X106597Y213664*
X106622Y213674*
X106644Y213688*
X106783Y213738*
X106921Y213793*
X106947Y213797*
X106972Y213805*
X107119Y213822*
X107266Y213844*
X107292Y213842*
X107318Y213845*
X122622*
X122866Y213826*
X122891Y213818*
X122917Y213816*
X123058Y213771*
X123201Y213731*
X123224Y213718*
X123249Y213710*
X123376Y213634*
X123506Y213562*
X123526Y213545*
X123548Y213531*
X123655Y213428*
X123765Y213329*
X123780Y213307*
X123799Y213289*
X123880Y213164*
X123964Y213043*
X123974Y213018*
X123988Y212996*
X124038Y212857*
X124093Y212719*
X124097Y212693*
X124105Y212668*
X124122Y212521*
X124144Y212374*
X124142Y212348*
X124145Y212322*
Y203211*
Y203210*
X129512Y197843*
X131036*
X131137Y197835*
X131185Y197836*
X131219Y197829*
X131280Y197824*
X131402Y197789*
X131525Y197763*
X131569Y197742*
X131616Y197729*
X131726Y197668*
X131840Y197614*
X131878Y197584*
X131921Y197560*
X132014Y197476*
X132113Y197397*
X132937Y196573*
X149326*
X149327*
X150499Y197745*
Y204991*
X149327Y206163*
X149326*
X132718*
X132474Y206182*
X132449Y206190*
X132423Y206192*
X132282Y206237*
X132139Y206277*
X132116Y206290*
X132091Y206298*
X131964Y206374*
X131834Y206446*
X131814Y206463*
X131792Y206477*
X131685Y206580*
X131575Y206679*
X131560Y206701*
X131541Y206719*
X131461Y206844*
X131376Y206965*
X131366Y206990*
X131352Y207012*
X131302Y207151*
X131247Y207289*
X131243Y207315*
X131235Y207340*
X131218Y207487*
X131196Y207634*
X131198Y207660*
X131195Y207686*
Y211679*
X131203Y211779*
X131202Y211827*
X131209Y211862*
X131214Y211923*
X131249Y212045*
X131275Y212168*
X131296Y212212*
X131309Y212258*
X131370Y212369*
X131424Y212483*
X131454Y212521*
X131478Y212563*
X131562Y212657*
X131641Y212756*
X177084Y258199*
X179178Y260293*
X179364Y260451*
X179366Y260452*
X179367Y260454*
X179368*
X179516Y260536*
X179668Y260622*
X179669*
X179670*
X179672Y260623*
X180800Y261091*
X183149Y263440*
X184421Y266509*
Y269831*
X183149Y272900*
X180800Y275249*
X177731Y276521*
X174409*
X171340Y275249*
X168991Y272900*
X167719Y269831*
Y266509*
X168991Y263440*
X169596Y262835*
X169754Y262648*
X169767Y262625*
X169784Y262605*
X169852Y262473*
X169924Y262344*
X169932Y262319*
X169944Y262296*
X169980Y262151*
X170021Y262009*
X170022Y261983*
X170029Y261958*
X170031Y261810*
X170039Y261661*
X170034Y261635*
X170035Y261609*
X170004Y261465*
X169977Y261318*
X169967Y261294*
X169961Y261269*
X169898Y261135*
X169839Y260998*
X169824Y260977*
X169812Y260953*
X169720Y260837*
X169632Y260718*
X169612Y260701*
X169596Y260680*
X130256Y221341*
X130180Y221276*
X130146Y221241*
X130116Y221222*
X130070Y221182*
X129960Y221121*
X129853Y221052*
X129808Y221036*
X129766Y221012*
X129644Y220977*
X129525Y220935*
X129477Y220929*
X129431Y220916*
X129305Y220909*
X129179Y220895*
X75410*
X73345Y218830*
Y218829*
Y211494*
X73326Y211250*
X73318Y211225*
X73316Y211199*
X73271Y211058*
X73231Y210915*
X73218Y210892*
X73210Y210867*
X73134Y210740*
X73062Y210610*
X73045Y210590*
X73031Y210568*
X72928Y210461*
X72829Y210351*
X72807Y210336*
X72789Y210317*
X72664Y210237*
X72543Y210152*
X72518Y210142*
X72496Y210128*
X72357Y210078*
X72219Y210023*
X72193Y210019*
X72168Y210011*
X72021Y209994*
X71874Y209972*
X71848Y209974*
X71822Y209971*
X68541*
X67369Y208799*
Y208798*
Y194142*
Y194141*
X68463Y193047*
X68622Y192861*
X68635Y192838*
X68652Y192818*
X68720Y192686*
X68792Y192557*
X68799Y192531*
X68811Y192508*
X68848Y192364*
X68889Y192222*
X68890Y192196*
X68896Y192170*
X68899Y192022*
X68907Y191874*
X68902Y191848*
Y191822*
X68871Y191677*
X68845Y191531*
X68834Y191507*
X68829Y191481*
X68766Y191347*
X68707Y191211*
X68691Y191190*
X68680Y191166*
X68588Y191050*
X68500Y190930*
X68480Y190913*
X68463Y190893*
X67369Y189799*
Y189798*
Y175142*
Y175141*
G37*
G36*
X90887Y29559D02*
G01X92059Y28387D01*
X110480*
X110481*
X111653Y29559*
Y47981*
X110481Y49153*
X110480*
X92059*
X90887Y47981*
Y47980*
Y29560*
Y29559*
G37*
G36*
Y106359D02*
G01X92059Y105187D01*
X110480*
X110481*
X111653Y106359*
Y124781*
X110481Y125953*
X110480*
X92059*
X90887Y124781*
Y124780*
Y106360*
Y106359*
G37*
G36*
X115616Y36212D02*
G01X116148Y34577D01*
X116928Y33045*
X117939Y31654*
X119154Y30439*
X120545Y29428*
X122077Y28648*
X123712Y28116*
X124021Y28067*
Y36521*
X115567*
X115616Y36212*
G37*
G36*
X124021Y41019D02*
G01Y49473D01*
X123712Y49424*
X122077Y48892*
X120545Y48112*
X119154Y47101*
X117939Y45886*
X116928Y44495*
X116148Y42963*
X115616Y41328*
X115567Y41019*
X124021*
G37*
G36*
X115616Y113012D02*
G01X116148Y111377D01*
X116928Y109845*
X117939Y108454*
X119154Y107239*
X120545Y106228*
X122077Y105448*
X123712Y104916*
X124021Y104867*
Y113321*
X115567*
X115616Y113012*
G37*
G36*
X124021Y117819D02*
G01Y126273D01*
X123712Y126224*
X122077Y125692*
X120545Y124912*
X119154Y123901*
X117939Y122686*
X116928Y121295*
X116148Y119763*
X115616Y118128*
X115567Y117819*
X124021*
G37*
G36*
X116807Y190820D02*
G01X117688Y188694D01*
X118619Y187763*
X118684Y187686*
X118719Y187653*
X118738Y187623*
X118778Y187577*
X118839Y187466*
X118908Y187360*
X118924Y187315*
X118948Y187272*
X118983Y187151*
X119025Y187032*
X119031Y186984*
X119044Y186938*
X119051Y186811*
X119065Y186686*
Y181112*
X121130Y179047*
X121131*
X131036*
X131137Y179039*
X131185Y179040*
X131219Y179033*
X131280Y179028*
X131402Y178993*
X131525Y178967*
X131569Y178946*
X131615Y178933*
X131726Y178872*
X131840Y178818*
X131878Y178788*
X131921Y178764*
X132014Y178680*
X132113Y178601*
X132937Y177777*
X132938*
X149326*
X149327*
X150499Y178949*
Y186194*
Y186195*
X149327Y187367*
X132937*
X132113Y186543*
X132037Y186478*
X132003Y186443*
X131973Y186424*
X131927Y186384*
X131817Y186323*
X131711Y186254*
X131665Y186238*
X131623Y186214*
X131501Y186179*
X131383Y186137*
X131335Y186131*
X131288Y186118*
X131162Y186111*
X131036Y186097*
X128572*
X128511Y186102*
X128476Y186100*
X128429Y186108*
X128328Y186116*
X128232Y186144*
X128133Y186161*
X128065Y186191*
X127993Y186211*
X127905Y186260*
X127813Y186300*
X127753Y186344*
X127688Y186380*
X127613Y186447*
X127533Y186507*
X127484Y186563*
X127429Y186613*
X127372Y186695*
X127307Y186772*
X127273Y186838*
X127230Y186899*
X127193Y186993*
X127147Y187082*
X127129Y187154*
X127102Y187223*
X127087Y187322*
X127062Y187420*
X127061Y187494*
X127050Y187568*
X127058Y187668*
X127056Y187768*
X127072Y187841*
X127078Y187915*
X127108Y188011*
X127130Y188109*
X127161Y188176*
X127184Y188247*
X127236Y188333*
X127279Y188424*
X127325Y188482*
X127363Y188546*
X127433Y188618*
X127492Y188693*
X128373Y190820*
Y193120*
X127492Y195246*
X125866Y196872*
X123740Y197753*
X121440*
X119314Y196872*
X117688Y195246*
X116807Y193120*
Y190820*
G37*
G36*
X128828Y28116D02*
G01X130463Y28648D01*
X131995Y29428*
X133386Y30439*
X134601Y31654*
X135612Y33045*
X136392Y34577*
X136924Y36212*
X136973Y36521*
X128519*
Y28067*
X128828Y28116*
G37*
G36*
X136973Y41019D02*
G01X136924Y41328D01*
X136392Y42963*
X135612Y44495*
X134601Y45886*
X133386Y47101*
X131995Y48112*
X130463Y48892*
X128828Y49424*
X128519Y49473*
Y41019*
X136973*
G37*
G36*
X128828Y104916D02*
G01X130463Y105448D01*
X131995Y106228*
X133386Y107239*
X134601Y108454*
X135612Y109845*
X136392Y111377*
X136924Y113012*
X136973Y113321*
X128519*
Y104867*
X128828Y104916*
G37*
G36*
X136973Y117819D02*
G01X136924Y118128D01*
X136392Y119763*
X135612Y121295*
X134601Y122686*
X133386Y123901*
X131995Y124912*
X130463Y125692*
X128828Y126224*
X128519Y126273*
Y117819*
X136973*
G37*
G36*
X142468Y32889D02*
G01X145389Y29968D01*
X149205Y28387*
X153335*
X157151Y29968*
X160072Y32889*
X161653Y36705*
Y40835*
X160072Y44651*
X157151Y47572*
X153335Y49153*
X149205*
X145389Y47572*
X142468Y44651*
X140887Y40835*
Y36705*
X142468Y32889*
G37*
G36*
X165008Y193493D02*
G01X174915D01*
Y195099*
X174693Y195926*
X174649Y196166*
X174650Y196217*
X174642Y196268*
X174652Y196391*
X174654Y196515*
X174666Y196564*
X174670Y196615*
X174708Y196733*
X174737Y196853*
X174761Y196899*
X174776Y196947*
X174840Y197053*
X174896Y197163*
X174929Y197202*
X174955Y197246*
X175041Y197335*
X175121Y197430*
X175162Y197460*
X175197Y197497*
X175301Y197564*
X175400Y197638*
X175447Y197658*
X175490Y197686*
X175607Y197728*
X175720Y197777*
X175770Y197786*
X175818Y197803*
X175941Y197818*
X176063Y197840*
X176114Y197837*
X176164Y197843*
X176627*
X176628*
X181995Y203210*
Y212322*
X182014Y212566*
X182022Y212591*
X182024Y212617*
X182069Y212758*
X182109Y212901*
X182122Y212924*
X182130Y212949*
X182206Y213076*
X182278Y213206*
X182295Y213226*
X182309Y213248*
X182412Y213355*
X182511Y213465*
X182533Y213480*
X182551Y213499*
X182676Y213579*
X182797Y213664*
X182822Y213674*
X182844Y213688*
X182983Y213738*
X183121Y213793*
X183147Y213797*
X183172Y213805*
X183319Y213822*
X183466Y213844*
X183492Y213842*
X183518Y213845*
X198822*
X199066Y213826*
X199091Y213818*
X199117Y213816*
X199258Y213771*
X199401Y213731*
X199424Y213718*
X199449Y213710*
X199576Y213634*
X199706Y213562*
X199726Y213545*
X199748Y213531*
X199855Y213428*
X199965Y213329*
X199980Y213307*
X199999Y213289*
X200080Y213164*
X200164Y213043*
X200174Y213018*
X200188Y212996*
X200238Y212857*
X200293Y212719*
X200297Y212693*
X200305Y212668*
X200322Y212521*
X200344Y212374*
X200342Y212348*
X200345Y212322*
Y211494*
X200326Y211250*
X200318Y211225*
X200316Y211199*
X200271Y211058*
X200231Y210915*
X200218Y210892*
X200210Y210867*
X200134Y210740*
X200062Y210610*
X200045Y210590*
X200031Y210568*
X199928Y210461*
X199829Y210351*
X199807Y210336*
X199789Y210317*
X199664Y210237*
X199543Y210152*
X199518Y210142*
X199496Y210128*
X199357Y210078*
X199219Y210023*
X199193Y210019*
X199168Y210011*
X199021Y209994*
X198874Y209972*
X198848Y209974*
X198822Y209971*
X195541*
X194369Y208799*
Y208798*
Y194142*
Y194141*
X195463Y193047*
X195622Y192861*
X195635Y192838*
X195652Y192818*
X195720Y192686*
X195792Y192557*
X195799Y192531*
X195811Y192508*
X195848Y192364*
X195889Y192222*
X195890Y192196*
X195896Y192170*
X195899Y192022*
X195907Y191874*
X195902Y191848*
Y191822*
X195871Y191677*
X195845Y191531*
X195834Y191507*
X195829Y191481*
X195766Y191347*
X195707Y191211*
X195691Y191190*
X195680Y191166*
X195588Y191050*
X195500Y190930*
X195480Y190913*
X195463Y190893*
X194369Y189799*
Y189798*
Y175142*
Y175141*
X195541Y173969*
X198822*
X199066Y173950*
X199091Y173942*
X199117Y173940*
X199258Y173895*
X199401Y173855*
X199424Y173842*
X199449Y173834*
X199576Y173758*
X199706Y173686*
X199726Y173669*
X199748Y173655*
X199855Y173552*
X199965Y173453*
X199980Y173431*
X199999Y173413*
X200079Y173288*
X200164Y173167*
X200174Y173142*
X200188Y173120*
X200238Y172981*
X200293Y172843*
X200297Y172817*
X200305Y172792*
X200322Y172645*
X200344Y172498*
X200342Y172472*
X200345Y172446*
Y165111*
Y165110*
X202410Y163045*
X306929*
X306930*
X308995Y165110*
Y172446*
X309014Y172690*
X309022Y172715*
X309024Y172741*
X309069Y172882*
X309109Y173025*
X309122Y173048*
X309130Y173073*
X309206Y173200*
X309278Y173330*
X309295Y173350*
X309309Y173372*
X309412Y173479*
X309511Y173589*
X309533Y173604*
X309551Y173623*
X309676Y173703*
X309797Y173788*
X309822Y173798*
X309844Y173812*
X309983Y173862*
X310121Y173917*
X310147Y173921*
X310172Y173929*
X310319Y173946*
X310466Y173968*
X310492Y173966*
X310518Y173969*
X313798*
X313799*
X314971Y175141*
Y189799*
X314224Y190546*
X314065Y190732*
X314040Y190777*
X314008Y190817*
X313955Y190928*
X313895Y191036*
X313881Y191085*
X313859Y191131*
X313833Y191252*
X313798Y191371*
X313796Y191422*
X313785Y191472*
X313787Y191596*
X313780Y191719*
X313790Y191769*
Y191820*
X313820Y191941*
X313842Y192062*
X313862Y192109*
X313875Y192159*
X313931Y192269*
X313980Y192382*
X314010Y192423*
X314034Y192469*
X314095Y192541*
X314104Y192557*
X314124Y192577*
X314187Y192662*
X314226Y192696*
X314259Y192734*
X314319Y192779*
X314347Y192807*
X314392Y192836*
X314453Y192888*
X314498Y192912*
X314524Y192931*
X315003Y193410*
X315338Y193989*
X315511Y194635*
Y198423*
X306994*
X306750Y198442*
X306725Y198450*
X306699Y198452*
X306558Y198497*
X306415Y198537*
X306392Y198550*
X306367Y198558*
X306240Y198634*
X306110Y198706*
X306090Y198723*
X306068Y198737*
X305961Y198840*
X305851Y198939*
X305836Y198961*
X305817Y198979*
X305737Y199104*
X305652Y199225*
X305642Y199250*
X305628Y199272*
X305578Y199411*
X305523Y199549*
X305520Y199575*
X305511Y199600*
X305494Y199747*
X305472Y199894*
X305474Y199920*
X305471Y199946*
Y201471*
X305469*
Y199946*
X305450Y199702*
X305442Y199677*
X305440Y199651*
X305395Y199510*
X305355Y199367*
X305342Y199344*
X305334Y199319*
X305258Y199192*
X305186Y199062*
X305169Y199042*
X305155Y199020*
X305052Y198913*
X304953Y198803*
X304931Y198788*
X304913Y198769*
X304788Y198689*
X304667Y198604*
X304642Y198594*
X304620Y198580*
X304481Y198530*
X304343Y198475*
X304317Y198471*
X304292Y198463*
X304145Y198446*
X303998Y198424*
X303972Y198426*
X303946Y198423*
X295429*
Y194635*
X295602Y193989*
X295937Y193410*
X296413Y192934*
X296479Y192888*
X296510Y192871*
X296531Y192853*
X296602Y192803*
X296638Y192767*
X296679Y192736*
X296743Y192661*
X296769Y192637*
X296783Y192617*
X296845Y192553*
X296872Y192510*
X296905Y192471*
X296961Y192361*
X296968Y192351*
X296970Y192347*
X297025Y192255*
X297041Y192206*
X297064Y192161*
X297094Y192041*
X297133Y191923*
X297137Y191873*
X297149Y191823*
X297151Y191700*
X297162Y191576*
X297154Y191526*
X297155Y191475*
X297129Y191354*
X297111Y191231*
X297093Y191184*
X297082Y191134*
X297029Y191022*
X296984Y190907*
X296955Y190865*
X296933Y190819*
X296856Y190722*
X296786Y190620*
X296748Y190586*
X296716Y190546*
X295969Y189799*
Y189798*
Y175142*
Y175141*
X297141Y173969*
X300422*
X300666Y173950*
X300691Y173942*
X300717Y173940*
X300858Y173895*
X301001Y173855*
X301024Y173842*
X301049Y173834*
X301176Y173758*
X301306Y173686*
X301326Y173669*
X301348Y173655*
X301455Y173552*
X301565Y173453*
X301580Y173431*
X301599Y173413*
X301679Y173288*
X301764Y173167*
X301774Y173142*
X301788Y173120*
X301838Y172981*
X301893Y172843*
X301897Y172817*
X301905Y172792*
X301922Y172645*
X301944Y172498*
X301942Y172472*
X301945Y172446*
Y171618*
X301926Y171374*
X301918Y171349*
X301916Y171323*
X301871Y171182*
X301831Y171039*
X301818Y171016*
X301810Y170991*
X301734Y170864*
X301662Y170734*
X301645Y170714*
X301631Y170692*
X301528Y170585*
X301429Y170475*
X301407Y170460*
X301389Y170441*
X301264Y170361*
X301143Y170276*
X301118Y170266*
X301096Y170252*
X300957Y170202*
X300819Y170147*
X300793Y170143*
X300768Y170135*
X300621Y170118*
X300474Y170096*
X300448Y170098*
X300422Y170095*
X285118*
X284874Y170114*
X284849Y170122*
X284823Y170124*
X284682Y170169*
X284539Y170209*
X284516Y170222*
X284491Y170230*
X284364Y170306*
X284234Y170378*
X284214Y170395*
X284192Y170409*
X284085Y170512*
X283975Y170611*
X283960Y170633*
X283941Y170651*
X283861Y170776*
X283776Y170897*
X283766Y170922*
X283752Y170944*
X283702Y171083*
X283647Y171221*
X283643Y171247*
X283635Y171272*
X283618Y171419*
X283596Y171566*
X283598Y171592*
X283595Y171618*
Y172446*
X283614Y172690*
X283622Y172715*
X283624Y172741*
X283669Y172882*
X283709Y173025*
X283722Y173048*
X283730Y173073*
X283806Y173200*
X283878Y173330*
X283895Y173350*
X283909Y173372*
X284012Y173479*
X284111Y173589*
X284133Y173604*
X284151Y173623*
X284276Y173703*
X284397Y173788*
X284422Y173798*
X284444Y173812*
X284583Y173862*
X284721Y173917*
X284747Y173921*
X284772Y173929*
X284919Y173946*
X285066Y173968*
X285092Y173966*
X285118Y173969*
X288398*
X288399*
X289571Y175141*
Y189799*
X288824Y190546*
X288665Y190732*
X288640Y190777*
X288608Y190817*
X288555Y190928*
X288495Y191036*
X288481Y191085*
X288459Y191131*
X288433Y191252*
X288398Y191371*
X288396Y191422*
X288385Y191472*
X288387Y191596*
X288380Y191719*
X288390Y191769*
Y191820*
X288420Y191941*
X288442Y192062*
X288462Y192109*
X288475Y192159*
X288531Y192269*
X288580Y192382*
X288610Y192423*
X288634Y192469*
X288695Y192541*
X288704Y192557*
X288724Y192577*
X288787Y192662*
X288826Y192696*
X288859Y192734*
X288919Y192779*
X288947Y192807*
X288992Y192836*
X289053Y192888*
X289098Y192912*
X289124Y192931*
X289603Y193410*
X289938Y193989*
X290111Y194635*
Y198423*
X281594*
X281350Y198442*
X281325Y198450*
X281299Y198452*
X281158Y198497*
X281015Y198537*
X280992Y198550*
X280967Y198558*
X280840Y198634*
X280710Y198706*
X280690Y198723*
X280668Y198737*
X280561Y198840*
X280451Y198939*
X280436Y198961*
X280417Y198979*
X280337Y199104*
X280252Y199225*
X280242Y199250*
X280228Y199272*
X280178Y199411*
X280123Y199549*
X280120Y199575*
X280111Y199600*
X280094Y199747*
X280072Y199894*
X280074Y199920*
X280071Y199946*
Y201471*
X280069*
Y199946*
X280050Y199702*
X280042Y199677*
X280040Y199651*
X279995Y199510*
X279955Y199367*
X279942Y199344*
X279934Y199319*
X279858Y199192*
X279786Y199062*
X279769Y199042*
X279755Y199020*
X279652Y198913*
X279553Y198803*
X279531Y198788*
X279513Y198769*
X279388Y198689*
X279267Y198604*
X279242Y198594*
X279220Y198580*
X279081Y198530*
X278943Y198475*
X278917Y198471*
X278892Y198463*
X278745Y198446*
X278598Y198424*
X278572Y198426*
X278546Y198423*
X270029*
Y194635*
X270202Y193989*
X270537Y193410*
X271013Y192934*
X271079Y192888*
X271110Y192871*
X271131Y192853*
X271202Y192803*
X271238Y192767*
X271279Y192736*
X271343Y192661*
X271369Y192637*
X271383Y192617*
X271445Y192553*
X271472Y192510*
X271505Y192471*
X271561Y192361*
X271568Y192351*
X271570Y192347*
X271625Y192255*
X271641Y192206*
X271664Y192161*
X271694Y192041*
X271733Y191923*
X271737Y191873*
X271749Y191823*
X271751Y191700*
X271762Y191576*
X271754Y191526*
X271755Y191475*
X271729Y191354*
X271711Y191231*
X271693Y191184*
X271682Y191134*
X271629Y191022*
X271584Y190907*
X271555Y190865*
X271533Y190819*
X271456Y190722*
X271386Y190620*
X271348Y190586*
X271316Y190546*
X270569Y189799*
Y189798*
Y175142*
Y175141*
X271741Y173969*
X275022*
X275266Y173950*
X275291Y173942*
X275317Y173940*
X275458Y173895*
X275601Y173855*
X275624Y173842*
X275649Y173834*
X275776Y173758*
X275906Y173686*
X275926Y173669*
X275948Y173655*
X276055Y173552*
X276165Y173453*
X276180Y173431*
X276199Y173413*
X276279Y173288*
X276364Y173167*
X276374Y173142*
X276388Y173120*
X276438Y172981*
X276493Y172843*
X276497Y172817*
X276505Y172792*
X276522Y172645*
X276544Y172498*
X276542Y172472*
X276545Y172446*
Y171618*
X276526Y171374*
X276518Y171349*
X276516Y171323*
X276471Y171182*
X276431Y171039*
X276418Y171016*
X276410Y170991*
X276334Y170864*
X276262Y170734*
X276245Y170714*
X276231Y170692*
X276128Y170585*
X276029Y170475*
X276007Y170460*
X275989Y170441*
X275864Y170361*
X275743Y170276*
X275718Y170266*
X275696Y170252*
X275557Y170202*
X275419Y170147*
X275393Y170143*
X275368Y170135*
X275221Y170118*
X275074Y170096*
X275048Y170098*
X275022Y170095*
X259718*
X259474Y170114*
X259449Y170122*
X259423Y170124*
X259282Y170169*
X259139Y170209*
X259116Y170222*
X259091Y170230*
X258964Y170306*
X258834Y170378*
X258814Y170395*
X258792Y170409*
X258685Y170512*
X258575Y170611*
X258560Y170633*
X258541Y170651*
X258461Y170776*
X258376Y170897*
X258366Y170922*
X258352Y170944*
X258302Y171083*
X258247Y171221*
X258243Y171247*
X258235Y171272*
X258218Y171419*
X258196Y171566*
X258198Y171592*
X258195Y171618*
Y172446*
X258214Y172690*
X258222Y172715*
X258224Y172741*
X258269Y172882*
X258309Y173025*
X258322Y173048*
X258330Y173073*
X258406Y173200*
X258478Y173330*
X258495Y173350*
X258509Y173372*
X258612Y173479*
X258711Y173589*
X258733Y173604*
X258751Y173623*
X258876Y173703*
X258997Y173788*
X259022Y173798*
X259044Y173812*
X259183Y173862*
X259321Y173917*
X259347Y173921*
X259372Y173929*
X259519Y173946*
X259666Y173968*
X259692Y173966*
X259718Y173969*
X262998*
X262999*
X264171Y175141*
Y189799*
X263077Y190893*
X262918Y191079*
X262905Y191102*
X262888Y191122*
X262820Y191254*
X262748Y191383*
X262741Y191409*
X262729Y191432*
X262692Y191576*
X262651Y191718*
X262650Y191744*
X262644Y191770*
X262641Y191918*
X262633Y192066*
X262638Y192092*
Y192118*
X262669Y192263*
X262695Y192409*
X262705Y192433*
X262711Y192459*
X262774Y192593*
X262833Y192729*
X262849Y192750*
X262860Y192774*
X262952Y192890*
X263040Y193010*
X263060Y193027*
X263077Y193047*
X264171Y194141*
Y208799*
X262999Y209971*
X262998*
X259718*
X259474Y209990*
X259449Y209998*
X259423Y210000*
X259282Y210045*
X259139Y210085*
X259116Y210098*
X259091Y210106*
X258964Y210182*
X258834Y210254*
X258814Y210271*
X258792Y210285*
X258685Y210388*
X258575Y210487*
X258560Y210509*
X258541Y210527*
X258461Y210652*
X258376Y210773*
X258366Y210798*
X258352Y210820*
X258302Y210959*
X258247Y211097*
X258243Y211123*
X258235Y211148*
X258218Y211295*
X258196Y211442*
X258198Y211468*
X258195Y211494*
Y212086*
X258203Y212186*
X258202Y212234*
X258209Y212269*
X258214Y212330*
X258249Y212451*
X258275Y212575*
X258296Y212618*
X258309Y212665*
X258370Y212776*
X258424Y212890*
X258454Y212928*
X258478Y212970*
X258562Y213064*
X258641Y213163*
X259572Y214094*
X260453Y216220*
Y218520*
X259572Y220646*
X258641Y221577*
X258576Y221654*
X258541Y221687*
X258522Y221717*
X258482Y221763*
X258421Y221874*
X258352Y221980*
X258336Y222025*
X258312Y222068*
X258277Y222189*
X258235Y222308*
X258229Y222356*
X258216Y222402*
X258209Y222529*
X258195Y222654*
Y231546*
X258214Y231790*
X258222Y231815*
X258224Y231841*
X258269Y231982*
X258309Y232125*
X258322Y232148*
X258330Y232173*
X258406Y232300*
X258478Y232430*
X258495Y232450*
X258509Y232472*
X258612Y232579*
X258711Y232689*
X258733Y232704*
X258751Y232723*
X258876Y232803*
X258997Y232888*
X259022Y232898*
X259044Y232912*
X259183Y232962*
X259321Y233017*
X259347Y233021*
X259372Y233029*
X259519Y233046*
X259666Y233068*
X259692Y233066*
X259718Y233069*
X265398*
X265399*
X266146Y233816*
X266332Y233975*
X266377Y234000*
X266417Y234032*
X266528Y234085*
X266636Y234145*
X266685Y234159*
X266731Y234181*
X266852Y234207*
X266971Y234242*
X267022Y234244*
X267072Y234255*
X267196Y234253*
X267319Y234260*
X267369Y234250*
X267420*
X267541Y234220*
X267662Y234198*
X267709Y234178*
X267759Y234165*
X267869Y234109*
X267982Y234060*
X268023Y234030*
X268069Y234006*
X268163Y233926*
X268262Y233853*
X268296Y233814*
X268334Y233781*
X268408Y233681*
X268488Y233587*
X268512Y233542*
X268531Y233516*
X269010Y233037*
X269589Y232702*
X270235Y232529*
X274023*
Y241046*
X274042Y241290*
X274050Y241315*
X274052Y241341*
X274097Y241482*
X274137Y241625*
X274150Y241648*
X274158Y241673*
X274234Y241800*
X274306Y241930*
X274323Y241950*
X274337Y241972*
X274440Y242079*
X274539Y242189*
X274561Y242204*
X274579Y242223*
X274704Y242303*
X274825Y242388*
X274850Y242398*
X274872Y242412*
X275011Y242462*
X275149Y242517*
X275175Y242520*
X275200Y242529*
X275347Y242546*
X275494Y242568*
X275520Y242566*
X275546Y242569*
X277071*
Y242571*
X275546*
X275302Y242590*
X275277Y242598*
X275251Y242600*
X275110Y242645*
X274967Y242685*
X274944Y242698*
X274919Y242706*
X274792Y242782*
X274662Y242854*
X274642Y242871*
X274620Y242885*
X274513Y242988*
X274403Y243087*
X274388Y243109*
X274369Y243127*
X274289Y243252*
X274204Y243373*
X274194Y243398*
X274180Y243420*
X274130Y243559*
X274075Y243697*
X274071Y243723*
X274063Y243748*
X274046Y243895*
X274024Y244042*
X274026Y244068*
X274023Y244094*
Y252611*
X270235*
X269589Y252438*
X269010Y252103*
X268534Y251627*
X268403Y251438*
X268367Y251402*
X268336Y251361*
X268242Y251281*
X268153Y251195*
X268110Y251168*
X268071Y251135*
X267961Y251079*
X267855Y251015*
X267806Y250999*
X267761Y250976*
X267641Y250946*
X267523Y250907*
X267473Y250903*
X267423Y250891*
X267300Y250889*
X267176Y250878*
X267126Y250886*
X267075Y250885*
X266954Y250911*
X266831Y250929*
X266784Y250947*
X266734Y250958*
X266622Y251011*
X266507Y251056*
X266465Y251085*
X266419Y251107*
X266322Y251184*
X266220Y251254*
X266186Y251292*
X266146Y251324*
X265399Y252071*
X265398*
X250741*
X249569Y250899*
Y250898*
Y234242*
Y234241*
X250699Y233111*
X250764Y233035*
X250799Y233001*
X250818Y232971*
X250858Y232925*
X250919Y232815*
X250988Y232709*
X251004Y232663*
X251028Y232621*
X251063Y232499*
X251105Y232381*
X251111Y232333*
X251124Y232286*
X251131Y232160*
X251145Y232034*
Y222654*
X251137Y222554*
X251138Y222506*
X251131Y222471*
X251126Y222410*
X251091Y222289*
X251065Y222165*
X251044Y222122*
X251031Y222075*
X250970Y221964*
X250916Y221850*
X250886Y221812*
X250862Y221770*
X250778Y221676*
X250699Y221577*
X249768Y220646*
X248887Y218520*
Y216220*
X249768Y214094*
X250699Y213163*
X250764Y213086*
X250799Y213053*
X250818Y213023*
X250858Y212977*
X250919Y212866*
X250988Y212760*
X251004Y212715*
X251028Y212672*
X251063Y212551*
X251105Y212432*
X251111Y212384*
X251124Y212338*
X251131Y212211*
X251145Y212086*
Y211494*
X251126Y211250*
X251118Y211225*
X251116Y211199*
X251071Y211058*
X251031Y210915*
X251018Y210892*
X251010Y210867*
X250934Y210740*
X250862Y210610*
X250845Y210590*
X250831Y210568*
X250728Y210461*
X250629Y210351*
X250607Y210336*
X250589Y210317*
X250464Y210237*
X250343Y210152*
X250318Y210142*
X250296Y210128*
X250157Y210078*
X250019Y210023*
X249993Y210019*
X249968Y210011*
X249821Y209994*
X249674Y209972*
X249648Y209974*
X249622Y209971*
X246341*
X245169Y208799*
Y208798*
Y194142*
Y194141*
X246263Y193047*
X246422Y192861*
X246435Y192838*
X246452Y192818*
X246520Y192686*
X246592Y192557*
X246599Y192531*
X246611Y192508*
X246648Y192364*
X246689Y192222*
X246690Y192196*
X246696Y192170*
X246699Y192022*
X246707Y191874*
X246702Y191848*
Y191822*
X246671Y191677*
X246645Y191531*
X246634Y191507*
X246629Y191481*
X246566Y191347*
X246507Y191211*
X246491Y191190*
X246480Y191166*
X246388Y191050*
X246300Y190930*
X246280Y190913*
X246263Y190893*
X245169Y189799*
Y189798*
Y175142*
Y175141*
X246341Y173969*
X249622*
X249866Y173950*
X249891Y173942*
X249917Y173940*
X250058Y173895*
X250201Y173855*
X250224Y173842*
X250249Y173834*
X250376Y173758*
X250506Y173686*
X250526Y173669*
X250548Y173655*
X250655Y173552*
X250765Y173453*
X250780Y173431*
X250799Y173413*
X250879Y173288*
X250964Y173167*
X250974Y173142*
X250988Y173120*
X251038Y172981*
X251093Y172843*
X251097Y172817*
X251105Y172792*
X251122Y172645*
X251144Y172498*
X251142Y172472*
X251145Y172446*
Y171618*
X251126Y171374*
X251118Y171349*
X251116Y171323*
X251071Y171182*
X251031Y171039*
X251018Y171016*
X251010Y170991*
X250934Y170864*
X250862Y170734*
X250845Y170714*
X250831Y170692*
X250728Y170585*
X250629Y170475*
X250607Y170460*
X250589Y170441*
X250464Y170361*
X250343Y170276*
X250318Y170266*
X250296Y170252*
X250157Y170202*
X250019Y170147*
X249993Y170143*
X249968Y170135*
X249821Y170118*
X249674Y170096*
X249648Y170098*
X249622Y170095*
X234318*
X234074Y170114*
X234049Y170122*
X234023Y170124*
X233882Y170169*
X233739Y170209*
X233716Y170222*
X233691Y170230*
X233564Y170306*
X233434Y170378*
X233414Y170395*
X233392Y170409*
X233285Y170512*
X233175Y170611*
X233160Y170633*
X233141Y170651*
X233061Y170776*
X232976Y170897*
X232966Y170922*
X232952Y170944*
X232902Y171083*
X232847Y171221*
X232843Y171247*
X232835Y171272*
X232818Y171419*
X232796Y171566*
X232798Y171592*
X232795Y171618*
Y172446*
X232814Y172690*
X232822Y172715*
X232824Y172741*
X232869Y172882*
X232909Y173025*
X232922Y173048*
X232930Y173073*
X233006Y173200*
X233078Y173330*
X233095Y173350*
X233109Y173372*
X233212Y173479*
X233311Y173589*
X233333Y173604*
X233351Y173623*
X233476Y173703*
X233597Y173788*
X233622Y173798*
X233644Y173812*
X233783Y173862*
X233921Y173917*
X233947Y173921*
X233972Y173929*
X234119Y173946*
X234266Y173968*
X234292Y173966*
X234318Y173969*
X237598*
X237599*
X238771Y175141*
Y189799*
X237677Y190893*
X237518Y191079*
X237505Y191102*
X237488Y191122*
X237420Y191254*
X237348Y191383*
X237341Y191409*
X237329Y191432*
X237292Y191576*
X237251Y191718*
X237250Y191744*
X237244Y191770*
X237241Y191918*
X237233Y192066*
X237238Y192092*
Y192118*
X237269Y192263*
X237295Y192409*
X237305Y192433*
X237311Y192459*
X237374Y192593*
X237433Y192729*
X237449Y192750*
X237460Y192774*
X237552Y192890*
X237640Y193010*
X237660Y193027*
X237677Y193047*
X238771Y194141*
Y208799*
X237599Y209971*
X237598*
X234318*
X234074Y209990*
X234049Y209998*
X234023Y210000*
X233882Y210045*
X233739Y210085*
X233716Y210098*
X233691Y210106*
X233564Y210182*
X233434Y210254*
X233414Y210271*
X233392Y210285*
X233285Y210388*
X233175Y210487*
X233160Y210509*
X233141Y210527*
X233061Y210652*
X232976Y210773*
X232966Y210798*
X232952Y210820*
X232902Y210959*
X232847Y211097*
X232843Y211123*
X232835Y211148*
X232818Y211295*
X232796Y211442*
X232798Y211468*
X232795Y211494*
Y218830*
X230730Y220895*
X230729*
X206518*
X206274Y220914*
X206249Y220922*
X206223Y220924*
X206082Y220969*
X205939Y221009*
X205916Y221022*
X205891Y221030*
X205764Y221106*
X205634Y221178*
X205614Y221195*
X205592Y221209*
X205485Y221312*
X205375Y221411*
X205360Y221433*
X205341Y221451*
X205261Y221576*
X205176Y221697*
X205166Y221722*
X205152Y221744*
X205102Y221883*
X205047Y222021*
X205043Y222047*
X205035Y222072*
X205018Y222219*
X204996Y222366*
X204998Y222392*
X204995Y222418*
Y259573*
X204997Y259602*
X204995Y259622*
X205002Y259668*
X205014Y259817*
X205035Y259891*
X205046Y259966*
X205082Y260058*
X205109Y260153*
X205146Y260220*
X205174Y260291*
X205230Y260371*
X205278Y260458*
X205329Y260514*
X205372Y260577*
X205445Y260643*
X205511Y260716*
X205574Y260760*
X205630Y260811*
X205717Y260859*
X205797Y260915*
X205868Y260944*
X205935Y260981*
X206200Y261091*
X208549Y263440*
X209821Y266509*
Y269831*
X208549Y272900*
X206200Y275249*
X203131Y276521*
X199809*
X196740Y275249*
X194391Y272900*
X193119Y269831*
Y266509*
X194391Y263440*
X196740Y261091*
X197005Y260981*
X197031Y260967*
X197049Y260962*
X197090Y260937*
X197223Y260869*
X197283Y260822*
X197348Y260783*
X197419Y260714*
X197496Y260653*
X197544Y260594*
X197599Y260541*
X197652Y260458*
X197714Y260381*
X197746Y260312*
X197788Y260248*
X197821Y260155*
X197863Y260066*
X197880Y259992*
X197905Y259920*
X197917Y259822*
X197938Y259726*
X197937Y259649*
X197945Y259573*
Y222418*
X197926Y222174*
X197918Y222149*
X197916Y222123*
X197871Y221982*
X197831Y221839*
X197818Y221816*
X197810Y221791*
X197734Y221664*
X197662Y221534*
X197645Y221514*
X197631Y221492*
X197528Y221385*
X197429Y221275*
X197407Y221260*
X197389Y221241*
X197264Y221161*
X197143Y221076*
X197118Y221066*
X197096Y221052*
X196957Y221002*
X196819Y220947*
X196793Y220943*
X196768Y220935*
X196621Y220918*
X196474Y220896*
X196448Y220898*
X196422Y220895*
X177010*
X174945Y218830*
Y218829*
Y207686*
X174926Y207442*
X174918Y207417*
X174916Y207391*
X174871Y207250*
X174831Y207107*
X174818Y207084*
X174810Y207059*
X174734Y206932*
X174662Y206802*
X174645Y206782*
X174631Y206760*
X174528Y206653*
X174429Y206543*
X174407Y206528*
X174389Y206509*
X174264Y206429*
X174143Y206344*
X174118Y206334*
X174096Y206320*
X173957Y206270*
X173819Y206215*
X173793Y206211*
X173768Y206203*
X173621Y206186*
X173474Y206164*
X173448Y206166*
X173422Y206163*
X156813*
X155641Y204991*
Y204990*
Y197585*
X155643Y197583*
Y197581*
Y197580*
X155644Y197579*
X155695Y197400*
X155740Y197247*
Y197245*
Y197244*
X155749Y197068*
X155758Y196899*
X155757Y196897*
Y196896*
X155725Y196717*
X155696Y196556*
X155695Y196554*
Y196553*
Y196552*
X155627Y196397*
X155558Y196236*
X155557Y196235*
Y196234*
Y196233*
X155274Y195745*
X155101Y195099*
Y193493*
X165008*
G37*
G36*
X167468Y32889D02*
G01X170389Y29968D01*
X174205Y28387*
X178335*
X182151Y29968*
X185072Y32889*
X186653Y36705*
Y40835*
X185072Y44651*
X182151Y47572*
X178335Y49153*
X174205*
X170389Y47572*
X167468Y44651*
X165887Y40835*
Y36705*
X167468Y32889*
G37*
G36*
Y109689D02*
G01X170389Y106768D01*
X174205Y105187*
X178335*
X182151Y106768*
X185072Y109689*
X186653Y113505*
Y117635*
X185072Y121451*
X182151Y124372*
X178335Y125953*
X174205*
X170389Y124372*
X167468Y121451*
X165887Y117635*
Y113505*
X167468Y109689*
G37*
G36*
X192468Y32889D02*
G01X195389Y29968D01*
X199205Y28387*
X203335*
X207151Y29968*
X210072Y32889*
X211653Y36705*
Y40835*
X210072Y44651*
X207151Y47572*
X203335Y49153*
X199205*
X195389Y47572*
X192468Y44651*
X190887Y40835*
Y36705*
X192468Y32889*
G37*
G36*
Y109689D02*
G01X195389Y106768D01*
X199205Y105187*
X203335*
X207151Y106768*
X210072Y109689*
X211653Y113505*
Y117635*
X210072Y121451*
X207151Y124372*
X203335Y125953*
X199205*
X195389Y124372*
X192468Y121451*
X190887Y117635*
Y113505*
X192468Y109689*
G37*
G36*
X217468Y32889D02*
G01X220389Y29968D01*
X224205Y28387*
X228335*
X232151Y29968*
X235072Y32889*
X236653Y36705*
Y40835*
X235072Y44651*
X232151Y47572*
X228335Y49153*
X224205*
X220389Y47572*
X217468Y44651*
X215887Y40835*
Y36705*
X217468Y32889*
G37*
G36*
Y109689D02*
G01X220389Y106768D01*
X224205Y105187*
X228335*
X232151Y106768*
X235072Y109689*
X236653Y113505*
Y117635*
X235072Y121451*
X232151Y124372*
X228335Y125953*
X224205*
X220389Y124372*
X217468Y121451*
X215887Y117635*
Y113505*
X217468Y109689*
G37*
G36*
X242468Y32889D02*
G01X245389Y29968D01*
X249205Y28387*
X253335*
X257151Y29968*
X260072Y32889*
X261653Y36705*
Y40835*
X260072Y44651*
X257151Y47572*
X253335Y49153*
X249205*
X245389Y47572*
X242468Y44651*
X240887Y40835*
Y36705*
X242468Y32889*
G37*
G36*
Y109689D02*
G01X245389Y106768D01*
X249205Y105187*
X253335*
X257151Y106768*
X260072Y109689*
X261653Y113505*
Y117635*
X260072Y121451*
X257151Y124372*
X253335Y125953*
X249205*
X245389Y124372*
X242468Y121451*
X240887Y117635*
Y113505*
X242468Y109689*
G37*
G36*
X267468Y32889D02*
G01X270389Y29968D01*
X274205Y28387*
X278335*
X282151Y29968*
X285072Y32889*
X286653Y36705*
Y40835*
X285072Y44651*
X282151Y47572*
X278335Y49153*
X274205*
X270389Y47572*
X267468Y44651*
X265887Y40835*
Y36705*
X267468Y32889*
G37*
G36*
Y109689D02*
G01X270389Y106768D01*
X274205Y105187*
X278335*
X282151Y106768*
X285072Y109689*
X286653Y113505*
Y117635*
X285072Y121451*
X282151Y124372*
X278335Y125953*
X274205*
X270389Y124372*
X267468Y121451*
X265887Y117635*
Y113505*
X267468Y109689*
G37*
G36*
X277023Y204517D02*
G01Y210511D01*
X272235*
X271589Y210338*
X271010Y210003*
X270537Y209530*
X270202Y208951*
X270029Y208305*
Y204517*
X277023*
G37*
G36*
X280117Y232529D02*
G01X283905D01*
X284551Y232702*
X285130Y233037*
X285603Y233510*
X285938Y234089*
X286111Y234735*
Y239523*
X280117*
Y232529*
G37*
G36*
Y245617D02*
G01X286111D01*
Y250405*
X285938Y251051*
X285603Y251630*
X285130Y252103*
X284551Y252438*
X283905Y252611*
X280117*
Y245617*
G37*
G36*
X283117Y204517D02*
G01X290111D01*
Y208305*
X289938Y208951*
X289603Y209530*
X289130Y210003*
X288551Y210338*
X287905Y210511*
X283117*
Y204517*
G37*
G36*
X302423D02*
G01Y210511D01*
X297635*
X296989Y210338*
X296410Y210003*
X295937Y209530*
X295602Y208951*
X295429Y208305*
Y204517*
X302423*
G37*
G36*
X308517D02*
G01X315511D01*
Y208305*
X315338Y208951*
X315003Y209530*
X314530Y210003*
X313951Y210338*
X313305Y210511*
X308517*
Y204517*
G37*
G36*
X308613Y88903D02*
G01X308614Y88658D01*
X308612Y88648*
X308613Y88637*
X308547Y87884*
X308592Y87785*
X308645Y87689*
X308663Y87626*
X308690Y87567*
X308711Y87459*
X308741Y87354*
X308744Y87289*
X308757Y87225*
X308753Y87115*
X308758Y87006*
X308746Y86942*
X308744Y86877*
X308715Y86771*
X308696Y86663*
X308670Y86603*
X308661Y86570*
X308858Y85835*
X308902Y85594*
Y85584*
X308904Y85573*
X308970Y84820*
X309031Y84730*
X309100Y84645*
X309129Y84586*
X309166Y84532*
X309205Y84430*
X309253Y84332*
X309268Y84268*
X309291Y84207*
X309306Y84099*
X309330Y83992*
Y83927*
X309339Y83862*
X309329Y83753*
Y83643*
X309314Y83580*
X309310Y83545*
X309632Y82856*
X309717Y82626*
X309719Y82616*
X309723Y82606*
X309919Y81876*
X309995Y81798*
X310077Y81726*
X310116Y81673*
X310161Y81627*
X310218Y81533*
X310282Y81444*
X310308Y81384*
X310341Y81328*
X310375Y81224*
X310417Y81123*
X310428Y81059*
X310449Y80997*
X310458Y80887*
X310476Y80779*
X310472Y80714*
X310475Y80680*
X310912Y80056*
X311036Y79845*
X311039Y79835*
X311045Y79826*
X311364Y79141*
X311453Y79078*
X311547Y79021*
X311593Y78976*
X311646Y78938*
X311718Y78855*
X311797Y78779*
X311833Y78724*
X311875Y78675*
X311927Y78578*
X311986Y78486*
X312008Y78425*
X312039Y78367*
X312067Y78261*
X312104Y78158*
X312111Y78093*
X312120Y78060*
X312658Y77522*
X312817Y77336*
X312822Y77326*
X312829Y77318*
X313262Y76699*
X313361Y76652*
X313463Y76613*
X313517Y76576*
X313576Y76548*
X313661Y76479*
X313752Y76418*
X313796Y76370*
X313847Y76329*
X313914Y76243*
X313989Y76162*
X314021Y76105*
X314061Y76054*
X314107Y75955*
X314162Y75859*
X314180Y75797*
X314195Y75766*
X314818Y75329*
X315007Y75173*
X315013Y75165*
X315022Y75158*
X315556Y74624*
X315661Y74594*
X315769Y74574*
X315828Y74547*
X315891Y74529*
X315987Y74476*
X316087Y74432*
X316139Y74392*
X316196Y74361*
X316278Y74287*
X316365Y74221*
X316407Y74171*
X316455Y74127*
X316517Y74038*
X316588Y73953*
X316617Y73895*
X316636Y73866*
X317326Y73545*
X317539Y73424*
X317547Y73417*
X317556Y73412*
X318175Y72978*
X318284Y72967*
X318394Y72966*
X318457Y72950*
X318522Y72943*
X318625Y72908*
X318732Y72881*
X318790Y72851*
X318851Y72830*
X318944Y72772*
X319042Y72722*
X319092Y72680*
X319147Y72645*
X319224Y72568*
X319308Y72497*
X319346Y72444*
X319371Y72420*
X320106Y72223*
X320337Y72141*
X320346Y72135*
X320356Y72132*
X321041Y71813*
X321149Y71821*
X321258Y71838*
X321323Y71833*
X321388Y71838*
X321496Y71821*
X321605Y71814*
X321668Y71794*
X321732Y71784*
X321834Y71743*
X321938Y71711*
X321995Y71678*
X322055Y71653*
X322145Y71590*
X322239Y71535*
X322287Y71490*
X322315Y71470*
X323073Y71404*
X323314Y71363*
X323324Y71359*
X323335Y71358*
X324065Y71162*
X324170Y71189*
X324274Y71225*
X324339Y71232*
X324402Y71248*
X324512Y71250*
X324621Y71261*
X324685Y71253*
X324750Y71254*
X324858Y71231*
X324966Y71218*
X325028Y71195*
X325091Y71182*
X325190Y71135*
X325293Y71097*
X325348Y71061*
X325379Y71046*
X326137Y71113*
X326382Y71114*
X326392Y71112*
X326403Y71113*
X327156Y71047*
X327255Y71092*
X327351Y71145*
X327414Y71163*
X327473Y71190*
X327581Y71211*
X327686Y71241*
X327751Y71244*
X327815Y71257*
X327925Y71253*
X328034Y71258*
X328098Y71246*
X328163Y71244*
X328269Y71215*
X328377Y71196*
X328437Y71170*
X328470Y71161*
X329205Y71358*
X329446Y71402*
X329456*
X329467Y71404*
X330220Y71470*
X330310Y71531*
X330395Y71600*
X330454Y71629*
X330508Y71666*
X330610Y71705*
X330708Y71753*
X330772Y71767*
X330833Y71791*
X330941Y71806*
X331048Y71830*
X331113*
X331178Y71839*
X331287Y71829*
X331397*
X331460Y71813*
X331495Y71810*
X332184Y72132*
X332414Y72217*
X332424Y72219*
X332434Y72223*
X333164Y72419*
X333242Y72495*
X333314Y72577*
X333367Y72616*
X333413Y72661*
X333507Y72718*
X333596Y72782*
X333656Y72808*
X333712Y72841*
X333816Y72875*
X333917Y72917*
X333981Y72928*
X334043Y72949*
X334153Y72958*
X334261Y72976*
X334326Y72972*
X334360Y72975*
X334984Y73412*
X335195Y73536*
X335205Y73539*
X335214Y73545*
X335899Y73864*
X335962Y73953*
X336019Y74047*
X336064Y74093*
X336102Y74146*
X336185Y74218*
X336261Y74297*
X336316Y74333*
X336365Y74375*
X336462Y74427*
X336554Y74486*
X336615Y74508*
X336673Y74539*
X336779Y74567*
X336882Y74604*
X336947Y74611*
X336980Y74620*
X337518Y75158*
X337704Y75317*
X337714Y75322*
X337722Y75329*
X338341Y75762*
X338388Y75861*
X338427Y75963*
X338464Y76017*
X338492Y76076*
X338561Y76161*
X338622Y76252*
X338670Y76296*
X338711Y76347*
X338797Y76414*
X338878Y76489*
X338935Y76521*
X338986Y76561*
X339085Y76607*
X339181Y76662*
X339243Y76680*
X339274Y76695*
X339711Y77318*
X339867Y77507*
X339875Y77513*
X339882Y77522*
X340416Y78056*
X340446Y78161*
X340466Y78269*
X340493Y78328*
X340511Y78391*
X340564Y78487*
X340608Y78587*
X340648Y78639*
X340679Y78696*
X340753Y78778*
X340819Y78865*
X340869Y78907*
X340913Y78955*
X341002Y79017*
X341087Y79088*
X341145Y79117*
X341174Y79136*
X341495Y79826*
X341616Y80039*
X341623Y80047*
X341628Y80056*
X342062Y80675*
X342073Y80784*
X342074Y80894*
X342090Y80957*
X342097Y81022*
X342132Y81125*
X342159Y81232*
X342189Y81290*
X342210Y81351*
X342268Y81444*
X342318Y81542*
X342360Y81592*
X342395Y81647*
X342472Y81724*
X342543Y81808*
X342596Y81846*
X342620Y81871*
X342817Y82606*
X342899Y82837*
X342905Y82846*
X342908Y82856*
X343227Y83541*
X343219Y83649*
X343202Y83758*
X343207Y83823*
X343202Y83888*
X343219Y83996*
X343226Y84105*
X343246Y84168*
X343256Y84232*
X343297Y84334*
X343329Y84438*
X343362Y84495*
X343387Y84555*
X343450Y84645*
X343505Y84739*
X343550Y84787*
X343570Y84815*
X343636Y85573*
X343677Y85814*
X343681Y85824*
X343682Y85835*
X343878Y86565*
X343851Y86670*
X343815Y86774*
X343808Y86839*
X343792Y86902*
X343790Y87012*
X343779Y87121*
X343787Y87185*
X343786Y87250*
X343809Y87358*
X343822Y87466*
X343845Y87528*
X343858Y87591*
X343905Y87690*
X343943Y87793*
X343979Y87848*
X343994Y87879*
X343927Y88637*
X343926Y88882*
X343928Y88892*
X343927Y88903*
X343993Y89656*
X343948Y89755*
X343895Y89851*
X343877Y89914*
X343850Y89973*
X343829Y90081*
X343799Y90186*
X343796Y90251*
X343783Y90315*
X343787Y90425*
X343782Y90534*
X343794Y90598*
X343796Y90663*
X343825Y90769*
X343844Y90877*
X343870Y90937*
X343879Y90970*
X343682Y91705*
X343638Y91946*
Y91957*
X343636Y91967*
X343570Y92720*
X343509Y92810*
X343440Y92895*
X343411Y92954*
X343374Y93008*
X343335Y93110*
X343287Y93208*
X343273Y93272*
X343249Y93333*
X343234Y93441*
X343210Y93548*
Y93613*
X343201Y93678*
X343211Y93787*
Y93897*
X343227Y93960*
X343230Y93995*
X342908Y94684*
X342823Y94914*
X342821Y94924*
X342817Y94934*
X342621Y95664*
X342545Y95742*
X342463Y95814*
X342424Y95867*
X342379Y95913*
X342322Y96007*
X342258Y96096*
X342232Y96156*
X342199Y96212*
X342165Y96316*
X342123Y96417*
X342112Y96481*
X342091Y96543*
X342082Y96653*
X342064Y96761*
X342068Y96826*
X342065Y96860*
X341628Y97484*
X341504Y97695*
X341501Y97705*
X341495Y97714*
X341176Y98399*
X341087Y98462*
X340993Y98519*
X340947Y98564*
X340894Y98602*
X340822Y98685*
X340743Y98761*
X340707Y98816*
X340665Y98865*
X340613Y98962*
X340554Y99054*
X340532Y99115*
X340501Y99173*
X340473Y99279*
X340436Y99382*
X340429Y99447*
X340420Y99480*
X339882Y100018*
X339723Y100204*
X339718Y100214*
X339711Y100222*
X339278Y100841*
X339179Y100888*
X339077Y100927*
X339023Y100964*
X338964Y100992*
X338879Y101061*
X338788Y101122*
X338744Y101170*
X338693Y101211*
X338626Y101297*
X338551Y101378*
X338519Y101435*
X338479Y101486*
X338433Y101585*
X338378Y101681*
X338360Y101743*
X338345Y101774*
X337722Y102211*
X337533Y102367*
X337526Y102375*
X337518Y102382*
X336984Y102916*
X336879Y102946*
X336771Y102966*
X336712Y102993*
X336649Y103011*
X336553Y103064*
X336453Y103108*
X336401Y103148*
X336344Y103179*
X336262Y103253*
X336175Y103319*
X336133Y103369*
X336085Y103413*
X336023Y103502*
X335952Y103587*
X335923Y103645*
X335904Y103674*
X335214Y103995*
X335001Y104116*
X334993Y104123*
X334984Y104128*
X334365Y104562*
X334256Y104573*
X334146Y104574*
X334083Y104590*
X334018Y104597*
X333915Y104632*
X333808Y104659*
X333750Y104689*
X333689Y104710*
X333596Y104768*
X333498Y104818*
X333448Y104860*
X333393Y104895*
X333316Y104972*
X333232Y105043*
X333194Y105096*
X333169Y105120*
X332434Y105317*
X332203Y105399*
X332194Y105405*
X332184Y105408*
X331499Y105727*
X331391Y105719*
X331282Y105702*
X331217Y105707*
X331152Y105702*
X331044Y105719*
X330935Y105726*
X330872Y105746*
X330808Y105756*
X330706Y105797*
X330602Y105829*
X330545Y105862*
X330485Y105887*
X330395Y105950*
X330301Y106005*
X330253Y106050*
X330225Y106070*
X329467Y106136*
X329226Y106177*
X329216Y106181*
X329205Y106182*
X328475Y106378*
X328370Y106351*
X328266Y106315*
X328201Y106308*
X328138Y106292*
X328028Y106290*
X327919Y106279*
X327855Y106287*
X327790Y106286*
X327682Y106309*
X327574Y106322*
X327512Y106345*
X327449Y106358*
X327350Y106405*
X327247Y106443*
X327192Y106479*
X327161Y106494*
X326403Y106427*
X326158Y106426*
X326148Y106428*
X326137Y106427*
X325384Y106493*
X325285Y106448*
X325189Y106395*
X325126Y106377*
X325067Y106350*
X324959Y106329*
X324854Y106299*
X324789Y106296*
X324725Y106283*
X324615Y106287*
X324506Y106282*
X324442Y106294*
X324377Y106296*
X324271Y106325*
X324163Y106344*
X324103Y106370*
X324070Y106379*
X323335Y106182*
X323094Y106138*
X323083*
X323073Y106136*
X322320Y106070*
X322230Y106009*
X322145Y105940*
X322086Y105911*
X322032Y105874*
X321930Y105835*
X321832Y105787*
X321768Y105773*
X321707Y105749*
X321599Y105734*
X321492Y105710*
X321427*
X321362Y105701*
X321253Y105711*
X321143*
X321080Y105727*
X321045Y105730*
X320356Y105408*
X320126Y105323*
X320116Y105321*
X320106Y105317*
X319376Y105121*
X319298Y105045*
X319226Y104963*
X319173Y104924*
X319127Y104879*
X319033Y104822*
X318944Y104758*
X318884Y104732*
X318828Y104699*
X318724Y104665*
X318623Y104623*
X318559Y104612*
X318497Y104591*
X318387Y104582*
X318279Y104564*
X318214Y104568*
X318180Y104565*
X317556Y104128*
X317345Y104004*
X317335Y104001*
X317326Y103995*
X316641Y103676*
X316578Y103587*
X316521Y103493*
X316476Y103447*
X316438Y103394*
X316355Y103322*
X316279Y103243*
X316224Y103207*
X316175Y103165*
X316078Y103113*
X315986Y103054*
X315925Y103032*
X315867Y103001*
X315761Y102973*
X315658Y102936*
X315593Y102929*
X315560Y102920*
X315022Y102382*
X314836Y102223*
X314826Y102218*
X314818Y102211*
X314199Y101777*
X314152Y101679*
X314113Y101577*
X314076Y101523*
X314048Y101464*
X313979Y101379*
X313918Y101288*
X313870Y101244*
X313829Y101193*
X313743Y101126*
X313662Y101051*
X313605Y101019*
X313554Y100979*
X313455Y100933*
X313359Y100878*
X313297Y100860*
X313266Y100845*
X312829Y100222*
X312673Y100033*
X312665Y100026*
X312658Y100018*
X312124Y99484*
X312094Y99379*
X312074Y99271*
X312047Y99212*
X312029Y99149*
X311976Y99053*
X311932Y98953*
X311892Y98901*
X311861Y98844*
X311787Y98762*
X311721Y98675*
X311671Y98633*
X311627Y98585*
X311538Y98523*
X311453Y98452*
X311395Y98423*
X311366Y98404*
X311045Y97714*
X310924Y97501*
X310917Y97493*
X310912Y97484*
X310478Y96865*
X310467Y96756*
X310466Y96646*
X310450Y96583*
X310443Y96518*
X310408Y96415*
X310381Y96308*
X310351Y96250*
X310330Y96189*
X310272Y96096*
X310222Y95998*
X310180Y95948*
X310145Y95893*
X310068Y95816*
X309997Y95732*
X309944Y95694*
X309920Y95669*
X309723Y94934*
X309641Y94703*
X309635Y94694*
X309632Y94684*
X309313Y93999*
X309321Y93891*
X309338Y93782*
X309333Y93717*
X309338Y93652*
X309321Y93544*
X309314Y93435*
X309294Y93372*
X309284Y93308*
X309243Y93206*
X309211Y93102*
X309178Y93045*
X309153Y92985*
X309090Y92895*
X309035Y92801*
X308990Y92753*
X308970Y92725*
X308904Y91967*
X308863Y91726*
X308859Y91716*
X308858Y91705*
X308662Y90975*
X308689Y90870*
X308725Y90766*
X308732Y90701*
X308748Y90638*
X308750Y90528*
X308761Y90419*
X308753Y90355*
X308754Y90290*
X308731Y90182*
X308718Y90074*
X308695Y90012*
X308682Y89949*
X308635Y89850*
X308597Y89747*
X308561Y89692*
X308546Y89661*
X308613Y88903*
G37*
G36*
X324357Y29140D02*
G01X329140Y24357D01*
X335388Y21769*
X342152*
X348400Y24357*
X353183Y29140*
X355771Y35388*
Y42152*
X353183Y48400*
X348400Y53183*
X342152Y55771*
X335388*
X329140Y53183*
X324357Y48400*
X321769Y42152*
Y35388*
X324357Y29140*
G37*
G36*
Y254140D02*
G01X329140Y249357D01*
X335388Y246769*
X342152*
X348400Y249357*
X353183Y254140*
X355771Y260388*
Y267152*
X353183Y273400*
X348400Y278183*
X342152Y280771*
X335388*
X329140Y278183*
X324357Y273400*
X321769Y267152*
Y260388*
X324357Y254140*
G37*
G36*
X24357Y29140D02*
G01X29140Y24357D01*
X35388Y21769*
X42152*
X48400Y24357*
X53183Y29140*
X55771Y35388*
Y42152*
X53183Y48400*
X48400Y53183*
X42152Y55771*
X35388*
X29140Y53183*
X24357Y48400*
X21769Y42152*
Y35388*
X24357Y29140*
G37*
%LPD*%
G54D15*
X305470Y182470D03*
Y201470D03*
G54D16*
X258070Y242570D03*
X277070D03*
G54D10*
X201470Y268170D03*
X176070D03*
G54D15*
X102270Y182470D03*
Y201470D03*
X203870Y182470D03*
Y201470D03*
X254670Y182470D03*
Y201470D03*
X280070D03*
Y182470D03*
G54D17*
X165008Y182572D03*
Y191970D03*
Y201368D03*
X141132D03*
Y182572D03*
G54D15*
X76870Y201470D03*
Y182470D03*
X229270D03*
Y201470D03*
G54D11*
X101270Y115570D03*
G54D12*
X126270D03*
X151270D03*
X176270D03*
X201270D03*
X226270D03*
X251270D03*
X276270D03*
G54D11*
X101270Y38770D03*
G54D12*
X126270D03*
X151270D03*
X176270D03*
X201270D03*
X226270D03*
X251270D03*
X276270D03*
G54D18*
X51270Y88770D03*
X326270D03*
X76270Y251270D03*
G54D13*
X122590Y191970D03*
X254670Y217370D03*
G54D14*
X165008Y191970D02*
G01X178470D01*
X254670Y201470D02*
G01Y217370D01*
X141132Y182572D02*
G01X122590D01*
Y191970*
X254670Y242570D02*
G01X258070D01*
X254670D02*
G01Y217370D01*
X175168Y201368D02*
G01X165008D01*
X175168D02*
G01X178470Y204670D01*
Y217370*
X203870D02*
G01Y201470D01*
Y217370D02*
G01X201270D01*
X178470*
X229270D02*
G01Y201470D01*
Y217370D02*
G01X203870D01*
X201470Y217570D02*
G01Y268170D01*
Y217570D02*
G01X201270Y217370D01*
X141132Y201368D02*
G01X130972D01*
X127670Y204670*
Y213770*
Y217370*
X102270D02*
G01Y201470D01*
Y217370D02*
G01X127670D01*
X102270D02*
G01X76870D01*
Y201470*
X127670Y213770D02*
G01X176070Y262170D01*
Y268170*
X102270Y182470D02*
G01Y166570D01*
X151270D02*
G01X178470D01*
X151270D02*
G01X102270D01*
X165008Y182572D02*
G01X175168D01*
X178470Y179270*
Y166570*
X76870D02*
G01Y182470D01*
Y166570D02*
G01X102270D01*
X151270D02*
G01Y115570D01*
X203870Y166570D02*
G01Y182470D01*
Y166570D02*
G01X229270D01*
X254670*
X280070*
X305470*
Y182470*
X280070D02*
G01Y166570D01*
X254670D02*
G01Y182470D01*
X229270D02*
G01Y166570D01*
M02*
