G04 EAGLE Gerber RS-274X export*
G75*
%MOMM*%
%FSLAX34Y34*%
%LPD*%
%INBottom Copper*%
%IPPOS*%
%AMOC8*
5,1,8,0,0,1.08239X$1,22.5*%
G01*
%ADD10C,1.270000*%
%ADD11R,1.676400X1.676400*%
%ADD12C,1.676400*%
%ADD13C,0.756400*%
%ADD14C,0.304800*%

G36*
X370502Y3004D02*
X370502Y3004D01*
X370528Y3002D01*
X370675Y3024D01*
X370822Y3041D01*
X370847Y3049D01*
X370873Y3053D01*
X371011Y3108D01*
X371150Y3158D01*
X371172Y3172D01*
X371197Y3182D01*
X371318Y3267D01*
X371443Y3347D01*
X371461Y3366D01*
X371483Y3381D01*
X371582Y3491D01*
X371685Y3598D01*
X371699Y3620D01*
X371716Y3640D01*
X371788Y3770D01*
X371864Y3897D01*
X371872Y3922D01*
X371885Y3945D01*
X371925Y4088D01*
X371970Y4229D01*
X371972Y4255D01*
X371980Y4280D01*
X371999Y4524D01*
X371999Y295476D01*
X371997Y295497D01*
X371998Y295517D01*
X371998Y295521D01*
X371998Y295528D01*
X371976Y295675D01*
X371959Y295822D01*
X371951Y295847D01*
X371947Y295873D01*
X371892Y296011D01*
X371842Y296150D01*
X371828Y296172D01*
X371818Y296197D01*
X371733Y296318D01*
X371653Y296443D01*
X371634Y296461D01*
X371619Y296483D01*
X371509Y296582D01*
X371402Y296685D01*
X371380Y296699D01*
X371360Y296716D01*
X371230Y296788D01*
X371103Y296864D01*
X371078Y296872D01*
X371055Y296885D01*
X370912Y296925D01*
X370771Y296970D01*
X370745Y296972D01*
X370720Y296980D01*
X370476Y296999D01*
X4524Y296999D01*
X4498Y296996D01*
X4472Y296998D01*
X4325Y296976D01*
X4178Y296959D01*
X4153Y296951D01*
X4127Y296947D01*
X3989Y296892D01*
X3850Y296842D01*
X3828Y296828D01*
X3803Y296818D01*
X3682Y296733D01*
X3557Y296653D01*
X3539Y296634D01*
X3517Y296619D01*
X3418Y296509D01*
X3315Y296402D01*
X3301Y296380D01*
X3284Y296360D01*
X3212Y296230D01*
X3136Y296103D01*
X3128Y296078D01*
X3115Y296055D01*
X3075Y295912D01*
X3030Y295771D01*
X3028Y295745D01*
X3020Y295720D01*
X3001Y295476D01*
X3001Y4524D01*
X3004Y4498D01*
X3002Y4472D01*
X3024Y4325D01*
X3041Y4178D01*
X3049Y4153D01*
X3053Y4127D01*
X3108Y3989D01*
X3158Y3850D01*
X3172Y3828D01*
X3182Y3803D01*
X3267Y3682D01*
X3347Y3557D01*
X3366Y3539D01*
X3381Y3517D01*
X3491Y3418D01*
X3598Y3315D01*
X3620Y3301D01*
X3640Y3284D01*
X3770Y3212D01*
X3897Y3136D01*
X3922Y3128D01*
X3945Y3115D01*
X4088Y3075D01*
X4229Y3030D01*
X4255Y3028D01*
X4280Y3020D01*
X4524Y3001D01*
X370476Y3001D01*
X370502Y3004D01*
G37*
%LPC*%
G36*
X90789Y27117D02*
X90789Y27117D01*
X89617Y28289D01*
X89617Y46711D01*
X90789Y47883D01*
X94952Y47883D01*
X94978Y47886D01*
X95004Y47884D01*
X95151Y47906D01*
X95298Y47923D01*
X95323Y47931D01*
X95349Y47935D01*
X95487Y47990D01*
X95626Y48040D01*
X95648Y48054D01*
X95673Y48064D01*
X95794Y48149D01*
X95919Y48229D01*
X95937Y48248D01*
X95959Y48263D01*
X96058Y48373D01*
X96161Y48480D01*
X96175Y48502D01*
X96192Y48522D01*
X96264Y48652D01*
X96340Y48779D01*
X96348Y48804D01*
X96361Y48827D01*
X96401Y48970D01*
X96446Y49111D01*
X96448Y49137D01*
X96456Y49162D01*
X96475Y49406D01*
X96475Y102394D01*
X96472Y102420D01*
X96474Y102446D01*
X96452Y102593D01*
X96435Y102740D01*
X96427Y102765D01*
X96423Y102791D01*
X96368Y102929D01*
X96318Y103068D01*
X96304Y103090D01*
X96294Y103115D01*
X96209Y103236D01*
X96129Y103361D01*
X96110Y103379D01*
X96095Y103401D01*
X95985Y103500D01*
X95878Y103603D01*
X95856Y103617D01*
X95836Y103634D01*
X95706Y103706D01*
X95579Y103782D01*
X95554Y103790D01*
X95531Y103803D01*
X95388Y103843D01*
X95247Y103888D01*
X95221Y103890D01*
X95196Y103898D01*
X94952Y103917D01*
X90789Y103917D01*
X89617Y105089D01*
X89617Y123511D01*
X90789Y124683D01*
X94952Y124683D01*
X94978Y124686D01*
X95004Y124684D01*
X95151Y124706D01*
X95298Y124723D01*
X95323Y124731D01*
X95349Y124735D01*
X95487Y124790D01*
X95626Y124840D01*
X95648Y124854D01*
X95673Y124864D01*
X95794Y124949D01*
X95919Y125029D01*
X95937Y125048D01*
X95959Y125063D01*
X96058Y125173D01*
X96161Y125280D01*
X96175Y125302D01*
X96192Y125322D01*
X96264Y125452D01*
X96340Y125579D01*
X96348Y125604D01*
X96361Y125627D01*
X96401Y125770D01*
X96446Y125911D01*
X96448Y125937D01*
X96456Y125962D01*
X96475Y126206D01*
X96475Y170840D01*
X115091Y189456D01*
X115170Y189555D01*
X115254Y189649D01*
X115278Y189691D01*
X115308Y189729D01*
X115362Y189843D01*
X115423Y189954D01*
X115436Y190000D01*
X115457Y190044D01*
X115483Y190167D01*
X115518Y190289D01*
X115523Y190350D01*
X115530Y190385D01*
X115529Y190433D01*
X115537Y190533D01*
X115537Y191850D01*
X116418Y193976D01*
X118044Y195602D01*
X120170Y196483D01*
X121487Y196483D01*
X121613Y196497D01*
X121739Y196504D01*
X121785Y196517D01*
X121833Y196523D01*
X121952Y196565D01*
X122074Y196600D01*
X122116Y196624D01*
X122161Y196640D01*
X122268Y196709D01*
X122378Y196770D01*
X122424Y196810D01*
X122454Y196829D01*
X122488Y196864D01*
X122564Y196929D01*
X142749Y217114D01*
X145260Y219625D01*
X248116Y219625D01*
X248241Y219639D01*
X248368Y219646D01*
X248414Y219659D01*
X248462Y219665D01*
X248581Y219707D01*
X248702Y219742D01*
X248745Y219766D01*
X248790Y219782D01*
X248896Y219851D01*
X249007Y219912D01*
X249053Y219952D01*
X249083Y219971D01*
X249116Y220006D01*
X249193Y220071D01*
X250124Y221002D01*
X252250Y221883D01*
X254550Y221883D01*
X256676Y221002D01*
X258302Y219376D01*
X259183Y217250D01*
X259183Y214950D01*
X258302Y212824D01*
X256676Y211198D01*
X254550Y210317D01*
X252250Y210317D01*
X250124Y211198D01*
X249193Y212129D01*
X249094Y212208D01*
X249000Y212292D01*
X248958Y212316D01*
X248920Y212346D01*
X248806Y212400D01*
X248695Y212461D01*
X248648Y212474D01*
X248605Y212495D01*
X248481Y212521D01*
X248360Y212556D01*
X248299Y212561D01*
X248264Y212568D01*
X248216Y212567D01*
X248116Y212575D01*
X148811Y212575D01*
X148685Y212561D01*
X148559Y212554D01*
X148513Y212541D01*
X148465Y212535D01*
X148346Y212493D01*
X148224Y212458D01*
X148182Y212434D01*
X148137Y212418D01*
X148030Y212349D01*
X147920Y212288D01*
X147874Y212248D01*
X147844Y212229D01*
X147810Y212194D01*
X147734Y212129D01*
X127549Y191944D01*
X127470Y191845D01*
X127386Y191751D01*
X127362Y191709D01*
X127332Y191671D01*
X127278Y191557D01*
X127217Y191446D01*
X127204Y191400D01*
X127183Y191356D01*
X127157Y191233D01*
X127122Y191111D01*
X127117Y191050D01*
X127110Y191015D01*
X127111Y190967D01*
X127103Y190867D01*
X127103Y189550D01*
X126222Y187424D01*
X124596Y185798D01*
X122470Y184917D01*
X121153Y184917D01*
X121027Y184903D01*
X120901Y184896D01*
X120855Y184883D01*
X120807Y184877D01*
X120688Y184835D01*
X120566Y184800D01*
X120524Y184776D01*
X120479Y184760D01*
X120372Y184691D01*
X120262Y184630D01*
X120216Y184590D01*
X120186Y184571D01*
X120152Y184536D01*
X120076Y184471D01*
X103971Y168366D01*
X103892Y168267D01*
X103808Y168173D01*
X103784Y168131D01*
X103754Y168093D01*
X103700Y167979D01*
X103639Y167868D01*
X103626Y167822D01*
X103605Y167778D01*
X103579Y167655D01*
X103544Y167533D01*
X103539Y167472D01*
X103532Y167437D01*
X103533Y167389D01*
X103525Y167289D01*
X103525Y126206D01*
X103528Y126180D01*
X103526Y126154D01*
X103548Y126007D01*
X103565Y125860D01*
X103573Y125835D01*
X103577Y125809D01*
X103632Y125671D01*
X103682Y125532D01*
X103696Y125510D01*
X103706Y125485D01*
X103791Y125364D01*
X103871Y125239D01*
X103890Y125221D01*
X103905Y125199D01*
X104015Y125100D01*
X104122Y124997D01*
X104144Y124983D01*
X104164Y124966D01*
X104294Y124894D01*
X104421Y124818D01*
X104446Y124810D01*
X104469Y124797D01*
X104612Y124757D01*
X104753Y124712D01*
X104779Y124710D01*
X104804Y124702D01*
X105048Y124683D01*
X109211Y124683D01*
X110383Y123511D01*
X110383Y105089D01*
X109211Y103917D01*
X105048Y103917D01*
X105022Y103914D01*
X104996Y103916D01*
X104849Y103894D01*
X104702Y103877D01*
X104677Y103869D01*
X104651Y103865D01*
X104513Y103810D01*
X104374Y103760D01*
X104352Y103746D01*
X104327Y103736D01*
X104206Y103651D01*
X104081Y103571D01*
X104063Y103552D01*
X104041Y103537D01*
X103942Y103427D01*
X103839Y103320D01*
X103825Y103298D01*
X103808Y103278D01*
X103736Y103148D01*
X103660Y103021D01*
X103652Y102996D01*
X103639Y102973D01*
X103599Y102830D01*
X103554Y102689D01*
X103552Y102663D01*
X103544Y102638D01*
X103525Y102394D01*
X103525Y49406D01*
X103528Y49380D01*
X103526Y49354D01*
X103548Y49207D01*
X103565Y49060D01*
X103573Y49035D01*
X103577Y49009D01*
X103632Y48871D01*
X103682Y48732D01*
X103696Y48710D01*
X103706Y48685D01*
X103791Y48564D01*
X103871Y48439D01*
X103890Y48421D01*
X103905Y48399D01*
X104015Y48300D01*
X104122Y48197D01*
X104144Y48183D01*
X104164Y48166D01*
X104294Y48094D01*
X104421Y48018D01*
X104446Y48010D01*
X104469Y47997D01*
X104612Y47957D01*
X104753Y47912D01*
X104779Y47910D01*
X104804Y47902D01*
X105048Y47883D01*
X109211Y47883D01*
X110383Y46711D01*
X110383Y28289D01*
X109211Y27117D01*
X90789Y27117D01*
G37*
%LPD*%
%LPC*%
G36*
X247935Y27117D02*
X247935Y27117D01*
X244119Y28698D01*
X241198Y31619D01*
X239617Y35435D01*
X239617Y39565D01*
X241198Y43381D01*
X244119Y46302D01*
X247935Y47883D01*
X248567Y47883D01*
X248702Y47898D01*
X248837Y47907D01*
X248874Y47918D01*
X248913Y47923D01*
X249041Y47968D01*
X249171Y48007D01*
X249204Y48027D01*
X249241Y48040D01*
X249355Y48114D01*
X249473Y48181D01*
X249501Y48208D01*
X249534Y48229D01*
X249628Y48327D01*
X249727Y48419D01*
X249749Y48452D01*
X249776Y48480D01*
X249846Y48596D01*
X249921Y48709D01*
X249940Y48753D01*
X249955Y48779D01*
X249970Y48826D01*
X250015Y48934D01*
X268308Y105131D01*
X268312Y105148D01*
X268319Y105163D01*
X268347Y105318D01*
X268378Y105472D01*
X268377Y105489D01*
X268380Y105506D01*
X268372Y105664D01*
X268368Y105821D01*
X268363Y105837D01*
X268362Y105854D01*
X268319Y106006D01*
X268278Y106158D01*
X268271Y106173D01*
X268266Y106189D01*
X268189Y106327D01*
X268115Y106466D01*
X268104Y106478D01*
X268096Y106493D01*
X267937Y106679D01*
X266198Y108419D01*
X264617Y112235D01*
X264617Y116365D01*
X266198Y120181D01*
X269119Y123102D01*
X272935Y124683D01*
X277065Y124683D01*
X280881Y123102D01*
X283802Y120181D01*
X285383Y116365D01*
X285383Y112235D01*
X283802Y108419D01*
X280881Y105498D01*
X277065Y103917D01*
X276433Y103917D01*
X276298Y103902D01*
X276163Y103893D01*
X276126Y103882D01*
X276087Y103877D01*
X275959Y103832D01*
X275829Y103793D01*
X275796Y103773D01*
X275759Y103760D01*
X275645Y103686D01*
X275527Y103619D01*
X275499Y103592D01*
X275466Y103571D01*
X275372Y103473D01*
X275273Y103381D01*
X275251Y103348D01*
X275224Y103320D01*
X275154Y103204D01*
X275079Y103091D01*
X275060Y103047D01*
X275045Y103021D01*
X275030Y102974D01*
X274985Y102866D01*
X256692Y46669D01*
X256688Y46652D01*
X256681Y46637D01*
X256653Y46482D01*
X256622Y46328D01*
X256623Y46311D01*
X256620Y46294D01*
X256628Y46136D01*
X256632Y45979D01*
X256637Y45963D01*
X256638Y45946D01*
X256681Y45794D01*
X256722Y45642D01*
X256729Y45627D01*
X256734Y45611D01*
X256811Y45473D01*
X256885Y45334D01*
X256896Y45322D01*
X256904Y45307D01*
X257063Y45121D01*
X258802Y43381D01*
X260383Y39565D01*
X260383Y35435D01*
X258802Y31619D01*
X255881Y28698D01*
X252065Y27117D01*
X247935Y27117D01*
G37*
%LPD*%
%LPC*%
G36*
X222935Y27117D02*
X222935Y27117D01*
X219119Y28698D01*
X216198Y31619D01*
X214617Y35435D01*
X214617Y39565D01*
X216198Y43381D01*
X219119Y46302D01*
X222935Y47883D01*
X223567Y47883D01*
X223702Y47898D01*
X223837Y47907D01*
X223874Y47918D01*
X223913Y47923D01*
X224041Y47968D01*
X224171Y48007D01*
X224204Y48027D01*
X224241Y48040D01*
X224355Y48114D01*
X224473Y48181D01*
X224501Y48208D01*
X224534Y48229D01*
X224628Y48327D01*
X224727Y48419D01*
X224749Y48452D01*
X224776Y48480D01*
X224846Y48596D01*
X224921Y48709D01*
X224940Y48753D01*
X224955Y48779D01*
X224970Y48826D01*
X225015Y48934D01*
X243308Y105131D01*
X243312Y105148D01*
X243319Y105163D01*
X243347Y105318D01*
X243378Y105472D01*
X243377Y105489D01*
X243380Y105506D01*
X243372Y105664D01*
X243368Y105821D01*
X243363Y105837D01*
X243362Y105854D01*
X243319Y106006D01*
X243278Y106158D01*
X243271Y106173D01*
X243266Y106189D01*
X243189Y106327D01*
X243115Y106466D01*
X243104Y106478D01*
X243096Y106493D01*
X242937Y106679D01*
X241198Y108419D01*
X239617Y112235D01*
X239617Y116365D01*
X241198Y120181D01*
X244119Y123102D01*
X247935Y124683D01*
X252065Y124683D01*
X255881Y123102D01*
X258802Y120181D01*
X260383Y116365D01*
X260383Y112235D01*
X258802Y108419D01*
X255881Y105498D01*
X252065Y103917D01*
X251433Y103917D01*
X251298Y103902D01*
X251163Y103893D01*
X251126Y103882D01*
X251087Y103877D01*
X250959Y103832D01*
X250829Y103793D01*
X250796Y103773D01*
X250759Y103760D01*
X250645Y103686D01*
X250527Y103619D01*
X250499Y103592D01*
X250466Y103571D01*
X250372Y103473D01*
X250273Y103381D01*
X250251Y103348D01*
X250224Y103320D01*
X250154Y103204D01*
X250079Y103091D01*
X250060Y103047D01*
X250045Y103021D01*
X250030Y102974D01*
X249985Y102866D01*
X231692Y46669D01*
X231688Y46652D01*
X231681Y46637D01*
X231653Y46482D01*
X231622Y46328D01*
X231623Y46311D01*
X231620Y46294D01*
X231628Y46136D01*
X231632Y45979D01*
X231637Y45963D01*
X231638Y45946D01*
X231681Y45794D01*
X231722Y45642D01*
X231729Y45627D01*
X231734Y45611D01*
X231811Y45473D01*
X231885Y45334D01*
X231896Y45322D01*
X231904Y45307D01*
X232063Y45121D01*
X233802Y43381D01*
X235383Y39565D01*
X235383Y35435D01*
X233802Y31619D01*
X230881Y28698D01*
X227065Y27117D01*
X222935Y27117D01*
G37*
%LPD*%
%LPC*%
G36*
X197935Y27117D02*
X197935Y27117D01*
X194119Y28698D01*
X191198Y31619D01*
X189617Y35435D01*
X189617Y39565D01*
X191198Y43381D01*
X194119Y46302D01*
X197935Y47883D01*
X198567Y47883D01*
X198702Y47898D01*
X198837Y47907D01*
X198874Y47918D01*
X198913Y47923D01*
X199041Y47968D01*
X199171Y48007D01*
X199204Y48027D01*
X199241Y48040D01*
X199355Y48114D01*
X199473Y48181D01*
X199501Y48208D01*
X199534Y48229D01*
X199628Y48327D01*
X199727Y48419D01*
X199749Y48452D01*
X199776Y48480D01*
X199846Y48596D01*
X199921Y48709D01*
X199940Y48753D01*
X199955Y48779D01*
X199970Y48826D01*
X200015Y48934D01*
X218308Y105131D01*
X218312Y105148D01*
X218319Y105163D01*
X218347Y105318D01*
X218378Y105472D01*
X218377Y105489D01*
X218380Y105506D01*
X218372Y105664D01*
X218368Y105821D01*
X218363Y105837D01*
X218362Y105854D01*
X218319Y106006D01*
X218278Y106158D01*
X218271Y106173D01*
X218266Y106189D01*
X218189Y106327D01*
X218115Y106466D01*
X218104Y106478D01*
X218096Y106493D01*
X217937Y106679D01*
X216198Y108419D01*
X214617Y112235D01*
X214617Y116365D01*
X216198Y120181D01*
X219119Y123102D01*
X222935Y124683D01*
X227065Y124683D01*
X230881Y123102D01*
X233802Y120181D01*
X235383Y116365D01*
X235383Y112235D01*
X233802Y108419D01*
X230881Y105498D01*
X227065Y103917D01*
X226433Y103917D01*
X226298Y103902D01*
X226163Y103893D01*
X226126Y103882D01*
X226087Y103877D01*
X225959Y103832D01*
X225829Y103793D01*
X225796Y103773D01*
X225759Y103760D01*
X225645Y103686D01*
X225527Y103619D01*
X225499Y103592D01*
X225466Y103571D01*
X225372Y103473D01*
X225273Y103381D01*
X225251Y103348D01*
X225224Y103320D01*
X225154Y103204D01*
X225079Y103091D01*
X225060Y103047D01*
X225045Y103021D01*
X225030Y102974D01*
X224985Y102866D01*
X206692Y46669D01*
X206688Y46652D01*
X206681Y46637D01*
X206653Y46482D01*
X206622Y46328D01*
X206623Y46311D01*
X206620Y46294D01*
X206628Y46136D01*
X206632Y45979D01*
X206637Y45963D01*
X206638Y45946D01*
X206681Y45794D01*
X206722Y45642D01*
X206729Y45627D01*
X206734Y45611D01*
X206811Y45473D01*
X206885Y45334D01*
X206896Y45322D01*
X206904Y45307D01*
X207063Y45121D01*
X208802Y43381D01*
X210383Y39565D01*
X210383Y35435D01*
X208802Y31619D01*
X205881Y28698D01*
X202065Y27117D01*
X197935Y27117D01*
G37*
%LPD*%
%LPC*%
G36*
X172935Y27117D02*
X172935Y27117D01*
X169119Y28698D01*
X166198Y31619D01*
X164617Y35435D01*
X164617Y39565D01*
X166198Y43381D01*
X169119Y46302D01*
X172935Y47883D01*
X173567Y47883D01*
X173702Y47898D01*
X173837Y47907D01*
X173874Y47918D01*
X173913Y47923D01*
X174041Y47968D01*
X174171Y48007D01*
X174204Y48027D01*
X174241Y48040D01*
X174355Y48114D01*
X174473Y48181D01*
X174501Y48208D01*
X174534Y48229D01*
X174628Y48327D01*
X174727Y48419D01*
X174749Y48452D01*
X174776Y48480D01*
X174846Y48596D01*
X174921Y48709D01*
X174940Y48753D01*
X174955Y48779D01*
X174970Y48826D01*
X175015Y48934D01*
X193308Y105131D01*
X193312Y105148D01*
X193319Y105163D01*
X193347Y105318D01*
X193378Y105472D01*
X193377Y105489D01*
X193380Y105506D01*
X193372Y105664D01*
X193368Y105821D01*
X193363Y105837D01*
X193362Y105854D01*
X193319Y106006D01*
X193278Y106158D01*
X193271Y106173D01*
X193266Y106189D01*
X193189Y106327D01*
X193115Y106466D01*
X193104Y106478D01*
X193096Y106493D01*
X192937Y106679D01*
X191198Y108419D01*
X189617Y112235D01*
X189617Y116365D01*
X191198Y120181D01*
X194119Y123102D01*
X197935Y124683D01*
X202065Y124683D01*
X205881Y123102D01*
X208802Y120181D01*
X210383Y116365D01*
X210383Y112235D01*
X208802Y108419D01*
X205881Y105498D01*
X202065Y103917D01*
X201433Y103917D01*
X201298Y103902D01*
X201163Y103893D01*
X201126Y103882D01*
X201087Y103877D01*
X200959Y103832D01*
X200829Y103793D01*
X200796Y103773D01*
X200759Y103760D01*
X200645Y103686D01*
X200527Y103619D01*
X200499Y103592D01*
X200466Y103571D01*
X200372Y103473D01*
X200273Y103381D01*
X200251Y103348D01*
X200224Y103320D01*
X200154Y103204D01*
X200079Y103091D01*
X200060Y103047D01*
X200045Y103021D01*
X200030Y102974D01*
X199985Y102866D01*
X181692Y46669D01*
X181688Y46652D01*
X181681Y46637D01*
X181653Y46482D01*
X181622Y46328D01*
X181623Y46311D01*
X181620Y46294D01*
X181628Y46136D01*
X181632Y45979D01*
X181637Y45963D01*
X181638Y45946D01*
X181681Y45794D01*
X181722Y45642D01*
X181729Y45627D01*
X181734Y45611D01*
X181811Y45473D01*
X181885Y45334D01*
X181896Y45322D01*
X181904Y45307D01*
X182063Y45121D01*
X183802Y43381D01*
X185383Y39565D01*
X185383Y35435D01*
X183802Y31619D01*
X180881Y28698D01*
X177065Y27117D01*
X172935Y27117D01*
G37*
%LPD*%
%LPC*%
G36*
X147935Y27117D02*
X147935Y27117D01*
X144119Y28698D01*
X141198Y31619D01*
X139617Y35435D01*
X139617Y39565D01*
X141198Y43381D01*
X144119Y46302D01*
X147935Y47883D01*
X148567Y47883D01*
X148702Y47898D01*
X148837Y47907D01*
X148874Y47918D01*
X148913Y47923D01*
X149041Y47968D01*
X149171Y48007D01*
X149204Y48027D01*
X149241Y48040D01*
X149355Y48114D01*
X149473Y48181D01*
X149501Y48208D01*
X149534Y48229D01*
X149628Y48327D01*
X149727Y48419D01*
X149749Y48452D01*
X149776Y48480D01*
X149846Y48596D01*
X149921Y48709D01*
X149940Y48753D01*
X149955Y48779D01*
X149970Y48826D01*
X150015Y48934D01*
X168308Y105131D01*
X168312Y105148D01*
X168319Y105163D01*
X168347Y105318D01*
X168378Y105472D01*
X168377Y105489D01*
X168380Y105506D01*
X168372Y105664D01*
X168368Y105821D01*
X168363Y105837D01*
X168362Y105854D01*
X168319Y106006D01*
X168278Y106158D01*
X168271Y106173D01*
X168266Y106189D01*
X168189Y106327D01*
X168115Y106466D01*
X168104Y106478D01*
X168096Y106493D01*
X167937Y106679D01*
X166198Y108419D01*
X164617Y112235D01*
X164617Y116365D01*
X166198Y120181D01*
X169119Y123102D01*
X172935Y124683D01*
X177065Y124683D01*
X180881Y123102D01*
X183802Y120181D01*
X185383Y116365D01*
X185383Y112235D01*
X183802Y108419D01*
X180881Y105498D01*
X177065Y103917D01*
X176433Y103917D01*
X176298Y103902D01*
X176163Y103893D01*
X176126Y103882D01*
X176087Y103877D01*
X175959Y103832D01*
X175829Y103793D01*
X175796Y103773D01*
X175759Y103760D01*
X175645Y103686D01*
X175527Y103619D01*
X175499Y103592D01*
X175466Y103571D01*
X175372Y103473D01*
X175273Y103381D01*
X175251Y103348D01*
X175224Y103320D01*
X175154Y103204D01*
X175079Y103091D01*
X175060Y103047D01*
X175045Y103021D01*
X175030Y102974D01*
X174985Y102866D01*
X156692Y46669D01*
X156688Y46652D01*
X156681Y46637D01*
X156653Y46482D01*
X156622Y46328D01*
X156623Y46311D01*
X156620Y46294D01*
X156628Y46136D01*
X156632Y45979D01*
X156637Y45963D01*
X156638Y45946D01*
X156681Y45794D01*
X156722Y45642D01*
X156729Y45627D01*
X156734Y45611D01*
X156811Y45473D01*
X156885Y45334D01*
X156896Y45322D01*
X156904Y45307D01*
X157063Y45121D01*
X158802Y43381D01*
X160383Y39565D01*
X160383Y35435D01*
X158802Y31619D01*
X155881Y28698D01*
X152065Y27117D01*
X147935Y27117D01*
G37*
%LPD*%
%LPC*%
G36*
X334118Y245499D02*
X334118Y245499D01*
X327870Y248087D01*
X323087Y252870D01*
X320499Y259118D01*
X320499Y265882D01*
X323087Y272130D01*
X327870Y276913D01*
X334118Y279501D01*
X340882Y279501D01*
X347130Y276913D01*
X351913Y272130D01*
X354501Y265882D01*
X354501Y259118D01*
X351913Y252870D01*
X347130Y248087D01*
X340882Y245499D01*
X334118Y245499D01*
G37*
%LPD*%
%LPC*%
G36*
X34118Y245499D02*
X34118Y245499D01*
X27870Y248087D01*
X23087Y252870D01*
X20499Y259118D01*
X20499Y265882D01*
X23087Y272130D01*
X27870Y276913D01*
X34118Y279501D01*
X40882Y279501D01*
X47130Y276913D01*
X51913Y272130D01*
X54501Y265882D01*
X54501Y259118D01*
X51913Y252870D01*
X47130Y248087D01*
X40882Y245499D01*
X34118Y245499D01*
G37*
%LPD*%
%LPC*%
G36*
X334118Y20499D02*
X334118Y20499D01*
X327870Y23087D01*
X323087Y27870D01*
X320499Y34118D01*
X320499Y40882D01*
X323087Y47130D01*
X327870Y51913D01*
X334118Y54501D01*
X340882Y54501D01*
X347130Y51913D01*
X351913Y47130D01*
X354501Y40882D01*
X354501Y34118D01*
X351913Y27870D01*
X347130Y23087D01*
X340882Y20499D01*
X334118Y20499D01*
G37*
%LPD*%
%LPC*%
G36*
X34118Y20499D02*
X34118Y20499D01*
X27870Y23087D01*
X23087Y27870D01*
X20499Y34118D01*
X20499Y40882D01*
X23087Y47130D01*
X27870Y51913D01*
X34118Y54501D01*
X40882Y54501D01*
X47130Y51913D01*
X51913Y47130D01*
X54501Y40882D01*
X54501Y34118D01*
X51913Y27870D01*
X47130Y23087D01*
X40882Y20499D01*
X34118Y20499D01*
G37*
%LPD*%
%LPC*%
G36*
X147935Y103917D02*
X147935Y103917D01*
X144119Y105498D01*
X141198Y108419D01*
X139617Y112235D01*
X139617Y116365D01*
X141198Y120181D01*
X144119Y123102D01*
X147935Y124683D01*
X152065Y124683D01*
X155881Y123102D01*
X158802Y120181D01*
X160383Y116365D01*
X160383Y112235D01*
X158802Y108419D01*
X155881Y105498D01*
X152065Y103917D01*
X147935Y103917D01*
G37*
%LPD*%
%LPC*%
G36*
X272935Y27117D02*
X272935Y27117D01*
X269119Y28698D01*
X266198Y31619D01*
X264617Y35435D01*
X264617Y39565D01*
X266198Y43381D01*
X269119Y46302D01*
X272935Y47883D01*
X277065Y47883D01*
X280881Y46302D01*
X283802Y43381D01*
X285383Y39565D01*
X285383Y35435D01*
X283802Y31619D01*
X280881Y28698D01*
X277065Y27117D01*
X272935Y27117D01*
G37*
%LPD*%
%LPC*%
G36*
X198539Y258549D02*
X198539Y258549D01*
X195470Y259821D01*
X193121Y262170D01*
X191849Y265239D01*
X191849Y268561D01*
X193121Y271630D01*
X195470Y273979D01*
X198539Y275251D01*
X201861Y275251D01*
X204930Y273979D01*
X207279Y271630D01*
X208551Y268561D01*
X208551Y265239D01*
X207279Y262170D01*
X204930Y259821D01*
X201861Y258549D01*
X198539Y258549D01*
G37*
%LPD*%
%LPC*%
G36*
X173139Y258549D02*
X173139Y258549D01*
X170070Y259821D01*
X167721Y262170D01*
X166449Y265239D01*
X166449Y268561D01*
X167721Y271630D01*
X170070Y273979D01*
X173139Y275251D01*
X176461Y275251D01*
X179530Y273979D01*
X181879Y271630D01*
X183151Y268561D01*
X183151Y265239D01*
X181879Y262170D01*
X179530Y259821D01*
X176461Y258549D01*
X173139Y258549D01*
G37*
%LPD*%
%LPC*%
G36*
X127249Y116549D02*
X127249Y116549D01*
X127249Y125003D01*
X127558Y124954D01*
X129193Y124422D01*
X130725Y123642D01*
X132116Y122631D01*
X133331Y121416D01*
X134342Y120025D01*
X135122Y118493D01*
X135654Y116858D01*
X135703Y116549D01*
X127249Y116549D01*
G37*
%LPD*%
%LPC*%
G36*
X127249Y39749D02*
X127249Y39749D01*
X127249Y48203D01*
X127558Y48154D01*
X129193Y47622D01*
X130725Y46842D01*
X132116Y45831D01*
X133331Y44616D01*
X134342Y43225D01*
X135122Y41693D01*
X135654Y40058D01*
X135703Y39749D01*
X127249Y39749D01*
G37*
%LPD*%
%LPC*%
G36*
X114297Y116549D02*
X114297Y116549D01*
X114346Y116858D01*
X114878Y118493D01*
X115658Y120025D01*
X116669Y121416D01*
X117884Y122631D01*
X119275Y123642D01*
X120807Y124422D01*
X122442Y124954D01*
X122751Y125003D01*
X122751Y116549D01*
X114297Y116549D01*
G37*
%LPD*%
%LPC*%
G36*
X127249Y112051D02*
X127249Y112051D01*
X135703Y112051D01*
X135654Y111742D01*
X135122Y110107D01*
X134342Y108575D01*
X133331Y107184D01*
X132116Y105969D01*
X130725Y104958D01*
X129193Y104178D01*
X127558Y103646D01*
X127249Y103597D01*
X127249Y112051D01*
G37*
%LPD*%
%LPC*%
G36*
X114297Y39749D02*
X114297Y39749D01*
X114346Y40058D01*
X114878Y41693D01*
X115658Y43225D01*
X116669Y44616D01*
X117884Y45831D01*
X119275Y46842D01*
X120807Y47622D01*
X122442Y48154D01*
X122751Y48203D01*
X122751Y39749D01*
X114297Y39749D01*
G37*
%LPD*%
%LPC*%
G36*
X127249Y35251D02*
X127249Y35251D01*
X135703Y35251D01*
X135654Y34942D01*
X135122Y33307D01*
X134342Y31775D01*
X133331Y30384D01*
X132116Y29169D01*
X130725Y28158D01*
X129193Y27378D01*
X127558Y26846D01*
X127249Y26797D01*
X127249Y35251D01*
G37*
%LPD*%
%LPC*%
G36*
X122442Y103646D02*
X122442Y103646D01*
X120807Y104178D01*
X119275Y104958D01*
X117884Y105969D01*
X116669Y107184D01*
X115658Y108575D01*
X114878Y110107D01*
X114346Y111742D01*
X114297Y112051D01*
X122751Y112051D01*
X122751Y103597D01*
X122442Y103646D01*
G37*
%LPD*%
%LPC*%
G36*
X122442Y26846D02*
X122442Y26846D01*
X120807Y27378D01*
X119275Y28158D01*
X117884Y29169D01*
X116669Y30384D01*
X115658Y31775D01*
X114878Y33307D01*
X114346Y34942D01*
X114297Y35251D01*
X122751Y35251D01*
X122751Y26797D01*
X122442Y26846D01*
G37*
%LPD*%
D10*
X200200Y266900D03*
X174800Y266900D03*
D11*
X100000Y114300D03*
D12*
X125000Y114300D03*
X150000Y114300D03*
X175000Y114300D03*
X200000Y114300D03*
X225000Y114300D03*
X250000Y114300D03*
X275000Y114300D03*
D11*
X100000Y37500D03*
D12*
X125000Y37500D03*
X150000Y37500D03*
X175000Y37500D03*
X200000Y37500D03*
X225000Y37500D03*
X250000Y37500D03*
X275000Y37500D03*
D13*
X121320Y190700D03*
X253400Y216100D03*
D14*
X100000Y114300D02*
X100000Y37500D01*
X100000Y114300D02*
X100000Y169380D01*
X121320Y190700D01*
X146720Y216100D01*
X253400Y216100D01*
X175000Y114300D02*
X150000Y37500D01*
X175000Y37500D02*
X200000Y114300D01*
X225000Y114300D02*
X200000Y37500D01*
X225000Y37500D02*
X250000Y114300D01*
X275000Y114300D02*
X250000Y37500D01*
M02*
