G04 EAGLE Gerber RS-274X export*
G75*
%MOMM*%
%FSLAX34Y34*%
%LPD*%
%INTop Copper*%
%IPPOS*%
%AMOC8*
5,1,8,0,0,1.08239X$1,22.5*%
G01*
%ADD10R,1.500000X1.300000*%
%ADD11R,1.300000X1.500000*%
%ADD12C,1.270000*%
%ADD13R,1.473200X0.558800*%
%ADD14R,1.676400X1.676400*%
%ADD15C,1.676400*%
%ADD16C,0.304800*%
%ADD17C,0.756400*%

G36*
X370502Y3004D02*
X370502Y3004D01*
X370528Y3002D01*
X370675Y3024D01*
X370822Y3041D01*
X370847Y3049D01*
X370873Y3053D01*
X371011Y3108D01*
X371150Y3158D01*
X371172Y3172D01*
X371197Y3182D01*
X371318Y3267D01*
X371443Y3347D01*
X371461Y3366D01*
X371483Y3381D01*
X371582Y3491D01*
X371685Y3598D01*
X371699Y3620D01*
X371716Y3640D01*
X371788Y3770D01*
X371864Y3897D01*
X371872Y3922D01*
X371885Y3945D01*
X371925Y4088D01*
X371970Y4229D01*
X371972Y4255D01*
X371980Y4280D01*
X371999Y4524D01*
X371999Y295476D01*
X371997Y295497D01*
X371998Y295517D01*
X371998Y295521D01*
X371998Y295528D01*
X371976Y295675D01*
X371959Y295822D01*
X371951Y295847D01*
X371947Y295873D01*
X371892Y296011D01*
X371842Y296150D01*
X371828Y296172D01*
X371818Y296197D01*
X371733Y296318D01*
X371653Y296443D01*
X371634Y296461D01*
X371619Y296483D01*
X371509Y296582D01*
X371402Y296685D01*
X371380Y296699D01*
X371360Y296716D01*
X371230Y296788D01*
X371103Y296864D01*
X371078Y296872D01*
X371055Y296885D01*
X370912Y296925D01*
X370771Y296970D01*
X370745Y296972D01*
X370720Y296980D01*
X370476Y296999D01*
X4524Y296999D01*
X4498Y296996D01*
X4472Y296998D01*
X4325Y296976D01*
X4178Y296959D01*
X4153Y296951D01*
X4127Y296947D01*
X3989Y296892D01*
X3850Y296842D01*
X3828Y296828D01*
X3803Y296818D01*
X3682Y296733D01*
X3557Y296653D01*
X3539Y296634D01*
X3517Y296619D01*
X3418Y296509D01*
X3315Y296402D01*
X3301Y296380D01*
X3284Y296360D01*
X3212Y296230D01*
X3136Y296103D01*
X3128Y296078D01*
X3115Y296055D01*
X3075Y295912D01*
X3030Y295771D01*
X3028Y295745D01*
X3020Y295720D01*
X3001Y295476D01*
X3001Y4524D01*
X3004Y4498D01*
X3002Y4472D01*
X3024Y4325D01*
X3041Y4178D01*
X3049Y4153D01*
X3053Y4127D01*
X3108Y3989D01*
X3158Y3850D01*
X3172Y3828D01*
X3182Y3803D01*
X3267Y3682D01*
X3347Y3557D01*
X3366Y3539D01*
X3381Y3517D01*
X3491Y3418D01*
X3598Y3315D01*
X3620Y3301D01*
X3640Y3284D01*
X3770Y3212D01*
X3897Y3136D01*
X3922Y3128D01*
X3945Y3115D01*
X4088Y3075D01*
X4229Y3030D01*
X4255Y3028D01*
X4280Y3020D01*
X4524Y3001D01*
X370476Y3001D01*
X370502Y3004D01*
G37*
%LPC*%
G36*
X201140Y161775D02*
X201140Y161775D01*
X199075Y163840D01*
X199075Y171176D01*
X199072Y171202D01*
X199074Y171228D01*
X199052Y171375D01*
X199035Y171522D01*
X199027Y171547D01*
X199023Y171573D01*
X198968Y171711D01*
X198918Y171850D01*
X198904Y171872D01*
X198894Y171897D01*
X198809Y172018D01*
X198729Y172143D01*
X198710Y172161D01*
X198695Y172183D01*
X198585Y172282D01*
X198478Y172385D01*
X198456Y172399D01*
X198436Y172416D01*
X198306Y172488D01*
X198179Y172564D01*
X198154Y172572D01*
X198131Y172585D01*
X197988Y172625D01*
X197847Y172670D01*
X197821Y172672D01*
X197796Y172680D01*
X197552Y172699D01*
X194271Y172699D01*
X193099Y173871D01*
X193099Y188529D01*
X194193Y189623D01*
X194210Y189643D01*
X194230Y189660D01*
X194318Y189780D01*
X194410Y189896D01*
X194421Y189920D01*
X194437Y189941D01*
X194496Y190077D01*
X194559Y190211D01*
X194564Y190237D01*
X194575Y190261D01*
X194601Y190407D01*
X194632Y190552D01*
X194632Y190578D01*
X194637Y190604D01*
X194629Y190752D01*
X194626Y190900D01*
X194620Y190926D01*
X194619Y190952D01*
X194578Y191094D01*
X194541Y191238D01*
X194529Y191261D01*
X194522Y191287D01*
X194450Y191416D01*
X194382Y191548D01*
X194365Y191568D01*
X194352Y191591D01*
X194193Y191777D01*
X193099Y192871D01*
X193099Y207529D01*
X194271Y208701D01*
X197552Y208701D01*
X197578Y208704D01*
X197604Y208702D01*
X197751Y208724D01*
X197898Y208741D01*
X197923Y208749D01*
X197949Y208753D01*
X198087Y208808D01*
X198226Y208858D01*
X198248Y208872D01*
X198273Y208882D01*
X198394Y208967D01*
X198519Y209047D01*
X198537Y209066D01*
X198559Y209081D01*
X198658Y209191D01*
X198761Y209298D01*
X198775Y209320D01*
X198792Y209340D01*
X198864Y209470D01*
X198940Y209597D01*
X198948Y209622D01*
X198961Y209645D01*
X199001Y209788D01*
X199046Y209929D01*
X199048Y209955D01*
X199056Y209980D01*
X199075Y210224D01*
X199075Y211052D01*
X199072Y211078D01*
X199074Y211104D01*
X199052Y211251D01*
X199035Y211398D01*
X199027Y211423D01*
X199023Y211449D01*
X198968Y211587D01*
X198918Y211726D01*
X198904Y211748D01*
X198894Y211773D01*
X198810Y211894D01*
X198729Y212019D01*
X198710Y212037D01*
X198695Y212059D01*
X198585Y212158D01*
X198478Y212261D01*
X198456Y212275D01*
X198436Y212292D01*
X198306Y212364D01*
X198179Y212440D01*
X198154Y212448D01*
X198131Y212461D01*
X197988Y212501D01*
X197847Y212546D01*
X197821Y212548D01*
X197796Y212556D01*
X197552Y212575D01*
X182248Y212575D01*
X182222Y212572D01*
X182196Y212574D01*
X182049Y212552D01*
X181902Y212535D01*
X181877Y212527D01*
X181851Y212523D01*
X181713Y212468D01*
X181574Y212418D01*
X181552Y212404D01*
X181527Y212394D01*
X181406Y212309D01*
X181281Y212229D01*
X181263Y212210D01*
X181241Y212195D01*
X181142Y212085D01*
X181039Y211978D01*
X181025Y211956D01*
X181008Y211936D01*
X180936Y211806D01*
X180860Y211679D01*
X180852Y211654D01*
X180839Y211631D01*
X180799Y211488D01*
X180754Y211347D01*
X180752Y211321D01*
X180744Y211296D01*
X180725Y211052D01*
X180725Y201940D01*
X175358Y196573D01*
X174894Y196573D01*
X174844Y196567D01*
X174793Y196570D01*
X174671Y196548D01*
X174548Y196533D01*
X174500Y196516D01*
X174450Y196507D01*
X174337Y196458D01*
X174220Y196416D01*
X174177Y196388D01*
X174130Y196368D01*
X174031Y196294D01*
X173927Y196227D01*
X173892Y196190D01*
X173851Y196160D01*
X173771Y196065D01*
X173685Y195976D01*
X173659Y195932D01*
X173626Y195893D01*
X173570Y195783D01*
X173506Y195677D01*
X173491Y195629D01*
X173467Y195583D01*
X173438Y195463D01*
X173400Y195345D01*
X173396Y195294D01*
X173384Y195245D01*
X173382Y195121D01*
X173372Y194998D01*
X173380Y194947D01*
X173379Y194896D01*
X173423Y194656D01*
X173645Y193829D01*
X173645Y192223D01*
X163738Y192223D01*
X153831Y192223D01*
X153831Y193829D01*
X154004Y194475D01*
X154287Y194963D01*
X154287Y194965D01*
X154288Y194966D01*
X154357Y195127D01*
X154425Y195283D01*
X154425Y195284D01*
X154426Y195286D01*
X154455Y195447D01*
X154487Y195626D01*
X154487Y195627D01*
X154488Y195629D01*
X154479Y195798D01*
X154470Y195974D01*
X154470Y195975D01*
X154470Y195977D01*
X154425Y196130D01*
X154374Y196309D01*
X154373Y196310D01*
X154373Y196312D01*
X154371Y196315D01*
X154371Y203721D01*
X155543Y204893D01*
X172152Y204893D01*
X172178Y204896D01*
X172204Y204894D01*
X172351Y204916D01*
X172498Y204933D01*
X172523Y204941D01*
X172549Y204945D01*
X172687Y205000D01*
X172826Y205050D01*
X172848Y205064D01*
X172873Y205074D01*
X172994Y205159D01*
X173119Y205239D01*
X173137Y205258D01*
X173159Y205273D01*
X173258Y205383D01*
X173361Y205490D01*
X173375Y205512D01*
X173392Y205532D01*
X173464Y205662D01*
X173540Y205789D01*
X173548Y205814D01*
X173561Y205837D01*
X173601Y205980D01*
X173646Y206121D01*
X173648Y206147D01*
X173656Y206172D01*
X173675Y206416D01*
X173675Y217560D01*
X175740Y219625D01*
X195152Y219625D01*
X195178Y219628D01*
X195204Y219626D01*
X195351Y219648D01*
X195498Y219665D01*
X195523Y219673D01*
X195549Y219677D01*
X195687Y219732D01*
X195826Y219782D01*
X195848Y219796D01*
X195873Y219806D01*
X195994Y219891D01*
X196119Y219971D01*
X196137Y219990D01*
X196159Y220005D01*
X196258Y220115D01*
X196361Y220222D01*
X196375Y220244D01*
X196392Y220264D01*
X196464Y220394D01*
X196540Y220521D01*
X196548Y220546D01*
X196561Y220569D01*
X196601Y220712D01*
X196646Y220853D01*
X196648Y220879D01*
X196656Y220904D01*
X196675Y221148D01*
X196675Y258303D01*
X196667Y258379D01*
X196668Y258456D01*
X196647Y258552D01*
X196635Y258650D01*
X196610Y258722D01*
X196593Y258796D01*
X196551Y258885D01*
X196518Y258978D01*
X196476Y259042D01*
X196444Y259111D01*
X196382Y259188D01*
X196329Y259271D01*
X196274Y259324D01*
X196226Y259383D01*
X196149Y259444D01*
X196078Y259513D01*
X196013Y259552D01*
X195953Y259599D01*
X195820Y259667D01*
X195779Y259692D01*
X195761Y259697D01*
X195735Y259711D01*
X195470Y259821D01*
X193121Y262170D01*
X191849Y265239D01*
X191849Y268561D01*
X193121Y271630D01*
X195470Y273979D01*
X198539Y275251D01*
X201861Y275251D01*
X204930Y273979D01*
X207279Y271630D01*
X208551Y268561D01*
X208551Y265239D01*
X207279Y262170D01*
X204930Y259821D01*
X204665Y259711D01*
X204598Y259674D01*
X204527Y259645D01*
X204447Y259589D01*
X204360Y259541D01*
X204304Y259490D01*
X204241Y259446D01*
X204175Y259373D01*
X204102Y259307D01*
X204059Y259244D01*
X204008Y259188D01*
X203960Y259101D01*
X203904Y259021D01*
X203876Y258950D01*
X203839Y258883D01*
X203812Y258788D01*
X203776Y258696D01*
X203765Y258621D01*
X203744Y258547D01*
X203732Y258398D01*
X203725Y258352D01*
X203727Y258332D01*
X203725Y258303D01*
X203725Y221148D01*
X203728Y221122D01*
X203726Y221096D01*
X203748Y220949D01*
X203765Y220802D01*
X203773Y220777D01*
X203777Y220751D01*
X203832Y220613D01*
X203882Y220474D01*
X203896Y220452D01*
X203906Y220427D01*
X203991Y220306D01*
X204071Y220181D01*
X204090Y220163D01*
X204105Y220141D01*
X204215Y220042D01*
X204322Y219939D01*
X204344Y219925D01*
X204364Y219908D01*
X204494Y219836D01*
X204621Y219760D01*
X204646Y219752D01*
X204669Y219739D01*
X204812Y219699D01*
X204953Y219654D01*
X204979Y219652D01*
X205004Y219644D01*
X205248Y219625D01*
X229460Y219625D01*
X231525Y217560D01*
X231525Y210224D01*
X231528Y210198D01*
X231526Y210172D01*
X231548Y210025D01*
X231565Y209878D01*
X231573Y209853D01*
X231577Y209827D01*
X231632Y209689D01*
X231682Y209550D01*
X231696Y209528D01*
X231706Y209503D01*
X231791Y209382D01*
X231871Y209257D01*
X231890Y209239D01*
X231905Y209217D01*
X232015Y209118D01*
X232122Y209015D01*
X232144Y209001D01*
X232164Y208984D01*
X232294Y208912D01*
X232421Y208836D01*
X232446Y208828D01*
X232469Y208815D01*
X232612Y208775D01*
X232753Y208730D01*
X232779Y208728D01*
X232804Y208720D01*
X233048Y208701D01*
X236329Y208701D01*
X237501Y207529D01*
X237501Y192871D01*
X236407Y191777D01*
X236390Y191757D01*
X236370Y191740D01*
X236282Y191620D01*
X236190Y191504D01*
X236179Y191480D01*
X236163Y191459D01*
X236104Y191323D01*
X236041Y191189D01*
X236035Y191163D01*
X236025Y191139D01*
X235999Y190993D01*
X235968Y190848D01*
X235968Y190822D01*
X235963Y190796D01*
X235971Y190648D01*
X235974Y190500D01*
X235980Y190474D01*
X235981Y190448D01*
X236022Y190306D01*
X236059Y190162D01*
X236071Y190139D01*
X236078Y190113D01*
X236150Y189984D01*
X236218Y189852D01*
X236235Y189832D01*
X236248Y189809D01*
X236407Y189623D01*
X237501Y188529D01*
X237501Y173871D01*
X236329Y172699D01*
X233048Y172699D01*
X233022Y172696D01*
X232996Y172698D01*
X232849Y172676D01*
X232702Y172659D01*
X232677Y172651D01*
X232651Y172647D01*
X232513Y172592D01*
X232374Y172542D01*
X232352Y172528D01*
X232327Y172518D01*
X232206Y172433D01*
X232081Y172353D01*
X232063Y172334D01*
X232041Y172319D01*
X231942Y172209D01*
X231839Y172102D01*
X231825Y172080D01*
X231808Y172060D01*
X231736Y171930D01*
X231660Y171803D01*
X231652Y171778D01*
X231639Y171755D01*
X231599Y171612D01*
X231554Y171471D01*
X231552Y171445D01*
X231544Y171420D01*
X231525Y171176D01*
X231525Y170348D01*
X231528Y170322D01*
X231526Y170296D01*
X231548Y170149D01*
X231565Y170002D01*
X231573Y169977D01*
X231577Y169951D01*
X231632Y169813D01*
X231682Y169674D01*
X231696Y169652D01*
X231706Y169627D01*
X231791Y169506D01*
X231871Y169381D01*
X231890Y169363D01*
X231905Y169341D01*
X232015Y169242D01*
X232122Y169139D01*
X232144Y169125D01*
X232164Y169108D01*
X232294Y169036D01*
X232421Y168960D01*
X232446Y168952D01*
X232469Y168939D01*
X232612Y168899D01*
X232753Y168854D01*
X232779Y168852D01*
X232804Y168844D01*
X233048Y168825D01*
X248352Y168825D01*
X248378Y168828D01*
X248404Y168826D01*
X248551Y168848D01*
X248698Y168865D01*
X248723Y168873D01*
X248749Y168877D01*
X248887Y168932D01*
X249026Y168982D01*
X249048Y168996D01*
X249073Y169006D01*
X249194Y169091D01*
X249319Y169171D01*
X249337Y169190D01*
X249359Y169205D01*
X249458Y169315D01*
X249561Y169422D01*
X249575Y169444D01*
X249592Y169464D01*
X249664Y169594D01*
X249740Y169721D01*
X249748Y169746D01*
X249761Y169769D01*
X249801Y169912D01*
X249846Y170053D01*
X249848Y170079D01*
X249856Y170104D01*
X249875Y170348D01*
X249875Y171176D01*
X249872Y171202D01*
X249874Y171228D01*
X249852Y171375D01*
X249835Y171522D01*
X249827Y171547D01*
X249823Y171573D01*
X249768Y171711D01*
X249718Y171850D01*
X249704Y171872D01*
X249694Y171897D01*
X249609Y172018D01*
X249529Y172143D01*
X249510Y172161D01*
X249495Y172183D01*
X249385Y172282D01*
X249278Y172385D01*
X249256Y172399D01*
X249236Y172416D01*
X249106Y172488D01*
X248979Y172564D01*
X248954Y172572D01*
X248931Y172585D01*
X248788Y172625D01*
X248647Y172670D01*
X248621Y172672D01*
X248596Y172680D01*
X248352Y172699D01*
X245071Y172699D01*
X243899Y173871D01*
X243899Y188529D01*
X244993Y189623D01*
X245010Y189643D01*
X245030Y189660D01*
X245118Y189780D01*
X245210Y189896D01*
X245221Y189920D01*
X245237Y189941D01*
X245296Y190077D01*
X245359Y190211D01*
X245364Y190237D01*
X245375Y190261D01*
X245401Y190407D01*
X245432Y190552D01*
X245432Y190578D01*
X245437Y190604D01*
X245429Y190752D01*
X245426Y190900D01*
X245420Y190926D01*
X245419Y190952D01*
X245378Y191094D01*
X245341Y191238D01*
X245329Y191261D01*
X245322Y191287D01*
X245250Y191416D01*
X245182Y191548D01*
X245165Y191568D01*
X245152Y191591D01*
X244993Y191777D01*
X243899Y192871D01*
X243899Y207529D01*
X245071Y208701D01*
X248352Y208701D01*
X248378Y208704D01*
X248404Y208702D01*
X248551Y208724D01*
X248698Y208741D01*
X248723Y208749D01*
X248749Y208753D01*
X248887Y208808D01*
X249026Y208858D01*
X249048Y208872D01*
X249073Y208882D01*
X249194Y208967D01*
X249319Y209047D01*
X249337Y209066D01*
X249359Y209081D01*
X249458Y209191D01*
X249561Y209298D01*
X249575Y209320D01*
X249592Y209340D01*
X249664Y209470D01*
X249740Y209597D01*
X249748Y209622D01*
X249761Y209645D01*
X249801Y209788D01*
X249846Y209929D01*
X249848Y209955D01*
X249856Y209980D01*
X249875Y210224D01*
X249875Y210816D01*
X249861Y210941D01*
X249854Y211068D01*
X249841Y211114D01*
X249835Y211162D01*
X249793Y211281D01*
X249758Y211402D01*
X249734Y211445D01*
X249718Y211490D01*
X249649Y211596D01*
X249588Y211707D01*
X249548Y211753D01*
X249529Y211783D01*
X249494Y211816D01*
X249429Y211893D01*
X248498Y212824D01*
X247617Y214950D01*
X247617Y217250D01*
X248498Y219376D01*
X249429Y220307D01*
X249508Y220406D01*
X249592Y220500D01*
X249616Y220542D01*
X249646Y220580D01*
X249700Y220694D01*
X249761Y220805D01*
X249774Y220852D01*
X249795Y220895D01*
X249821Y221019D01*
X249856Y221140D01*
X249861Y221201D01*
X249868Y221236D01*
X249867Y221284D01*
X249875Y221384D01*
X249875Y230764D01*
X249861Y230890D01*
X249854Y231016D01*
X249841Y231063D01*
X249835Y231111D01*
X249793Y231229D01*
X249758Y231351D01*
X249734Y231393D01*
X249718Y231439D01*
X249649Y231545D01*
X249588Y231655D01*
X249548Y231701D01*
X249529Y231731D01*
X249494Y231765D01*
X249429Y231841D01*
X248299Y232971D01*
X248299Y249629D01*
X249471Y250801D01*
X264129Y250801D01*
X264876Y250054D01*
X264916Y250022D01*
X264950Y249984D01*
X265052Y249914D01*
X265149Y249837D01*
X265195Y249815D01*
X265237Y249786D01*
X265352Y249741D01*
X265464Y249688D01*
X265514Y249677D01*
X265561Y249659D01*
X265684Y249641D01*
X265805Y249615D01*
X265856Y249616D01*
X265906Y249608D01*
X266030Y249619D01*
X266153Y249621D01*
X266203Y249633D01*
X266253Y249637D01*
X266371Y249676D01*
X266491Y249706D01*
X266536Y249729D01*
X266585Y249745D01*
X266691Y249809D01*
X266801Y249865D01*
X266840Y249898D01*
X266883Y249925D01*
X266972Y250011D01*
X267066Y250091D01*
X267097Y250132D01*
X267133Y250168D01*
X267264Y250357D01*
X267740Y250833D01*
X268319Y251168D01*
X268965Y251341D01*
X272753Y251341D01*
X272753Y242824D01*
X272756Y242798D01*
X272754Y242772D01*
X272776Y242625D01*
X272793Y242478D01*
X272801Y242453D01*
X272805Y242427D01*
X272860Y242289D01*
X272910Y242150D01*
X272924Y242128D01*
X272934Y242103D01*
X273019Y241982D01*
X273099Y241857D01*
X273118Y241839D01*
X273133Y241817D01*
X273243Y241718D01*
X273350Y241615D01*
X273372Y241601D01*
X273392Y241584D01*
X273522Y241512D01*
X273649Y241436D01*
X273674Y241428D01*
X273697Y241415D01*
X273840Y241375D01*
X273981Y241330D01*
X274007Y241328D01*
X274032Y241320D01*
X274276Y241301D01*
X275801Y241301D01*
X275801Y241299D01*
X274276Y241299D01*
X274250Y241296D01*
X274224Y241298D01*
X274077Y241276D01*
X273930Y241259D01*
X273905Y241250D01*
X273879Y241247D01*
X273741Y241192D01*
X273602Y241142D01*
X273580Y241128D01*
X273555Y241118D01*
X273434Y241033D01*
X273309Y240953D01*
X273291Y240934D01*
X273269Y240919D01*
X273170Y240809D01*
X273067Y240702D01*
X273053Y240680D01*
X273036Y240660D01*
X272964Y240530D01*
X272888Y240403D01*
X272880Y240378D01*
X272867Y240355D01*
X272827Y240212D01*
X272782Y240071D01*
X272780Y240045D01*
X272772Y240020D01*
X272753Y239776D01*
X272753Y231259D01*
X268965Y231259D01*
X268319Y231432D01*
X267740Y231767D01*
X267261Y232246D01*
X267242Y232272D01*
X267218Y232317D01*
X267138Y232411D01*
X267064Y232511D01*
X267026Y232544D01*
X266992Y232583D01*
X266893Y232656D01*
X266799Y232736D01*
X266753Y232760D01*
X266712Y232790D01*
X266599Y232839D01*
X266489Y232895D01*
X266439Y232908D01*
X266392Y232928D01*
X266271Y232950D01*
X266150Y232980D01*
X266099Y232980D01*
X266049Y232990D01*
X265926Y232983D01*
X265802Y232985D01*
X265752Y232974D01*
X265701Y232972D01*
X265582Y232937D01*
X265461Y232911D01*
X265415Y232889D01*
X265366Y232875D01*
X265258Y232815D01*
X265147Y232762D01*
X265107Y232730D01*
X265062Y232705D01*
X264876Y232546D01*
X264129Y231799D01*
X258448Y231799D01*
X258422Y231796D01*
X258396Y231798D01*
X258249Y231776D01*
X258102Y231759D01*
X258077Y231751D01*
X258051Y231747D01*
X257913Y231692D01*
X257774Y231642D01*
X257752Y231628D01*
X257727Y231618D01*
X257606Y231533D01*
X257481Y231453D01*
X257463Y231434D01*
X257441Y231419D01*
X257342Y231309D01*
X257239Y231202D01*
X257225Y231180D01*
X257208Y231160D01*
X257136Y231030D01*
X257060Y230903D01*
X257052Y230878D01*
X257039Y230855D01*
X256999Y230712D01*
X256954Y230571D01*
X256952Y230545D01*
X256944Y230520D01*
X256925Y230276D01*
X256925Y221384D01*
X256939Y221259D01*
X256946Y221132D01*
X256959Y221086D01*
X256965Y221038D01*
X257007Y220919D01*
X257042Y220798D01*
X257066Y220755D01*
X257082Y220710D01*
X257151Y220604D01*
X257212Y220493D01*
X257252Y220447D01*
X257271Y220417D01*
X257306Y220384D01*
X257371Y220307D01*
X258302Y219376D01*
X259183Y217250D01*
X259183Y214950D01*
X258302Y212824D01*
X257371Y211893D01*
X257292Y211794D01*
X257208Y211700D01*
X257184Y211658D01*
X257154Y211620D01*
X257100Y211506D01*
X257039Y211395D01*
X257026Y211348D01*
X257005Y211305D01*
X256979Y211181D01*
X256944Y211060D01*
X256939Y210999D01*
X256932Y210964D01*
X256933Y210916D01*
X256925Y210816D01*
X256925Y210224D01*
X256928Y210198D01*
X256926Y210172D01*
X256948Y210025D01*
X256965Y209878D01*
X256973Y209853D01*
X256977Y209827D01*
X257032Y209689D01*
X257082Y209550D01*
X257096Y209528D01*
X257106Y209503D01*
X257191Y209382D01*
X257271Y209257D01*
X257290Y209239D01*
X257305Y209217D01*
X257415Y209118D01*
X257522Y209015D01*
X257544Y209001D01*
X257564Y208984D01*
X257694Y208912D01*
X257821Y208836D01*
X257846Y208828D01*
X257869Y208815D01*
X258012Y208775D01*
X258153Y208730D01*
X258179Y208728D01*
X258204Y208720D01*
X258448Y208701D01*
X261729Y208701D01*
X262901Y207529D01*
X262901Y192871D01*
X261807Y191777D01*
X261790Y191757D01*
X261770Y191740D01*
X261682Y191620D01*
X261590Y191504D01*
X261579Y191480D01*
X261563Y191459D01*
X261504Y191323D01*
X261441Y191189D01*
X261435Y191163D01*
X261425Y191139D01*
X261399Y190993D01*
X261368Y190848D01*
X261368Y190822D01*
X261363Y190796D01*
X261371Y190648D01*
X261374Y190500D01*
X261380Y190474D01*
X261381Y190448D01*
X261422Y190306D01*
X261459Y190162D01*
X261471Y190139D01*
X261478Y190113D01*
X261550Y189984D01*
X261618Y189852D01*
X261635Y189832D01*
X261648Y189809D01*
X261807Y189623D01*
X262901Y188529D01*
X262901Y173871D01*
X261729Y172699D01*
X258448Y172699D01*
X258422Y172696D01*
X258396Y172698D01*
X258249Y172676D01*
X258102Y172659D01*
X258077Y172651D01*
X258051Y172647D01*
X257913Y172592D01*
X257774Y172542D01*
X257752Y172528D01*
X257727Y172518D01*
X257606Y172433D01*
X257481Y172353D01*
X257463Y172334D01*
X257441Y172319D01*
X257342Y172209D01*
X257239Y172102D01*
X257225Y172080D01*
X257208Y172060D01*
X257136Y171930D01*
X257060Y171803D01*
X257052Y171778D01*
X257039Y171755D01*
X256999Y171612D01*
X256954Y171471D01*
X256952Y171445D01*
X256944Y171420D01*
X256925Y171176D01*
X256925Y170348D01*
X256928Y170322D01*
X256926Y170296D01*
X256948Y170149D01*
X256965Y170002D01*
X256973Y169977D01*
X256977Y169951D01*
X257032Y169813D01*
X257082Y169674D01*
X257096Y169652D01*
X257106Y169627D01*
X257191Y169506D01*
X257271Y169381D01*
X257290Y169363D01*
X257305Y169341D01*
X257415Y169242D01*
X257522Y169139D01*
X257544Y169125D01*
X257564Y169108D01*
X257694Y169036D01*
X257821Y168960D01*
X257846Y168952D01*
X257869Y168939D01*
X258012Y168899D01*
X258153Y168854D01*
X258179Y168852D01*
X258204Y168844D01*
X258448Y168825D01*
X273752Y168825D01*
X273778Y168828D01*
X273804Y168826D01*
X273951Y168848D01*
X274098Y168865D01*
X274123Y168873D01*
X274149Y168877D01*
X274287Y168932D01*
X274426Y168982D01*
X274448Y168996D01*
X274473Y169006D01*
X274594Y169091D01*
X274719Y169171D01*
X274737Y169190D01*
X274759Y169205D01*
X274858Y169315D01*
X274961Y169422D01*
X274975Y169444D01*
X274992Y169464D01*
X275064Y169594D01*
X275140Y169721D01*
X275148Y169746D01*
X275161Y169769D01*
X275201Y169912D01*
X275246Y170053D01*
X275248Y170079D01*
X275256Y170104D01*
X275275Y170348D01*
X275275Y171176D01*
X275272Y171202D01*
X275274Y171228D01*
X275252Y171375D01*
X275235Y171522D01*
X275227Y171547D01*
X275223Y171573D01*
X275168Y171711D01*
X275118Y171850D01*
X275104Y171872D01*
X275094Y171897D01*
X275009Y172018D01*
X274929Y172143D01*
X274910Y172161D01*
X274895Y172183D01*
X274785Y172282D01*
X274678Y172385D01*
X274656Y172399D01*
X274636Y172416D01*
X274506Y172488D01*
X274379Y172564D01*
X274354Y172572D01*
X274331Y172585D01*
X274188Y172625D01*
X274047Y172670D01*
X274021Y172672D01*
X273996Y172680D01*
X273752Y172699D01*
X270471Y172699D01*
X269299Y173871D01*
X269299Y188529D01*
X270046Y189276D01*
X270078Y189316D01*
X270116Y189350D01*
X270186Y189452D01*
X270263Y189549D01*
X270285Y189595D01*
X270314Y189637D01*
X270359Y189752D01*
X270412Y189864D01*
X270423Y189914D01*
X270441Y189961D01*
X270459Y190084D01*
X270485Y190205D01*
X270484Y190256D01*
X270492Y190306D01*
X270481Y190430D01*
X270479Y190553D01*
X270467Y190603D01*
X270463Y190653D01*
X270424Y190771D01*
X270394Y190891D01*
X270371Y190936D01*
X270355Y190985D01*
X270300Y191077D01*
X270298Y191081D01*
X270291Y191091D01*
X270235Y191201D01*
X270202Y191240D01*
X270175Y191283D01*
X270113Y191347D01*
X270099Y191367D01*
X270073Y191391D01*
X270009Y191466D01*
X269968Y191497D01*
X269932Y191533D01*
X269861Y191583D01*
X269840Y191601D01*
X269809Y191618D01*
X269743Y191664D01*
X269267Y192140D01*
X268932Y192719D01*
X268759Y193365D01*
X268759Y197153D01*
X277276Y197153D01*
X277302Y197156D01*
X277328Y197154D01*
X277475Y197176D01*
X277622Y197193D01*
X277647Y197201D01*
X277673Y197205D01*
X277811Y197260D01*
X277950Y197310D01*
X277972Y197324D01*
X277997Y197334D01*
X278118Y197419D01*
X278243Y197499D01*
X278261Y197518D01*
X278283Y197533D01*
X278382Y197643D01*
X278485Y197750D01*
X278499Y197772D01*
X278516Y197792D01*
X278588Y197922D01*
X278664Y198049D01*
X278672Y198074D01*
X278685Y198097D01*
X278725Y198240D01*
X278770Y198381D01*
X278772Y198407D01*
X278780Y198432D01*
X278799Y198676D01*
X278799Y200201D01*
X278801Y200201D01*
X278801Y198676D01*
X278804Y198650D01*
X278802Y198624D01*
X278824Y198477D01*
X278841Y198330D01*
X278850Y198305D01*
X278853Y198279D01*
X278908Y198141D01*
X278958Y198002D01*
X278972Y197980D01*
X278982Y197955D01*
X279067Y197834D01*
X279147Y197709D01*
X279166Y197691D01*
X279181Y197669D01*
X279291Y197570D01*
X279398Y197467D01*
X279420Y197453D01*
X279440Y197436D01*
X279570Y197364D01*
X279697Y197288D01*
X279722Y197280D01*
X279745Y197267D01*
X279888Y197227D01*
X280029Y197182D01*
X280055Y197180D01*
X280080Y197172D01*
X280324Y197153D01*
X288841Y197153D01*
X288841Y193365D01*
X288668Y192719D01*
X288333Y192140D01*
X287854Y191661D01*
X287828Y191642D01*
X287783Y191618D01*
X287722Y191566D01*
X287677Y191537D01*
X287649Y191509D01*
X287589Y191464D01*
X287556Y191426D01*
X287517Y191392D01*
X287454Y191307D01*
X287434Y191287D01*
X287425Y191271D01*
X287364Y191199D01*
X287340Y191153D01*
X287310Y191112D01*
X287261Y190999D01*
X287205Y190889D01*
X287192Y190839D01*
X287172Y190792D01*
X287150Y190671D01*
X287120Y190550D01*
X287120Y190499D01*
X287110Y190449D01*
X287117Y190326D01*
X287115Y190202D01*
X287126Y190152D01*
X287128Y190101D01*
X287163Y189982D01*
X287189Y189861D01*
X287211Y189815D01*
X287225Y189766D01*
X287285Y189658D01*
X287338Y189547D01*
X287370Y189507D01*
X287395Y189462D01*
X287554Y189276D01*
X288301Y188529D01*
X288301Y173871D01*
X287129Y172699D01*
X283848Y172699D01*
X283822Y172696D01*
X283796Y172698D01*
X283649Y172676D01*
X283502Y172659D01*
X283477Y172651D01*
X283451Y172647D01*
X283313Y172592D01*
X283174Y172542D01*
X283152Y172528D01*
X283127Y172518D01*
X283006Y172433D01*
X282881Y172353D01*
X282863Y172334D01*
X282841Y172319D01*
X282742Y172209D01*
X282639Y172102D01*
X282625Y172080D01*
X282608Y172060D01*
X282536Y171930D01*
X282460Y171803D01*
X282452Y171778D01*
X282439Y171755D01*
X282399Y171612D01*
X282354Y171471D01*
X282352Y171445D01*
X282344Y171420D01*
X282325Y171176D01*
X282325Y170348D01*
X282328Y170322D01*
X282326Y170296D01*
X282348Y170149D01*
X282365Y170002D01*
X282373Y169977D01*
X282377Y169951D01*
X282432Y169813D01*
X282482Y169674D01*
X282496Y169652D01*
X282506Y169627D01*
X282591Y169506D01*
X282671Y169381D01*
X282690Y169363D01*
X282705Y169341D01*
X282815Y169242D01*
X282922Y169139D01*
X282944Y169125D01*
X282964Y169108D01*
X283094Y169036D01*
X283221Y168960D01*
X283246Y168952D01*
X283269Y168939D01*
X283412Y168899D01*
X283553Y168854D01*
X283579Y168852D01*
X283604Y168844D01*
X283848Y168825D01*
X299152Y168825D01*
X299178Y168828D01*
X299204Y168826D01*
X299351Y168848D01*
X299498Y168865D01*
X299523Y168873D01*
X299549Y168877D01*
X299687Y168932D01*
X299826Y168982D01*
X299848Y168996D01*
X299873Y169006D01*
X299994Y169091D01*
X300119Y169171D01*
X300137Y169190D01*
X300159Y169205D01*
X300258Y169315D01*
X300361Y169422D01*
X300375Y169444D01*
X300392Y169464D01*
X300464Y169594D01*
X300540Y169721D01*
X300548Y169746D01*
X300561Y169769D01*
X300601Y169912D01*
X300646Y170053D01*
X300648Y170079D01*
X300656Y170104D01*
X300675Y170348D01*
X300675Y171176D01*
X300672Y171202D01*
X300674Y171228D01*
X300652Y171375D01*
X300635Y171522D01*
X300627Y171547D01*
X300623Y171573D01*
X300568Y171711D01*
X300518Y171850D01*
X300504Y171872D01*
X300494Y171897D01*
X300409Y172018D01*
X300329Y172143D01*
X300310Y172161D01*
X300295Y172183D01*
X300185Y172282D01*
X300078Y172385D01*
X300056Y172399D01*
X300036Y172416D01*
X299906Y172488D01*
X299779Y172564D01*
X299754Y172572D01*
X299731Y172585D01*
X299588Y172625D01*
X299447Y172670D01*
X299421Y172672D01*
X299396Y172680D01*
X299152Y172699D01*
X295871Y172699D01*
X294699Y173871D01*
X294699Y188529D01*
X295446Y189276D01*
X295478Y189316D01*
X295516Y189350D01*
X295586Y189452D01*
X295663Y189549D01*
X295685Y189595D01*
X295714Y189637D01*
X295759Y189752D01*
X295812Y189864D01*
X295823Y189914D01*
X295841Y189961D01*
X295859Y190084D01*
X295885Y190205D01*
X295884Y190256D01*
X295892Y190306D01*
X295881Y190430D01*
X295879Y190553D01*
X295867Y190603D01*
X295863Y190653D01*
X295824Y190771D01*
X295794Y190891D01*
X295771Y190936D01*
X295755Y190985D01*
X295700Y191077D01*
X295698Y191081D01*
X295691Y191091D01*
X295635Y191201D01*
X295602Y191240D01*
X295575Y191283D01*
X295513Y191347D01*
X295499Y191367D01*
X295473Y191391D01*
X295409Y191466D01*
X295368Y191497D01*
X295332Y191533D01*
X295261Y191583D01*
X295240Y191601D01*
X295209Y191618D01*
X295143Y191664D01*
X294667Y192140D01*
X294332Y192719D01*
X294159Y193365D01*
X294159Y197153D01*
X302676Y197153D01*
X302702Y197156D01*
X302728Y197154D01*
X302875Y197176D01*
X303022Y197193D01*
X303047Y197201D01*
X303073Y197205D01*
X303211Y197260D01*
X303350Y197310D01*
X303372Y197324D01*
X303397Y197334D01*
X303518Y197419D01*
X303643Y197499D01*
X303661Y197518D01*
X303683Y197533D01*
X303782Y197643D01*
X303885Y197750D01*
X303899Y197772D01*
X303916Y197792D01*
X303988Y197922D01*
X304064Y198049D01*
X304072Y198074D01*
X304085Y198097D01*
X304125Y198240D01*
X304170Y198381D01*
X304172Y198407D01*
X304180Y198432D01*
X304199Y198676D01*
X304199Y200201D01*
X304201Y200201D01*
X304201Y198676D01*
X304204Y198650D01*
X304202Y198624D01*
X304224Y198477D01*
X304241Y198330D01*
X304250Y198305D01*
X304253Y198279D01*
X304308Y198141D01*
X304358Y198002D01*
X304372Y197980D01*
X304382Y197955D01*
X304467Y197834D01*
X304547Y197709D01*
X304566Y197691D01*
X304581Y197669D01*
X304691Y197570D01*
X304798Y197467D01*
X304820Y197453D01*
X304840Y197436D01*
X304970Y197364D01*
X305097Y197288D01*
X305122Y197280D01*
X305145Y197267D01*
X305288Y197227D01*
X305429Y197182D01*
X305455Y197180D01*
X305480Y197172D01*
X305724Y197153D01*
X314241Y197153D01*
X314241Y193365D01*
X314068Y192719D01*
X313733Y192140D01*
X313254Y191661D01*
X313228Y191642D01*
X313183Y191618D01*
X313122Y191566D01*
X313077Y191537D01*
X313049Y191509D01*
X312989Y191464D01*
X312956Y191426D01*
X312917Y191392D01*
X312854Y191307D01*
X312834Y191287D01*
X312825Y191271D01*
X312764Y191199D01*
X312740Y191153D01*
X312710Y191112D01*
X312661Y190999D01*
X312605Y190889D01*
X312592Y190839D01*
X312572Y190792D01*
X312550Y190671D01*
X312520Y190550D01*
X312520Y190499D01*
X312510Y190449D01*
X312517Y190326D01*
X312515Y190202D01*
X312526Y190152D01*
X312528Y190101D01*
X312563Y189982D01*
X312589Y189861D01*
X312611Y189815D01*
X312625Y189766D01*
X312685Y189658D01*
X312738Y189547D01*
X312770Y189507D01*
X312795Y189462D01*
X312954Y189276D01*
X313701Y188529D01*
X313701Y173871D01*
X312529Y172699D01*
X309248Y172699D01*
X309222Y172696D01*
X309196Y172698D01*
X309049Y172676D01*
X308902Y172659D01*
X308877Y172651D01*
X308851Y172647D01*
X308713Y172592D01*
X308574Y172542D01*
X308552Y172528D01*
X308527Y172518D01*
X308406Y172433D01*
X308281Y172353D01*
X308263Y172334D01*
X308241Y172319D01*
X308142Y172209D01*
X308039Y172102D01*
X308025Y172080D01*
X308008Y172060D01*
X307936Y171930D01*
X307860Y171803D01*
X307852Y171778D01*
X307839Y171755D01*
X307799Y171612D01*
X307754Y171471D01*
X307752Y171445D01*
X307744Y171420D01*
X307725Y171176D01*
X307725Y163840D01*
X305660Y161775D01*
X201140Y161775D01*
G37*
%LPD*%
%LPC*%
G36*
X147935Y103917D02*
X147935Y103917D01*
X144119Y105498D01*
X141198Y108419D01*
X139617Y112235D01*
X139617Y116365D01*
X141198Y120181D01*
X144119Y123102D01*
X145535Y123689D01*
X145602Y123726D01*
X145673Y123754D01*
X145754Y123810D01*
X145840Y123858D01*
X145896Y123909D01*
X145959Y123953D01*
X146025Y124026D01*
X146098Y124092D01*
X146141Y124155D01*
X146192Y124212D01*
X146240Y124298D01*
X146296Y124379D01*
X146324Y124450D01*
X146361Y124517D01*
X146388Y124612D01*
X146424Y124703D01*
X146435Y124779D01*
X146456Y124852D01*
X146468Y125001D01*
X146475Y125048D01*
X146473Y125067D01*
X146475Y125096D01*
X146475Y160252D01*
X146472Y160278D01*
X146474Y160304D01*
X146452Y160451D01*
X146435Y160598D01*
X146427Y160623D01*
X146423Y160649D01*
X146368Y160787D01*
X146318Y160926D01*
X146304Y160948D01*
X146294Y160973D01*
X146209Y161094D01*
X146129Y161219D01*
X146110Y161237D01*
X146095Y161259D01*
X145985Y161358D01*
X145878Y161461D01*
X145856Y161475D01*
X145836Y161492D01*
X145706Y161564D01*
X145579Y161640D01*
X145554Y161648D01*
X145531Y161661D01*
X145388Y161701D01*
X145247Y161746D01*
X145221Y161748D01*
X145196Y161756D01*
X144952Y161775D01*
X74140Y161775D01*
X72075Y163840D01*
X72075Y171176D01*
X72072Y171202D01*
X72074Y171228D01*
X72052Y171375D01*
X72035Y171522D01*
X72027Y171547D01*
X72023Y171573D01*
X71968Y171711D01*
X71918Y171850D01*
X71904Y171872D01*
X71894Y171897D01*
X71809Y172018D01*
X71729Y172143D01*
X71710Y172161D01*
X71695Y172183D01*
X71585Y172282D01*
X71478Y172385D01*
X71456Y172399D01*
X71436Y172416D01*
X71306Y172488D01*
X71179Y172564D01*
X71154Y172572D01*
X71131Y172585D01*
X70988Y172625D01*
X70847Y172670D01*
X70821Y172672D01*
X70796Y172680D01*
X70552Y172699D01*
X67271Y172699D01*
X66099Y173871D01*
X66099Y188529D01*
X67193Y189623D01*
X67210Y189643D01*
X67230Y189660D01*
X67318Y189780D01*
X67410Y189896D01*
X67421Y189920D01*
X67437Y189941D01*
X67496Y190077D01*
X67559Y190211D01*
X67564Y190237D01*
X67575Y190261D01*
X67601Y190407D01*
X67632Y190552D01*
X67632Y190578D01*
X67637Y190604D01*
X67629Y190752D01*
X67626Y190900D01*
X67620Y190926D01*
X67619Y190952D01*
X67578Y191094D01*
X67541Y191238D01*
X67529Y191261D01*
X67522Y191287D01*
X67450Y191416D01*
X67382Y191548D01*
X67365Y191568D01*
X67352Y191591D01*
X67193Y191777D01*
X66099Y192871D01*
X66099Y207529D01*
X67271Y208701D01*
X70552Y208701D01*
X70578Y208704D01*
X70604Y208702D01*
X70751Y208724D01*
X70898Y208741D01*
X70923Y208749D01*
X70949Y208753D01*
X71087Y208808D01*
X71226Y208858D01*
X71248Y208872D01*
X71273Y208882D01*
X71394Y208967D01*
X71519Y209047D01*
X71537Y209066D01*
X71559Y209081D01*
X71658Y209191D01*
X71761Y209298D01*
X71775Y209320D01*
X71792Y209340D01*
X71864Y209470D01*
X71940Y209597D01*
X71948Y209622D01*
X71961Y209645D01*
X72001Y209788D01*
X72046Y209929D01*
X72048Y209955D01*
X72056Y209980D01*
X72075Y210224D01*
X72075Y217560D01*
X74140Y219625D01*
X127909Y219625D01*
X128035Y219639D01*
X128161Y219646D01*
X128207Y219659D01*
X128255Y219665D01*
X128374Y219707D01*
X128496Y219742D01*
X128538Y219766D01*
X128583Y219782D01*
X128690Y219851D01*
X128800Y219912D01*
X128846Y219952D01*
X128876Y219971D01*
X128910Y220006D01*
X128986Y220071D01*
X168326Y259410D01*
X168342Y259431D01*
X168362Y259448D01*
X168450Y259567D01*
X168542Y259683D01*
X168554Y259707D01*
X168569Y259728D01*
X168628Y259865D01*
X168691Y259999D01*
X168697Y260024D01*
X168707Y260048D01*
X168734Y260195D01*
X168765Y260339D01*
X168764Y260365D01*
X168769Y260391D01*
X168761Y260540D01*
X168759Y260688D01*
X168752Y260713D01*
X168751Y260739D01*
X168710Y260881D01*
X168674Y261026D01*
X168662Y261049D01*
X168654Y261074D01*
X168582Y261203D01*
X168514Y261335D01*
X168497Y261355D01*
X168484Y261378D01*
X168326Y261565D01*
X167721Y262170D01*
X166449Y265239D01*
X166449Y268561D01*
X167721Y271630D01*
X170070Y273979D01*
X173139Y275251D01*
X176461Y275251D01*
X179530Y273979D01*
X181879Y271630D01*
X183151Y268561D01*
X183151Y265239D01*
X181879Y262170D01*
X179530Y259821D01*
X178402Y259353D01*
X178400Y259352D01*
X178398Y259352D01*
X178246Y259266D01*
X178097Y259184D01*
X178096Y259182D01*
X178094Y259181D01*
X177908Y259023D01*
X175814Y256929D01*
X130371Y211486D01*
X130292Y211387D01*
X130208Y211293D01*
X130184Y211251D01*
X130154Y211213D01*
X130100Y211099D01*
X130039Y210988D01*
X130026Y210942D01*
X130005Y210898D01*
X129979Y210775D01*
X129944Y210653D01*
X129939Y210592D01*
X129932Y210557D01*
X129933Y210509D01*
X129925Y210409D01*
X129925Y206416D01*
X129928Y206390D01*
X129926Y206364D01*
X129948Y206217D01*
X129965Y206070D01*
X129973Y206045D01*
X129977Y206019D01*
X130032Y205881D01*
X130082Y205742D01*
X130096Y205720D01*
X130106Y205695D01*
X130191Y205574D01*
X130271Y205449D01*
X130290Y205431D01*
X130305Y205409D01*
X130415Y205310D01*
X130522Y205207D01*
X130544Y205193D01*
X130564Y205176D01*
X130694Y205104D01*
X130821Y205028D01*
X130846Y205020D01*
X130869Y205007D01*
X131012Y204967D01*
X131153Y204922D01*
X131179Y204920D01*
X131204Y204912D01*
X131448Y204893D01*
X148057Y204893D01*
X149229Y203721D01*
X149229Y196475D01*
X148057Y195303D01*
X131667Y195303D01*
X130843Y196127D01*
X130744Y196206D01*
X130651Y196290D01*
X130608Y196314D01*
X130570Y196344D01*
X130456Y196398D01*
X130346Y196459D01*
X130299Y196472D01*
X130255Y196493D01*
X130132Y196519D01*
X130010Y196554D01*
X129949Y196559D01*
X129915Y196566D01*
X129867Y196565D01*
X129766Y196573D01*
X128242Y196573D01*
X122875Y201940D01*
X122875Y211052D01*
X122872Y211078D01*
X122874Y211104D01*
X122852Y211251D01*
X122835Y211398D01*
X122827Y211423D01*
X122823Y211449D01*
X122768Y211587D01*
X122718Y211726D01*
X122704Y211748D01*
X122694Y211773D01*
X122610Y211894D01*
X122529Y212019D01*
X122510Y212037D01*
X122495Y212059D01*
X122385Y212158D01*
X122278Y212261D01*
X122256Y212275D01*
X122236Y212292D01*
X122106Y212364D01*
X121979Y212440D01*
X121954Y212448D01*
X121931Y212461D01*
X121788Y212501D01*
X121647Y212546D01*
X121621Y212548D01*
X121596Y212556D01*
X121352Y212575D01*
X106048Y212575D01*
X106022Y212572D01*
X105996Y212574D01*
X105849Y212552D01*
X105702Y212535D01*
X105677Y212527D01*
X105651Y212523D01*
X105513Y212468D01*
X105374Y212418D01*
X105352Y212404D01*
X105327Y212394D01*
X105206Y212309D01*
X105081Y212229D01*
X105063Y212210D01*
X105041Y212195D01*
X104942Y212085D01*
X104839Y211978D01*
X104825Y211956D01*
X104808Y211936D01*
X104736Y211806D01*
X104660Y211679D01*
X104652Y211654D01*
X104639Y211631D01*
X104599Y211488D01*
X104554Y211347D01*
X104552Y211321D01*
X104544Y211296D01*
X104525Y211052D01*
X104525Y210224D01*
X104528Y210198D01*
X104526Y210172D01*
X104548Y210025D01*
X104565Y209878D01*
X104573Y209853D01*
X104577Y209827D01*
X104632Y209689D01*
X104682Y209550D01*
X104696Y209528D01*
X104706Y209503D01*
X104791Y209382D01*
X104871Y209257D01*
X104890Y209239D01*
X104905Y209217D01*
X105015Y209118D01*
X105122Y209015D01*
X105144Y209001D01*
X105164Y208984D01*
X105294Y208912D01*
X105421Y208836D01*
X105446Y208828D01*
X105469Y208815D01*
X105612Y208775D01*
X105753Y208730D01*
X105779Y208728D01*
X105804Y208720D01*
X106048Y208701D01*
X109329Y208701D01*
X110501Y207529D01*
X110501Y192871D01*
X109407Y191777D01*
X109390Y191757D01*
X109370Y191740D01*
X109282Y191620D01*
X109190Y191504D01*
X109179Y191480D01*
X109163Y191459D01*
X109104Y191323D01*
X109041Y191189D01*
X109035Y191163D01*
X109025Y191139D01*
X108999Y190993D01*
X108968Y190848D01*
X108968Y190822D01*
X108963Y190796D01*
X108971Y190648D01*
X108974Y190500D01*
X108980Y190474D01*
X108981Y190448D01*
X109022Y190306D01*
X109059Y190162D01*
X109071Y190139D01*
X109078Y190113D01*
X109150Y189984D01*
X109218Y189852D01*
X109235Y189832D01*
X109248Y189809D01*
X109407Y189623D01*
X110501Y188529D01*
X110501Y173871D01*
X109329Y172699D01*
X106048Y172699D01*
X106022Y172696D01*
X105996Y172698D01*
X105849Y172676D01*
X105702Y172659D01*
X105677Y172651D01*
X105651Y172647D01*
X105513Y172592D01*
X105374Y172542D01*
X105352Y172528D01*
X105327Y172518D01*
X105206Y172433D01*
X105081Y172353D01*
X105063Y172334D01*
X105041Y172319D01*
X104942Y172209D01*
X104839Y172102D01*
X104825Y172080D01*
X104808Y172060D01*
X104736Y171930D01*
X104660Y171803D01*
X104652Y171778D01*
X104639Y171755D01*
X104599Y171612D01*
X104554Y171471D01*
X104552Y171445D01*
X104544Y171420D01*
X104525Y171176D01*
X104525Y170348D01*
X104528Y170322D01*
X104526Y170296D01*
X104548Y170149D01*
X104565Y170002D01*
X104573Y169977D01*
X104577Y169951D01*
X104632Y169813D01*
X104682Y169674D01*
X104696Y169652D01*
X104706Y169627D01*
X104791Y169506D01*
X104871Y169381D01*
X104890Y169363D01*
X104905Y169341D01*
X105015Y169242D01*
X105122Y169139D01*
X105144Y169125D01*
X105164Y169108D01*
X105294Y169036D01*
X105421Y168960D01*
X105446Y168952D01*
X105469Y168939D01*
X105612Y168899D01*
X105753Y168854D01*
X105779Y168852D01*
X105804Y168844D01*
X106048Y168825D01*
X172152Y168825D01*
X172178Y168828D01*
X172204Y168826D01*
X172351Y168848D01*
X172498Y168865D01*
X172523Y168873D01*
X172549Y168877D01*
X172687Y168932D01*
X172826Y168982D01*
X172848Y168996D01*
X172873Y169006D01*
X172994Y169091D01*
X173119Y169171D01*
X173137Y169190D01*
X173159Y169205D01*
X173258Y169315D01*
X173361Y169422D01*
X173375Y169444D01*
X173392Y169464D01*
X173464Y169594D01*
X173540Y169721D01*
X173548Y169746D01*
X173561Y169769D01*
X173601Y169912D01*
X173646Y170053D01*
X173648Y170079D01*
X173656Y170104D01*
X173675Y170348D01*
X173675Y174984D01*
X173672Y175010D01*
X173674Y175036D01*
X173652Y175183D01*
X173635Y175330D01*
X173627Y175355D01*
X173623Y175381D01*
X173568Y175519D01*
X173518Y175658D01*
X173504Y175680D01*
X173494Y175705D01*
X173409Y175826D01*
X173329Y175951D01*
X173310Y175969D01*
X173295Y175991D01*
X173185Y176090D01*
X173078Y176193D01*
X173056Y176207D01*
X173036Y176224D01*
X172906Y176296D01*
X172779Y176372D01*
X172754Y176380D01*
X172731Y176393D01*
X172588Y176433D01*
X172447Y176478D01*
X172421Y176480D01*
X172396Y176488D01*
X172152Y176507D01*
X155543Y176507D01*
X154371Y177679D01*
X154371Y185104D01*
X154410Y185186D01*
X154410Y185187D01*
X154411Y185189D01*
X154447Y185356D01*
X154483Y185527D01*
X154483Y185528D01*
X154484Y185530D01*
X154480Y185698D01*
X154477Y185875D01*
X154477Y185877D01*
X154477Y185878D01*
X154436Y186041D01*
X154392Y186213D01*
X154392Y186214D01*
X154391Y186216D01*
X154287Y186437D01*
X154004Y186925D01*
X153831Y187571D01*
X153831Y189177D01*
X163738Y189177D01*
X173645Y189177D01*
X173645Y187571D01*
X173423Y186744D01*
X173416Y186694D01*
X173400Y186645D01*
X173390Y186522D01*
X173372Y186399D01*
X173376Y186349D01*
X173372Y186298D01*
X173390Y186175D01*
X173401Y186052D01*
X173416Y186004D01*
X173424Y185953D01*
X173469Y185838D01*
X173507Y185720D01*
X173534Y185677D01*
X173552Y185629D01*
X173623Y185528D01*
X173687Y185422D01*
X173722Y185385D01*
X173751Y185343D01*
X173843Y185260D01*
X173929Y185171D01*
X173972Y185144D01*
X174010Y185110D01*
X174119Y185050D01*
X174223Y184983D01*
X174271Y184966D01*
X174315Y184941D01*
X174434Y184907D01*
X174551Y184866D01*
X174602Y184860D01*
X174651Y184846D01*
X174894Y184827D01*
X175358Y184827D01*
X180725Y179460D01*
X180725Y163840D01*
X178660Y161775D01*
X155048Y161775D01*
X155022Y161772D01*
X154996Y161774D01*
X154849Y161752D01*
X154702Y161735D01*
X154677Y161727D01*
X154651Y161723D01*
X154513Y161668D01*
X154374Y161618D01*
X154352Y161604D01*
X154327Y161594D01*
X154206Y161509D01*
X154081Y161429D01*
X154063Y161410D01*
X154041Y161395D01*
X153942Y161285D01*
X153839Y161178D01*
X153825Y161156D01*
X153808Y161136D01*
X153736Y161006D01*
X153660Y160879D01*
X153652Y160854D01*
X153639Y160831D01*
X153599Y160688D01*
X153554Y160547D01*
X153552Y160521D01*
X153544Y160496D01*
X153525Y160252D01*
X153525Y125096D01*
X153533Y125020D01*
X153532Y124944D01*
X153553Y124847D01*
X153565Y124750D01*
X153590Y124678D01*
X153607Y124603D01*
X153649Y124514D01*
X153682Y124422D01*
X153724Y124358D01*
X153756Y124288D01*
X153818Y124212D01*
X153871Y124129D01*
X153926Y124076D01*
X153974Y124016D01*
X154051Y123955D01*
X154122Y123887D01*
X154187Y123848D01*
X154247Y123800D01*
X154381Y123732D01*
X154421Y123708D01*
X154439Y123702D01*
X154465Y123689D01*
X155881Y123102D01*
X158802Y120181D01*
X160383Y116365D01*
X160383Y112235D01*
X158802Y108419D01*
X155881Y105498D01*
X152065Y103917D01*
X147935Y103917D01*
G37*
%LPD*%
%LPC*%
G36*
X334118Y245499D02*
X334118Y245499D01*
X327870Y248087D01*
X323087Y252870D01*
X320499Y259118D01*
X320499Y265882D01*
X323087Y272130D01*
X327870Y276913D01*
X334118Y279501D01*
X340882Y279501D01*
X347130Y276913D01*
X351913Y272130D01*
X354501Y265882D01*
X354501Y259118D01*
X351913Y252870D01*
X347130Y248087D01*
X340882Y245499D01*
X334118Y245499D01*
G37*
%LPD*%
%LPC*%
G36*
X34118Y245499D02*
X34118Y245499D01*
X27870Y248087D01*
X23087Y252870D01*
X20499Y259118D01*
X20499Y265882D01*
X23087Y272130D01*
X27870Y276913D01*
X34118Y279501D01*
X40882Y279501D01*
X47130Y276913D01*
X51913Y272130D01*
X54501Y265882D01*
X54501Y259118D01*
X51913Y252870D01*
X47130Y248087D01*
X40882Y245499D01*
X34118Y245499D01*
G37*
%LPD*%
%LPC*%
G36*
X34118Y20499D02*
X34118Y20499D01*
X27870Y23087D01*
X23087Y27870D01*
X20499Y34118D01*
X20499Y40882D01*
X23087Y47130D01*
X27870Y51913D01*
X34118Y54501D01*
X40882Y54501D01*
X47130Y51913D01*
X51913Y47130D01*
X54501Y40882D01*
X54501Y34118D01*
X51913Y27870D01*
X47130Y23087D01*
X40882Y20499D01*
X34118Y20499D01*
G37*
%LPD*%
%LPC*%
G36*
X334118Y20499D02*
X334118Y20499D01*
X327870Y23087D01*
X323087Y27870D01*
X320499Y34118D01*
X320499Y40882D01*
X323087Y47130D01*
X327870Y51913D01*
X334118Y54501D01*
X340882Y54501D01*
X347130Y51913D01*
X351913Y47130D01*
X354501Y40882D01*
X354501Y34118D01*
X351913Y27870D01*
X347130Y23087D01*
X340882Y20499D01*
X334118Y20499D01*
G37*
%LPD*%
%LPC*%
G36*
X90789Y103917D02*
X90789Y103917D01*
X89617Y105089D01*
X89617Y123511D01*
X90789Y124683D01*
X109211Y124683D01*
X110383Y123511D01*
X110383Y105089D01*
X109211Y103917D01*
X90789Y103917D01*
G37*
%LPD*%
%LPC*%
G36*
X90789Y27117D02*
X90789Y27117D01*
X89617Y28289D01*
X89617Y46711D01*
X90789Y47883D01*
X109211Y47883D01*
X110383Y46711D01*
X110383Y28289D01*
X109211Y27117D01*
X90789Y27117D01*
G37*
%LPD*%
%LPC*%
G36*
X131667Y176507D02*
X131667Y176507D01*
X130843Y177331D01*
X130744Y177410D01*
X130651Y177494D01*
X130608Y177518D01*
X130570Y177548D01*
X130456Y177602D01*
X130346Y177663D01*
X130299Y177676D01*
X130255Y177697D01*
X130132Y177723D01*
X130010Y177758D01*
X129949Y177763D01*
X129915Y177770D01*
X129867Y177769D01*
X129766Y177777D01*
X119860Y177777D01*
X117795Y179842D01*
X117795Y185416D01*
X117781Y185541D01*
X117774Y185668D01*
X117761Y185714D01*
X117755Y185762D01*
X117713Y185881D01*
X117678Y186002D01*
X117654Y186045D01*
X117638Y186090D01*
X117569Y186196D01*
X117508Y186307D01*
X117468Y186353D01*
X117449Y186383D01*
X117414Y186416D01*
X117349Y186493D01*
X116418Y187424D01*
X115537Y189550D01*
X115537Y191850D01*
X116418Y193976D01*
X118044Y195602D01*
X120170Y196483D01*
X122470Y196483D01*
X124596Y195602D01*
X126222Y193976D01*
X127103Y191850D01*
X127103Y189550D01*
X126222Y187423D01*
X126163Y187348D01*
X126093Y187276D01*
X126055Y187212D01*
X126009Y187154D01*
X125966Y187063D01*
X125914Y186977D01*
X125891Y186906D01*
X125860Y186839D01*
X125838Y186741D01*
X125808Y186645D01*
X125802Y186571D01*
X125786Y186498D01*
X125788Y186398D01*
X125780Y186298D01*
X125791Y186224D01*
X125792Y186150D01*
X125817Y186052D01*
X125832Y185953D01*
X125859Y185884D01*
X125877Y185812D01*
X125923Y185723D01*
X125960Y185629D01*
X126003Y185568D01*
X126037Y185502D01*
X126102Y185425D01*
X126159Y185343D01*
X126214Y185293D01*
X126263Y185237D01*
X126343Y185177D01*
X126418Y185110D01*
X126483Y185074D01*
X126543Y185030D01*
X126635Y184990D01*
X126723Y184941D01*
X126795Y184921D01*
X126863Y184891D01*
X126962Y184874D01*
X127058Y184846D01*
X127159Y184838D01*
X127206Y184830D01*
X127241Y184832D01*
X127302Y184827D01*
X129766Y184827D01*
X129892Y184841D01*
X130018Y184848D01*
X130065Y184861D01*
X130113Y184867D01*
X130231Y184909D01*
X130353Y184944D01*
X130395Y184968D01*
X130441Y184984D01*
X130547Y185053D01*
X130657Y185114D01*
X130703Y185154D01*
X130733Y185173D01*
X130767Y185208D01*
X130843Y185273D01*
X131667Y186097D01*
X148057Y186097D01*
X149229Y184925D01*
X149229Y177679D01*
X148057Y176507D01*
X131667Y176507D01*
G37*
%LPD*%
%LPC*%
G36*
X222935Y27117D02*
X222935Y27117D01*
X219119Y28698D01*
X216198Y31619D01*
X214617Y35435D01*
X214617Y39565D01*
X216198Y43381D01*
X219119Y46302D01*
X222935Y47883D01*
X227065Y47883D01*
X230881Y46302D01*
X233802Y43381D01*
X235383Y39565D01*
X235383Y35435D01*
X233802Y31619D01*
X230881Y28698D01*
X227065Y27117D01*
X222935Y27117D01*
G37*
%LPD*%
%LPC*%
G36*
X197935Y27117D02*
X197935Y27117D01*
X194119Y28698D01*
X191198Y31619D01*
X189617Y35435D01*
X189617Y39565D01*
X191198Y43381D01*
X194119Y46302D01*
X197935Y47883D01*
X202065Y47883D01*
X205881Y46302D01*
X208802Y43381D01*
X210383Y39565D01*
X210383Y35435D01*
X208802Y31619D01*
X205881Y28698D01*
X202065Y27117D01*
X197935Y27117D01*
G37*
%LPD*%
%LPC*%
G36*
X172935Y27117D02*
X172935Y27117D01*
X169119Y28698D01*
X166198Y31619D01*
X164617Y35435D01*
X164617Y39565D01*
X166198Y43381D01*
X169119Y46302D01*
X172935Y47883D01*
X177065Y47883D01*
X180881Y46302D01*
X183802Y43381D01*
X185383Y39565D01*
X185383Y35435D01*
X183802Y31619D01*
X180881Y28698D01*
X177065Y27117D01*
X172935Y27117D01*
G37*
%LPD*%
%LPC*%
G36*
X147935Y27117D02*
X147935Y27117D01*
X144119Y28698D01*
X141198Y31619D01*
X139617Y35435D01*
X139617Y39565D01*
X141198Y43381D01*
X144119Y46302D01*
X147935Y47883D01*
X152065Y47883D01*
X155881Y46302D01*
X158802Y43381D01*
X160383Y39565D01*
X160383Y35435D01*
X158802Y31619D01*
X155881Y28698D01*
X152065Y27117D01*
X147935Y27117D01*
G37*
%LPD*%
%LPC*%
G36*
X272935Y103917D02*
X272935Y103917D01*
X269119Y105498D01*
X266198Y108419D01*
X264617Y112235D01*
X264617Y116365D01*
X266198Y120181D01*
X269119Y123102D01*
X272935Y124683D01*
X277065Y124683D01*
X280881Y123102D01*
X283802Y120181D01*
X285383Y116365D01*
X285383Y112235D01*
X283802Y108419D01*
X280881Y105498D01*
X277065Y103917D01*
X272935Y103917D01*
G37*
%LPD*%
%LPC*%
G36*
X247935Y103917D02*
X247935Y103917D01*
X244119Y105498D01*
X241198Y108419D01*
X239617Y112235D01*
X239617Y116365D01*
X241198Y120181D01*
X244119Y123102D01*
X247935Y124683D01*
X252065Y124683D01*
X255881Y123102D01*
X258802Y120181D01*
X260383Y116365D01*
X260383Y112235D01*
X258802Y108419D01*
X255881Y105498D01*
X252065Y103917D01*
X247935Y103917D01*
G37*
%LPD*%
%LPC*%
G36*
X222935Y103917D02*
X222935Y103917D01*
X219119Y105498D01*
X216198Y108419D01*
X214617Y112235D01*
X214617Y116365D01*
X216198Y120181D01*
X219119Y123102D01*
X222935Y124683D01*
X227065Y124683D01*
X230881Y123102D01*
X233802Y120181D01*
X235383Y116365D01*
X235383Y112235D01*
X233802Y108419D01*
X230881Y105498D01*
X227065Y103917D01*
X222935Y103917D01*
G37*
%LPD*%
%LPC*%
G36*
X197935Y103917D02*
X197935Y103917D01*
X194119Y105498D01*
X191198Y108419D01*
X189617Y112235D01*
X189617Y116365D01*
X191198Y120181D01*
X194119Y123102D01*
X197935Y124683D01*
X202065Y124683D01*
X205881Y123102D01*
X208802Y120181D01*
X210383Y116365D01*
X210383Y112235D01*
X208802Y108419D01*
X205881Y105498D01*
X202065Y103917D01*
X197935Y103917D01*
G37*
%LPD*%
%LPC*%
G36*
X172935Y103917D02*
X172935Y103917D01*
X169119Y105498D01*
X166198Y108419D01*
X164617Y112235D01*
X164617Y116365D01*
X166198Y120181D01*
X169119Y123102D01*
X172935Y124683D01*
X177065Y124683D01*
X180881Y123102D01*
X183802Y120181D01*
X185383Y116365D01*
X185383Y112235D01*
X183802Y108419D01*
X180881Y105498D01*
X177065Y103917D01*
X172935Y103917D01*
G37*
%LPD*%
%LPC*%
G36*
X272935Y27117D02*
X272935Y27117D01*
X269119Y28698D01*
X266198Y31619D01*
X264617Y35435D01*
X264617Y39565D01*
X266198Y43381D01*
X269119Y46302D01*
X272935Y47883D01*
X277065Y47883D01*
X280881Y46302D01*
X283802Y43381D01*
X285383Y39565D01*
X285383Y35435D01*
X283802Y31619D01*
X280881Y28698D01*
X277065Y27117D01*
X272935Y27117D01*
G37*
%LPD*%
%LPC*%
G36*
X247935Y27117D02*
X247935Y27117D01*
X244119Y28698D01*
X241198Y31619D01*
X239617Y35435D01*
X239617Y39565D01*
X241198Y43381D01*
X244119Y46302D01*
X247935Y47883D01*
X252065Y47883D01*
X255881Y46302D01*
X258802Y43381D01*
X260383Y39565D01*
X260383Y35435D01*
X258802Y31619D01*
X255881Y28698D01*
X252065Y27117D01*
X247935Y27117D01*
G37*
%LPD*%
%LPC*%
G36*
X127249Y116549D02*
X127249Y116549D01*
X127249Y125003D01*
X127558Y124954D01*
X129193Y124422D01*
X130725Y123642D01*
X132116Y122631D01*
X133331Y121416D01*
X134342Y120025D01*
X135122Y118493D01*
X135654Y116858D01*
X135703Y116549D01*
X127249Y116549D01*
G37*
%LPD*%
%LPC*%
G36*
X127249Y39749D02*
X127249Y39749D01*
X127249Y48203D01*
X127558Y48154D01*
X129193Y47622D01*
X130725Y46842D01*
X132116Y45831D01*
X133331Y44616D01*
X134342Y43225D01*
X135122Y41693D01*
X135654Y40058D01*
X135703Y39749D01*
X127249Y39749D01*
G37*
%LPD*%
%LPC*%
G36*
X114297Y39749D02*
X114297Y39749D01*
X114346Y40058D01*
X114878Y41693D01*
X115658Y43225D01*
X116669Y44616D01*
X117884Y45831D01*
X119275Y46842D01*
X120807Y47622D01*
X122442Y48154D01*
X122751Y48203D01*
X122751Y39749D01*
X114297Y39749D01*
G37*
%LPD*%
%LPC*%
G36*
X114297Y116549D02*
X114297Y116549D01*
X114346Y116858D01*
X114878Y118493D01*
X115658Y120025D01*
X116669Y121416D01*
X117884Y122631D01*
X119275Y123642D01*
X120807Y124422D01*
X122442Y124954D01*
X122751Y125003D01*
X122751Y116549D01*
X114297Y116549D01*
G37*
%LPD*%
%LPC*%
G36*
X127249Y112051D02*
X127249Y112051D01*
X135703Y112051D01*
X135654Y111742D01*
X135122Y110107D01*
X134342Y108575D01*
X133331Y107184D01*
X132116Y105969D01*
X130725Y104958D01*
X129193Y104178D01*
X127558Y103646D01*
X127249Y103597D01*
X127249Y112051D01*
G37*
%LPD*%
%LPC*%
G36*
X127249Y35251D02*
X127249Y35251D01*
X135703Y35251D01*
X135654Y34942D01*
X135122Y33307D01*
X134342Y31775D01*
X133331Y30384D01*
X132116Y29169D01*
X130725Y28158D01*
X129193Y27378D01*
X127558Y26846D01*
X127249Y26797D01*
X127249Y35251D01*
G37*
%LPD*%
%LPC*%
G36*
X122442Y103646D02*
X122442Y103646D01*
X120807Y104178D01*
X119275Y104958D01*
X117884Y105969D01*
X116669Y107184D01*
X115658Y108575D01*
X114878Y110107D01*
X114346Y111742D01*
X114297Y112051D01*
X122751Y112051D01*
X122751Y103597D01*
X122442Y103646D01*
G37*
%LPD*%
%LPC*%
G36*
X122442Y26846D02*
X122442Y26846D01*
X120807Y27378D01*
X119275Y28158D01*
X117884Y29169D01*
X116669Y30384D01*
X115658Y31775D01*
X114878Y33307D01*
X114346Y34942D01*
X114297Y35251D01*
X122751Y35251D01*
X122751Y26797D01*
X122442Y26846D01*
G37*
%LPD*%
%LPC*%
G36*
X278847Y244347D02*
X278847Y244347D01*
X278847Y251341D01*
X282635Y251341D01*
X283281Y251168D01*
X283860Y250833D01*
X284333Y250360D01*
X284668Y249781D01*
X284841Y249135D01*
X284841Y244347D01*
X278847Y244347D01*
G37*
%LPD*%
%LPC*%
G36*
X281847Y203247D02*
X281847Y203247D01*
X281847Y209241D01*
X286635Y209241D01*
X287281Y209068D01*
X287860Y208733D01*
X288333Y208260D01*
X288668Y207681D01*
X288841Y207035D01*
X288841Y203247D01*
X281847Y203247D01*
G37*
%LPD*%
%LPC*%
G36*
X307247Y203247D02*
X307247Y203247D01*
X307247Y209241D01*
X312035Y209241D01*
X312681Y209068D01*
X313260Y208733D01*
X313733Y208260D01*
X314068Y207681D01*
X314241Y207035D01*
X314241Y203247D01*
X307247Y203247D01*
G37*
%LPD*%
%LPC*%
G36*
X268759Y203247D02*
X268759Y203247D01*
X268759Y207035D01*
X268932Y207681D01*
X269267Y208260D01*
X269740Y208733D01*
X270319Y209068D01*
X270965Y209241D01*
X275753Y209241D01*
X275753Y203247D01*
X268759Y203247D01*
G37*
%LPD*%
%LPC*%
G36*
X294159Y203247D02*
X294159Y203247D01*
X294159Y207035D01*
X294332Y207681D01*
X294667Y208260D01*
X295140Y208733D01*
X295719Y209068D01*
X296365Y209241D01*
X301153Y209241D01*
X301153Y203247D01*
X294159Y203247D01*
G37*
%LPD*%
%LPC*%
G36*
X278847Y231259D02*
X278847Y231259D01*
X278847Y238253D01*
X284841Y238253D01*
X284841Y233465D01*
X284668Y232819D01*
X284333Y232240D01*
X283860Y231767D01*
X283281Y231432D01*
X282635Y231259D01*
X278847Y231259D01*
G37*
%LPD*%
D10*
X304200Y181200D03*
X304200Y200200D03*
D11*
X256800Y241300D03*
X275800Y241300D03*
D12*
X200200Y266900D03*
X174800Y266900D03*
D10*
X101000Y181200D03*
X101000Y200200D03*
X202600Y181200D03*
X202600Y200200D03*
X253400Y181200D03*
X253400Y200200D03*
X278800Y200200D03*
X278800Y181200D03*
D13*
X163738Y181302D03*
X163738Y190700D03*
X163738Y200098D03*
X139862Y200098D03*
X139862Y181302D03*
D10*
X75600Y200200D03*
X75600Y181200D03*
X228000Y181200D03*
X228000Y200200D03*
D14*
X100000Y114300D03*
D15*
X125000Y114300D03*
X150000Y114300D03*
X175000Y114300D03*
X200000Y114300D03*
X225000Y114300D03*
X250000Y114300D03*
X275000Y114300D03*
D14*
X100000Y37500D03*
D15*
X125000Y37500D03*
X150000Y37500D03*
X175000Y37500D03*
X200000Y37500D03*
X225000Y37500D03*
X250000Y37500D03*
X275000Y37500D03*
D16*
X177200Y190700D02*
X163738Y190700D01*
X253400Y200200D02*
X253400Y216100D01*
X139862Y181302D02*
X121320Y181302D01*
X121320Y190700D01*
D17*
X121320Y190700D03*
X253400Y216100D03*
D16*
X253400Y241300D02*
X256800Y241300D01*
X253400Y241300D02*
X253400Y216100D01*
X173898Y200098D02*
X163738Y200098D01*
X173898Y200098D02*
X177200Y203400D01*
X177200Y216100D01*
X202600Y216100D02*
X202600Y200200D01*
X202600Y216100D02*
X200000Y216100D01*
X177200Y216100D01*
X228000Y216100D02*
X228000Y200200D01*
X228000Y216100D02*
X202600Y216100D01*
X200200Y216300D02*
X200200Y266900D01*
X200200Y216300D02*
X200000Y216100D01*
X139862Y200098D02*
X129702Y200098D01*
X126400Y203400D01*
X126400Y212500D01*
X126400Y216100D01*
X101000Y216100D02*
X101000Y200200D01*
X101000Y216100D02*
X126400Y216100D01*
X101000Y216100D02*
X75600Y216100D01*
X75600Y200200D01*
X126400Y212500D02*
X174800Y260900D01*
X174800Y266900D01*
X101000Y181200D02*
X101000Y165300D01*
X150000Y165300D02*
X177200Y165300D01*
X150000Y165300D02*
X101000Y165300D01*
X163738Y181302D02*
X173898Y181302D01*
X177200Y178000D01*
X177200Y165300D01*
X75600Y165300D02*
X75600Y181200D01*
X75600Y165300D02*
X101000Y165300D01*
X150000Y165300D02*
X150000Y114300D01*
X202600Y165300D02*
X202600Y181200D01*
X202600Y165300D02*
X228000Y165300D01*
X253400Y165300D01*
X278800Y165300D01*
X304200Y165300D01*
X304200Y181200D01*
X278800Y181200D02*
X278800Y165300D01*
X253400Y165300D02*
X253400Y181200D01*
X228000Y181200D02*
X228000Y165300D01*
M02*
