G04 EAGLE Gerber RS-274X export*
G75*
%MOMM*%
%FSLAX34Y34*%
%LPD*%
%INSoldermask Top*%
%IPPOS*%
%AMOC8*
5,1,8,0,0,1.08239X$1,22.5*%
G01*
%ADD10C,3.203200*%
%ADD11R,1.703200X1.503200*%
%ADD12R,1.503200X1.703200*%
%ADD13C,1.473200*%
%ADD14R,1.676400X0.762000*%
%ADD15R,1.879600X1.879600*%
%ADD16C,1.879600*%
%ADD17C,0.959600*%


D10*
X37500Y37500D03*
X337500Y37500D03*
X37500Y262500D03*
X337500Y262500D03*
D11*
X304200Y181200D03*
X304200Y200200D03*
D12*
X256800Y241300D03*
X275800Y241300D03*
D13*
X200200Y266900D03*
X174800Y266900D03*
D11*
X101000Y181200D03*
X101000Y200200D03*
X202600Y181200D03*
X202600Y200200D03*
X253400Y181200D03*
X253400Y200200D03*
X278800Y200200D03*
X278800Y181200D03*
D14*
X163738Y181302D03*
X163738Y190700D03*
X163738Y200098D03*
X139862Y200098D03*
X139862Y181302D03*
D11*
X75600Y200200D03*
X75600Y181200D03*
X228000Y181200D03*
X228000Y200200D03*
D15*
X100000Y114300D03*
D16*
X125000Y114300D03*
X150000Y114300D03*
X175000Y114300D03*
X200000Y114300D03*
X225000Y114300D03*
X250000Y114300D03*
X275000Y114300D03*
D15*
X100000Y37500D03*
D16*
X125000Y37500D03*
X150000Y37500D03*
X175000Y37500D03*
X200000Y37500D03*
X225000Y37500D03*
X250000Y37500D03*
X275000Y37500D03*
D17*
X121320Y190700D03*
X253400Y216100D03*
M02*
