G04 EAGLE Gerber RS-274X export*
G75*
%MOMM*%
%FSLAX34Y34*%
%LPD*%
%INTop Copper*%
%IPPOS*%
%AMOC8*
5,1,8,0,0,1.08239X$1,22.5*%
G01*
%ADD10R,1.500000X1.300000*%
%ADD11R,1.300000X1.500000*%
%ADD12C,1.270000*%
%ADD13R,1.473200X0.558800*%
%ADD14R,1.676400X1.676400*%
%ADD15C,1.676400*%
%ADD16C,1.000000*%
%ADD17C,0.304800*%
%ADD18C,0.756400*%

G36*
X370502Y3004D02*
X370502Y3004D01*
X370528Y3002D01*
X370675Y3024D01*
X370822Y3041D01*
X370847Y3049D01*
X370873Y3053D01*
X371011Y3108D01*
X371150Y3158D01*
X371172Y3172D01*
X371197Y3182D01*
X371318Y3267D01*
X371443Y3347D01*
X371461Y3366D01*
X371483Y3381D01*
X371582Y3491D01*
X371685Y3598D01*
X371699Y3620D01*
X371716Y3640D01*
X371788Y3770D01*
X371864Y3897D01*
X371872Y3922D01*
X371885Y3945D01*
X371925Y4088D01*
X371970Y4229D01*
X371972Y4255D01*
X371980Y4280D01*
X371999Y4524D01*
X371999Y295476D01*
X371997Y295497D01*
X371998Y295517D01*
X371998Y295521D01*
X371998Y295528D01*
X371976Y295675D01*
X371959Y295822D01*
X371951Y295847D01*
X371947Y295873D01*
X371892Y296011D01*
X371842Y296150D01*
X371828Y296172D01*
X371818Y296197D01*
X371733Y296318D01*
X371653Y296443D01*
X371634Y296461D01*
X371619Y296483D01*
X371509Y296582D01*
X371402Y296685D01*
X371380Y296699D01*
X371360Y296716D01*
X371230Y296788D01*
X371103Y296864D01*
X371078Y296872D01*
X371055Y296885D01*
X370912Y296925D01*
X370771Y296970D01*
X370745Y296972D01*
X370720Y296980D01*
X370476Y296999D01*
X4524Y296999D01*
X4498Y296996D01*
X4472Y296998D01*
X4325Y296976D01*
X4178Y296959D01*
X4153Y296951D01*
X4127Y296947D01*
X3989Y296892D01*
X3850Y296842D01*
X3828Y296828D01*
X3803Y296818D01*
X3682Y296733D01*
X3557Y296653D01*
X3539Y296634D01*
X3517Y296619D01*
X3418Y296509D01*
X3315Y296402D01*
X3301Y296380D01*
X3284Y296360D01*
X3212Y296230D01*
X3136Y296103D01*
X3128Y296078D01*
X3115Y296055D01*
X3075Y295912D01*
X3030Y295771D01*
X3028Y295745D01*
X3020Y295720D01*
X3001Y295476D01*
X3001Y4524D01*
X3004Y4498D01*
X3002Y4472D01*
X3024Y4325D01*
X3041Y4178D01*
X3049Y4153D01*
X3053Y4127D01*
X3108Y3989D01*
X3158Y3850D01*
X3172Y3828D01*
X3182Y3803D01*
X3267Y3682D01*
X3347Y3557D01*
X3366Y3539D01*
X3381Y3517D01*
X3491Y3418D01*
X3598Y3315D01*
X3620Y3301D01*
X3640Y3284D01*
X3770Y3212D01*
X3897Y3136D01*
X3922Y3128D01*
X3945Y3115D01*
X4088Y3075D01*
X4229Y3030D01*
X4255Y3028D01*
X4280Y3020D01*
X4524Y3001D01*
X370476Y3001D01*
X370502Y3004D01*
G37*
%LPC*%
G36*
X201140Y161775D02*
X201140Y161775D01*
X199075Y163840D01*
X199075Y171176D01*
X199072Y171202D01*
X199074Y171228D01*
X199052Y171375D01*
X199035Y171522D01*
X199027Y171547D01*
X199023Y171573D01*
X198968Y171711D01*
X198918Y171850D01*
X198904Y171872D01*
X198894Y171897D01*
X198809Y172018D01*
X198729Y172143D01*
X198710Y172161D01*
X198695Y172183D01*
X198585Y172282D01*
X198478Y172385D01*
X198456Y172399D01*
X198436Y172416D01*
X198306Y172488D01*
X198179Y172564D01*
X198154Y172572D01*
X198131Y172585D01*
X197988Y172625D01*
X197847Y172670D01*
X197821Y172672D01*
X197796Y172680D01*
X197552Y172699D01*
X194271Y172699D01*
X193099Y173871D01*
X193099Y188529D01*
X194193Y189623D01*
X194210Y189643D01*
X194230Y189660D01*
X194318Y189780D01*
X194410Y189896D01*
X194421Y189920D01*
X194437Y189941D01*
X194496Y190077D01*
X194559Y190211D01*
X194564Y190237D01*
X194575Y190261D01*
X194601Y190407D01*
X194632Y190552D01*
X194632Y190578D01*
X194637Y190604D01*
X194629Y190752D01*
X194626Y190900D01*
X194620Y190926D01*
X194619Y190952D01*
X194578Y191094D01*
X194541Y191238D01*
X194529Y191261D01*
X194522Y191287D01*
X194450Y191416D01*
X194382Y191548D01*
X194365Y191568D01*
X194352Y191591D01*
X194193Y191777D01*
X193099Y192871D01*
X193099Y207529D01*
X194271Y208701D01*
X197552Y208701D01*
X197578Y208704D01*
X197604Y208702D01*
X197751Y208724D01*
X197898Y208741D01*
X197923Y208749D01*
X197949Y208753D01*
X198087Y208808D01*
X198226Y208858D01*
X198248Y208872D01*
X198273Y208882D01*
X198394Y208967D01*
X198519Y209047D01*
X198537Y209066D01*
X198559Y209081D01*
X198658Y209191D01*
X198761Y209298D01*
X198775Y209320D01*
X198792Y209340D01*
X198864Y209470D01*
X198940Y209597D01*
X198948Y209622D01*
X198961Y209645D01*
X199001Y209788D01*
X199046Y209929D01*
X199048Y209955D01*
X199056Y209980D01*
X199075Y210224D01*
X199075Y211052D01*
X199072Y211078D01*
X199074Y211104D01*
X199052Y211251D01*
X199035Y211398D01*
X199027Y211423D01*
X199023Y211449D01*
X198968Y211587D01*
X198918Y211726D01*
X198904Y211748D01*
X198894Y211773D01*
X198810Y211894D01*
X198729Y212019D01*
X198710Y212037D01*
X198695Y212059D01*
X198585Y212158D01*
X198478Y212261D01*
X198456Y212275D01*
X198436Y212292D01*
X198306Y212364D01*
X198179Y212440D01*
X198154Y212448D01*
X198131Y212461D01*
X197988Y212501D01*
X197847Y212546D01*
X197821Y212548D01*
X197796Y212556D01*
X197552Y212575D01*
X182248Y212575D01*
X182222Y212572D01*
X182196Y212574D01*
X182049Y212552D01*
X181902Y212535D01*
X181877Y212527D01*
X181851Y212523D01*
X181713Y212468D01*
X181574Y212418D01*
X181552Y212404D01*
X181527Y212394D01*
X181406Y212309D01*
X181281Y212229D01*
X181263Y212210D01*
X181241Y212195D01*
X181142Y212085D01*
X181039Y211978D01*
X181025Y211956D01*
X181008Y211936D01*
X180936Y211806D01*
X180860Y211679D01*
X180852Y211654D01*
X180839Y211631D01*
X180799Y211488D01*
X180754Y211347D01*
X180752Y211321D01*
X180744Y211296D01*
X180725Y211052D01*
X180725Y201940D01*
X175358Y196573D01*
X174894Y196573D01*
X174844Y196567D01*
X174793Y196570D01*
X174671Y196548D01*
X174548Y196533D01*
X174500Y196516D01*
X174450Y196507D01*
X174337Y196458D01*
X174220Y196416D01*
X174177Y196388D01*
X174130Y196368D01*
X174031Y196294D01*
X173927Y196227D01*
X173892Y196190D01*
X173851Y196160D01*
X173771Y196065D01*
X173685Y195976D01*
X173659Y195932D01*
X173626Y195893D01*
X173570Y195783D01*
X173506Y195677D01*
X173491Y195629D01*
X173467Y195583D01*
X173438Y195463D01*
X173400Y195345D01*
X173396Y195294D01*
X173384Y195245D01*
X173382Y195121D01*
X173372Y194998D01*
X173380Y194947D01*
X173379Y194896D01*
X173423Y194656D01*
X173645Y193829D01*
X173645Y192223D01*
X163738Y192223D01*
X153831Y192223D01*
X153831Y193829D01*
X154004Y194475D01*
X154287Y194963D01*
X154287Y194965D01*
X154288Y194966D01*
X154357Y195127D01*
X154425Y195283D01*
X154425Y195284D01*
X154426Y195286D01*
X154455Y195447D01*
X154487Y195626D01*
X154487Y195627D01*
X154488Y195629D01*
X154479Y195798D01*
X154470Y195974D01*
X154470Y195975D01*
X154470Y195977D01*
X154425Y196130D01*
X154374Y196309D01*
X154373Y196310D01*
X154373Y196312D01*
X154371Y196315D01*
X154371Y203721D01*
X155543Y204893D01*
X172152Y204893D01*
X172178Y204896D01*
X172204Y204894D01*
X172351Y204916D01*
X172498Y204933D01*
X172523Y204941D01*
X172549Y204945D01*
X172687Y205000D01*
X172826Y205050D01*
X172848Y205064D01*
X172873Y205074D01*
X172994Y205159D01*
X173119Y205239D01*
X173137Y205258D01*
X173159Y205273D01*
X173258Y205383D01*
X173361Y205490D01*
X173375Y205512D01*
X173392Y205532D01*
X173464Y205662D01*
X173540Y205789D01*
X173548Y205814D01*
X173561Y205837D01*
X173601Y205980D01*
X173646Y206121D01*
X173648Y206147D01*
X173656Y206172D01*
X173675Y206416D01*
X173675Y217560D01*
X175740Y219625D01*
X195152Y219625D01*
X195178Y219628D01*
X195204Y219626D01*
X195351Y219648D01*
X195498Y219665D01*
X195523Y219673D01*
X195549Y219677D01*
X195687Y219732D01*
X195826Y219782D01*
X195848Y219796D01*
X195873Y219806D01*
X195994Y219891D01*
X196119Y219971D01*
X196137Y219990D01*
X196159Y220005D01*
X196258Y220115D01*
X196361Y220222D01*
X196375Y220244D01*
X196392Y220264D01*
X196464Y220394D01*
X196540Y220521D01*
X196548Y220546D01*
X196561Y220569D01*
X196601Y220712D01*
X196646Y220853D01*
X196648Y220879D01*
X196656Y220904D01*
X196675Y221148D01*
X196675Y258303D01*
X196667Y258379D01*
X196668Y258456D01*
X196647Y258552D01*
X196635Y258650D01*
X196610Y258722D01*
X196593Y258796D01*
X196551Y258885D01*
X196518Y258978D01*
X196476Y259042D01*
X196444Y259111D01*
X196382Y259188D01*
X196329Y259271D01*
X196274Y259324D01*
X196226Y259383D01*
X196149Y259444D01*
X196078Y259513D01*
X196013Y259552D01*
X195953Y259599D01*
X195820Y259667D01*
X195779Y259692D01*
X195761Y259697D01*
X195735Y259711D01*
X195470Y259821D01*
X193121Y262170D01*
X191849Y265239D01*
X191849Y268561D01*
X193121Y271630D01*
X195470Y273979D01*
X198539Y275251D01*
X201861Y275251D01*
X204930Y273979D01*
X207279Y271630D01*
X208551Y268561D01*
X208551Y265239D01*
X207279Y262170D01*
X204930Y259821D01*
X204665Y259711D01*
X204598Y259674D01*
X204527Y259645D01*
X204447Y259589D01*
X204360Y259541D01*
X204304Y259490D01*
X204241Y259446D01*
X204175Y259373D01*
X204102Y259307D01*
X204059Y259244D01*
X204008Y259188D01*
X203960Y259101D01*
X203904Y259021D01*
X203876Y258950D01*
X203839Y258883D01*
X203812Y258788D01*
X203776Y258696D01*
X203765Y258621D01*
X203744Y258547D01*
X203732Y258398D01*
X203725Y258352D01*
X203727Y258332D01*
X203725Y258303D01*
X203725Y221148D01*
X203728Y221122D01*
X203726Y221096D01*
X203748Y220949D01*
X203765Y220802D01*
X203773Y220777D01*
X203777Y220751D01*
X203832Y220613D01*
X203882Y220474D01*
X203896Y220452D01*
X203906Y220427D01*
X203991Y220306D01*
X204071Y220181D01*
X204090Y220163D01*
X204105Y220141D01*
X204215Y220042D01*
X204322Y219939D01*
X204344Y219925D01*
X204364Y219908D01*
X204494Y219836D01*
X204621Y219760D01*
X204646Y219752D01*
X204669Y219739D01*
X204812Y219699D01*
X204953Y219654D01*
X204979Y219652D01*
X205004Y219644D01*
X205248Y219625D01*
X229460Y219625D01*
X231525Y217560D01*
X231525Y210224D01*
X231528Y210198D01*
X231526Y210172D01*
X231548Y210025D01*
X231565Y209878D01*
X231573Y209853D01*
X231577Y209827D01*
X231632Y209689D01*
X231682Y209550D01*
X231696Y209528D01*
X231706Y209503D01*
X231791Y209382D01*
X231871Y209257D01*
X231890Y209239D01*
X231905Y209217D01*
X232015Y209118D01*
X232122Y209015D01*
X232144Y209001D01*
X232164Y208984D01*
X232294Y208912D01*
X232421Y208836D01*
X232446Y208828D01*
X232469Y208815D01*
X232612Y208775D01*
X232753Y208730D01*
X232779Y208728D01*
X232804Y208720D01*
X233048Y208701D01*
X236329Y208701D01*
X237501Y207529D01*
X237501Y192871D01*
X236407Y191777D01*
X236390Y191757D01*
X236370Y191740D01*
X236282Y191620D01*
X236190Y191504D01*
X236179Y191480D01*
X236163Y191459D01*
X236104Y191323D01*
X236041Y191189D01*
X236035Y191163D01*
X236025Y191139D01*
X235999Y190993D01*
X235968Y190848D01*
X235968Y190822D01*
X235963Y190796D01*
X235971Y190648D01*
X235974Y190500D01*
X235980Y190474D01*
X235981Y190448D01*
X236022Y190306D01*
X236059Y190162D01*
X236071Y190139D01*
X236078Y190113D01*
X236150Y189984D01*
X236218Y189852D01*
X236235Y189832D01*
X236248Y189809D01*
X236407Y189623D01*
X237501Y188529D01*
X237501Y173871D01*
X236329Y172699D01*
X233048Y172699D01*
X233022Y172696D01*
X232996Y172698D01*
X232849Y172676D01*
X232702Y172659D01*
X232677Y172651D01*
X232651Y172647D01*
X232513Y172592D01*
X232374Y172542D01*
X232352Y172528D01*
X232327Y172518D01*
X232206Y172433D01*
X232081Y172353D01*
X232063Y172334D01*
X232041Y172319D01*
X231942Y172209D01*
X231839Y172102D01*
X231825Y172080D01*
X231808Y172060D01*
X231736Y171930D01*
X231660Y171803D01*
X231652Y171778D01*
X231639Y171755D01*
X231599Y171612D01*
X231554Y171471D01*
X231552Y171445D01*
X231544Y171420D01*
X231525Y171176D01*
X231525Y170348D01*
X231528Y170322D01*
X231526Y170296D01*
X231548Y170149D01*
X231565Y170002D01*
X231573Y169977D01*
X231577Y169951D01*
X231632Y169813D01*
X231682Y169674D01*
X231696Y169652D01*
X231706Y169627D01*
X231791Y169506D01*
X231871Y169381D01*
X231890Y169363D01*
X231905Y169341D01*
X232015Y169242D01*
X232122Y169139D01*
X232144Y169125D01*
X232164Y169108D01*
X232294Y169036D01*
X232421Y168960D01*
X232446Y168952D01*
X232469Y168939D01*
X232612Y168899D01*
X232753Y168854D01*
X232779Y168852D01*
X232804Y168844D01*
X233048Y168825D01*
X248352Y168825D01*
X248378Y168828D01*
X248404Y168826D01*
X248551Y168848D01*
X248698Y168865D01*
X248723Y168873D01*
X248749Y168877D01*
X248887Y168932D01*
X249026Y168982D01*
X249048Y168996D01*
X249073Y169006D01*
X249194Y169091D01*
X249319Y169171D01*
X249337Y169190D01*
X249359Y169205D01*
X249458Y169315D01*
X249561Y169422D01*
X249575Y169444D01*
X249592Y169464D01*
X249664Y169594D01*
X249740Y169721D01*
X249748Y169746D01*
X249761Y169769D01*
X249801Y169912D01*
X249846Y170053D01*
X249848Y170079D01*
X249856Y170104D01*
X249875Y170348D01*
X249875Y171176D01*
X249872Y171202D01*
X249874Y171228D01*
X249852Y171375D01*
X249835Y171522D01*
X249827Y171547D01*
X249823Y171573D01*
X249768Y171711D01*
X249718Y171850D01*
X249704Y171872D01*
X249694Y171897D01*
X249609Y172018D01*
X249529Y172143D01*
X249510Y172161D01*
X249495Y172183D01*
X249385Y172282D01*
X249278Y172385D01*
X249256Y172399D01*
X249236Y172416D01*
X249106Y172488D01*
X248979Y172564D01*
X248954Y172572D01*
X248931Y172585D01*
X248788Y172625D01*
X248647Y172670D01*
X248621Y172672D01*
X248596Y172680D01*
X248352Y172699D01*
X245071Y172699D01*
X243899Y173871D01*
X243899Y188529D01*
X244993Y189623D01*
X245010Y189643D01*
X245030Y189660D01*
X245118Y189780D01*
X245210Y189896D01*
X245221Y189920D01*
X245237Y189941D01*
X245296Y190077D01*
X245359Y190211D01*
X245364Y190237D01*
X245375Y190261D01*
X245401Y190407D01*
X245432Y190552D01*
X245432Y190578D01*
X245437Y190604D01*
X245429Y190752D01*
X245426Y190900D01*
X245420Y190926D01*
X245419Y190952D01*
X245378Y191094D01*
X245341Y191238D01*
X245329Y191261D01*
X245322Y191287D01*
X245250Y191416D01*
X245182Y191548D01*
X245165Y191568D01*
X245152Y191591D01*
X244993Y191777D01*
X243899Y192871D01*
X243899Y207529D01*
X245071Y208701D01*
X248352Y208701D01*
X248378Y208704D01*
X248404Y208702D01*
X248551Y208724D01*
X248698Y208741D01*
X248723Y208749D01*
X248749Y208753D01*
X248887Y208808D01*
X249026Y208858D01*
X249048Y208872D01*
X249073Y208882D01*
X249194Y208967D01*
X249319Y209047D01*
X249337Y209066D01*
X249359Y209081D01*
X249458Y209191D01*
X249561Y209298D01*
X249575Y209320D01*
X249592Y209340D01*
X249664Y209470D01*
X249740Y209597D01*
X249748Y209622D01*
X249761Y209645D01*
X249801Y209788D01*
X249846Y209929D01*
X249848Y209955D01*
X249856Y209980D01*
X249875Y210224D01*
X249875Y210816D01*
X249861Y210941D01*
X249854Y211068D01*
X249841Y211114D01*
X249835Y211162D01*
X249793Y211281D01*
X249758Y211402D01*
X249734Y211445D01*
X249718Y211490D01*
X249649Y211596D01*
X249588Y211707D01*
X249548Y211753D01*
X249529Y211783D01*
X249494Y211816D01*
X249429Y211893D01*
X248498Y212824D01*
X247617Y214950D01*
X247617Y217250D01*
X248498Y219376D01*
X249429Y220307D01*
X249508Y220406D01*
X249592Y220500D01*
X249616Y220542D01*
X249646Y220580D01*
X249700Y220694D01*
X249761Y220805D01*
X249774Y220852D01*
X249795Y220895D01*
X249821Y221019D01*
X249856Y221140D01*
X249861Y221201D01*
X249868Y221236D01*
X249867Y221284D01*
X249875Y221384D01*
X249875Y230764D01*
X249861Y230890D01*
X249854Y231016D01*
X249841Y231063D01*
X249835Y231111D01*
X249793Y231229D01*
X249758Y231351D01*
X249734Y231393D01*
X249718Y231439D01*
X249649Y231545D01*
X249588Y231655D01*
X249548Y231701D01*
X249529Y231731D01*
X249494Y231765D01*
X249429Y231841D01*
X248299Y232971D01*
X248299Y249629D01*
X249471Y250801D01*
X264129Y250801D01*
X264876Y250054D01*
X264916Y250022D01*
X264950Y249984D01*
X265052Y249914D01*
X265149Y249837D01*
X265195Y249815D01*
X265237Y249786D01*
X265352Y249741D01*
X265464Y249688D01*
X265514Y249677D01*
X265561Y249659D01*
X265684Y249641D01*
X265805Y249615D01*
X265856Y249616D01*
X265906Y249608D01*
X266030Y249619D01*
X266153Y249621D01*
X266203Y249633D01*
X266253Y249637D01*
X266371Y249676D01*
X266491Y249706D01*
X266536Y249729D01*
X266585Y249745D01*
X266691Y249809D01*
X266801Y249865D01*
X266840Y249898D01*
X266883Y249925D01*
X266972Y250011D01*
X267066Y250091D01*
X267097Y250132D01*
X267133Y250168D01*
X267264Y250357D01*
X267740Y250833D01*
X268319Y251168D01*
X268965Y251341D01*
X272753Y251341D01*
X272753Y242824D01*
X272756Y242798D01*
X272754Y242772D01*
X272776Y242625D01*
X272793Y242478D01*
X272801Y242453D01*
X272805Y242427D01*
X272860Y242289D01*
X272910Y242150D01*
X272924Y242128D01*
X272934Y242103D01*
X273019Y241982D01*
X273099Y241857D01*
X273118Y241839D01*
X273133Y241817D01*
X273243Y241718D01*
X273350Y241615D01*
X273372Y241601D01*
X273392Y241584D01*
X273522Y241512D01*
X273649Y241436D01*
X273674Y241428D01*
X273697Y241415D01*
X273840Y241375D01*
X273981Y241330D01*
X274007Y241328D01*
X274032Y241320D01*
X274276Y241301D01*
X275801Y241301D01*
X275801Y241299D01*
X274276Y241299D01*
X274250Y241296D01*
X274224Y241298D01*
X274077Y241276D01*
X273930Y241259D01*
X273905Y241250D01*
X273879Y241247D01*
X273741Y241192D01*
X273602Y241142D01*
X273580Y241128D01*
X273555Y241118D01*
X273434Y241033D01*
X273309Y240953D01*
X273291Y240934D01*
X273269Y240919D01*
X273170Y240809D01*
X273067Y240702D01*
X273053Y240680D01*
X273036Y240660D01*
X272964Y240530D01*
X272888Y240403D01*
X272880Y240378D01*
X272867Y240355D01*
X272827Y240212D01*
X272782Y240071D01*
X272780Y240045D01*
X272772Y240020D01*
X272753Y239776D01*
X272753Y231259D01*
X268965Y231259D01*
X268319Y231432D01*
X267740Y231767D01*
X267261Y232246D01*
X267242Y232272D01*
X267218Y232317D01*
X267138Y232411D01*
X267064Y232511D01*
X267026Y232544D01*
X266992Y232583D01*
X266893Y232656D01*
X266799Y232736D01*
X266753Y232760D01*
X266712Y232790D01*
X266599Y232839D01*
X266489Y232895D01*
X266439Y232908D01*
X266392Y232928D01*
X266271Y232950D01*
X266150Y232980D01*
X266099Y232980D01*
X266049Y232990D01*
X265926Y232983D01*
X265802Y232985D01*
X265752Y232974D01*
X265701Y232972D01*
X265582Y232937D01*
X265461Y232911D01*
X265415Y232889D01*
X265366Y232875D01*
X265258Y232815D01*
X265147Y232762D01*
X265107Y232730D01*
X265062Y232705D01*
X264876Y232546D01*
X264129Y231799D01*
X258448Y231799D01*
X258422Y231796D01*
X258396Y231798D01*
X258249Y231776D01*
X258102Y231759D01*
X258077Y231751D01*
X258051Y231747D01*
X257913Y231692D01*
X257774Y231642D01*
X257752Y231628D01*
X257727Y231618D01*
X257606Y231533D01*
X257481Y231453D01*
X257463Y231434D01*
X257441Y231419D01*
X257342Y231309D01*
X257239Y231202D01*
X257225Y231180D01*
X257208Y231160D01*
X257136Y231030D01*
X257060Y230903D01*
X257052Y230878D01*
X257039Y230855D01*
X256999Y230712D01*
X256954Y230571D01*
X256952Y230545D01*
X256944Y230520D01*
X256925Y230276D01*
X256925Y221384D01*
X256939Y221259D01*
X256946Y221132D01*
X256959Y221086D01*
X256965Y221038D01*
X257007Y220919D01*
X257042Y220798D01*
X257066Y220755D01*
X257082Y220710D01*
X257151Y220604D01*
X257212Y220493D01*
X257252Y220447D01*
X257271Y220417D01*
X257306Y220384D01*
X257371Y220307D01*
X258302Y219376D01*
X259183Y217250D01*
X259183Y214950D01*
X258302Y212824D01*
X257371Y211893D01*
X257292Y211794D01*
X257208Y211700D01*
X257184Y211658D01*
X257154Y211620D01*
X257100Y211506D01*
X257039Y211395D01*
X257026Y211348D01*
X257005Y211305D01*
X256979Y211181D01*
X256944Y211060D01*
X256939Y210999D01*
X256932Y210964D01*
X256933Y210916D01*
X256925Y210816D01*
X256925Y210224D01*
X256928Y210198D01*
X256926Y210172D01*
X256948Y210025D01*
X256965Y209878D01*
X256973Y209853D01*
X256977Y209827D01*
X257032Y209689D01*
X257082Y209550D01*
X257096Y209528D01*
X257106Y209503D01*
X257191Y209382D01*
X257271Y209257D01*
X257290Y209239D01*
X257305Y209217D01*
X257415Y209118D01*
X257522Y209015D01*
X257544Y209001D01*
X257564Y208984D01*
X257694Y208912D01*
X257821Y208836D01*
X257846Y208828D01*
X257869Y208815D01*
X258012Y208775D01*
X258153Y208730D01*
X258179Y208728D01*
X258204Y208720D01*
X258448Y208701D01*
X261729Y208701D01*
X262901Y207529D01*
X262901Y192871D01*
X261807Y191777D01*
X261790Y191757D01*
X261770Y191740D01*
X261682Y191620D01*
X261590Y191504D01*
X261579Y191480D01*
X261563Y191459D01*
X261504Y191323D01*
X261441Y191189D01*
X261435Y191163D01*
X261425Y191139D01*
X261399Y190993D01*
X261368Y190848D01*
X261368Y190822D01*
X261363Y190796D01*
X261371Y190648D01*
X261374Y190500D01*
X261380Y190474D01*
X261381Y190448D01*
X261422Y190306D01*
X261459Y190162D01*
X261471Y190139D01*
X261478Y190113D01*
X261550Y189984D01*
X261618Y189852D01*
X261635Y189832D01*
X261648Y189809D01*
X261807Y189623D01*
X262901Y188529D01*
X262901Y173871D01*
X261729Y172699D01*
X258448Y172699D01*
X258422Y172696D01*
X258396Y172698D01*
X258249Y172676D01*
X258102Y172659D01*
X258077Y172651D01*
X258051Y172647D01*
X257913Y172592D01*
X257774Y172542D01*
X257752Y172528D01*
X257727Y172518D01*
X257606Y172433D01*
X257481Y172353D01*
X257463Y172334D01*
X257441Y172319D01*
X257342Y172209D01*
X257239Y172102D01*
X257225Y172080D01*
X257208Y172060D01*
X257136Y171930D01*
X257060Y171803D01*
X257052Y171778D01*
X257039Y171755D01*
X256999Y171612D01*
X256954Y171471D01*
X256952Y171445D01*
X256944Y171420D01*
X256925Y171176D01*
X256925Y170348D01*
X256928Y170322D01*
X256926Y170296D01*
X256948Y170149D01*
X256965Y170002D01*
X256973Y169977D01*
X256977Y169951D01*
X257032Y169813D01*
X257082Y169674D01*
X257096Y169652D01*
X257106Y169627D01*
X257191Y169506D01*
X257271Y169381D01*
X257290Y169363D01*
X257305Y169341D01*
X257415Y169242D01*
X257522Y169139D01*
X257544Y169125D01*
X257564Y169108D01*
X257694Y169036D01*
X257821Y168960D01*
X257846Y168952D01*
X257869Y168939D01*
X258012Y168899D01*
X258153Y168854D01*
X258179Y168852D01*
X258204Y168844D01*
X258448Y168825D01*
X273752Y168825D01*
X273778Y168828D01*
X273804Y168826D01*
X273951Y168848D01*
X274098Y168865D01*
X274123Y168873D01*
X274149Y168877D01*
X274287Y168932D01*
X274426Y168982D01*
X274448Y168996D01*
X274473Y169006D01*
X274594Y169091D01*
X274719Y169171D01*
X274737Y169190D01*
X274759Y169205D01*
X274858Y169315D01*
X274961Y169422D01*
X274975Y169444D01*
X274992Y169464D01*
X275064Y169594D01*
X275140Y169721D01*
X275148Y169746D01*
X275161Y169769D01*
X275201Y169912D01*
X275246Y170053D01*
X275248Y170079D01*
X275256Y170104D01*
X275275Y170348D01*
X275275Y171176D01*
X275272Y171202D01*
X275274Y171228D01*
X275252Y171375D01*
X275235Y171522D01*
X275227Y171547D01*
X275223Y171573D01*
X275168Y171711D01*
X275118Y171850D01*
X275104Y171872D01*
X275094Y171897D01*
X275009Y172018D01*
X274929Y172143D01*
X274910Y172161D01*
X274895Y172183D01*
X274785Y172282D01*
X274678Y172385D01*
X274656Y172399D01*
X274636Y172416D01*
X274506Y172488D01*
X274379Y172564D01*
X274354Y172572D01*
X274331Y172585D01*
X274188Y172625D01*
X274047Y172670D01*
X274021Y172672D01*
X273996Y172680D01*
X273752Y172699D01*
X270471Y172699D01*
X269299Y173871D01*
X269299Y188529D01*
X270046Y189276D01*
X270078Y189316D01*
X270116Y189350D01*
X270186Y189452D01*
X270263Y189549D01*
X270285Y189595D01*
X270314Y189637D01*
X270359Y189752D01*
X270412Y189864D01*
X270423Y189914D01*
X270441Y189961D01*
X270459Y190084D01*
X270485Y190205D01*
X270484Y190256D01*
X270492Y190306D01*
X270481Y190430D01*
X270479Y190553D01*
X270467Y190603D01*
X270463Y190653D01*
X270424Y190771D01*
X270394Y190891D01*
X270371Y190936D01*
X270355Y190985D01*
X270300Y191077D01*
X270298Y191081D01*
X270291Y191091D01*
X270235Y191201D01*
X270202Y191240D01*
X270175Y191283D01*
X270113Y191347D01*
X270099Y191367D01*
X270073Y191391D01*
X270009Y191466D01*
X269968Y191497D01*
X269932Y191533D01*
X269861Y191583D01*
X269840Y191601D01*
X269809Y191618D01*
X269743Y191664D01*
X269267Y192140D01*
X268932Y192719D01*
X268759Y193365D01*
X268759Y197153D01*
X277276Y197153D01*
X277302Y197156D01*
X277328Y197154D01*
X277475Y197176D01*
X277622Y197193D01*
X277647Y197201D01*
X277673Y197205D01*
X277811Y197260D01*
X277950Y197310D01*
X277972Y197324D01*
X277997Y197334D01*
X278118Y197419D01*
X278243Y197499D01*
X278261Y197518D01*
X278283Y197533D01*
X278382Y197643D01*
X278485Y197750D01*
X278499Y197772D01*
X278516Y197792D01*
X278588Y197922D01*
X278664Y198049D01*
X278672Y198074D01*
X278685Y198097D01*
X278725Y198240D01*
X278770Y198381D01*
X278772Y198407D01*
X278780Y198432D01*
X278799Y198676D01*
X278799Y200201D01*
X278801Y200201D01*
X278801Y198676D01*
X278804Y198650D01*
X278802Y198624D01*
X278824Y198477D01*
X278841Y198330D01*
X278850Y198305D01*
X278853Y198279D01*
X278908Y198141D01*
X278958Y198002D01*
X278972Y197980D01*
X278982Y197955D01*
X279067Y197834D01*
X279147Y197709D01*
X279166Y197691D01*
X279181Y197669D01*
X279291Y197570D01*
X279398Y197467D01*
X279420Y197453D01*
X279440Y197436D01*
X279570Y197364D01*
X279697Y197288D01*
X279722Y197280D01*
X279745Y197267D01*
X279888Y197227D01*
X280029Y197182D01*
X280055Y197180D01*
X280080Y197172D01*
X280324Y197153D01*
X288841Y197153D01*
X288841Y193365D01*
X288668Y192719D01*
X288333Y192140D01*
X287854Y191661D01*
X287828Y191642D01*
X287783Y191618D01*
X287722Y191566D01*
X287677Y191537D01*
X287649Y191509D01*
X287589Y191464D01*
X287556Y191426D01*
X287517Y191392D01*
X287454Y191307D01*
X287434Y191287D01*
X287425Y191271D01*
X287364Y191199D01*
X287340Y191153D01*
X287310Y191112D01*
X287261Y190999D01*
X287205Y190889D01*
X287192Y190839D01*
X287172Y190792D01*
X287150Y190671D01*
X287120Y190550D01*
X287120Y190499D01*
X287110Y190449D01*
X287117Y190326D01*
X287115Y190202D01*
X287126Y190152D01*
X287128Y190101D01*
X287163Y189982D01*
X287189Y189861D01*
X287211Y189815D01*
X287225Y189766D01*
X287285Y189658D01*
X287338Y189547D01*
X287370Y189507D01*
X287395Y189462D01*
X287554Y189276D01*
X288301Y188529D01*
X288301Y173871D01*
X287129Y172699D01*
X283848Y172699D01*
X283822Y172696D01*
X283796Y172698D01*
X283649Y172676D01*
X283502Y172659D01*
X283477Y172651D01*
X283451Y172647D01*
X283313Y172592D01*
X283174Y172542D01*
X283152Y172528D01*
X283127Y172518D01*
X283006Y172433D01*
X282881Y172353D01*
X282863Y172334D01*
X282841Y172319D01*
X282742Y172209D01*
X282639Y172102D01*
X282625Y172080D01*
X282608Y172060D01*
X282536Y171930D01*
X282460Y171803D01*
X282452Y171778D01*
X282439Y171755D01*
X282399Y171612D01*
X282354Y171471D01*
X282352Y171445D01*
X282344Y171420D01*
X282325Y171176D01*
X282325Y170348D01*
X282328Y170322D01*
X282326Y170296D01*
X282348Y170149D01*
X282365Y170002D01*
X282373Y169977D01*
X282377Y169951D01*
X282432Y169813D01*
X282482Y169674D01*
X282496Y169652D01*
X282506Y169627D01*
X282591Y169506D01*
X282671Y169381D01*
X282690Y169363D01*
X282705Y169341D01*
X282815Y169242D01*
X282922Y169139D01*
X282944Y169125D01*
X282964Y169108D01*
X283094Y169036D01*
X283221Y168960D01*
X283246Y168952D01*
X283269Y168939D01*
X283412Y168899D01*
X283553Y168854D01*
X283579Y168852D01*
X283604Y168844D01*
X283848Y168825D01*
X299152Y168825D01*
X299178Y168828D01*
X299204Y168826D01*
X299351Y168848D01*
X299498Y168865D01*
X299523Y168873D01*
X299549Y168877D01*
X299687Y168932D01*
X299826Y168982D01*
X299848Y168996D01*
X299873Y169006D01*
X299994Y169091D01*
X300119Y169171D01*
X300137Y169190D01*
X300159Y169205D01*
X300258Y169315D01*
X300361Y169422D01*
X300375Y169444D01*
X300392Y169464D01*
X300464Y169594D01*
X300540Y169721D01*
X300548Y169746D01*
X300561Y169769D01*
X300601Y169912D01*
X300646Y170053D01*
X300648Y170079D01*
X300656Y170104D01*
X300675Y170348D01*
X300675Y171176D01*
X300672Y171202D01*
X300674Y171228D01*
X300652Y171375D01*
X300635Y171522D01*
X300627Y171547D01*
X300623Y171573D01*
X300568Y171711D01*
X300518Y171850D01*
X300504Y171872D01*
X300494Y171897D01*
X300409Y172018D01*
X300329Y172143D01*
X300310Y172161D01*
X300295Y172183D01*
X300185Y172282D01*
X300078Y172385D01*
X300056Y172399D01*
X300036Y172416D01*
X299906Y172488D01*
X299779Y172564D01*
X299754Y172572D01*
X299731Y172585D01*
X299588Y172625D01*
X299447Y172670D01*
X299421Y172672D01*
X299396Y172680D01*
X299152Y172699D01*
X295871Y172699D01*
X294699Y173871D01*
X294699Y188529D01*
X295446Y189276D01*
X295478Y189316D01*
X295516Y189350D01*
X295586Y189452D01*
X295663Y189549D01*
X295685Y189595D01*
X295714Y189637D01*
X295759Y189752D01*
X295812Y189864D01*
X295823Y189914D01*
X295841Y189961D01*
X295859Y190084D01*
X295885Y190205D01*
X295884Y190256D01*
X295892Y190306D01*
X295881Y190430D01*
X295879Y190553D01*
X295867Y190603D01*
X295863Y190653D01*
X295824Y190771D01*
X295794Y190891D01*
X295771Y190936D01*
X295755Y190985D01*
X295700Y191077D01*
X295698Y191081D01*
X295691Y191091D01*
X295635Y191201D01*
X295602Y191240D01*
X295575Y191283D01*
X295513Y191347D01*
X295499Y191367D01*
X295473Y191391D01*
X295409Y191466D01*
X295368Y191497D01*
X295332Y191533D01*
X295261Y191583D01*
X295240Y191601D01*
X295209Y191618D01*
X295143Y191664D01*
X294667Y192140D01*
X294332Y192719D01*
X294159Y193365D01*
X294159Y197153D01*
X302676Y197153D01*
X302702Y197156D01*
X302728Y197154D01*
X302875Y197176D01*
X303022Y197193D01*
X303047Y197201D01*
X303073Y197205D01*
X303211Y197260D01*
X303350Y197310D01*
X303372Y197324D01*
X303397Y197334D01*
X303518Y197419D01*
X303643Y197499D01*
X303661Y197518D01*
X303683Y197533D01*
X303782Y197643D01*
X303885Y197750D01*
X303899Y197772D01*
X303916Y197792D01*
X303988Y197922D01*
X304064Y198049D01*
X304072Y198074D01*
X304085Y198097D01*
X304125Y198240D01*
X304170Y198381D01*
X304172Y198407D01*
X304180Y198432D01*
X304199Y198676D01*
X304199Y200201D01*
X304201Y200201D01*
X304201Y198676D01*
X304204Y198650D01*
X304202Y198624D01*
X304224Y198477D01*
X304241Y198330D01*
X304250Y198305D01*
X304253Y198279D01*
X304308Y198141D01*
X304358Y198002D01*
X304372Y197980D01*
X304382Y197955D01*
X304467Y197834D01*
X304547Y197709D01*
X304566Y197691D01*
X304581Y197669D01*
X304691Y197570D01*
X304798Y197467D01*
X304820Y197453D01*
X304840Y197436D01*
X304970Y197364D01*
X305097Y197288D01*
X305122Y197280D01*
X305145Y197267D01*
X305288Y197227D01*
X305429Y197182D01*
X305455Y197180D01*
X305480Y197172D01*
X305724Y197153D01*
X314241Y197153D01*
X314241Y193365D01*
X314068Y192719D01*
X313733Y192140D01*
X313254Y191661D01*
X313228Y191642D01*
X313183Y191618D01*
X313122Y191566D01*
X313077Y191537D01*
X313049Y191509D01*
X312989Y191464D01*
X312956Y191426D01*
X312917Y191392D01*
X312854Y191307D01*
X312834Y191287D01*
X312825Y191271D01*
X312764Y191199D01*
X312740Y191153D01*
X312710Y191112D01*
X312661Y190999D01*
X312605Y190889D01*
X312592Y190839D01*
X312572Y190792D01*
X312550Y190671D01*
X312520Y190550D01*
X312520Y190499D01*
X312510Y190449D01*
X312517Y190326D01*
X312515Y190202D01*
X312526Y190152D01*
X312528Y190101D01*
X312563Y189982D01*
X312589Y189861D01*
X312611Y189815D01*
X312625Y189766D01*
X312685Y189658D01*
X312738Y189547D01*
X312770Y189507D01*
X312795Y189462D01*
X312954Y189276D01*
X313701Y188529D01*
X313701Y173871D01*
X312529Y172699D01*
X309248Y172699D01*
X309222Y172696D01*
X309196Y172698D01*
X309049Y172676D01*
X308902Y172659D01*
X308877Y172651D01*
X308851Y172647D01*
X308713Y172592D01*
X308574Y172542D01*
X308552Y172528D01*
X308527Y172518D01*
X308406Y172433D01*
X308281Y172353D01*
X308263Y172334D01*
X308241Y172319D01*
X308142Y172209D01*
X308039Y172102D01*
X308025Y172080D01*
X308008Y172060D01*
X307936Y171930D01*
X307860Y171803D01*
X307852Y171778D01*
X307839Y171755D01*
X307799Y171612D01*
X307754Y171471D01*
X307752Y171445D01*
X307744Y171420D01*
X307725Y171176D01*
X307725Y163840D01*
X305660Y161775D01*
X201140Y161775D01*
G37*
%LPD*%
%LPC*%
G36*
X147935Y103917D02*
X147935Y103917D01*
X144119Y105498D01*
X141198Y108419D01*
X139617Y112235D01*
X139617Y116365D01*
X141198Y120181D01*
X144119Y123102D01*
X145535Y123689D01*
X145602Y123726D01*
X145673Y123754D01*
X145754Y123810D01*
X145840Y123858D01*
X145896Y123909D01*
X145959Y123953D01*
X146025Y124026D01*
X146098Y124092D01*
X146141Y124155D01*
X146192Y124212D01*
X146240Y124298D01*
X146296Y124379D01*
X146324Y124450D01*
X146361Y124517D01*
X146388Y124612D01*
X146424Y124703D01*
X146435Y124779D01*
X146456Y124852D01*
X146468Y125001D01*
X146475Y125048D01*
X146473Y125067D01*
X146475Y125096D01*
X146475Y160252D01*
X146472Y160278D01*
X146474Y160304D01*
X146452Y160451D01*
X146435Y160598D01*
X146427Y160623D01*
X146423Y160649D01*
X146368Y160787D01*
X146318Y160926D01*
X146304Y160948D01*
X146294Y160973D01*
X146209Y161094D01*
X146129Y161219D01*
X146110Y161237D01*
X146095Y161259D01*
X145985Y161358D01*
X145878Y161461D01*
X145856Y161475D01*
X145836Y161492D01*
X145706Y161564D01*
X145579Y161640D01*
X145554Y161648D01*
X145531Y161661D01*
X145388Y161701D01*
X145247Y161746D01*
X145221Y161748D01*
X145196Y161756D01*
X144952Y161775D01*
X74140Y161775D01*
X72075Y163840D01*
X72075Y171176D01*
X72072Y171202D01*
X72074Y171228D01*
X72052Y171375D01*
X72035Y171522D01*
X72027Y171547D01*
X72023Y171573D01*
X71968Y171711D01*
X71918Y171850D01*
X71904Y171872D01*
X71894Y171897D01*
X71809Y172018D01*
X71729Y172143D01*
X71710Y172161D01*
X71695Y172183D01*
X71585Y172282D01*
X71478Y172385D01*
X71456Y172399D01*
X71436Y172416D01*
X71306Y172488D01*
X71179Y172564D01*
X71154Y172572D01*
X71131Y172585D01*
X70988Y172625D01*
X70847Y172670D01*
X70821Y172672D01*
X70796Y172680D01*
X70552Y172699D01*
X67271Y172699D01*
X66099Y173871D01*
X66099Y188529D01*
X67193Y189623D01*
X67210Y189643D01*
X67230Y189660D01*
X67318Y189780D01*
X67410Y189896D01*
X67421Y189920D01*
X67437Y189941D01*
X67496Y190077D01*
X67559Y190211D01*
X67564Y190237D01*
X67575Y190261D01*
X67601Y190407D01*
X67632Y190552D01*
X67632Y190578D01*
X67637Y190604D01*
X67629Y190752D01*
X67626Y190900D01*
X67620Y190926D01*
X67619Y190952D01*
X67578Y191094D01*
X67541Y191238D01*
X67529Y191261D01*
X67522Y191287D01*
X67450Y191416D01*
X67382Y191548D01*
X67365Y191568D01*
X67352Y191591D01*
X67193Y191777D01*
X66099Y192871D01*
X66099Y207529D01*
X67271Y208701D01*
X70552Y208701D01*
X70578Y208704D01*
X70604Y208702D01*
X70751Y208724D01*
X70898Y208741D01*
X70923Y208749D01*
X70949Y208753D01*
X71087Y208808D01*
X71226Y208858D01*
X71248Y208872D01*
X71273Y208882D01*
X71394Y208967D01*
X71519Y209047D01*
X71537Y209066D01*
X71559Y209081D01*
X71658Y209191D01*
X71761Y209298D01*
X71775Y209320D01*
X71792Y209340D01*
X71864Y209470D01*
X71940Y209597D01*
X71948Y209622D01*
X71961Y209645D01*
X72001Y209788D01*
X72046Y209929D01*
X72048Y209955D01*
X72056Y209980D01*
X72075Y210224D01*
X72075Y217560D01*
X74140Y219625D01*
X127909Y219625D01*
X128035Y219639D01*
X128161Y219646D01*
X128207Y219659D01*
X128255Y219665D01*
X128374Y219707D01*
X128496Y219742D01*
X128538Y219766D01*
X128583Y219782D01*
X128690Y219851D01*
X128800Y219912D01*
X128846Y219952D01*
X128876Y219971D01*
X128910Y220006D01*
X128986Y220071D01*
X168326Y259410D01*
X168342Y259431D01*
X168362Y259448D01*
X168450Y259567D01*
X168542Y259683D01*
X168554Y259707D01*
X168569Y259728D01*
X168628Y259865D01*
X168691Y259999D01*
X168697Y260024D01*
X168707Y260048D01*
X168734Y260195D01*
X168765Y260339D01*
X168764Y260365D01*
X168769Y260391D01*
X168761Y260540D01*
X168759Y260688D01*
X168752Y260713D01*
X168751Y260739D01*
X168710Y260881D01*
X168674Y261026D01*
X168662Y261049D01*
X168654Y261074D01*
X168582Y261203D01*
X168514Y261335D01*
X168497Y261355D01*
X168484Y261378D01*
X168326Y261565D01*
X167721Y262170D01*
X166449Y265239D01*
X166449Y268561D01*
X167721Y271630D01*
X170070Y273979D01*
X173139Y275251D01*
X176461Y275251D01*
X179530Y273979D01*
X181879Y271630D01*
X183151Y268561D01*
X183151Y265239D01*
X181879Y262170D01*
X179530Y259821D01*
X178402Y259353D01*
X178400Y259352D01*
X178398Y259352D01*
X178246Y259266D01*
X178097Y259184D01*
X178096Y259182D01*
X178094Y259181D01*
X177908Y259023D01*
X175814Y256929D01*
X130371Y211486D01*
X130292Y211387D01*
X130208Y211293D01*
X130184Y211251D01*
X130154Y211213D01*
X130100Y211099D01*
X130039Y210988D01*
X130026Y210942D01*
X130005Y210898D01*
X129979Y210775D01*
X129944Y210653D01*
X129939Y210592D01*
X129932Y210557D01*
X129933Y210509D01*
X129925Y210409D01*
X129925Y206416D01*
X129928Y206390D01*
X129926Y206364D01*
X129948Y206217D01*
X129965Y206070D01*
X129973Y206045D01*
X129977Y206019D01*
X130032Y205881D01*
X130082Y205742D01*
X130096Y205720D01*
X130106Y205695D01*
X130191Y205574D01*
X130271Y205449D01*
X130290Y205431D01*
X130305Y205409D01*
X130415Y205310D01*
X130522Y205207D01*
X130544Y205193D01*
X130564Y205176D01*
X130694Y205104D01*
X130821Y205028D01*
X130846Y205020D01*
X130869Y205007D01*
X131012Y204967D01*
X131153Y204922D01*
X131179Y204920D01*
X131204Y204912D01*
X131448Y204893D01*
X148057Y204893D01*
X149229Y203721D01*
X149229Y196475D01*
X148057Y195303D01*
X131667Y195303D01*
X130843Y196127D01*
X130744Y196206D01*
X130651Y196290D01*
X130608Y196314D01*
X130570Y196344D01*
X130456Y196398D01*
X130346Y196459D01*
X130299Y196472D01*
X130255Y196493D01*
X130132Y196519D01*
X130010Y196554D01*
X129949Y196559D01*
X129915Y196566D01*
X129867Y196565D01*
X129766Y196573D01*
X128242Y196573D01*
X122875Y201940D01*
X122875Y211052D01*
X122872Y211078D01*
X122874Y211104D01*
X122852Y211251D01*
X122835Y211398D01*
X122827Y211423D01*
X122823Y211449D01*
X122768Y211587D01*
X122718Y211726D01*
X122704Y211748D01*
X122694Y211773D01*
X122610Y211894D01*
X122529Y212019D01*
X122510Y212037D01*
X122495Y212059D01*
X122385Y212158D01*
X122278Y212261D01*
X122256Y212275D01*
X122236Y212292D01*
X122106Y212364D01*
X121979Y212440D01*
X121954Y212448D01*
X121931Y212461D01*
X121788Y212501D01*
X121647Y212546D01*
X121621Y212548D01*
X121596Y212556D01*
X121352Y212575D01*
X106048Y212575D01*
X106022Y212572D01*
X105996Y212574D01*
X105849Y212552D01*
X105702Y212535D01*
X105677Y212527D01*
X105651Y212523D01*
X105513Y212468D01*
X105374Y212418D01*
X105352Y212404D01*
X105327Y212394D01*
X105206Y212309D01*
X105081Y212229D01*
X105063Y212210D01*
X105041Y212195D01*
X104942Y212085D01*
X104839Y211978D01*
X104825Y211956D01*
X104808Y211936D01*
X104736Y211806D01*
X104660Y211679D01*
X104652Y211654D01*
X104639Y211631D01*
X104599Y211488D01*
X104554Y211347D01*
X104552Y211321D01*
X104544Y211296D01*
X104525Y211052D01*
X104525Y210224D01*
X104528Y210198D01*
X104526Y210172D01*
X104548Y210025D01*
X104565Y209878D01*
X104573Y209853D01*
X104577Y209827D01*
X104632Y209689D01*
X104682Y209550D01*
X104696Y209528D01*
X104706Y209503D01*
X104791Y209382D01*
X104871Y209257D01*
X104890Y209239D01*
X104905Y209217D01*
X105015Y209118D01*
X105122Y209015D01*
X105144Y209001D01*
X105164Y208984D01*
X105294Y208912D01*
X105421Y208836D01*
X105446Y208828D01*
X105469Y208815D01*
X105612Y208775D01*
X105753Y208730D01*
X105779Y208728D01*
X105804Y208720D01*
X106048Y208701D01*
X109329Y208701D01*
X110501Y207529D01*
X110501Y192871D01*
X109407Y191777D01*
X109390Y191757D01*
X109370Y191740D01*
X109282Y191620D01*
X109190Y191504D01*
X109179Y191480D01*
X109163Y191459D01*
X109104Y191323D01*
X109041Y191189D01*
X109035Y191163D01*
X109025Y191139D01*
X108999Y190993D01*
X108968Y190848D01*
X108968Y190822D01*
X108963Y190796D01*
X108971Y190648D01*
X108974Y190500D01*
X108980Y190474D01*
X108981Y190448D01*
X109022Y190306D01*
X109059Y190162D01*
X109071Y190139D01*
X109078Y190113D01*
X109150Y189984D01*
X109218Y189852D01*
X109235Y189832D01*
X109248Y189809D01*
X109407Y189623D01*
X110501Y188529D01*
X110501Y173871D01*
X109329Y172699D01*
X106048Y172699D01*
X106022Y172696D01*
X105996Y172698D01*
X105849Y172676D01*
X105702Y172659D01*
X105677Y172651D01*
X105651Y172647D01*
X105513Y172592D01*
X105374Y172542D01*
X105352Y172528D01*
X105327Y172518D01*
X105206Y172433D01*
X105081Y172353D01*
X105063Y172334D01*
X105041Y172319D01*
X104942Y172209D01*
X104839Y172102D01*
X104825Y172080D01*
X104808Y172060D01*
X104736Y171930D01*
X104660Y171803D01*
X104652Y171778D01*
X104639Y171755D01*
X104599Y171612D01*
X104554Y171471D01*
X104552Y171445D01*
X104544Y171420D01*
X104525Y171176D01*
X104525Y170348D01*
X104528Y170322D01*
X104526Y170296D01*
X104548Y170149D01*
X104565Y170002D01*
X104573Y169977D01*
X104577Y169951D01*
X104632Y169813D01*
X104682Y169674D01*
X104696Y169652D01*
X104706Y169627D01*
X104791Y169506D01*
X104871Y169381D01*
X104890Y169363D01*
X104905Y169341D01*
X105015Y169242D01*
X105122Y169139D01*
X105144Y169125D01*
X105164Y169108D01*
X105294Y169036D01*
X105421Y168960D01*
X105446Y168952D01*
X105469Y168939D01*
X105612Y168899D01*
X105753Y168854D01*
X105779Y168852D01*
X105804Y168844D01*
X106048Y168825D01*
X172152Y168825D01*
X172178Y168828D01*
X172204Y168826D01*
X172351Y168848D01*
X172498Y168865D01*
X172523Y168873D01*
X172549Y168877D01*
X172687Y168932D01*
X172826Y168982D01*
X172848Y168996D01*
X172873Y169006D01*
X172994Y169091D01*
X173119Y169171D01*
X173137Y169190D01*
X173159Y169205D01*
X173258Y169315D01*
X173361Y169422D01*
X173375Y169444D01*
X173392Y169464D01*
X173464Y169594D01*
X173540Y169721D01*
X173548Y169746D01*
X173561Y169769D01*
X173601Y169912D01*
X173646Y170053D01*
X173648Y170079D01*
X173656Y170104D01*
X173675Y170348D01*
X173675Y174984D01*
X173672Y175010D01*
X173674Y175036D01*
X173652Y175183D01*
X173635Y175330D01*
X173627Y175355D01*
X173623Y175381D01*
X173568Y175519D01*
X173518Y175658D01*
X173504Y175680D01*
X173494Y175705D01*
X173409Y175826D01*
X173329Y175951D01*
X173310Y175969D01*
X173295Y175991D01*
X173185Y176090D01*
X173078Y176193D01*
X173056Y176207D01*
X173036Y176224D01*
X172906Y176296D01*
X172779Y176372D01*
X172754Y176380D01*
X172731Y176393D01*
X172588Y176433D01*
X172447Y176478D01*
X172421Y176480D01*
X172396Y176488D01*
X172152Y176507D01*
X155543Y176507D01*
X154371Y177679D01*
X154371Y185104D01*
X154410Y185186D01*
X154410Y185187D01*
X154411Y185189D01*
X154447Y185356D01*
X154483Y185527D01*
X154483Y185528D01*
X154484Y185530D01*
X154480Y185698D01*
X154477Y185875D01*
X154477Y185877D01*
X154477Y185878D01*
X154436Y186041D01*
X154392Y186213D01*
X154392Y186214D01*
X154391Y186216D01*
X154287Y186437D01*
X154004Y186925D01*
X153831Y187571D01*
X153831Y189177D01*
X163738Y189177D01*
X173645Y189177D01*
X173645Y187571D01*
X173423Y186744D01*
X173416Y186694D01*
X173400Y186645D01*
X173390Y186522D01*
X173372Y186399D01*
X173376Y186349D01*
X173372Y186298D01*
X173390Y186175D01*
X173401Y186052D01*
X173416Y186004D01*
X173424Y185953D01*
X173469Y185838D01*
X173507Y185720D01*
X173534Y185677D01*
X173552Y185629D01*
X173623Y185528D01*
X173687Y185422D01*
X173722Y185385D01*
X173751Y185343D01*
X173843Y185260D01*
X173929Y185171D01*
X173972Y185144D01*
X174010Y185110D01*
X174119Y185050D01*
X174223Y184983D01*
X174271Y184966D01*
X174315Y184941D01*
X174434Y184907D01*
X174551Y184866D01*
X174602Y184860D01*
X174651Y184846D01*
X174894Y184827D01*
X175358Y184827D01*
X180725Y179460D01*
X180725Y163840D01*
X178660Y161775D01*
X155048Y161775D01*
X155022Y161772D01*
X154996Y161774D01*
X154849Y161752D01*
X154702Y161735D01*
X154677Y161727D01*
X154651Y161723D01*
X154513Y161668D01*
X154374Y161618D01*
X154352Y161604D01*
X154327Y161594D01*
X154206Y161509D01*
X154081Y161429D01*
X154063Y161410D01*
X154041Y161395D01*
X153942Y161285D01*
X153839Y161178D01*
X153825Y161156D01*
X153808Y161136D01*
X153736Y161006D01*
X153660Y160879D01*
X153652Y160854D01*
X153639Y160831D01*
X153599Y160688D01*
X153554Y160547D01*
X153552Y160521D01*
X153544Y160496D01*
X153525Y160252D01*
X153525Y125096D01*
X153533Y125020D01*
X153532Y124944D01*
X153553Y124847D01*
X153565Y124750D01*
X153590Y124678D01*
X153607Y124603D01*
X153649Y124514D01*
X153682Y124422D01*
X153724Y124358D01*
X153756Y124288D01*
X153818Y124212D01*
X153871Y124129D01*
X153926Y124076D01*
X153974Y124016D01*
X154051Y123955D01*
X154122Y123887D01*
X154187Y123848D01*
X154247Y123800D01*
X154381Y123732D01*
X154421Y123708D01*
X154439Y123702D01*
X154465Y123689D01*
X155881Y123102D01*
X158802Y120181D01*
X160383Y116365D01*
X160383Y112235D01*
X158802Y108419D01*
X155881Y105498D01*
X152065Y103917D01*
X147935Y103917D01*
G37*
%LPD*%
%LPC*%
G36*
X49078Y69791D02*
X49078Y69791D01*
X49023Y69827D01*
X48920Y69865D01*
X48821Y69912D01*
X48758Y69925D01*
X48696Y69948D01*
X48588Y69961D01*
X48480Y69984D01*
X48415Y69983D01*
X48351Y69991D01*
X48242Y69980D01*
X48132Y69978D01*
X48069Y69962D01*
X48004Y69955D01*
X47900Y69919D01*
X47795Y69892D01*
X47065Y70088D01*
X47054Y70089D01*
X47044Y70093D01*
X46803Y70134D01*
X46045Y70200D01*
X46017Y70220D01*
X45969Y70265D01*
X45875Y70320D01*
X45785Y70383D01*
X45725Y70408D01*
X45668Y70441D01*
X45564Y70473D01*
X45462Y70514D01*
X45398Y70524D01*
X45335Y70544D01*
X45226Y70551D01*
X45118Y70568D01*
X45053Y70563D01*
X44988Y70568D01*
X44879Y70551D01*
X44771Y70543D01*
X44086Y70862D01*
X44076Y70865D01*
X44067Y70871D01*
X43836Y70953D01*
X43101Y71150D01*
X43076Y71174D01*
X43038Y71227D01*
X42954Y71298D01*
X42877Y71375D01*
X42822Y71410D01*
X42772Y71452D01*
X42674Y71502D01*
X42581Y71560D01*
X42520Y71581D01*
X42462Y71611D01*
X42355Y71638D01*
X42252Y71673D01*
X42187Y71680D01*
X42124Y71696D01*
X42014Y71697D01*
X41905Y71708D01*
X41286Y72142D01*
X41277Y72147D01*
X41269Y72154D01*
X41056Y72275D01*
X40366Y72596D01*
X40347Y72625D01*
X40318Y72683D01*
X40247Y72768D01*
X40185Y72857D01*
X40137Y72901D01*
X40095Y72951D01*
X40008Y73017D01*
X39926Y73091D01*
X39869Y73122D01*
X39817Y73162D01*
X39717Y73206D01*
X39621Y73259D01*
X39558Y73277D01*
X39499Y73304D01*
X39391Y73324D01*
X39286Y73354D01*
X38752Y73888D01*
X38743Y73895D01*
X38737Y73903D01*
X38548Y74059D01*
X37925Y74496D01*
X37910Y74527D01*
X37892Y74589D01*
X37837Y74685D01*
X37791Y74784D01*
X37751Y74835D01*
X37719Y74892D01*
X37644Y74973D01*
X37577Y75059D01*
X37526Y75100D01*
X37482Y75148D01*
X37391Y75209D01*
X37306Y75278D01*
X37247Y75306D01*
X37193Y75343D01*
X37091Y75382D01*
X36992Y75429D01*
X36559Y76048D01*
X36552Y76056D01*
X36547Y76066D01*
X36388Y76252D01*
X35850Y76790D01*
X35841Y76823D01*
X35834Y76888D01*
X35797Y76991D01*
X35769Y77097D01*
X35738Y77155D01*
X35716Y77216D01*
X35657Y77308D01*
X35605Y77405D01*
X35563Y77454D01*
X35527Y77509D01*
X35448Y77585D01*
X35376Y77668D01*
X35323Y77706D01*
X35277Y77751D01*
X35183Y77808D01*
X35094Y77871D01*
X34775Y78556D01*
X34769Y78565D01*
X34766Y78575D01*
X34642Y78786D01*
X34205Y79410D01*
X34202Y79444D01*
X34206Y79509D01*
X34188Y79617D01*
X34179Y79727D01*
X34158Y79789D01*
X34147Y79853D01*
X34105Y79954D01*
X34071Y80058D01*
X34038Y80114D01*
X34012Y80174D01*
X33948Y80263D01*
X33891Y80357D01*
X33846Y80403D01*
X33807Y80456D01*
X33725Y80528D01*
X33649Y80606D01*
X33453Y81336D01*
X33449Y81346D01*
X33447Y81356D01*
X33362Y81586D01*
X33040Y82275D01*
X33043Y82310D01*
X33059Y82373D01*
X33059Y82483D01*
X33069Y82592D01*
X33060Y82657D01*
X33060Y82722D01*
X33036Y82829D01*
X33021Y82937D01*
X32997Y82998D01*
X32983Y83062D01*
X32935Y83160D01*
X32896Y83262D01*
X32859Y83316D01*
X32830Y83375D01*
X32761Y83460D01*
X32700Y83550D01*
X32634Y84303D01*
X32632Y84314D01*
X32632Y84324D01*
X32588Y84565D01*
X32391Y85300D01*
X32400Y85333D01*
X32426Y85393D01*
X32445Y85501D01*
X32474Y85607D01*
X32476Y85672D01*
X32488Y85736D01*
X32483Y85845D01*
X32487Y85955D01*
X32474Y86019D01*
X32471Y86084D01*
X32441Y86189D01*
X32420Y86297D01*
X32393Y86356D01*
X32375Y86419D01*
X32322Y86515D01*
X32277Y86614D01*
X32343Y87367D01*
X32342Y87378D01*
X32344Y87388D01*
X32343Y87633D01*
X32276Y88391D01*
X32291Y88422D01*
X32327Y88477D01*
X32365Y88580D01*
X32412Y88679D01*
X32425Y88742D01*
X32448Y88804D01*
X32461Y88912D01*
X32484Y89020D01*
X32483Y89085D01*
X32491Y89149D01*
X32480Y89258D01*
X32478Y89368D01*
X32462Y89431D01*
X32455Y89496D01*
X32419Y89600D01*
X32392Y89705D01*
X32588Y90435D01*
X32589Y90446D01*
X32593Y90456D01*
X32634Y90697D01*
X32700Y91455D01*
X32720Y91483D01*
X32765Y91531D01*
X32820Y91625D01*
X32883Y91715D01*
X32908Y91775D01*
X32941Y91832D01*
X32973Y91936D01*
X33014Y92038D01*
X33024Y92102D01*
X33044Y92165D01*
X33051Y92274D01*
X33068Y92382D01*
X33063Y92447D01*
X33068Y92512D01*
X33051Y92621D01*
X33043Y92729D01*
X33362Y93414D01*
X33365Y93424D01*
X33371Y93433D01*
X33453Y93664D01*
X33650Y94399D01*
X33674Y94424D01*
X33727Y94462D01*
X33798Y94546D01*
X33875Y94623D01*
X33910Y94678D01*
X33952Y94728D01*
X34002Y94826D01*
X34060Y94919D01*
X34081Y94980D01*
X34111Y95038D01*
X34138Y95145D01*
X34173Y95248D01*
X34180Y95313D01*
X34196Y95376D01*
X34197Y95486D01*
X34208Y95595D01*
X34642Y96214D01*
X34647Y96223D01*
X34654Y96231D01*
X34775Y96444D01*
X35096Y97134D01*
X35125Y97153D01*
X35183Y97182D01*
X35268Y97253D01*
X35357Y97315D01*
X35401Y97363D01*
X35451Y97405D01*
X35517Y97492D01*
X35591Y97574D01*
X35622Y97631D01*
X35662Y97683D01*
X35706Y97783D01*
X35759Y97879D01*
X35777Y97942D01*
X35804Y98001D01*
X35824Y98109D01*
X35854Y98214D01*
X36388Y98748D01*
X36395Y98756D01*
X36403Y98763D01*
X36559Y98952D01*
X36996Y99575D01*
X37027Y99590D01*
X37089Y99608D01*
X37185Y99663D01*
X37284Y99709D01*
X37335Y99749D01*
X37392Y99781D01*
X37473Y99856D01*
X37559Y99923D01*
X37600Y99974D01*
X37648Y100018D01*
X37709Y100109D01*
X37778Y100194D01*
X37806Y100253D01*
X37843Y100307D01*
X37882Y100409D01*
X37929Y100507D01*
X38548Y100941D01*
X38556Y100948D01*
X38566Y100953D01*
X38752Y101112D01*
X39290Y101650D01*
X39323Y101659D01*
X39388Y101666D01*
X39491Y101703D01*
X39597Y101731D01*
X39655Y101762D01*
X39716Y101784D01*
X39808Y101843D01*
X39905Y101895D01*
X39954Y101937D01*
X40009Y101973D01*
X40085Y102052D01*
X40168Y102124D01*
X40206Y102177D01*
X40251Y102223D01*
X40308Y102317D01*
X40371Y102406D01*
X41056Y102725D01*
X41065Y102731D01*
X41075Y102734D01*
X41286Y102858D01*
X41910Y103295D01*
X41944Y103298D01*
X42009Y103294D01*
X42117Y103312D01*
X42227Y103321D01*
X42289Y103342D01*
X42353Y103353D01*
X42454Y103395D01*
X42558Y103429D01*
X42614Y103462D01*
X42674Y103488D01*
X42763Y103552D01*
X42857Y103609D01*
X42903Y103654D01*
X42956Y103693D01*
X43028Y103775D01*
X43106Y103851D01*
X43836Y104047D01*
X43846Y104051D01*
X43856Y104053D01*
X44086Y104138D01*
X44775Y104460D01*
X44810Y104457D01*
X44873Y104441D01*
X44983Y104441D01*
X45092Y104431D01*
X45157Y104440D01*
X45222Y104440D01*
X45329Y104464D01*
X45437Y104479D01*
X45498Y104503D01*
X45562Y104517D01*
X45660Y104565D01*
X45762Y104604D01*
X45816Y104641D01*
X45875Y104670D01*
X45960Y104739D01*
X46050Y104800D01*
X46803Y104866D01*
X46813Y104868D01*
X46824Y104868D01*
X47065Y104912D01*
X47800Y105109D01*
X47833Y105100D01*
X47893Y105074D01*
X48001Y105055D01*
X48107Y105026D01*
X48172Y105024D01*
X48236Y105012D01*
X48345Y105017D01*
X48455Y105013D01*
X48519Y105026D01*
X48584Y105029D01*
X48689Y105059D01*
X48797Y105080D01*
X48856Y105107D01*
X48919Y105125D01*
X49015Y105178D01*
X49114Y105223D01*
X49867Y105157D01*
X49878Y105158D01*
X49888Y105156D01*
X50133Y105157D01*
X50891Y105224D01*
X50922Y105209D01*
X50977Y105173D01*
X51080Y105135D01*
X51179Y105088D01*
X51242Y105075D01*
X51304Y105052D01*
X51412Y105039D01*
X51520Y105016D01*
X51585Y105017D01*
X51649Y105009D01*
X51758Y105020D01*
X51868Y105022D01*
X51931Y105038D01*
X51996Y105045D01*
X52100Y105081D01*
X52205Y105108D01*
X52935Y104912D01*
X52946Y104911D01*
X52956Y104907D01*
X53197Y104866D01*
X53955Y104800D01*
X53983Y104780D01*
X54031Y104735D01*
X54125Y104680D01*
X54215Y104617D01*
X54275Y104592D01*
X54332Y104559D01*
X54436Y104527D01*
X54538Y104486D01*
X54602Y104476D01*
X54665Y104456D01*
X54774Y104449D01*
X54882Y104432D01*
X54947Y104437D01*
X55012Y104432D01*
X55121Y104449D01*
X55229Y104457D01*
X55914Y104138D01*
X55924Y104135D01*
X55933Y104129D01*
X56164Y104047D01*
X56899Y103850D01*
X56924Y103826D01*
X56962Y103773D01*
X57046Y103702D01*
X57123Y103625D01*
X57178Y103590D01*
X57228Y103548D01*
X57326Y103498D01*
X57419Y103440D01*
X57480Y103419D01*
X57538Y103389D01*
X57645Y103362D01*
X57748Y103327D01*
X57813Y103320D01*
X57876Y103304D01*
X57986Y103303D01*
X58095Y103292D01*
X58714Y102858D01*
X58723Y102853D01*
X58731Y102846D01*
X58944Y102725D01*
X59634Y102404D01*
X59653Y102375D01*
X59682Y102317D01*
X59753Y102232D01*
X59815Y102143D01*
X59863Y102099D01*
X59905Y102049D01*
X59992Y101983D01*
X60074Y101909D01*
X60131Y101878D01*
X60183Y101838D01*
X60283Y101794D01*
X60379Y101741D01*
X60442Y101723D01*
X60501Y101696D01*
X60609Y101676D01*
X60714Y101646D01*
X61248Y101112D01*
X61257Y101105D01*
X61263Y101097D01*
X61452Y100941D01*
X62075Y100504D01*
X62090Y100473D01*
X62108Y100411D01*
X62163Y100315D01*
X62209Y100216D01*
X62249Y100165D01*
X62281Y100108D01*
X62356Y100027D01*
X62423Y99941D01*
X62474Y99900D01*
X62518Y99852D01*
X62609Y99791D01*
X62694Y99722D01*
X62753Y99694D01*
X62807Y99657D01*
X62909Y99618D01*
X63008Y99571D01*
X63441Y98952D01*
X63448Y98944D01*
X63453Y98934D01*
X63612Y98748D01*
X64150Y98210D01*
X64159Y98177D01*
X64166Y98112D01*
X64203Y98009D01*
X64231Y97903D01*
X64262Y97845D01*
X64284Y97784D01*
X64343Y97692D01*
X64395Y97595D01*
X64437Y97546D01*
X64473Y97491D01*
X64552Y97415D01*
X64624Y97332D01*
X64677Y97294D01*
X64723Y97249D01*
X64817Y97192D01*
X64906Y97129D01*
X65225Y96444D01*
X65231Y96435D01*
X65234Y96425D01*
X65358Y96214D01*
X65795Y95590D01*
X65798Y95556D01*
X65794Y95491D01*
X65812Y95383D01*
X65821Y95273D01*
X65842Y95211D01*
X65853Y95147D01*
X65895Y95046D01*
X65929Y94942D01*
X65962Y94886D01*
X65988Y94826D01*
X66052Y94737D01*
X66109Y94643D01*
X66154Y94597D01*
X66193Y94544D01*
X66275Y94472D01*
X66351Y94394D01*
X66547Y93664D01*
X66551Y93654D01*
X66553Y93644D01*
X66638Y93414D01*
X66960Y92725D01*
X66957Y92690D01*
X66941Y92627D01*
X66941Y92517D01*
X66931Y92408D01*
X66940Y92343D01*
X66940Y92278D01*
X66964Y92171D01*
X66979Y92063D01*
X67003Y92002D01*
X67017Y91938D01*
X67065Y91840D01*
X67104Y91738D01*
X67141Y91684D01*
X67170Y91625D01*
X67239Y91540D01*
X67300Y91450D01*
X67366Y90697D01*
X67368Y90687D01*
X67368Y90676D01*
X67412Y90435D01*
X67609Y89700D01*
X67600Y89667D01*
X67574Y89607D01*
X67555Y89499D01*
X67526Y89393D01*
X67524Y89328D01*
X67512Y89264D01*
X67517Y89155D01*
X67513Y89045D01*
X67526Y88981D01*
X67529Y88916D01*
X67559Y88811D01*
X67580Y88703D01*
X67607Y88644D01*
X67625Y88581D01*
X67678Y88485D01*
X67723Y88386D01*
X67657Y87633D01*
X67658Y87622D01*
X67656Y87612D01*
X67657Y87367D01*
X67724Y86609D01*
X67709Y86578D01*
X67673Y86523D01*
X67635Y86420D01*
X67588Y86321D01*
X67575Y86258D01*
X67552Y86196D01*
X67539Y86088D01*
X67516Y85980D01*
X67517Y85915D01*
X67509Y85851D01*
X67520Y85742D01*
X67522Y85632D01*
X67538Y85569D01*
X67545Y85504D01*
X67581Y85400D01*
X67608Y85295D01*
X67412Y84565D01*
X67411Y84554D01*
X67407Y84544D01*
X67366Y84303D01*
X67300Y83545D01*
X67280Y83517D01*
X67235Y83469D01*
X67180Y83375D01*
X67117Y83285D01*
X67092Y83225D01*
X67059Y83168D01*
X67027Y83064D01*
X66986Y82962D01*
X66976Y82898D01*
X66956Y82835D01*
X66949Y82726D01*
X66932Y82618D01*
X66937Y82553D01*
X66932Y82488D01*
X66949Y82379D01*
X66957Y82271D01*
X66638Y81586D01*
X66635Y81576D01*
X66629Y81567D01*
X66547Y81336D01*
X66350Y80601D01*
X66326Y80576D01*
X66273Y80538D01*
X66202Y80454D01*
X66125Y80377D01*
X66090Y80322D01*
X66048Y80272D01*
X65998Y80174D01*
X65940Y80081D01*
X65919Y80020D01*
X65889Y79962D01*
X65862Y79855D01*
X65827Y79752D01*
X65820Y79687D01*
X65804Y79624D01*
X65803Y79514D01*
X65792Y79405D01*
X65358Y78786D01*
X65353Y78777D01*
X65346Y78769D01*
X65225Y78556D01*
X64904Y77866D01*
X64875Y77847D01*
X64817Y77818D01*
X64732Y77747D01*
X64643Y77685D01*
X64599Y77637D01*
X64549Y77595D01*
X64483Y77508D01*
X64409Y77426D01*
X64378Y77369D01*
X64338Y77317D01*
X64294Y77217D01*
X64241Y77121D01*
X64223Y77058D01*
X64196Y76999D01*
X64176Y76891D01*
X64146Y76786D01*
X63612Y76252D01*
X63605Y76243D01*
X63597Y76237D01*
X63441Y76048D01*
X63004Y75425D01*
X62973Y75410D01*
X62911Y75392D01*
X62815Y75337D01*
X62716Y75291D01*
X62665Y75251D01*
X62608Y75219D01*
X62527Y75144D01*
X62441Y75077D01*
X62400Y75026D01*
X62352Y74982D01*
X62291Y74891D01*
X62222Y74806D01*
X62194Y74747D01*
X62157Y74693D01*
X62118Y74591D01*
X62071Y74492D01*
X61452Y74059D01*
X61444Y74052D01*
X61434Y74047D01*
X61248Y73888D01*
X60710Y73350D01*
X60677Y73341D01*
X60612Y73334D01*
X60509Y73297D01*
X60403Y73269D01*
X60345Y73238D01*
X60284Y73216D01*
X60192Y73157D01*
X60095Y73105D01*
X60046Y73063D01*
X59991Y73027D01*
X59915Y72948D01*
X59832Y72876D01*
X59794Y72823D01*
X59749Y72777D01*
X59692Y72683D01*
X59629Y72594D01*
X58944Y72275D01*
X58935Y72269D01*
X58925Y72266D01*
X58714Y72142D01*
X58090Y71705D01*
X58056Y71702D01*
X57991Y71706D01*
X57883Y71688D01*
X57773Y71679D01*
X57711Y71658D01*
X57647Y71647D01*
X57546Y71605D01*
X57442Y71571D01*
X57386Y71538D01*
X57326Y71512D01*
X57237Y71448D01*
X57143Y71391D01*
X57097Y71346D01*
X57044Y71307D01*
X56972Y71225D01*
X56894Y71149D01*
X56164Y70953D01*
X56154Y70949D01*
X56144Y70947D01*
X55914Y70862D01*
X55225Y70540D01*
X55190Y70543D01*
X55127Y70559D01*
X55017Y70559D01*
X54908Y70569D01*
X54843Y70560D01*
X54778Y70560D01*
X54671Y70536D01*
X54563Y70521D01*
X54502Y70497D01*
X54438Y70483D01*
X54340Y70435D01*
X54238Y70396D01*
X54184Y70359D01*
X54125Y70330D01*
X54040Y70261D01*
X53950Y70200D01*
X53197Y70134D01*
X53186Y70132D01*
X53176Y70132D01*
X52935Y70088D01*
X52200Y69891D01*
X52167Y69900D01*
X52107Y69926D01*
X51999Y69945D01*
X51893Y69974D01*
X51828Y69976D01*
X51764Y69988D01*
X51655Y69983D01*
X51545Y69987D01*
X51481Y69974D01*
X51416Y69971D01*
X51311Y69941D01*
X51203Y69920D01*
X51144Y69893D01*
X51081Y69875D01*
X50985Y69822D01*
X50886Y69777D01*
X50133Y69843D01*
X50122Y69842D01*
X50112Y69844D01*
X49867Y69843D01*
X49109Y69776D01*
X49078Y69791D01*
G37*
%LPD*%
%LPC*%
G36*
X324078Y69791D02*
X324078Y69791D01*
X324023Y69827D01*
X323920Y69865D01*
X323821Y69912D01*
X323758Y69925D01*
X323696Y69948D01*
X323588Y69961D01*
X323480Y69984D01*
X323415Y69983D01*
X323351Y69991D01*
X323242Y69980D01*
X323132Y69978D01*
X323069Y69962D01*
X323004Y69955D01*
X322900Y69919D01*
X322795Y69892D01*
X322065Y70088D01*
X322054Y70089D01*
X322044Y70093D01*
X321803Y70134D01*
X321045Y70200D01*
X321017Y70220D01*
X320969Y70265D01*
X320875Y70320D01*
X320785Y70383D01*
X320725Y70408D01*
X320668Y70441D01*
X320564Y70473D01*
X320462Y70514D01*
X320398Y70524D01*
X320335Y70544D01*
X320226Y70551D01*
X320118Y70568D01*
X320053Y70563D01*
X319988Y70568D01*
X319879Y70551D01*
X319771Y70543D01*
X319086Y70862D01*
X319076Y70865D01*
X319067Y70871D01*
X318836Y70953D01*
X318101Y71150D01*
X318076Y71174D01*
X318038Y71227D01*
X317954Y71298D01*
X317877Y71375D01*
X317822Y71410D01*
X317772Y71452D01*
X317674Y71502D01*
X317581Y71560D01*
X317520Y71581D01*
X317462Y71611D01*
X317355Y71638D01*
X317252Y71673D01*
X317187Y71680D01*
X317124Y71696D01*
X317014Y71697D01*
X316905Y71708D01*
X316286Y72142D01*
X316277Y72147D01*
X316269Y72154D01*
X316056Y72275D01*
X315366Y72596D01*
X315347Y72625D01*
X315318Y72683D01*
X315247Y72768D01*
X315185Y72857D01*
X315137Y72901D01*
X315095Y72951D01*
X315008Y73017D01*
X314926Y73091D01*
X314869Y73122D01*
X314817Y73162D01*
X314717Y73206D01*
X314621Y73259D01*
X314558Y73277D01*
X314499Y73304D01*
X314391Y73324D01*
X314286Y73354D01*
X313752Y73888D01*
X313743Y73895D01*
X313737Y73903D01*
X313548Y74059D01*
X312925Y74496D01*
X312910Y74527D01*
X312892Y74589D01*
X312837Y74685D01*
X312791Y74784D01*
X312751Y74835D01*
X312719Y74892D01*
X312644Y74973D01*
X312577Y75059D01*
X312526Y75100D01*
X312482Y75148D01*
X312391Y75209D01*
X312306Y75278D01*
X312247Y75306D01*
X312193Y75343D01*
X312091Y75382D01*
X311992Y75429D01*
X311559Y76048D01*
X311552Y76056D01*
X311547Y76066D01*
X311388Y76252D01*
X310850Y76790D01*
X310841Y76823D01*
X310834Y76888D01*
X310797Y76991D01*
X310769Y77097D01*
X310738Y77155D01*
X310716Y77216D01*
X310657Y77308D01*
X310605Y77405D01*
X310563Y77454D01*
X310527Y77509D01*
X310448Y77585D01*
X310376Y77668D01*
X310323Y77706D01*
X310277Y77751D01*
X310183Y77808D01*
X310094Y77871D01*
X309775Y78556D01*
X309769Y78565D01*
X309766Y78575D01*
X309642Y78786D01*
X309205Y79410D01*
X309202Y79444D01*
X309206Y79509D01*
X309188Y79617D01*
X309179Y79727D01*
X309158Y79789D01*
X309147Y79853D01*
X309105Y79954D01*
X309071Y80058D01*
X309038Y80114D01*
X309012Y80174D01*
X308948Y80263D01*
X308891Y80357D01*
X308846Y80403D01*
X308807Y80456D01*
X308725Y80528D01*
X308649Y80606D01*
X308453Y81336D01*
X308449Y81346D01*
X308447Y81356D01*
X308362Y81586D01*
X308040Y82275D01*
X308044Y82310D01*
X308059Y82373D01*
X308059Y82483D01*
X308069Y82592D01*
X308060Y82657D01*
X308060Y82722D01*
X308036Y82829D01*
X308021Y82937D01*
X307998Y82998D01*
X307983Y83062D01*
X307935Y83160D01*
X307896Y83262D01*
X307859Y83316D01*
X307830Y83375D01*
X307761Y83460D01*
X307700Y83550D01*
X307634Y84303D01*
X307632Y84314D01*
X307632Y84324D01*
X307588Y84565D01*
X307391Y85300D01*
X307400Y85333D01*
X307426Y85393D01*
X307445Y85501D01*
X307474Y85607D01*
X307476Y85672D01*
X307488Y85736D01*
X307483Y85845D01*
X307487Y85955D01*
X307474Y86019D01*
X307471Y86084D01*
X307441Y86189D01*
X307420Y86297D01*
X307393Y86356D01*
X307375Y86419D01*
X307322Y86515D01*
X307277Y86614D01*
X307343Y87367D01*
X307342Y87378D01*
X307344Y87388D01*
X307343Y87633D01*
X307276Y88391D01*
X307291Y88422D01*
X307327Y88477D01*
X307365Y88580D01*
X307412Y88679D01*
X307425Y88742D01*
X307448Y88804D01*
X307461Y88912D01*
X307484Y89020D01*
X307483Y89085D01*
X307491Y89149D01*
X307480Y89258D01*
X307478Y89368D01*
X307462Y89431D01*
X307455Y89496D01*
X307419Y89600D01*
X307392Y89705D01*
X307588Y90435D01*
X307589Y90446D01*
X307593Y90456D01*
X307634Y90697D01*
X307700Y91455D01*
X307720Y91483D01*
X307765Y91531D01*
X307820Y91625D01*
X307883Y91715D01*
X307908Y91775D01*
X307941Y91832D01*
X307973Y91936D01*
X308014Y92038D01*
X308024Y92102D01*
X308044Y92165D01*
X308051Y92274D01*
X308068Y92382D01*
X308063Y92447D01*
X308068Y92512D01*
X308051Y92621D01*
X308043Y92729D01*
X308362Y93414D01*
X308365Y93424D01*
X308371Y93433D01*
X308453Y93664D01*
X308650Y94399D01*
X308674Y94424D01*
X308727Y94462D01*
X308798Y94546D01*
X308875Y94623D01*
X308910Y94678D01*
X308952Y94728D01*
X309002Y94826D01*
X309060Y94919D01*
X309081Y94980D01*
X309111Y95038D01*
X309138Y95145D01*
X309173Y95248D01*
X309180Y95313D01*
X309196Y95376D01*
X309197Y95486D01*
X309208Y95595D01*
X309642Y96214D01*
X309647Y96223D01*
X309654Y96231D01*
X309775Y96444D01*
X310096Y97134D01*
X310125Y97153D01*
X310183Y97182D01*
X310268Y97253D01*
X310357Y97315D01*
X310401Y97363D01*
X310451Y97405D01*
X310517Y97492D01*
X310591Y97574D01*
X310622Y97631D01*
X310662Y97683D01*
X310706Y97783D01*
X310759Y97879D01*
X310777Y97942D01*
X310804Y98001D01*
X310824Y98109D01*
X310854Y98214D01*
X311388Y98748D01*
X311395Y98756D01*
X311403Y98763D01*
X311559Y98952D01*
X311996Y99575D01*
X312027Y99590D01*
X312089Y99608D01*
X312185Y99663D01*
X312284Y99709D01*
X312335Y99749D01*
X312392Y99781D01*
X312473Y99856D01*
X312559Y99923D01*
X312600Y99974D01*
X312648Y100018D01*
X312709Y100109D01*
X312778Y100194D01*
X312806Y100253D01*
X312843Y100307D01*
X312882Y100409D01*
X312929Y100507D01*
X313548Y100941D01*
X313556Y100948D01*
X313566Y100953D01*
X313752Y101112D01*
X314290Y101650D01*
X314323Y101659D01*
X314388Y101666D01*
X314491Y101703D01*
X314597Y101731D01*
X314655Y101762D01*
X314716Y101784D01*
X314808Y101843D01*
X314905Y101895D01*
X314954Y101937D01*
X315009Y101973D01*
X315085Y102052D01*
X315168Y102124D01*
X315206Y102177D01*
X315251Y102223D01*
X315308Y102317D01*
X315371Y102406D01*
X316056Y102725D01*
X316065Y102731D01*
X316075Y102734D01*
X316286Y102858D01*
X316910Y103295D01*
X316944Y103298D01*
X317009Y103294D01*
X317117Y103312D01*
X317227Y103321D01*
X317289Y103342D01*
X317353Y103353D01*
X317454Y103395D01*
X317558Y103429D01*
X317614Y103462D01*
X317674Y103488D01*
X317763Y103552D01*
X317857Y103609D01*
X317903Y103654D01*
X317956Y103693D01*
X318028Y103775D01*
X318106Y103851D01*
X318836Y104047D01*
X318846Y104051D01*
X318856Y104053D01*
X319086Y104138D01*
X319775Y104460D01*
X319810Y104457D01*
X319873Y104441D01*
X319983Y104441D01*
X320092Y104431D01*
X320157Y104440D01*
X320222Y104440D01*
X320329Y104464D01*
X320437Y104479D01*
X320498Y104503D01*
X320562Y104517D01*
X320660Y104565D01*
X320762Y104604D01*
X320816Y104641D01*
X320875Y104670D01*
X320960Y104739D01*
X321050Y104800D01*
X321803Y104866D01*
X321813Y104868D01*
X321824Y104868D01*
X322065Y104912D01*
X322800Y105109D01*
X322833Y105100D01*
X322893Y105074D01*
X323001Y105055D01*
X323107Y105026D01*
X323172Y105024D01*
X323236Y105012D01*
X323345Y105017D01*
X323455Y105013D01*
X323519Y105026D01*
X323584Y105029D01*
X323689Y105059D01*
X323797Y105080D01*
X323856Y105107D01*
X323919Y105125D01*
X324015Y105178D01*
X324114Y105223D01*
X324867Y105157D01*
X324878Y105158D01*
X324888Y105156D01*
X325133Y105157D01*
X325891Y105224D01*
X325922Y105209D01*
X325977Y105173D01*
X326080Y105135D01*
X326179Y105088D01*
X326242Y105075D01*
X326304Y105052D01*
X326412Y105039D01*
X326520Y105016D01*
X326585Y105017D01*
X326649Y105009D01*
X326758Y105020D01*
X326868Y105022D01*
X326931Y105038D01*
X326996Y105045D01*
X327100Y105081D01*
X327205Y105108D01*
X327935Y104912D01*
X327946Y104911D01*
X327956Y104907D01*
X328197Y104866D01*
X328955Y104800D01*
X328983Y104780D01*
X329031Y104735D01*
X329125Y104680D01*
X329215Y104617D01*
X329275Y104592D01*
X329332Y104559D01*
X329436Y104527D01*
X329538Y104486D01*
X329602Y104476D01*
X329665Y104456D01*
X329774Y104449D01*
X329882Y104432D01*
X329947Y104437D01*
X330012Y104432D01*
X330121Y104449D01*
X330229Y104457D01*
X330914Y104138D01*
X330924Y104135D01*
X330933Y104129D01*
X331164Y104047D01*
X331899Y103850D01*
X331924Y103826D01*
X331962Y103773D01*
X332046Y103702D01*
X332123Y103625D01*
X332178Y103590D01*
X332228Y103548D01*
X332326Y103498D01*
X332419Y103440D01*
X332480Y103419D01*
X332538Y103389D01*
X332645Y103362D01*
X332748Y103327D01*
X332813Y103320D01*
X332876Y103304D01*
X332986Y103303D01*
X333095Y103292D01*
X333714Y102858D01*
X333723Y102853D01*
X333731Y102846D01*
X333944Y102725D01*
X334634Y102404D01*
X334653Y102375D01*
X334682Y102317D01*
X334753Y102232D01*
X334815Y102143D01*
X334863Y102099D01*
X334905Y102049D01*
X334992Y101983D01*
X335074Y101909D01*
X335131Y101878D01*
X335183Y101838D01*
X335283Y101794D01*
X335379Y101741D01*
X335442Y101723D01*
X335501Y101696D01*
X335609Y101676D01*
X335714Y101646D01*
X336248Y101112D01*
X336256Y101105D01*
X336263Y101097D01*
X336452Y100941D01*
X337075Y100504D01*
X337090Y100473D01*
X337108Y100411D01*
X337163Y100315D01*
X337209Y100216D01*
X337249Y100165D01*
X337281Y100108D01*
X337356Y100027D01*
X337423Y99941D01*
X337474Y99900D01*
X337518Y99852D01*
X337609Y99791D01*
X337694Y99722D01*
X337753Y99694D01*
X337807Y99657D01*
X337909Y99618D01*
X338008Y99571D01*
X338441Y98952D01*
X338448Y98944D01*
X338453Y98934D01*
X338612Y98748D01*
X339150Y98210D01*
X339159Y98177D01*
X339166Y98112D01*
X339203Y98009D01*
X339231Y97903D01*
X339262Y97845D01*
X339284Y97784D01*
X339343Y97692D01*
X339395Y97595D01*
X339437Y97546D01*
X339473Y97491D01*
X339552Y97415D01*
X339624Y97332D01*
X339677Y97294D01*
X339723Y97249D01*
X339817Y97192D01*
X339906Y97129D01*
X340225Y96444D01*
X340231Y96435D01*
X340234Y96425D01*
X340358Y96214D01*
X340795Y95590D01*
X340798Y95556D01*
X340794Y95491D01*
X340812Y95383D01*
X340821Y95273D01*
X340842Y95211D01*
X340853Y95147D01*
X340895Y95046D01*
X340929Y94942D01*
X340962Y94886D01*
X340988Y94826D01*
X341052Y94737D01*
X341109Y94643D01*
X341154Y94597D01*
X341193Y94544D01*
X341275Y94472D01*
X341351Y94394D01*
X341547Y93664D01*
X341551Y93654D01*
X341553Y93644D01*
X341638Y93414D01*
X341960Y92725D01*
X341957Y92690D01*
X341941Y92627D01*
X341941Y92517D01*
X341931Y92408D01*
X341940Y92343D01*
X341940Y92278D01*
X341964Y92171D01*
X341979Y92063D01*
X342003Y92002D01*
X342017Y91938D01*
X342065Y91840D01*
X342104Y91738D01*
X342141Y91684D01*
X342170Y91625D01*
X342239Y91540D01*
X342300Y91450D01*
X342366Y90697D01*
X342368Y90687D01*
X342368Y90676D01*
X342412Y90435D01*
X342609Y89700D01*
X342600Y89667D01*
X342574Y89607D01*
X342555Y89499D01*
X342526Y89393D01*
X342524Y89328D01*
X342512Y89264D01*
X342517Y89155D01*
X342513Y89045D01*
X342526Y88981D01*
X342529Y88916D01*
X342559Y88811D01*
X342580Y88703D01*
X342607Y88644D01*
X342625Y88581D01*
X342678Y88485D01*
X342723Y88386D01*
X342657Y87633D01*
X342658Y87622D01*
X342656Y87612D01*
X342657Y87367D01*
X342724Y86609D01*
X342709Y86578D01*
X342673Y86523D01*
X342635Y86420D01*
X342588Y86321D01*
X342575Y86258D01*
X342552Y86196D01*
X342539Y86088D01*
X342516Y85980D01*
X342517Y85915D01*
X342509Y85851D01*
X342520Y85742D01*
X342522Y85632D01*
X342538Y85569D01*
X342545Y85504D01*
X342581Y85400D01*
X342608Y85295D01*
X342412Y84565D01*
X342411Y84554D01*
X342407Y84544D01*
X342366Y84303D01*
X342300Y83545D01*
X342280Y83517D01*
X342235Y83469D01*
X342180Y83375D01*
X342117Y83285D01*
X342092Y83225D01*
X342059Y83168D01*
X342027Y83064D01*
X341986Y82962D01*
X341976Y82898D01*
X341956Y82835D01*
X341949Y82726D01*
X341932Y82618D01*
X341937Y82553D01*
X341932Y82488D01*
X341949Y82379D01*
X341957Y82271D01*
X341638Y81586D01*
X341635Y81576D01*
X341629Y81567D01*
X341547Y81336D01*
X341350Y80601D01*
X341326Y80576D01*
X341273Y80538D01*
X341202Y80454D01*
X341125Y80377D01*
X341090Y80322D01*
X341048Y80272D01*
X340998Y80174D01*
X340940Y80081D01*
X340919Y80020D01*
X340889Y79962D01*
X340862Y79855D01*
X340827Y79752D01*
X340820Y79687D01*
X340804Y79624D01*
X340803Y79514D01*
X340792Y79405D01*
X340358Y78786D01*
X340353Y78777D01*
X340346Y78769D01*
X340225Y78556D01*
X339904Y77866D01*
X339875Y77847D01*
X339817Y77818D01*
X339732Y77747D01*
X339643Y77685D01*
X339599Y77637D01*
X339549Y77595D01*
X339483Y77508D01*
X339409Y77426D01*
X339378Y77369D01*
X339338Y77317D01*
X339294Y77217D01*
X339241Y77121D01*
X339223Y77058D01*
X339196Y76999D01*
X339176Y76891D01*
X339146Y76786D01*
X338612Y76252D01*
X338605Y76243D01*
X338597Y76237D01*
X338441Y76048D01*
X338004Y75425D01*
X337973Y75410D01*
X337911Y75392D01*
X337815Y75337D01*
X337716Y75291D01*
X337665Y75251D01*
X337608Y75219D01*
X337527Y75144D01*
X337441Y75077D01*
X337400Y75026D01*
X337352Y74982D01*
X337291Y74891D01*
X337222Y74806D01*
X337194Y74747D01*
X337157Y74693D01*
X337118Y74591D01*
X337071Y74492D01*
X336452Y74059D01*
X336444Y74052D01*
X336434Y74047D01*
X336248Y73888D01*
X335710Y73350D01*
X335677Y73341D01*
X335612Y73334D01*
X335509Y73297D01*
X335403Y73269D01*
X335345Y73238D01*
X335284Y73216D01*
X335192Y73157D01*
X335095Y73105D01*
X335046Y73063D01*
X334991Y73027D01*
X334915Y72948D01*
X334832Y72876D01*
X334794Y72823D01*
X334749Y72777D01*
X334692Y72683D01*
X334629Y72594D01*
X333944Y72275D01*
X333935Y72269D01*
X333925Y72266D01*
X333714Y72142D01*
X333090Y71705D01*
X333056Y71702D01*
X332991Y71706D01*
X332883Y71688D01*
X332773Y71679D01*
X332711Y71658D01*
X332647Y71647D01*
X332546Y71605D01*
X332442Y71571D01*
X332386Y71538D01*
X332326Y71512D01*
X332237Y71448D01*
X332143Y71391D01*
X332097Y71346D01*
X332044Y71307D01*
X331972Y71225D01*
X331894Y71149D01*
X331164Y70953D01*
X331154Y70949D01*
X331144Y70947D01*
X330914Y70862D01*
X330225Y70540D01*
X330190Y70543D01*
X330127Y70559D01*
X330017Y70559D01*
X329908Y70569D01*
X329843Y70560D01*
X329778Y70560D01*
X329671Y70536D01*
X329563Y70521D01*
X329502Y70497D01*
X329438Y70483D01*
X329340Y70435D01*
X329238Y70396D01*
X329184Y70359D01*
X329125Y70330D01*
X329040Y70261D01*
X328950Y70200D01*
X328197Y70134D01*
X328186Y70132D01*
X328176Y70132D01*
X327935Y70088D01*
X327200Y69891D01*
X327167Y69900D01*
X327107Y69926D01*
X326999Y69945D01*
X326893Y69974D01*
X326828Y69976D01*
X326764Y69988D01*
X326655Y69983D01*
X326545Y69987D01*
X326481Y69974D01*
X326416Y69971D01*
X326311Y69941D01*
X326203Y69920D01*
X326144Y69893D01*
X326081Y69875D01*
X325985Y69822D01*
X325886Y69777D01*
X325133Y69843D01*
X325122Y69842D01*
X325112Y69844D01*
X324867Y69843D01*
X324109Y69776D01*
X324078Y69791D01*
G37*
%LPD*%
%LPC*%
G36*
X74078Y232291D02*
X74078Y232291D01*
X74023Y232327D01*
X73920Y232365D01*
X73821Y232412D01*
X73758Y232425D01*
X73696Y232448D01*
X73588Y232461D01*
X73480Y232484D01*
X73415Y232483D01*
X73351Y232491D01*
X73242Y232480D01*
X73132Y232478D01*
X73069Y232462D01*
X73004Y232455D01*
X72900Y232419D01*
X72795Y232392D01*
X72065Y232588D01*
X72054Y232589D01*
X72044Y232593D01*
X71803Y232634D01*
X71045Y232700D01*
X71017Y232720D01*
X70969Y232765D01*
X70875Y232820D01*
X70785Y232883D01*
X70725Y232908D01*
X70668Y232941D01*
X70564Y232973D01*
X70462Y233014D01*
X70398Y233024D01*
X70335Y233044D01*
X70226Y233051D01*
X70118Y233068D01*
X70053Y233063D01*
X69988Y233068D01*
X69879Y233051D01*
X69771Y233043D01*
X69086Y233362D01*
X69076Y233365D01*
X69067Y233371D01*
X68836Y233453D01*
X68101Y233650D01*
X68076Y233674D01*
X68038Y233727D01*
X67954Y233798D01*
X67877Y233875D01*
X67822Y233910D01*
X67772Y233952D01*
X67674Y234002D01*
X67581Y234060D01*
X67520Y234081D01*
X67462Y234111D01*
X67355Y234138D01*
X67252Y234173D01*
X67187Y234180D01*
X67124Y234196D01*
X67014Y234197D01*
X66905Y234208D01*
X66286Y234642D01*
X66277Y234647D01*
X66269Y234654D01*
X66056Y234775D01*
X65366Y235096D01*
X65347Y235125D01*
X65318Y235183D01*
X65247Y235268D01*
X65185Y235357D01*
X65137Y235401D01*
X65095Y235451D01*
X65008Y235517D01*
X64926Y235591D01*
X64869Y235622D01*
X64817Y235662D01*
X64717Y235706D01*
X64621Y235759D01*
X64558Y235777D01*
X64499Y235804D01*
X64391Y235824D01*
X64286Y235854D01*
X63752Y236388D01*
X63743Y236395D01*
X63737Y236403D01*
X63548Y236559D01*
X62925Y236996D01*
X62910Y237027D01*
X62892Y237089D01*
X62837Y237185D01*
X62791Y237284D01*
X62751Y237335D01*
X62719Y237392D01*
X62644Y237473D01*
X62577Y237559D01*
X62526Y237600D01*
X62482Y237648D01*
X62391Y237709D01*
X62306Y237778D01*
X62247Y237806D01*
X62193Y237843D01*
X62091Y237882D01*
X61992Y237929D01*
X61559Y238548D01*
X61552Y238556D01*
X61547Y238566D01*
X61388Y238752D01*
X60850Y239290D01*
X60841Y239323D01*
X60834Y239388D01*
X60797Y239491D01*
X60769Y239597D01*
X60738Y239655D01*
X60716Y239716D01*
X60657Y239808D01*
X60605Y239905D01*
X60563Y239954D01*
X60527Y240009D01*
X60448Y240085D01*
X60376Y240168D01*
X60323Y240206D01*
X60277Y240251D01*
X60183Y240308D01*
X60094Y240371D01*
X59775Y241056D01*
X59769Y241065D01*
X59766Y241075D01*
X59642Y241286D01*
X59205Y241910D01*
X59202Y241944D01*
X59206Y242009D01*
X59188Y242117D01*
X59179Y242227D01*
X59158Y242289D01*
X59147Y242353D01*
X59105Y242454D01*
X59071Y242558D01*
X59038Y242614D01*
X59012Y242674D01*
X58948Y242763D01*
X58891Y242857D01*
X58846Y242903D01*
X58807Y242956D01*
X58725Y243028D01*
X58649Y243106D01*
X58453Y243836D01*
X58449Y243846D01*
X58447Y243856D01*
X58362Y244086D01*
X58040Y244775D01*
X58044Y244810D01*
X58059Y244873D01*
X58059Y244983D01*
X58069Y245092D01*
X58060Y245157D01*
X58060Y245222D01*
X58036Y245329D01*
X58021Y245437D01*
X57998Y245498D01*
X57983Y245562D01*
X57935Y245660D01*
X57896Y245762D01*
X57859Y245816D01*
X57830Y245875D01*
X57761Y245960D01*
X57700Y246050D01*
X57634Y246803D01*
X57632Y246814D01*
X57632Y246824D01*
X57588Y247065D01*
X57391Y247800D01*
X57400Y247833D01*
X57426Y247893D01*
X57445Y248001D01*
X57474Y248107D01*
X57476Y248172D01*
X57488Y248236D01*
X57483Y248345D01*
X57487Y248455D01*
X57474Y248519D01*
X57471Y248584D01*
X57441Y248689D01*
X57420Y248797D01*
X57393Y248856D01*
X57375Y248919D01*
X57322Y249015D01*
X57277Y249114D01*
X57343Y249867D01*
X57342Y249878D01*
X57344Y249888D01*
X57343Y250133D01*
X57276Y250891D01*
X57291Y250922D01*
X57327Y250977D01*
X57365Y251080D01*
X57412Y251179D01*
X57425Y251242D01*
X57448Y251304D01*
X57461Y251412D01*
X57484Y251520D01*
X57483Y251585D01*
X57491Y251649D01*
X57480Y251758D01*
X57478Y251868D01*
X57462Y251931D01*
X57455Y251996D01*
X57419Y252099D01*
X57392Y252205D01*
X57588Y252935D01*
X57589Y252946D01*
X57593Y252956D01*
X57634Y253197D01*
X57700Y253955D01*
X57720Y253983D01*
X57765Y254031D01*
X57820Y254125D01*
X57883Y254215D01*
X57908Y254275D01*
X57941Y254332D01*
X57973Y254436D01*
X58014Y254538D01*
X58024Y254602D01*
X58044Y254665D01*
X58051Y254774D01*
X58068Y254882D01*
X58063Y254947D01*
X58068Y255012D01*
X58051Y255121D01*
X58043Y255229D01*
X58362Y255914D01*
X58365Y255924D01*
X58371Y255933D01*
X58453Y256164D01*
X58650Y256899D01*
X58674Y256924D01*
X58727Y256962D01*
X58798Y257046D01*
X58875Y257123D01*
X58910Y257178D01*
X58952Y257228D01*
X59002Y257326D01*
X59060Y257419D01*
X59081Y257480D01*
X59111Y257538D01*
X59138Y257645D01*
X59173Y257748D01*
X59180Y257813D01*
X59196Y257876D01*
X59197Y257986D01*
X59208Y258095D01*
X59642Y258714D01*
X59647Y258723D01*
X59654Y258731D01*
X59775Y258944D01*
X60096Y259634D01*
X60125Y259653D01*
X60183Y259682D01*
X60268Y259753D01*
X60357Y259815D01*
X60401Y259863D01*
X60451Y259905D01*
X60517Y259992D01*
X60591Y260074D01*
X60622Y260131D01*
X60662Y260183D01*
X60706Y260283D01*
X60759Y260379D01*
X60777Y260442D01*
X60804Y260501D01*
X60824Y260609D01*
X60854Y260714D01*
X61388Y261248D01*
X61395Y261256D01*
X61403Y261263D01*
X61559Y261452D01*
X61996Y262075D01*
X62027Y262090D01*
X62089Y262108D01*
X62185Y262163D01*
X62284Y262209D01*
X62335Y262249D01*
X62392Y262281D01*
X62473Y262356D01*
X62559Y262423D01*
X62600Y262474D01*
X62648Y262518D01*
X62709Y262609D01*
X62778Y262694D01*
X62806Y262753D01*
X62843Y262807D01*
X62882Y262909D01*
X62929Y263007D01*
X63548Y263441D01*
X63556Y263448D01*
X63566Y263453D01*
X63752Y263612D01*
X64290Y264150D01*
X64323Y264159D01*
X64388Y264166D01*
X64491Y264203D01*
X64597Y264231D01*
X64655Y264262D01*
X64716Y264284D01*
X64808Y264343D01*
X64905Y264395D01*
X64954Y264437D01*
X65009Y264473D01*
X65085Y264552D01*
X65168Y264624D01*
X65206Y264677D01*
X65251Y264723D01*
X65308Y264817D01*
X65371Y264906D01*
X66056Y265225D01*
X66065Y265231D01*
X66075Y265234D01*
X66286Y265358D01*
X66910Y265795D01*
X66944Y265798D01*
X67009Y265794D01*
X67117Y265812D01*
X67227Y265821D01*
X67289Y265842D01*
X67353Y265853D01*
X67454Y265895D01*
X67558Y265929D01*
X67614Y265962D01*
X67674Y265988D01*
X67763Y266052D01*
X67857Y266109D01*
X67903Y266154D01*
X67956Y266193D01*
X68028Y266275D01*
X68106Y266351D01*
X68836Y266547D01*
X68846Y266551D01*
X68856Y266553D01*
X69086Y266638D01*
X69775Y266960D01*
X69810Y266957D01*
X69873Y266941D01*
X69983Y266941D01*
X70092Y266931D01*
X70157Y266940D01*
X70222Y266940D01*
X70329Y266964D01*
X70437Y266979D01*
X70498Y267003D01*
X70562Y267017D01*
X70660Y267065D01*
X70762Y267104D01*
X70816Y267141D01*
X70875Y267170D01*
X70960Y267239D01*
X71050Y267300D01*
X71803Y267366D01*
X71813Y267368D01*
X71824Y267368D01*
X72065Y267412D01*
X72800Y267609D01*
X72833Y267600D01*
X72893Y267574D01*
X73001Y267555D01*
X73107Y267526D01*
X73172Y267524D01*
X73236Y267512D01*
X73345Y267517D01*
X73455Y267513D01*
X73519Y267526D01*
X73584Y267529D01*
X73689Y267559D01*
X73797Y267580D01*
X73856Y267607D01*
X73919Y267625D01*
X74015Y267678D01*
X74114Y267723D01*
X74867Y267657D01*
X74878Y267658D01*
X74888Y267656D01*
X75133Y267657D01*
X75891Y267724D01*
X75922Y267709D01*
X75977Y267673D01*
X76080Y267635D01*
X76179Y267588D01*
X76242Y267575D01*
X76304Y267552D01*
X76412Y267539D01*
X76520Y267516D01*
X76585Y267517D01*
X76649Y267509D01*
X76758Y267520D01*
X76868Y267522D01*
X76931Y267538D01*
X76996Y267545D01*
X77100Y267581D01*
X77205Y267608D01*
X77935Y267412D01*
X77946Y267411D01*
X77956Y267407D01*
X78197Y267366D01*
X78955Y267300D01*
X78983Y267280D01*
X79031Y267235D01*
X79125Y267180D01*
X79215Y267117D01*
X79275Y267092D01*
X79332Y267059D01*
X79436Y267027D01*
X79538Y266986D01*
X79602Y266976D01*
X79665Y266956D01*
X79774Y266949D01*
X79882Y266932D01*
X79947Y266937D01*
X80012Y266932D01*
X80121Y266949D01*
X80229Y266957D01*
X80914Y266638D01*
X80924Y266635D01*
X80933Y266629D01*
X81164Y266547D01*
X81899Y266350D01*
X81924Y266326D01*
X81962Y266273D01*
X82046Y266202D01*
X82123Y266125D01*
X82178Y266090D01*
X82228Y266048D01*
X82326Y265998D01*
X82419Y265940D01*
X82480Y265919D01*
X82538Y265889D01*
X82645Y265862D01*
X82748Y265827D01*
X82813Y265820D01*
X82876Y265804D01*
X82986Y265803D01*
X83095Y265792D01*
X83714Y265358D01*
X83723Y265353D01*
X83731Y265346D01*
X83944Y265225D01*
X84634Y264904D01*
X84653Y264875D01*
X84682Y264817D01*
X84753Y264732D01*
X84815Y264643D01*
X84863Y264599D01*
X84905Y264549D01*
X84992Y264483D01*
X85074Y264409D01*
X85131Y264378D01*
X85183Y264338D01*
X85283Y264294D01*
X85379Y264241D01*
X85442Y264223D01*
X85501Y264196D01*
X85609Y264176D01*
X85714Y264146D01*
X86248Y263612D01*
X86256Y263605D01*
X86263Y263597D01*
X86452Y263441D01*
X87075Y263004D01*
X87090Y262973D01*
X87108Y262911D01*
X87163Y262815D01*
X87209Y262716D01*
X87249Y262665D01*
X87281Y262608D01*
X87356Y262527D01*
X87423Y262441D01*
X87474Y262400D01*
X87518Y262352D01*
X87609Y262291D01*
X87694Y262222D01*
X87753Y262194D01*
X87807Y262157D01*
X87909Y262118D01*
X88008Y262071D01*
X88441Y261452D01*
X88448Y261444D01*
X88453Y261434D01*
X88612Y261248D01*
X89150Y260710D01*
X89159Y260677D01*
X89166Y260612D01*
X89203Y260509D01*
X89231Y260403D01*
X89262Y260345D01*
X89284Y260284D01*
X89343Y260192D01*
X89395Y260095D01*
X89437Y260046D01*
X89473Y259991D01*
X89552Y259915D01*
X89624Y259832D01*
X89677Y259794D01*
X89723Y259749D01*
X89817Y259692D01*
X89906Y259629D01*
X90225Y258944D01*
X90231Y258935D01*
X90234Y258925D01*
X90358Y258714D01*
X90795Y258090D01*
X90798Y258056D01*
X90794Y257991D01*
X90812Y257883D01*
X90821Y257773D01*
X90842Y257711D01*
X90853Y257647D01*
X90895Y257546D01*
X90929Y257442D01*
X90962Y257386D01*
X90988Y257326D01*
X91052Y257237D01*
X91109Y257143D01*
X91154Y257097D01*
X91193Y257044D01*
X91275Y256972D01*
X91351Y256894D01*
X91547Y256164D01*
X91551Y256154D01*
X91553Y256144D01*
X91638Y255914D01*
X91960Y255225D01*
X91957Y255190D01*
X91941Y255127D01*
X91941Y255017D01*
X91931Y254908D01*
X91940Y254843D01*
X91940Y254778D01*
X91964Y254671D01*
X91979Y254563D01*
X92003Y254502D01*
X92017Y254438D01*
X92065Y254340D01*
X92104Y254238D01*
X92141Y254184D01*
X92170Y254125D01*
X92239Y254040D01*
X92300Y253950D01*
X92366Y253197D01*
X92368Y253187D01*
X92368Y253176D01*
X92412Y252935D01*
X92609Y252200D01*
X92600Y252167D01*
X92574Y252107D01*
X92555Y251999D01*
X92526Y251893D01*
X92524Y251828D01*
X92512Y251764D01*
X92517Y251655D01*
X92513Y251545D01*
X92526Y251481D01*
X92529Y251416D01*
X92559Y251311D01*
X92580Y251203D01*
X92607Y251144D01*
X92625Y251081D01*
X92678Y250985D01*
X92723Y250886D01*
X92657Y250133D01*
X92658Y250122D01*
X92656Y250112D01*
X92657Y249867D01*
X92724Y249109D01*
X92709Y249078D01*
X92673Y249023D01*
X92635Y248920D01*
X92588Y248821D01*
X92575Y248758D01*
X92552Y248696D01*
X92539Y248588D01*
X92516Y248480D01*
X92517Y248415D01*
X92509Y248351D01*
X92520Y248242D01*
X92522Y248132D01*
X92538Y248069D01*
X92545Y248004D01*
X92581Y247900D01*
X92608Y247795D01*
X92412Y247065D01*
X92411Y247054D01*
X92407Y247044D01*
X92366Y246803D01*
X92300Y246045D01*
X92280Y246017D01*
X92235Y245969D01*
X92180Y245875D01*
X92117Y245785D01*
X92092Y245725D01*
X92059Y245668D01*
X92027Y245564D01*
X91986Y245462D01*
X91976Y245398D01*
X91956Y245335D01*
X91949Y245226D01*
X91932Y245118D01*
X91937Y245053D01*
X91932Y244988D01*
X91949Y244879D01*
X91957Y244771D01*
X91638Y244086D01*
X91635Y244076D01*
X91629Y244067D01*
X91547Y243836D01*
X91350Y243101D01*
X91326Y243076D01*
X91273Y243038D01*
X91202Y242954D01*
X91125Y242877D01*
X91090Y242822D01*
X91048Y242772D01*
X90998Y242674D01*
X90940Y242581D01*
X90919Y242520D01*
X90889Y242462D01*
X90862Y242355D01*
X90827Y242252D01*
X90820Y242187D01*
X90804Y242124D01*
X90803Y242014D01*
X90792Y241905D01*
X90358Y241286D01*
X90353Y241277D01*
X90346Y241269D01*
X90225Y241056D01*
X89904Y240366D01*
X89875Y240347D01*
X89817Y240318D01*
X89732Y240247D01*
X89643Y240185D01*
X89599Y240137D01*
X89549Y240095D01*
X89483Y240008D01*
X89409Y239926D01*
X89378Y239869D01*
X89338Y239817D01*
X89294Y239717D01*
X89241Y239621D01*
X89223Y239558D01*
X89196Y239499D01*
X89176Y239391D01*
X89146Y239286D01*
X88612Y238752D01*
X88605Y238743D01*
X88597Y238737D01*
X88441Y238548D01*
X88004Y237925D01*
X87973Y237910D01*
X87911Y237892D01*
X87815Y237837D01*
X87716Y237791D01*
X87665Y237751D01*
X87608Y237719D01*
X87527Y237644D01*
X87441Y237577D01*
X87400Y237526D01*
X87352Y237482D01*
X87291Y237391D01*
X87222Y237306D01*
X87194Y237247D01*
X87157Y237193D01*
X87118Y237091D01*
X87071Y236992D01*
X86452Y236559D01*
X86444Y236552D01*
X86434Y236547D01*
X86248Y236388D01*
X85710Y235850D01*
X85677Y235841D01*
X85612Y235834D01*
X85509Y235797D01*
X85403Y235769D01*
X85345Y235738D01*
X85284Y235716D01*
X85192Y235657D01*
X85095Y235605D01*
X85046Y235563D01*
X84991Y235527D01*
X84915Y235448D01*
X84832Y235376D01*
X84794Y235323D01*
X84749Y235277D01*
X84692Y235183D01*
X84629Y235094D01*
X83944Y234775D01*
X83935Y234769D01*
X83925Y234766D01*
X83714Y234642D01*
X83090Y234205D01*
X83056Y234202D01*
X82991Y234206D01*
X82883Y234188D01*
X82773Y234179D01*
X82711Y234158D01*
X82647Y234147D01*
X82546Y234105D01*
X82442Y234071D01*
X82386Y234038D01*
X82326Y234012D01*
X82237Y233948D01*
X82143Y233891D01*
X82097Y233846D01*
X82044Y233807D01*
X81972Y233725D01*
X81894Y233649D01*
X81164Y233453D01*
X81154Y233449D01*
X81144Y233447D01*
X80914Y233362D01*
X80225Y233040D01*
X80190Y233043D01*
X80127Y233059D01*
X80017Y233059D01*
X79908Y233069D01*
X79843Y233060D01*
X79778Y233060D01*
X79671Y233036D01*
X79563Y233021D01*
X79502Y232997D01*
X79438Y232983D01*
X79340Y232935D01*
X79238Y232896D01*
X79184Y232859D01*
X79125Y232830D01*
X79040Y232761D01*
X78950Y232700D01*
X78197Y232634D01*
X78186Y232632D01*
X78176Y232632D01*
X77935Y232588D01*
X77200Y232391D01*
X77167Y232400D01*
X77107Y232426D01*
X76999Y232445D01*
X76893Y232474D01*
X76828Y232476D01*
X76764Y232488D01*
X76655Y232483D01*
X76545Y232487D01*
X76481Y232474D01*
X76416Y232471D01*
X76311Y232441D01*
X76203Y232420D01*
X76144Y232393D01*
X76081Y232375D01*
X75985Y232322D01*
X75886Y232277D01*
X75133Y232343D01*
X75122Y232342D01*
X75112Y232344D01*
X74867Y232343D01*
X74109Y232276D01*
X74078Y232291D01*
G37*
%LPD*%
%LPC*%
G36*
X334118Y245499D02*
X334118Y245499D01*
X327870Y248087D01*
X323087Y252870D01*
X320499Y259118D01*
X320499Y265882D01*
X323087Y272130D01*
X327870Y276913D01*
X334118Y279501D01*
X340882Y279501D01*
X347130Y276913D01*
X351913Y272130D01*
X354501Y265882D01*
X354501Y259118D01*
X351913Y252870D01*
X347130Y248087D01*
X340882Y245499D01*
X334118Y245499D01*
G37*
%LPD*%
%LPC*%
G36*
X34118Y245499D02*
X34118Y245499D01*
X27870Y248087D01*
X23087Y252870D01*
X20499Y259118D01*
X20499Y265882D01*
X23087Y272130D01*
X27870Y276913D01*
X34118Y279501D01*
X40882Y279501D01*
X47130Y276913D01*
X51913Y272130D01*
X54501Y265882D01*
X54501Y259118D01*
X51913Y252870D01*
X47130Y248087D01*
X40882Y245499D01*
X34118Y245499D01*
G37*
%LPD*%
%LPC*%
G36*
X34118Y20499D02*
X34118Y20499D01*
X27870Y23087D01*
X23087Y27870D01*
X20499Y34118D01*
X20499Y40882D01*
X23087Y47130D01*
X27870Y51913D01*
X34118Y54501D01*
X40882Y54501D01*
X47130Y51913D01*
X51913Y47130D01*
X54501Y40882D01*
X54501Y34118D01*
X51913Y27870D01*
X47130Y23087D01*
X40882Y20499D01*
X34118Y20499D01*
G37*
%LPD*%
%LPC*%
G36*
X334118Y20499D02*
X334118Y20499D01*
X327870Y23087D01*
X323087Y27870D01*
X320499Y34118D01*
X320499Y40882D01*
X323087Y47130D01*
X327870Y51913D01*
X334118Y54501D01*
X340882Y54501D01*
X347130Y51913D01*
X351913Y47130D01*
X354501Y40882D01*
X354501Y34118D01*
X351913Y27870D01*
X347130Y23087D01*
X340882Y20499D01*
X334118Y20499D01*
G37*
%LPD*%
%LPC*%
G36*
X90789Y103917D02*
X90789Y103917D01*
X89617Y105089D01*
X89617Y123511D01*
X90789Y124683D01*
X109211Y124683D01*
X110383Y123511D01*
X110383Y105089D01*
X109211Y103917D01*
X90789Y103917D01*
G37*
%LPD*%
%LPC*%
G36*
X90789Y27117D02*
X90789Y27117D01*
X89617Y28289D01*
X89617Y46711D01*
X90789Y47883D01*
X109211Y47883D01*
X110383Y46711D01*
X110383Y28289D01*
X109211Y27117D01*
X90789Y27117D01*
G37*
%LPD*%
%LPC*%
G36*
X131667Y176507D02*
X131667Y176507D01*
X130843Y177331D01*
X130744Y177410D01*
X130651Y177494D01*
X130608Y177518D01*
X130570Y177548D01*
X130456Y177602D01*
X130345Y177663D01*
X130299Y177676D01*
X130255Y177697D01*
X130132Y177723D01*
X130010Y177758D01*
X129949Y177763D01*
X129915Y177770D01*
X129867Y177769D01*
X129766Y177777D01*
X119860Y177777D01*
X117795Y179842D01*
X117795Y185416D01*
X117781Y185541D01*
X117774Y185668D01*
X117761Y185714D01*
X117755Y185762D01*
X117713Y185881D01*
X117678Y186002D01*
X117654Y186045D01*
X117638Y186090D01*
X117569Y186196D01*
X117508Y186307D01*
X117468Y186353D01*
X117449Y186383D01*
X117414Y186416D01*
X117349Y186493D01*
X116418Y187424D01*
X115537Y189550D01*
X115537Y191850D01*
X116418Y193976D01*
X118044Y195602D01*
X120170Y196483D01*
X122470Y196483D01*
X124596Y195602D01*
X126222Y193976D01*
X127103Y191850D01*
X127103Y189550D01*
X126222Y187423D01*
X126163Y187348D01*
X126093Y187276D01*
X126055Y187212D01*
X126009Y187154D01*
X125966Y187063D01*
X125914Y186977D01*
X125891Y186906D01*
X125860Y186839D01*
X125838Y186741D01*
X125808Y186645D01*
X125802Y186571D01*
X125786Y186498D01*
X125788Y186398D01*
X125780Y186298D01*
X125791Y186224D01*
X125792Y186150D01*
X125817Y186052D01*
X125832Y185953D01*
X125859Y185884D01*
X125877Y185812D01*
X125923Y185723D01*
X125960Y185629D01*
X126003Y185568D01*
X126037Y185502D01*
X126102Y185425D01*
X126159Y185343D01*
X126214Y185293D01*
X126263Y185237D01*
X126343Y185177D01*
X126418Y185110D01*
X126483Y185074D01*
X126543Y185030D01*
X126635Y184990D01*
X126723Y184941D01*
X126795Y184921D01*
X126863Y184891D01*
X126962Y184874D01*
X127058Y184846D01*
X127159Y184838D01*
X127206Y184830D01*
X127241Y184832D01*
X127302Y184827D01*
X129766Y184827D01*
X129892Y184841D01*
X130018Y184848D01*
X130065Y184861D01*
X130113Y184867D01*
X130231Y184909D01*
X130353Y184944D01*
X130395Y184968D01*
X130441Y184984D01*
X130547Y185053D01*
X130657Y185114D01*
X130703Y185154D01*
X130733Y185173D01*
X130767Y185208D01*
X130843Y185273D01*
X131667Y186097D01*
X148057Y186097D01*
X149229Y184925D01*
X149229Y177679D01*
X148057Y176507D01*
X131667Y176507D01*
G37*
%LPD*%
%LPC*%
G36*
X172935Y27117D02*
X172935Y27117D01*
X169119Y28698D01*
X166198Y31619D01*
X164617Y35435D01*
X164617Y39565D01*
X166198Y43381D01*
X169119Y46302D01*
X172935Y47883D01*
X177065Y47883D01*
X180881Y46302D01*
X183802Y43381D01*
X185383Y39565D01*
X185383Y35435D01*
X183802Y31619D01*
X180881Y28698D01*
X177065Y27117D01*
X172935Y27117D01*
G37*
%LPD*%
%LPC*%
G36*
X147935Y27117D02*
X147935Y27117D01*
X144119Y28698D01*
X141198Y31619D01*
X139617Y35435D01*
X139617Y39565D01*
X141198Y43381D01*
X144119Y46302D01*
X147935Y47883D01*
X152065Y47883D01*
X155881Y46302D01*
X158802Y43381D01*
X160383Y39565D01*
X160383Y35435D01*
X158802Y31619D01*
X155881Y28698D01*
X152065Y27117D01*
X147935Y27117D01*
G37*
%LPD*%
%LPC*%
G36*
X272935Y103917D02*
X272935Y103917D01*
X269119Y105498D01*
X266198Y108419D01*
X264617Y112235D01*
X264617Y116365D01*
X266198Y120181D01*
X269119Y123102D01*
X272935Y124683D01*
X277065Y124683D01*
X280881Y123102D01*
X283802Y120181D01*
X285383Y116365D01*
X285383Y112235D01*
X283802Y108419D01*
X280881Y105498D01*
X277065Y103917D01*
X272935Y103917D01*
G37*
%LPD*%
%LPC*%
G36*
X247935Y103917D02*
X247935Y103917D01*
X244119Y105498D01*
X241198Y108419D01*
X239617Y112235D01*
X239617Y116365D01*
X241198Y120181D01*
X244119Y123102D01*
X247935Y124683D01*
X252065Y124683D01*
X255881Y123102D01*
X258802Y120181D01*
X260383Y116365D01*
X260383Y112235D01*
X258802Y108419D01*
X255881Y105498D01*
X252065Y103917D01*
X247935Y103917D01*
G37*
%LPD*%
%LPC*%
G36*
X222935Y103917D02*
X222935Y103917D01*
X219119Y105498D01*
X216198Y108419D01*
X214617Y112235D01*
X214617Y116365D01*
X216198Y120181D01*
X219119Y123102D01*
X222935Y124683D01*
X227065Y124683D01*
X230881Y123102D01*
X233802Y120181D01*
X235383Y116365D01*
X235383Y112235D01*
X233802Y108419D01*
X230881Y105498D01*
X227065Y103917D01*
X222935Y103917D01*
G37*
%LPD*%
%LPC*%
G36*
X197935Y103917D02*
X197935Y103917D01*
X194119Y105498D01*
X191198Y108419D01*
X189617Y112235D01*
X189617Y116365D01*
X191198Y120181D01*
X194119Y123102D01*
X197935Y124683D01*
X202065Y124683D01*
X205881Y123102D01*
X208802Y120181D01*
X210383Y116365D01*
X210383Y112235D01*
X208802Y108419D01*
X205881Y105498D01*
X202065Y103917D01*
X197935Y103917D01*
G37*
%LPD*%
%LPC*%
G36*
X172935Y103917D02*
X172935Y103917D01*
X169119Y105498D01*
X166198Y108419D01*
X164617Y112235D01*
X164617Y116365D01*
X166198Y120181D01*
X169119Y123102D01*
X172935Y124683D01*
X177065Y124683D01*
X180881Y123102D01*
X183802Y120181D01*
X185383Y116365D01*
X185383Y112235D01*
X183802Y108419D01*
X180881Y105498D01*
X177065Y103917D01*
X172935Y103917D01*
G37*
%LPD*%
%LPC*%
G36*
X272935Y27117D02*
X272935Y27117D01*
X269119Y28698D01*
X266198Y31619D01*
X264617Y35435D01*
X264617Y39565D01*
X266198Y43381D01*
X269119Y46302D01*
X272935Y47883D01*
X277065Y47883D01*
X280881Y46302D01*
X283802Y43381D01*
X285383Y39565D01*
X285383Y35435D01*
X283802Y31619D01*
X280881Y28698D01*
X277065Y27117D01*
X272935Y27117D01*
G37*
%LPD*%
%LPC*%
G36*
X247935Y27117D02*
X247935Y27117D01*
X244119Y28698D01*
X241198Y31619D01*
X239617Y35435D01*
X239617Y39565D01*
X241198Y43381D01*
X244119Y46302D01*
X247935Y47883D01*
X252065Y47883D01*
X255881Y46302D01*
X258802Y43381D01*
X260383Y39565D01*
X260383Y35435D01*
X258802Y31619D01*
X255881Y28698D01*
X252065Y27117D01*
X247935Y27117D01*
G37*
%LPD*%
%LPC*%
G36*
X222935Y27117D02*
X222935Y27117D01*
X219119Y28698D01*
X216198Y31619D01*
X214617Y35435D01*
X214617Y39565D01*
X216198Y43381D01*
X219119Y46302D01*
X222935Y47883D01*
X227065Y47883D01*
X230881Y46302D01*
X233802Y43381D01*
X235383Y39565D01*
X235383Y35435D01*
X233802Y31619D01*
X230881Y28698D01*
X227065Y27117D01*
X222935Y27117D01*
G37*
%LPD*%
%LPC*%
G36*
X197935Y27117D02*
X197935Y27117D01*
X194119Y28698D01*
X191198Y31619D01*
X189617Y35435D01*
X189617Y39565D01*
X191198Y43381D01*
X194119Y46302D01*
X197935Y47883D01*
X202065Y47883D01*
X205881Y46302D01*
X208802Y43381D01*
X210383Y39565D01*
X210383Y35435D01*
X208802Y31619D01*
X205881Y28698D01*
X202065Y27117D01*
X197935Y27117D01*
G37*
%LPD*%
%LPC*%
G36*
X127249Y39749D02*
X127249Y39749D01*
X127249Y48203D01*
X127558Y48154D01*
X129193Y47622D01*
X130725Y46842D01*
X132116Y45831D01*
X133331Y44616D01*
X134342Y43225D01*
X135122Y41693D01*
X135654Y40058D01*
X135703Y39749D01*
X127249Y39749D01*
G37*
%LPD*%
%LPC*%
G36*
X127249Y116549D02*
X127249Y116549D01*
X127249Y125003D01*
X127558Y124954D01*
X129193Y124422D01*
X130725Y123642D01*
X132116Y122631D01*
X133331Y121416D01*
X134342Y120025D01*
X135122Y118493D01*
X135654Y116858D01*
X135703Y116549D01*
X127249Y116549D01*
G37*
%LPD*%
%LPC*%
G36*
X114297Y39749D02*
X114297Y39749D01*
X114346Y40058D01*
X114878Y41693D01*
X115658Y43225D01*
X116669Y44616D01*
X117884Y45831D01*
X119275Y46842D01*
X120807Y47622D01*
X122442Y48154D01*
X122751Y48203D01*
X122751Y39749D01*
X114297Y39749D01*
G37*
%LPD*%
%LPC*%
G36*
X114297Y116549D02*
X114297Y116549D01*
X114346Y116858D01*
X114878Y118493D01*
X115658Y120025D01*
X116669Y121416D01*
X117884Y122631D01*
X119275Y123642D01*
X120807Y124422D01*
X122442Y124954D01*
X122751Y125003D01*
X122751Y116549D01*
X114297Y116549D01*
G37*
%LPD*%
%LPC*%
G36*
X127249Y112051D02*
X127249Y112051D01*
X135703Y112051D01*
X135654Y111742D01*
X135122Y110107D01*
X134342Y108575D01*
X133331Y107184D01*
X132116Y105969D01*
X130725Y104958D01*
X129193Y104178D01*
X127558Y103646D01*
X127249Y103597D01*
X127249Y112051D01*
G37*
%LPD*%
%LPC*%
G36*
X127249Y35251D02*
X127249Y35251D01*
X135703Y35251D01*
X135654Y34942D01*
X135122Y33307D01*
X134342Y31775D01*
X133331Y30384D01*
X132116Y29169D01*
X130725Y28158D01*
X129193Y27378D01*
X127558Y26846D01*
X127249Y26797D01*
X127249Y35251D01*
G37*
%LPD*%
%LPC*%
G36*
X122442Y103646D02*
X122442Y103646D01*
X120807Y104178D01*
X119275Y104958D01*
X117884Y105969D01*
X116669Y107184D01*
X115658Y108575D01*
X114878Y110107D01*
X114346Y111742D01*
X114297Y112051D01*
X122751Y112051D01*
X122751Y103597D01*
X122442Y103646D01*
G37*
%LPD*%
%LPC*%
G36*
X122442Y26846D02*
X122442Y26846D01*
X120807Y27378D01*
X119275Y28158D01*
X117884Y29169D01*
X116669Y30384D01*
X115658Y31775D01*
X114878Y33307D01*
X114346Y34942D01*
X114297Y35251D01*
X122751Y35251D01*
X122751Y26797D01*
X122442Y26846D01*
G37*
%LPD*%
%LPC*%
G36*
X278847Y244347D02*
X278847Y244347D01*
X278847Y251341D01*
X282635Y251341D01*
X283281Y251168D01*
X283860Y250833D01*
X284333Y250360D01*
X284668Y249781D01*
X284841Y249135D01*
X284841Y244347D01*
X278847Y244347D01*
G37*
%LPD*%
%LPC*%
G36*
X281847Y203247D02*
X281847Y203247D01*
X281847Y209241D01*
X286635Y209241D01*
X287281Y209068D01*
X287860Y208733D01*
X288333Y208260D01*
X288668Y207681D01*
X288841Y207035D01*
X288841Y203247D01*
X281847Y203247D01*
G37*
%LPD*%
%LPC*%
G36*
X307247Y203247D02*
X307247Y203247D01*
X307247Y209241D01*
X312035Y209241D01*
X312681Y209068D01*
X313260Y208733D01*
X313733Y208260D01*
X314068Y207681D01*
X314241Y207035D01*
X314241Y203247D01*
X307247Y203247D01*
G37*
%LPD*%
%LPC*%
G36*
X294159Y203247D02*
X294159Y203247D01*
X294159Y207035D01*
X294332Y207681D01*
X294667Y208260D01*
X295140Y208733D01*
X295719Y209068D01*
X296365Y209241D01*
X301153Y209241D01*
X301153Y203247D01*
X294159Y203247D01*
G37*
%LPD*%
%LPC*%
G36*
X268759Y203247D02*
X268759Y203247D01*
X268759Y207035D01*
X268932Y207681D01*
X269267Y208260D01*
X269740Y208733D01*
X270319Y209068D01*
X270965Y209241D01*
X275753Y209241D01*
X275753Y203247D01*
X268759Y203247D01*
G37*
%LPD*%
%LPC*%
G36*
X278847Y231259D02*
X278847Y231259D01*
X278847Y238253D01*
X284841Y238253D01*
X284841Y233465D01*
X284668Y232819D01*
X284333Y232240D01*
X283860Y231767D01*
X283281Y231432D01*
X282635Y231259D01*
X278847Y231259D01*
G37*
%LPD*%
D10*
X304200Y181200D03*
X304200Y200200D03*
D11*
X256800Y241300D03*
X275800Y241300D03*
D12*
X200200Y266900D03*
X174800Y266900D03*
D10*
X101000Y181200D03*
X101000Y200200D03*
X202600Y181200D03*
X202600Y200200D03*
X253400Y181200D03*
X253400Y200200D03*
X278800Y200200D03*
X278800Y181200D03*
D13*
X163738Y181302D03*
X163738Y190700D03*
X163738Y200098D03*
X139862Y200098D03*
X139862Y181302D03*
D10*
X75600Y200200D03*
X75600Y181200D03*
X228000Y181200D03*
X228000Y200200D03*
D14*
X100000Y114300D03*
D15*
X125000Y114300D03*
X150000Y114300D03*
X175000Y114300D03*
X200000Y114300D03*
X225000Y114300D03*
X250000Y114300D03*
X275000Y114300D03*
D14*
X100000Y37500D03*
D15*
X125000Y37500D03*
X150000Y37500D03*
X175000Y37500D03*
X200000Y37500D03*
X225000Y37500D03*
X250000Y37500D03*
X275000Y37500D03*
D16*
X50000Y87500D03*
X325000Y87500D03*
X75000Y250000D03*
D17*
X163738Y190700D02*
X177200Y190700D01*
X253400Y200200D02*
X253400Y216100D01*
X139862Y181302D02*
X121320Y181302D01*
X121320Y190700D01*
D18*
X121320Y190700D03*
X253400Y216100D03*
D17*
X253400Y241300D02*
X256800Y241300D01*
X253400Y241300D02*
X253400Y216100D01*
X173898Y200098D02*
X163738Y200098D01*
X173898Y200098D02*
X177200Y203400D01*
X177200Y216100D01*
X202600Y216100D02*
X202600Y200200D01*
X202600Y216100D02*
X200000Y216100D01*
X177200Y216100D01*
X228000Y216100D02*
X228000Y200200D01*
X228000Y216100D02*
X202600Y216100D01*
X200200Y216300D02*
X200200Y266900D01*
X200200Y216300D02*
X200000Y216100D01*
X139862Y200098D02*
X129702Y200098D01*
X126400Y203400D01*
X126400Y212500D01*
X126400Y216100D01*
X101000Y216100D02*
X101000Y200200D01*
X101000Y216100D02*
X126400Y216100D01*
X101000Y216100D02*
X75600Y216100D01*
X75600Y200200D01*
X126400Y212500D02*
X174800Y260900D01*
X174800Y266900D01*
X101000Y181200D02*
X101000Y165300D01*
X150000Y165300D02*
X177200Y165300D01*
X150000Y165300D02*
X101000Y165300D01*
X163738Y181302D02*
X173898Y181302D01*
X177200Y178000D01*
X177200Y165300D01*
X75600Y165300D02*
X75600Y181200D01*
X75600Y165300D02*
X101000Y165300D01*
X150000Y165300D02*
X150000Y114300D01*
X202600Y165300D02*
X202600Y181200D01*
X202600Y165300D02*
X228000Y165300D01*
X253400Y165300D01*
X278800Y165300D01*
X304200Y165300D01*
X304200Y181200D01*
X278800Y181200D02*
X278800Y165300D01*
X253400Y165300D02*
X253400Y181200D01*
X228000Y181200D02*
X228000Y165300D01*
M02*
