G04 Panel Editor  V12.2 (Build 1133) Date:  Mon Apr 13 15:08:35 2020 *
G04 Database: C:\Users\sergey\Documents\EAGLE\projects\Led_amp\export\CAMOutputs\Panel\Led_amp.cam *
G04 Layer 6: silkscreen_top.gbr *
%FSLAX34Y34*%
%MOMM*%
%SFA1.000B1.000*%

%MIA0B0*%
%IPPOS*%
%ADD20C,0.10160*%
%ADD21C,0.00000*%
%ADD22C,0.20320*%
%ADD23C,0.12700*%
%LNsilkscreen_top.gbr*%
%SRX1Y1I0J0*%
%LPD*%
%SRX4Y5I37.754J30.254*%
G54D20*
X311312Y158301D02*
G01Y155704D01*
X311310Y155605*
X311304Y155505*
X311295Y155406*
X311282Y155308*
X311265Y155210*
X311244Y155112*
X311219Y155016*
X311191Y154921*
X311159Y154827*
X311124Y154734*
X311085Y154642*
X311042Y154552*
X310997Y154464*
X310947Y154377*
X310895Y154293*
X310839Y154210*
X310781Y154130*
X310719Y154052*
X310654Y153977*
X310586Y153904*
X310516Y153834*
X310443Y153766*
X310368Y153701*
X310290Y153639*
X310210Y153581*
X310127Y153525*
X310043Y153473*
X309956Y153423*
X309868Y153378*
X309778Y153335*
X309686Y153296*
X309593Y153261*
X309499Y153229*
X309404Y153201*
X309308Y153176*
X309210Y153155*
X309112Y153138*
X309014Y153125*
X308915Y153116*
X308815Y153110*
X308716Y153108*
X302224*
X302125Y153110*
X302025Y153116*
X301926Y153125*
X301828Y153138*
X301730Y153156*
X301632Y153176*
X301536Y153201*
X301440Y153229*
X301346Y153261*
X301253Y153296*
X301162Y153335*
X301072Y153378*
X300983Y153423*
X300897Y153473*
X300812Y153525*
X300730Y153581*
X300650Y153640*
X300572Y153701*
X300496Y153766*
X300423Y153834*
X300353Y153904*
X300285Y153977*
X300220Y154053*
X300159Y154131*
X300100Y154211*
X300044Y154293*
X299992Y154378*
X299943Y154464*
X299897Y154553*
X299854Y154643*
X299815Y154734*
X299780Y154827*
X299748Y154921*
X299720Y155017*
X299695Y155113*
X299675Y155211*
X299657Y155309*
X299644Y155407*
X299635Y155506*
X299629Y155605*
X299627Y155705*
X299628Y155704D02*
G01Y158301D01*
X302224Y162666D02*
G01X299628Y165912D01*
X311312*
Y169157D02*
G01Y162666D01*
X260571Y255778D02*
G01X257974D01*
X257875Y255780*
X257775Y255786*
X257676Y255795*
X257578Y255808*
X257480Y255825*
X257382Y255846*
X257286Y255871*
X257191Y255899*
X257097Y255931*
X257004Y255966*
X256912Y256005*
X256822Y256048*
X256734Y256093*
X256647Y256143*
X256563Y256195*
X256480Y256251*
X256400Y256309*
X256322Y256371*
X256247Y256436*
X256174Y256504*
X256104Y256574*
X256036Y256647*
X255971Y256722*
X255909Y256800*
X255851Y256880*
X255795Y256963*
X255743Y257047*
X255693Y257134*
X255648Y257222*
X255605Y257312*
X255566Y257404*
X255531Y257497*
X255499Y257591*
X255471Y257686*
X255446Y257782*
X255425Y257880*
X255408Y257978*
X255395Y258076*
X255386Y258175*
X255380Y258275*
X255378Y258374*
Y264866*
X255380Y264965*
X255386Y265065*
X255395Y265164*
X255408Y265262*
X255425Y265360*
X255446Y265458*
X255471Y265554*
X255499Y265649*
X255531Y265743*
X255566Y265836*
X255605Y265928*
X255648Y266018*
X255693Y266106*
X255743Y266193*
X255795Y266277*
X255851Y266360*
X255909Y266440*
X255971Y266518*
X256036Y266593*
X256104Y266666*
X256174Y266736*
X256247Y266804*
X256322Y266869*
X256400Y266931*
X256480Y266989*
X256563Y267045*
X256647Y267097*
X256734Y267147*
X256822Y267192*
X256912Y267235*
X257004Y267274*
X257096Y267309*
X257191Y267341*
X257286Y267369*
X257382Y267394*
X257480Y267415*
X257578Y267432*
X257676Y267445*
X257775Y267454*
X257875Y267460*
X257974Y267462*
X260571*
X268506D02*
G01X268613Y267460D01*
X268719Y267454*
X268825Y267444*
X268931Y267431*
X269037Y267413*
X269141Y267392*
X269245Y267367*
X269348Y267338*
X269449Y267306*
X269549Y267269*
X269648Y267229*
X269746Y267186*
X269842Y267139*
X269936Y267088*
X270028Y267034*
X270118Y266977*
X270206Y266917*
X270291Y266853*
X270374Y266786*
X270455Y266716*
X270533Y266644*
X270609Y266568*
X270681Y266490*
X270751Y266409*
X270818Y266326*
X270882Y266241*
X270942Y266153*
X270999Y266063*
X271053Y265971*
X271104Y265877*
X271151Y265781*
X271194Y265683*
X271234Y265584*
X271271Y265484*
X271303Y265383*
X271332Y265280*
X271357Y265176*
X271378Y265072*
X271396Y264966*
X271409Y264860*
X271419Y264754*
X271425Y264648*
X271427Y264541*
X268506Y267462D02*
G01X268385Y267460D01*
X268264Y267454*
X268144Y267444*
X268023Y267431*
X267904Y267413*
X267784Y267392*
X267666Y267367*
X267549Y267338*
X267432Y267305*
X267317Y267269*
X267203Y267228*
X267090Y267185*
X266978Y267137*
X266869Y267086*
X266761Y267031*
X266654Y266973*
X266550Y266912*
X266448Y266847*
X266348Y266779*
X266250Y266708*
X266154Y266634*
X266061Y266557*
X265971Y266476*
X265883Y266393*
X265798Y266307*
X265715Y266218*
X265636Y266127*
X265559Y266033*
X265486Y265937*
X265416Y265839*
X265349Y265738*
X265285Y265635*
X265225Y265530*
X265168Y265423*
X265114Y265315*
X265064Y265205*
X265018Y265093*
X264975Y264980*
X264936Y264865*
X270454Y262269D02*
G01X270533Y262346D01*
X270609Y262427*
X270682Y262510*
X270752Y262595*
X270819Y262683*
X270883Y262773*
X270943Y262865*
X271000Y262960*
X271054Y263056*
X271105Y263154*
X271152Y263254*
X271196Y263356*
X271236Y263459*
X271272Y263563*
X271304Y263669*
X271333Y263775*
X271358Y263883*
X271380Y263991*
X271397Y264101*
X271411Y264210*
X271420Y264320*
X271426Y264431*
X271428Y264541*
X270454Y262269D02*
G01X264936Y255778D01*
X271427*
X106842Y214068D02*
G01X95158D01*
Y217314*
X95160Y217427*
X95166Y217540*
X95176Y217653*
X95190Y217766*
X95207Y217878*
X95229Y217989*
X95254Y218099*
X95284Y218209*
X95317Y218317*
X95354Y218424*
X95394Y218530*
X95439Y218634*
X95487Y218737*
X95538Y218838*
X95593Y218937*
X95651Y219034*
X95713Y219129*
X95778Y219222*
X95846Y219312*
X95917Y219400*
X95992Y219486*
X96069Y219569*
X96149Y219649*
X96232Y219726*
X96318Y219801*
X96406Y219872*
X96496Y219940*
X96589Y220005*
X96684Y220067*
X96781Y220125*
X96880Y220180*
X96981Y220231*
X97084Y220279*
X97188Y220324*
X97294Y220364*
X97401Y220401*
X97509Y220434*
X97619Y220464*
X97729Y220489*
X97840Y220511*
X97952Y220528*
X98065Y220542*
X98178Y220552*
X98291Y220558*
X98404Y220560*
X98517Y220558*
X98630Y220552*
X98743Y220542*
X98856Y220528*
X98968Y220511*
X99079Y220489*
X99189Y220464*
X99299Y220434*
X99407Y220401*
X99514Y220364*
X99620Y220324*
X99724Y220279*
X99827Y220231*
X99928Y220180*
X100027Y220125*
X100124Y220067*
X100219Y220005*
X100312Y219940*
X100402Y219872*
X100490Y219801*
X100576Y219726*
X100659Y219649*
X100739Y219569*
X100816Y219486*
X100891Y219400*
X100962Y219312*
X101030Y219222*
X101095Y219129*
X101157Y219034*
X101215Y218937*
X101270Y218838*
X101321Y218737*
X101369Y218634*
X101414Y218530*
X101454Y218424*
X101491Y218317*
X101524Y218209*
X101554Y218099*
X101579Y217989*
X101601Y217878*
X101618Y217766*
X101632Y217653*
X101642Y217540*
X101648Y217427*
X101650Y217314*
X101649D02*
G01Y214068D01*
Y217963D02*
G01X106842Y220559D01*
X97754Y225424D02*
G01X95158Y228670D01*
X106842*
Y231915D02*
G01Y225424D01*
X198028Y154378D02*
G01X209712D01*
X198028D02*
G01Y157624D01*
X198030Y157737*
X198036Y157850*
X198046Y157963*
X198060Y158076*
X198077Y158188*
X198099Y158299*
X198124Y158409*
X198154Y158519*
X198187Y158627*
X198224Y158734*
X198264Y158840*
X198309Y158944*
X198357Y159047*
X198408Y159148*
X198463Y159247*
X198521Y159344*
X198583Y159439*
X198648Y159532*
X198716Y159622*
X198787Y159710*
X198862Y159796*
X198939Y159879*
X199019Y159959*
X199102Y160036*
X199188Y160111*
X199276Y160182*
X199366Y160250*
X199459Y160315*
X199554Y160377*
X199651Y160435*
X199750Y160490*
X199851Y160541*
X199954Y160589*
X200058Y160634*
X200164Y160674*
X200271Y160711*
X200379Y160744*
X200489Y160774*
X200599Y160799*
X200710Y160821*
X200822Y160838*
X200935Y160852*
X201048Y160862*
X201161Y160868*
X201274Y160870*
X201387Y160868*
X201500Y160862*
X201613Y160852*
X201726Y160838*
X201838Y160821*
X201949Y160799*
X202059Y160774*
X202169Y160744*
X202277Y160711*
X202384Y160674*
X202490Y160634*
X202594Y160589*
X202697Y160541*
X202798Y160490*
X202897Y160435*
X202994Y160377*
X203089Y160315*
X203182Y160250*
X203272Y160182*
X203360Y160111*
X203446Y160036*
X203529Y159959*
X203609Y159879*
X203686Y159796*
X203761Y159710*
X203832Y159622*
X203900Y159532*
X203965Y159439*
X204027Y159344*
X204085Y159247*
X204140Y159148*
X204191Y159047*
X204239Y158944*
X204284Y158840*
X204324Y158734*
X204361Y158627*
X204394Y158519*
X204424Y158409*
X204449Y158299*
X204471Y158188*
X204488Y158076*
X204502Y157963*
X204512Y157850*
X204518Y157737*
X204520Y157624*
X204519D02*
G01Y154378D01*
Y158273D02*
G01X209712Y160869D01*
X200949Y172225D02*
G01X200842Y172223D01*
X200736Y172217*
X200630Y172207*
X200524Y172194*
X200418Y172176*
X200314Y172155*
X200210Y172130*
X200107Y172101*
X200006Y172069*
X199906Y172032*
X199807Y171992*
X199709Y171949*
X199613Y171902*
X199519Y171851*
X199427Y171797*
X199337Y171740*
X199249Y171680*
X199164Y171616*
X199081Y171549*
X199000Y171479*
X198922Y171407*
X198846Y171331*
X198774Y171253*
X198704Y171172*
X198637Y171089*
X198573Y171004*
X198513Y170916*
X198456Y170826*
X198402Y170734*
X198351Y170640*
X198304Y170544*
X198261Y170446*
X198221Y170347*
X198184Y170247*
X198152Y170146*
X198123Y170043*
X198098Y169939*
X198077Y169835*
X198059Y169729*
X198046Y169623*
X198036Y169517*
X198030Y169411*
X198028Y169304*
X198030Y169183*
X198036Y169062*
X198046Y168942*
X198059Y168821*
X198077Y168702*
X198098Y168582*
X198123Y168464*
X198152Y168347*
X198185Y168230*
X198221Y168115*
X198262Y168001*
X198305Y167888*
X198353Y167776*
X198404Y167667*
X198459Y167559*
X198517Y167452*
X198578Y167348*
X198643Y167246*
X198711Y167146*
X198782Y167048*
X198856Y166952*
X198933Y166859*
X199014Y166769*
X199097Y166681*
X199183Y166596*
X199272Y166513*
X199363Y166434*
X199457Y166357*
X199553Y166284*
X199651Y166214*
X199752Y166147*
X199855Y166083*
X199960Y166023*
X200067Y165965*
X200175Y165912*
X200285Y165862*
X200397Y165816*
X200510Y165773*
X200625Y165734*
X203221Y171251D02*
G01X203143Y171330D01*
X203063Y171406*
X202980Y171479*
X202894Y171549*
X202807Y171616*
X202716Y171680*
X202624Y171740*
X202530Y171798*
X202433Y171852*
X202335Y171902*
X202235Y171949*
X202134Y171993*
X202031Y172033*
X201926Y172069*
X201821Y172101*
X201714Y172130*
X201607Y172155*
X201498Y172177*
X201389Y172194*
X201280Y172208*
X201170Y172217*
X201059Y172223*
X200949Y172225*
X203221Y171252D02*
G01X209712Y165734D01*
Y172225*
X248828Y153108D02*
G01X260512D01*
X248828D02*
G01Y156354D01*
X248830Y156467*
X248836Y156580*
X248846Y156693*
X248860Y156806*
X248877Y156918*
X248899Y157029*
X248924Y157139*
X248954Y157249*
X248987Y157357*
X249024Y157464*
X249064Y157570*
X249109Y157674*
X249157Y157777*
X249208Y157878*
X249263Y157977*
X249321Y158074*
X249383Y158169*
X249448Y158262*
X249516Y158352*
X249587Y158440*
X249662Y158526*
X249739Y158609*
X249819Y158689*
X249902Y158766*
X249988Y158841*
X250076Y158912*
X250166Y158980*
X250259Y159045*
X250354Y159107*
X250451Y159165*
X250550Y159220*
X250651Y159271*
X250754Y159319*
X250858Y159364*
X250964Y159404*
X251071Y159441*
X251179Y159474*
X251289Y159504*
X251399Y159529*
X251510Y159551*
X251622Y159568*
X251735Y159582*
X251848Y159592*
X251961Y159598*
X252074Y159600*
X252187Y159598*
X252300Y159592*
X252413Y159582*
X252526Y159568*
X252638Y159551*
X252749Y159529*
X252859Y159504*
X252969Y159474*
X253077Y159441*
X253184Y159404*
X253290Y159364*
X253394Y159319*
X253497Y159271*
X253598Y159220*
X253697Y159165*
X253794Y159107*
X253889Y159045*
X253982Y158980*
X254072Y158912*
X254160Y158841*
X254246Y158766*
X254329Y158689*
X254409Y158609*
X254486Y158526*
X254561Y158440*
X254632Y158352*
X254700Y158262*
X254765Y158169*
X254827Y158074*
X254885Y157977*
X254940Y157878*
X254991Y157777*
X255039Y157674*
X255084Y157570*
X255124Y157464*
X255161Y157357*
X255194Y157249*
X255224Y157139*
X255249Y157029*
X255271Y156918*
X255288Y156806*
X255302Y156693*
X255312Y156580*
X255318Y156467*
X255320Y156354*
X255319D02*
G01Y153108D01*
Y157003D02*
G01X260512Y159599D01*
Y164464D02*
G01Y167710D01*
X260510Y167823*
X260504Y167936*
X260494Y168049*
X260480Y168162*
X260463Y168274*
X260441Y168385*
X260416Y168495*
X260386Y168605*
X260353Y168713*
X260316Y168820*
X260276Y168926*
X260231Y169030*
X260183Y169133*
X260132Y169234*
X260077Y169333*
X260019Y169430*
X259957Y169525*
X259892Y169618*
X259824Y169708*
X259753Y169796*
X259678Y169882*
X259601Y169965*
X259521Y170045*
X259438Y170122*
X259352Y170197*
X259264Y170268*
X259174Y170336*
X259081Y170401*
X258986Y170463*
X258889Y170521*
X258790Y170576*
X258689Y170627*
X258586Y170675*
X258482Y170720*
X258376Y170760*
X258269Y170797*
X258161Y170830*
X258051Y170860*
X257941Y170885*
X257830Y170907*
X257718Y170924*
X257605Y170938*
X257492Y170948*
X257379Y170954*
X257266Y170956*
X257153Y170954*
X257040Y170948*
X256927Y170938*
X256814Y170924*
X256702Y170907*
X256591Y170885*
X256481Y170860*
X256371Y170830*
X256263Y170797*
X256156Y170760*
X256050Y170720*
X255946Y170675*
X255843Y170627*
X255742Y170576*
X255643Y170521*
X255546Y170463*
X255451Y170401*
X255358Y170336*
X255268Y170268*
X255180Y170197*
X255094Y170122*
X255011Y170045*
X254931Y169965*
X254854Y169882*
X254779Y169796*
X254708Y169708*
X254640Y169618*
X254575Y169525*
X254513Y169430*
X254455Y169333*
X254400Y169234*
X254349Y169133*
X254301Y169030*
X254256Y168926*
X254216Y168820*
X254179Y168713*
X254146Y168605*
X254116Y168495*
X254091Y168385*
X254069Y168274*
X254052Y168162*
X254038Y168049*
X254028Y167936*
X254022Y167823*
X254020Y167710*
X248828Y168359D02*
G01Y164464D01*
Y168359D02*
G01X248830Y168460D01*
X248836Y168560*
X248846Y168660*
X248859Y168760*
X248877Y168859*
X248898Y168958*
X248923Y169055*
X248952Y169152*
X248985Y169247*
X249021Y169341*
X249061Y169433*
X249104Y169524*
X249151Y169613*
X249201Y169700*
X249255Y169786*
X249312Y169869*
X249372Y169949*
X249435Y170028*
X249502Y170104*
X249571Y170177*
X249643Y170247*
X249717Y170315*
X249794Y170380*
X249874Y170441*
X249956Y170500*
X250040Y170555*
X250126Y170607*
X250214Y170656*
X250304Y170701*
X250396Y170743*
X250489Y170781*
X250584Y170815*
X250679Y170846*
X250776Y170873*
X250874Y170896*
X250973Y170916*
X251073Y170931*
X251173Y170943*
X251273Y170951*
X251374Y170955*
X251474*
X251575Y170951*
X251675Y170943*
X251775Y170931*
X251875Y170916*
X251974Y170896*
X252072Y170873*
X252169Y170846*
X252264Y170815*
X252359Y170781*
X252452Y170743*
X252544Y170701*
X252634Y170656*
X252722Y170607*
X252808Y170555*
X252892Y170500*
X252974Y170441*
X253054Y170380*
X253131Y170315*
X253205Y170247*
X253277Y170177*
X253346Y170104*
X253413Y170028*
X253476Y169949*
X253536Y169869*
X253593Y169786*
X253647Y169700*
X253697Y169613*
X253744Y169524*
X253787Y169433*
X253827Y169341*
X253863Y169247*
X253896Y169152*
X253925Y169055*
X253950Y168958*
X253971Y168859*
X253989Y168760*
X254002Y168660*
X254012Y168560*
X254018Y168460*
X254020Y168359*
X254021D02*
G01Y165763D01*
X274818Y157165D02*
G01X286502D01*
X274818D02*
G01Y160410D01*
X274820Y160523*
X274826Y160636*
X274836Y160749*
X274850Y160862*
X274867Y160974*
X274889Y161085*
X274914Y161195*
X274944Y161305*
X274977Y161413*
X275014Y161520*
X275054Y161626*
X275099Y161730*
X275147Y161833*
X275198Y161934*
X275253Y162033*
X275311Y162130*
X275373Y162225*
X275438Y162318*
X275506Y162408*
X275577Y162496*
X275652Y162582*
X275729Y162665*
X275809Y162745*
X275892Y162822*
X275978Y162897*
X276066Y162968*
X276156Y163036*
X276249Y163101*
X276344Y163163*
X276441Y163221*
X276540Y163276*
X276641Y163327*
X276744Y163375*
X276848Y163420*
X276954Y163460*
X277061Y163497*
X277169Y163530*
X277279Y163560*
X277389Y163585*
X277500Y163607*
X277612Y163624*
X277725Y163638*
X277838Y163648*
X277951Y163654*
X278064Y163656*
X278177Y163654*
X278290Y163648*
X278403Y163638*
X278516Y163624*
X278628Y163607*
X278739Y163585*
X278849Y163560*
X278959Y163530*
X279067Y163497*
X279174Y163460*
X279280Y163420*
X279384Y163375*
X279487Y163327*
X279588Y163276*
X279687Y163221*
X279784Y163163*
X279879Y163101*
X279972Y163036*
X280062Y162968*
X280150Y162897*
X280236Y162822*
X280319Y162745*
X280399Y162665*
X280476Y162582*
X280551Y162496*
X280622Y162408*
X280690Y162318*
X280755Y162225*
X280817Y162130*
X280875Y162033*
X280930Y161934*
X280981Y161833*
X281029Y161730*
X281074Y161626*
X281114Y161520*
X281151Y161413*
X281184Y161305*
X281214Y161195*
X281239Y161085*
X281261Y160974*
X281278Y160862*
X281292Y160749*
X281302Y160636*
X281308Y160523*
X281310Y160410*
X281309D02*
G01Y157165D01*
Y161059D02*
G01X286502Y163656D01*
X283906Y168521D02*
G01X274818Y171117D01*
X283906Y168521D02*
G01Y175012D01*
X281309Y173065D02*
G01X286502D01*
G54D21*
X154340Y179778D02*
G01X154240Y179821D01*
X154138Y179860*
X154035Y179895*
X153931Y179927*
X153825Y179955*
X153719Y179980*
X153612Y180001*
X153504Y180018*
X153396Y180031*
X153288Y180040*
X153179Y180046*
X153070Y180048*
X152961Y180046*
X152852Y180040*
X152744Y180031*
X152636Y180018*
X152528Y180001*
X152421Y179980*
X152315Y179955*
X152209Y179927*
X152105Y179895*
X152002Y179860*
X151900Y179821*
X151800Y179778*
G54D22*
X139244Y169537D02*
G01Y155941D01*
X139246Y155798*
X139252Y155655*
X139262Y155513*
X139275Y155371*
X139293Y155229*
X139314Y155088*
X139339Y154947*
X139368Y154807*
X139401Y154668*
X139438Y154530*
X139478Y154393*
X139522Y154257*
X139570Y154123*
X139622Y153990*
X139677Y153858*
X139736Y153728*
X139798Y153599*
X139864Y153472*
X139933Y153347*
X140005Y153224*
X140081Y153103*
X140160Y152984*
X140243Y152867*
X140328Y152753*
X140417Y152641*
X140508Y152531*
X140603Y152424*
X140701Y152320*
X140801Y152218*
X140904Y152119*
X141010Y152023*
X141118Y151930*
X141229Y151840*
X141342Y151753*
X141458Y151669*
X141575Y151588*
X141695Y151511*
X141817Y151437*
X141941Y151366*
X142067Y151298*
X142195Y151234*
X142324Y151174*
X142455Y151117*
X142588Y151064*
X142722Y151014*
X142857Y150968*
X142994Y150926*
X143131Y150887*
X143270Y150852*
X143409Y150821*
X143549Y150794*
X143690Y150771*
X143832Y150751*
X143974Y150736*
X144116Y150724*
X144259Y150716*
X144402Y150712*
X144544*
X144687Y150716*
X144830Y150724*
X144972Y150736*
X145114Y150751*
X145256Y150771*
X145397Y150794*
X145537Y150821*
X145676Y150852*
X145815Y150887*
X145952Y150926*
X146089Y150968*
X146224Y151014*
X146358Y151064*
X146491Y151117*
X146622Y151174*
X146751Y151234*
X146879Y151298*
X147005Y151366*
X147129Y151437*
X147251Y151511*
X147371Y151588*
X147488Y151669*
X147604Y151753*
X147717Y151840*
X147828Y151930*
X147936Y152023*
X148042Y152119*
X148145Y152218*
X148245Y152320*
X148343Y152424*
X148438Y152531*
X148529Y152641*
X148618Y152753*
X148703Y152867*
X148786Y152984*
X148865Y153103*
X148941Y153224*
X149013Y153347*
X149082Y153472*
X149148Y153599*
X149210Y153728*
X149269Y153858*
X149324Y153990*
X149376Y154123*
X149424Y154257*
X149468Y154393*
X149508Y154530*
X149545Y154668*
X149578Y154807*
X149607Y154947*
X149632Y155088*
X149653Y155229*
X149671Y155371*
X149684Y155513*
X149694Y155655*
X149700Y155798*
X149702Y155941*
Y169537*
X157694Y165354D02*
G01X162923Y169537D01*
Y150712*
X157694D02*
G01X168153D01*
G54D20*
X82712Y221189D02*
G01Y223786D01*
Y221189D02*
G01X82710Y221090D01*
X82704Y220990*
X82695Y220891*
X82682Y220793*
X82665Y220695*
X82644Y220597*
X82619Y220501*
X82591Y220406*
X82559Y220312*
X82524Y220219*
X82485Y220127*
X82442Y220037*
X82397Y219949*
X82347Y219862*
X82295Y219778*
X82239Y219695*
X82181Y219615*
X82119Y219537*
X82054Y219462*
X81986Y219389*
X81916Y219319*
X81843Y219251*
X81768Y219186*
X81690Y219124*
X81610Y219066*
X81527Y219010*
X81443Y218958*
X81356Y218908*
X81268Y218863*
X81178Y218820*
X81086Y218781*
X80993Y218746*
X80899Y218714*
X80804Y218686*
X80708Y218661*
X80610Y218640*
X80512Y218623*
X80414Y218610*
X80315Y218601*
X80215Y218595*
X80116Y218593*
X73624*
Y218592D02*
G01X73525Y218594D01*
X73425Y218600*
X73326Y218609*
X73228Y218622*
X73130Y218640*
X73032Y218660*
X72936Y218685*
X72840Y218713*
X72746Y218745*
X72653Y218780*
X72562Y218819*
X72472Y218862*
X72383Y218907*
X72297Y218957*
X72212Y219009*
X72130Y219065*
X72050Y219124*
X71972Y219185*
X71896Y219250*
X71823Y219318*
X71753Y219388*
X71685Y219461*
X71620Y219537*
X71559Y219615*
X71500Y219695*
X71444Y219777*
X71392Y219862*
X71343Y219948*
X71297Y220037*
X71254Y220127*
X71215Y220218*
X71180Y220311*
X71148Y220405*
X71120Y220501*
X71095Y220597*
X71075Y220695*
X71057Y220793*
X71044Y220891*
X71035Y220990*
X71029Y221089*
X71027Y221189*
X71028D02*
G01Y223786D01*
X82712Y228151D02*
G01Y231396D01*
X82710Y231509*
X82704Y231622*
X82694Y231735*
X82680Y231848*
X82663Y231960*
X82641Y232071*
X82616Y232181*
X82586Y232291*
X82553Y232399*
X82516Y232506*
X82476Y232612*
X82431Y232716*
X82383Y232819*
X82332Y232920*
X82277Y233019*
X82219Y233116*
X82157Y233211*
X82092Y233304*
X82024Y233394*
X81953Y233482*
X81878Y233568*
X81801Y233651*
X81721Y233731*
X81638Y233808*
X81552Y233883*
X81464Y233954*
X81374Y234022*
X81281Y234087*
X81186Y234149*
X81089Y234207*
X80990Y234262*
X80889Y234313*
X80786Y234361*
X80682Y234406*
X80576Y234446*
X80469Y234483*
X80361Y234516*
X80251Y234546*
X80141Y234571*
X80030Y234593*
X79918Y234610*
X79805Y234624*
X79692Y234634*
X79579Y234640*
X79466Y234642*
X79353Y234640*
X79240Y234634*
X79127Y234624*
X79014Y234610*
X78902Y234593*
X78791Y234571*
X78681Y234546*
X78571Y234516*
X78463Y234483*
X78356Y234446*
X78250Y234406*
X78146Y234361*
X78043Y234313*
X77942Y234262*
X77843Y234207*
X77746Y234149*
X77651Y234087*
X77558Y234022*
X77468Y233954*
X77380Y233883*
X77294Y233808*
X77211Y233731*
X77131Y233651*
X77054Y233568*
X76979Y233482*
X76908Y233394*
X76840Y233304*
X76775Y233211*
X76713Y233116*
X76655Y233019*
X76600Y232920*
X76549Y232819*
X76501Y232716*
X76456Y232612*
X76416Y232506*
X76379Y232399*
X76346Y232291*
X76316Y232181*
X76291Y232071*
X76269Y231960*
X76252Y231848*
X76238Y231735*
X76228Y231622*
X76222Y231509*
X76220Y231396*
X71028Y232046D02*
G01Y228151D01*
Y232046D02*
G01X71030Y232147D01*
X71036Y232247*
X71046Y232347*
X71059Y232447*
X71077Y232546*
X71098Y232645*
X71123Y232742*
X71152Y232839*
X71185Y232934*
X71221Y233028*
X71261Y233120*
X71304Y233211*
X71351Y233300*
X71401Y233387*
X71455Y233473*
X71512Y233556*
X71572Y233636*
X71635Y233715*
X71702Y233791*
X71771Y233864*
X71843Y233934*
X71917Y234002*
X71994Y234067*
X72074Y234128*
X72156Y234187*
X72240Y234242*
X72326Y234294*
X72414Y234343*
X72504Y234388*
X72596Y234430*
X72689Y234468*
X72784Y234502*
X72879Y234533*
X72976Y234560*
X73074Y234583*
X73173Y234603*
X73273Y234618*
X73373Y234630*
X73473Y234638*
X73574Y234642*
X73674*
X73775Y234638*
X73875Y234630*
X73975Y234618*
X74075Y234603*
X74174Y234583*
X74272Y234560*
X74369Y234533*
X74464Y234502*
X74559Y234468*
X74652Y234430*
X74744Y234388*
X74834Y234343*
X74922Y234294*
X75008Y234242*
X75092Y234187*
X75174Y234128*
X75254Y234067*
X75331Y234002*
X75405Y233934*
X75477Y233864*
X75546Y233791*
X75613Y233715*
X75676Y233636*
X75736Y233556*
X75793Y233473*
X75847Y233387*
X75897Y233300*
X75944Y233211*
X75987Y233120*
X76027Y233028*
X76063Y232934*
X76096Y232839*
X76125Y232742*
X76150Y232645*
X76171Y232546*
X76189Y232447*
X76202Y232347*
X76212Y232247*
X76218Y232147*
X76220Y232046*
X76221D02*
G01Y229449D01*
X234902Y158561D02*
G01Y155964D01*
X234900Y155865*
X234894Y155765*
X234885Y155666*
X234872Y155568*
X234855Y155470*
X234834Y155372*
X234809Y155276*
X234781Y155181*
X234749Y155087*
X234714Y154994*
X234675Y154902*
X234632Y154812*
X234587Y154724*
X234537Y154637*
X234485Y154553*
X234429Y154470*
X234371Y154390*
X234309Y154312*
X234244Y154237*
X234176Y154164*
X234106Y154094*
X234033Y154026*
X233958Y153961*
X233880Y153899*
X233800Y153841*
X233717Y153785*
X233633Y153733*
X233546Y153683*
X233458Y153638*
X233368Y153595*
X233276Y153556*
X233183Y153521*
X233089Y153489*
X232994Y153461*
X232898Y153436*
X232800Y153415*
X232702Y153398*
X232604Y153385*
X232505Y153376*
X232405Y153370*
X232306Y153368*
X225814*
X225715Y153370*
X225615Y153376*
X225516Y153385*
X225418Y153398*
X225320Y153416*
X225222Y153436*
X225126Y153461*
X225030Y153489*
X224936Y153521*
X224843Y153556*
X224752Y153595*
X224662Y153638*
X224573Y153683*
X224487Y153733*
X224402Y153785*
X224320Y153841*
X224240Y153900*
X224162Y153961*
X224086Y154026*
X224013Y154094*
X223943Y154164*
X223875Y154237*
X223810Y154313*
X223749Y154391*
X223690Y154471*
X223634Y154553*
X223582Y154638*
X223533Y154724*
X223487Y154813*
X223444Y154903*
X223405Y154994*
X223370Y155087*
X223338Y155181*
X223310Y155277*
X223285Y155373*
X223265Y155471*
X223247Y155569*
X223234Y155667*
X223225Y155766*
X223219Y155865*
X223217Y155965*
X223218Y155964D02*
G01Y158561D01*
Y165523D02*
G01X232306Y162926D01*
Y169417*
X229709Y167470D02*
G01X234902D01*
G54D23*
X301270Y153070D02*
G01Y90570D01*
Y153070D02*
G01X76270D01*
Y90570*
X88770*
X113770*
X113840D02*
G01X263770D01*
X288770*
X301270*
X88770D02*
G01Y96520D01*
X113770*
X263770D02*
G01X288770D01*
Y90570*
X263770D02*
G01Y96520D01*
X113840Y90570D02*
G01X113770D01*
X113840D02*
G01Y96520D01*
X113770*
Y90570*
X301270Y76270D02*
G01Y13770D01*
Y76270D02*
G01X76270D01*
Y13770*
X88770*
X113770*
X113840D02*
G01X263770D01*
X288770*
X301270*
X88770D02*
G01Y19720D01*
X113770*
X263770D02*
G01X288770D01*
Y13770*
X263770D02*
G01Y19720D01*
X113840Y13770D02*
G01X113770D01*
X113840D02*
G01Y19720D01*
X113770*
Y13770*
M02*
