G04 Panel Editor  V12.2 (Build 1133) Date:  Mon Apr 13 15:08:35 2020 *
G04 Database: C:\Users\sergey\Documents\EAGLE\projects\Led_amp\export\CAMOutputs\Panel\Led_amp.cam *
G04 Layer 10: soldermask_top.gbr *
%FSLAX34Y34*%
%MOMM*%
%SFA1.000B1.000*%

%MIA0B0*%
%IPPOS*%
%ADD24C,3.20320*%
%ADD25C,1.47320*%
%ADD26R,1.87960X1.87960*%
%ADD27C,1.87960*%
%ADD28R,1.70320X1.50320*%
%ADD29R,1.50320X1.70320*%
%ADD72R,1.67640X0.76200*%
%LNsoldermask_top.gbr*%
%SRX1Y1I0J0*%
%LPD*%
%SRX4Y5I37.754J30.254*%
G36*
X310638Y88715D02*
G01X310642Y88781D01*
X310638Y88825*
X310866Y91430*
X310882Y91494*
X310885Y91539*
X311562Y94064*
X311588Y94125*
X311600Y94168*
X312705Y96538*
X312741Y96593*
X312760Y96634*
X314260Y98776*
X314305Y98824*
X314331Y98860*
X316180Y100709*
X316233Y100749*
X316264Y100780*
X318406Y102280*
X318465Y102309*
X318502Y102335*
X320872Y103440*
X320935Y103459*
X320976Y103478*
X323501Y104155*
X323567Y104162*
X323610Y104174*
X326215Y104402*
X326281Y104398*
X326325Y104402*
X328930Y104174*
X328994Y104159*
X329039Y104155*
X331564Y103478*
X331625Y103452*
X331668Y103440*
X334038Y102335*
X334093Y102299*
X334134Y102280*
X336276Y100780*
X336324Y100735*
X336360Y100709*
X338209Y98860*
X338249Y98807*
X338280Y98776*
X339780Y96634*
X339809Y96575*
X339835Y96538*
X340940Y94168*
X340959Y94105*
X340978Y94064*
X341655Y91539*
X341662Y91473*
X341674Y91430*
X341902Y88825*
X341898Y88759*
X341902Y88715*
X341674Y86110*
X341659Y86046*
X341655Y86001*
X340978Y83476*
X340952Y83415*
X340940Y83372*
X339835Y81002*
X339799Y80947*
X339780Y80906*
X338280Y78764*
X338235Y78716*
X338209Y78680*
X336360Y76831*
X336307Y76791*
X336276Y76760*
X334134Y75260*
X334075Y75231*
X334038Y75205*
X331668Y74100*
X331605Y74081*
X331564Y74062*
X329039Y73385*
X328973Y73378*
X328930Y73366*
X326325Y73138*
X326259Y73142*
X326215Y73138*
X323610Y73366*
X323546Y73382*
X323501Y73385*
X320976Y74062*
X320915Y74088*
X320872Y74100*
X318502Y75205*
X318447Y75241*
X318406Y75260*
X316264Y76760*
X316216Y76805*
X316180Y76831*
X314331Y78680*
X314291Y78733*
X314260Y78764*
X312760Y80906*
X312731Y80965*
X312705Y81002*
X311600Y83372*
X311581Y83435*
X311562Y83476*
X310885Y86001*
X310878Y86067*
X310866Y86110*
X310638Y88715*
G37*
G36*
X60638Y251215D02*
G01X60642Y251281D01*
X60638Y251325*
X60866Y253930*
X60882Y253994*
X60885Y254039*
X61562Y256564*
X61588Y256625*
X61600Y256668*
X62705Y259038*
X62741Y259093*
X62760Y259134*
X64260Y261276*
X64305Y261324*
X64331Y261360*
X66180Y263209*
X66233Y263249*
X66264Y263280*
X68406Y264780*
X68465Y264809*
X68502Y264835*
X70872Y265940*
X70935Y265959*
X70976Y265978*
X73501Y266655*
X73567Y266662*
X73610Y266674*
X76215Y266902*
X76281Y266898*
X76325Y266902*
X78930Y266674*
X78994Y266659*
X79039Y266655*
X81564Y265978*
X81625Y265952*
X81668Y265940*
X84038Y264835*
X84093Y264799*
X84134Y264780*
X86276Y263280*
X86324Y263235*
X86360Y263209*
X88209Y261360*
X88249Y261307*
X88280Y261276*
X89780Y259134*
X89809Y259075*
X89835Y259038*
X90940Y256668*
X90959Y256605*
X90978Y256564*
X91655Y254039*
X91662Y253973*
X91674Y253930*
X91902Y251325*
X91898Y251259*
X91902Y251215*
X91674Y248610*
X91659Y248546*
X91655Y248501*
X90978Y245976*
X90952Y245915*
X90940Y245872*
X89835Y243502*
X89799Y243447*
X89780Y243406*
X88280Y241264*
X88235Y241216*
X88209Y241180*
X86360Y239331*
X86307Y239291*
X86276Y239260*
X84134Y237760*
X84075Y237731*
X84038Y237705*
X81668Y236600*
X81605Y236581*
X81564Y236562*
X79039Y235885*
X78973Y235878*
X78930Y235866*
X76325Y235638*
X76259Y235642*
X76215Y235638*
X73610Y235866*
X73546Y235882*
X73501Y235885*
X70976Y236562*
X70915Y236588*
X70872Y236600*
X68502Y237705*
X68447Y237741*
X68406Y237760*
X66264Y239260*
X66216Y239305*
X66180Y239331*
X64331Y241180*
X64291Y241233*
X64260Y241264*
X62760Y243406*
X62731Y243465*
X62705Y243502*
X61600Y245872*
X61581Y245935*
X61562Y245976*
X60885Y248501*
X60878Y248567*
X60866Y248610*
X60638Y251215*
G37*
G36*
X35638Y88715D02*
G01X35642Y88781D01*
X35638Y88825*
X35866Y91430*
X35882Y91494*
X35885Y91539*
X36562Y94064*
X36588Y94125*
X36600Y94168*
X37705Y96538*
X37741Y96593*
X37760Y96634*
X39260Y98776*
X39305Y98824*
X39331Y98860*
X41180Y100709*
X41233Y100749*
X41264Y100780*
X43406Y102280*
X43465Y102309*
X43502Y102335*
X45872Y103440*
X45935Y103459*
X45976Y103478*
X48501Y104155*
X48567Y104162*
X48610Y104174*
X51215Y104402*
X51281Y104398*
X51325Y104402*
X53930Y104174*
X53994Y104159*
X54039Y104155*
X56564Y103478*
X56625Y103452*
X56668Y103440*
X59038Y102335*
X59093Y102299*
X59134Y102280*
X61276Y100780*
X61324Y100735*
X61360Y100709*
X63209Y98860*
X63249Y98807*
X63280Y98776*
X64780Y96634*
X64809Y96575*
X64835Y96538*
X65940Y94168*
X65959Y94105*
X65978Y94064*
X66655Y91539*
X66662Y91473*
X66674Y91430*
X66902Y88825*
X66898Y88759*
X66902Y88715*
X66674Y86110*
X66659Y86046*
X66655Y86001*
X65978Y83476*
X65952Y83415*
X65940Y83372*
X64835Y81002*
X64799Y80947*
X64780Y80906*
X63280Y78764*
X63235Y78716*
X63209Y78680*
X61360Y76831*
X61307Y76791*
X61276Y76760*
X59134Y75260*
X59075Y75231*
X59038Y75205*
X56668Y74100*
X56605Y74081*
X56564Y74062*
X54039Y73385*
X53973Y73378*
X53930Y73366*
X51325Y73138*
X51259Y73142*
X51215Y73138*
X48610Y73366*
X48546Y73382*
X48501Y73385*
X45976Y74062*
X45915Y74088*
X45872Y74100*
X43502Y75205*
X43447Y75241*
X43406Y75260*
X41264Y76760*
X41216Y76805*
X41180Y76831*
X39331Y78680*
X39291Y78733*
X39260Y78764*
X37760Y80906*
X37731Y80965*
X37705Y81002*
X36600Y83372*
X36581Y83435*
X36562Y83476*
X35885Y86001*
X35878Y86067*
X35866Y86110*
X35638Y88715*
G37*
G54D24*
X38770Y38770D03*
X338770D03*
X38770Y263770D03*
X338770D03*
G54D28*
X305470Y182470D03*
Y201470D03*
G54D29*
X258070Y242570D03*
X277070D03*
G54D25*
X201470Y268170D03*
X176070D03*
G54D28*
X102270Y182470D03*
Y201470D03*
X203870Y182470D03*
Y201470D03*
X254670Y182470D03*
Y201470D03*
X280070D03*
Y182470D03*
G54D72*
X165008Y182572D03*
Y191970D03*
Y201368D03*
X141132D03*
Y182572D03*
G54D28*
X76870Y201470D03*
Y182470D03*
X229270D03*
Y201470D03*
G54D26*
X101270Y115570D03*
G54D27*
X126270D03*
X151270D03*
X176270D03*
X201270D03*
X226270D03*
X251270D03*
X276270D03*
G54D26*
X101270Y38770D03*
G54D27*
X126270D03*
X151270D03*
X176270D03*
X201270D03*
X226270D03*
X251270D03*
X276270D03*
M02*
