M48
;GenerationSoftware,Autodesk,EAGLE,9.6.0*%
;CreationDate,2020-04-12T22:34:50Z*%
FMAT,2
ICI,OFF
METRIC,TZ,000.000
T4C0.350
T3C0.600
T2C0.900
T1C3.000
%
G90
M71
T1
X3750Y3750
X33750Y3750
X3750Y26250
X33750Y26250
T2
X10000Y11430
X12500Y11430
X15000Y11430
X17500Y11430
X20000Y11430
X22500Y11430
X25000Y11430
X27500Y11430
X10000Y3750
X12500Y3750
X15000Y3750
X17500Y3750
X20000Y3750
X22500Y3750
X25000Y3750
X27500Y3750
T3
X20020Y26690
X17480Y26690
T4
X12132Y19070
X25340Y21610
M30