M48
;GenerationSoftware,Autodesk,EAGLE,9.6.0*%
;CreationDate,2020-04-18T18:51:45Z*%
FMAT,2
ICI,OFF
METRIC,TZ,000.000
T5C0.350
T4C0.600
T3C0.850
T2C2.350
T1C3.000
%
G90
M71
T1
X18750Y-2500
X3750Y26250
X33750Y26250
T2
X31980Y13750
X31980Y-1250
X5520Y-1250
X5520Y13750
T3
X27500Y2680
X27500Y4720
X27500Y6760
X27500Y8800
X30040Y3700
X30040Y5740
X30040Y7780
X30040Y9820
X10000Y9820
X10000Y7780
X10000Y5740
X10000Y3700
X7460Y8800
X7460Y6760
X7460Y4720
X7460Y2680
T4
X20020Y26690
X17480Y26690
T5
X12132Y19070
X25340Y21610
M30