G04 EAGLE Gerber RS-274X export*
G75*
%MOMM*%
%FSLAX34Y34*%
%LPD*%
%INTop Copper*%
%IPPOS*%
%AMOC8*
5,1,8,0,0,1.08239X$1,22.5*%
G01*
%ADD10R,1.500000X1.300000*%
%ADD11R,1.300000X1.500000*%
%ADD12C,1.270000*%
%ADD13R,1.473200X0.558800*%
%ADD14C,1.000000*%
%ADD15C,1.358000*%
%ADD16C,0.304800*%
%ADD17C,0.756400*%

G36*
X370502Y-46996D02*
X370502Y-46996D01*
X370528Y-46998D01*
X370675Y-46976D01*
X370822Y-46959D01*
X370847Y-46951D01*
X370873Y-46947D01*
X371011Y-46892D01*
X371150Y-46842D01*
X371172Y-46828D01*
X371197Y-46818D01*
X371318Y-46733D01*
X371443Y-46653D01*
X371461Y-46634D01*
X371483Y-46619D01*
X371582Y-46509D01*
X371685Y-46402D01*
X371699Y-46380D01*
X371716Y-46360D01*
X371788Y-46230D01*
X371864Y-46103D01*
X371872Y-46078D01*
X371885Y-46055D01*
X371925Y-45912D01*
X371970Y-45771D01*
X371972Y-45745D01*
X371980Y-45720D01*
X371999Y-45476D01*
X371999Y295476D01*
X371996Y295502D01*
X371998Y295528D01*
X371976Y295675D01*
X371959Y295822D01*
X371951Y295847D01*
X371947Y295873D01*
X371892Y296011D01*
X371842Y296150D01*
X371828Y296172D01*
X371818Y296197D01*
X371733Y296318D01*
X371653Y296443D01*
X371634Y296461D01*
X371619Y296483D01*
X371509Y296582D01*
X371402Y296685D01*
X371380Y296699D01*
X371360Y296716D01*
X371230Y296788D01*
X371103Y296864D01*
X371078Y296872D01*
X371055Y296885D01*
X370912Y296925D01*
X370771Y296970D01*
X370745Y296972D01*
X370720Y296980D01*
X370476Y296999D01*
X4524Y296999D01*
X4498Y296996D01*
X4472Y296998D01*
X4325Y296976D01*
X4178Y296959D01*
X4153Y296951D01*
X4127Y296947D01*
X3989Y296892D01*
X3850Y296842D01*
X3828Y296828D01*
X3803Y296818D01*
X3682Y296733D01*
X3557Y296653D01*
X3539Y296634D01*
X3517Y296619D01*
X3418Y296509D01*
X3315Y296402D01*
X3301Y296380D01*
X3284Y296360D01*
X3212Y296230D01*
X3136Y296103D01*
X3128Y296078D01*
X3115Y296055D01*
X3075Y295912D01*
X3030Y295771D01*
X3028Y295745D01*
X3020Y295720D01*
X3001Y295476D01*
X3001Y-45476D01*
X3004Y-45502D01*
X3002Y-45528D01*
X3024Y-45675D01*
X3041Y-45822D01*
X3049Y-45847D01*
X3053Y-45873D01*
X3108Y-46011D01*
X3158Y-46150D01*
X3172Y-46172D01*
X3182Y-46197D01*
X3267Y-46318D01*
X3347Y-46443D01*
X3366Y-46461D01*
X3381Y-46483D01*
X3491Y-46582D01*
X3598Y-46685D01*
X3620Y-46699D01*
X3640Y-46716D01*
X3770Y-46788D01*
X3897Y-46864D01*
X3922Y-46872D01*
X3945Y-46885D01*
X4088Y-46925D01*
X4229Y-46970D01*
X4255Y-46972D01*
X4280Y-46980D01*
X4524Y-46999D01*
X370476Y-46999D01*
X370502Y-46996D01*
G37*
%LPC*%
G36*
X68039Y10961D02*
X68039Y10961D01*
X58761Y20239D01*
X58761Y58160D01*
X64513Y63912D01*
X64560Y63971D01*
X64615Y64025D01*
X64668Y64107D01*
X64729Y64185D01*
X64762Y64254D01*
X64803Y64318D01*
X64836Y64411D01*
X64878Y64500D01*
X64894Y64574D01*
X64920Y64646D01*
X64931Y64744D01*
X64951Y64840D01*
X64950Y64917D01*
X64959Y64993D01*
X64947Y65091D01*
X64946Y65189D01*
X64927Y65263D01*
X64918Y65339D01*
X64872Y65481D01*
X64861Y65527D01*
X64852Y65544D01*
X64843Y65572D01*
X64809Y65652D01*
X64809Y69548D01*
X66300Y73146D01*
X69054Y75900D01*
X70243Y76393D01*
X70331Y76442D01*
X70423Y76482D01*
X70483Y76526D01*
X70548Y76562D01*
X70622Y76630D01*
X70703Y76689D01*
X70751Y76746D01*
X70806Y76796D01*
X70863Y76879D01*
X70928Y76955D01*
X70962Y77022D01*
X71004Y77083D01*
X71041Y77176D01*
X71087Y77266D01*
X71105Y77338D01*
X71132Y77407D01*
X71146Y77506D01*
X71171Y77604D01*
X71172Y77678D01*
X71183Y77752D01*
X71174Y77852D01*
X71176Y77952D01*
X71160Y78025D01*
X71154Y78099D01*
X71123Y78195D01*
X71101Y78293D01*
X71069Y78360D01*
X71047Y78431D01*
X70995Y78517D01*
X70952Y78608D01*
X70905Y78666D01*
X70867Y78729D01*
X70797Y78801D01*
X70734Y78880D01*
X70676Y78926D01*
X70624Y78979D01*
X70540Y79034D01*
X70461Y79096D01*
X70371Y79142D01*
X70331Y79168D01*
X70297Y79180D01*
X70243Y79207D01*
X69054Y79700D01*
X66300Y82454D01*
X64809Y86052D01*
X64809Y89948D01*
X66300Y93546D01*
X69054Y96300D01*
X72652Y97791D01*
X76548Y97791D01*
X80146Y96300D01*
X82900Y93546D01*
X84391Y89948D01*
X84391Y86052D01*
X82900Y82454D01*
X80146Y79700D01*
X78957Y79207D01*
X78869Y79159D01*
X78777Y79119D01*
X78717Y79074D01*
X78652Y79038D01*
X78578Y78971D01*
X78497Y78911D01*
X78449Y78854D01*
X78394Y78804D01*
X78337Y78721D01*
X78272Y78645D01*
X78238Y78578D01*
X78196Y78517D01*
X78159Y78424D01*
X78113Y78334D01*
X78096Y78262D01*
X78068Y78193D01*
X78054Y78094D01*
X78029Y77996D01*
X78028Y77922D01*
X78017Y77848D01*
X78026Y77748D01*
X78024Y77648D01*
X78040Y77575D01*
X78046Y77501D01*
X78077Y77405D01*
X78099Y77307D01*
X78131Y77240D01*
X78153Y77169D01*
X78205Y77083D01*
X78248Y76992D01*
X78295Y76934D01*
X78333Y76871D01*
X78403Y76799D01*
X78466Y76720D01*
X78524Y76674D01*
X78576Y76621D01*
X78660Y76566D01*
X78739Y76504D01*
X78829Y76458D01*
X78869Y76432D01*
X78903Y76420D01*
X78957Y76393D01*
X80146Y75900D01*
X82900Y73146D01*
X84391Y69548D01*
X84391Y65652D01*
X82900Y62054D01*
X80146Y59300D01*
X78957Y58807D01*
X78869Y58758D01*
X78777Y58718D01*
X78717Y58674D01*
X78652Y58638D01*
X78578Y58570D01*
X78497Y58511D01*
X78449Y58454D01*
X78394Y58404D01*
X78337Y58321D01*
X78272Y58245D01*
X78238Y58178D01*
X78196Y58117D01*
X78159Y58024D01*
X78113Y57934D01*
X78095Y57862D01*
X78068Y57793D01*
X78054Y57694D01*
X78029Y57596D01*
X78028Y57522D01*
X78017Y57448D01*
X78026Y57348D01*
X78024Y57248D01*
X78040Y57175D01*
X78046Y57101D01*
X78077Y57005D01*
X78099Y56907D01*
X78131Y56840D01*
X78153Y56769D01*
X78205Y56683D01*
X78248Y56592D01*
X78295Y56534D01*
X78333Y56471D01*
X78403Y56399D01*
X78466Y56320D01*
X78524Y56274D01*
X78576Y56221D01*
X78660Y56166D01*
X78739Y56104D01*
X78829Y56058D01*
X78869Y56032D01*
X78903Y56020D01*
X78957Y55993D01*
X80146Y55500D01*
X82900Y52746D01*
X84391Y49148D01*
X84391Y45253D01*
X84123Y44606D01*
X84102Y44532D01*
X84071Y44462D01*
X84054Y44365D01*
X84027Y44270D01*
X84023Y44194D01*
X84010Y44119D01*
X84015Y44020D01*
X84010Y43922D01*
X84024Y43847D01*
X84028Y43771D01*
X84055Y43676D01*
X84073Y43579D01*
X84103Y43509D01*
X84124Y43436D01*
X84172Y43350D01*
X84211Y43260D01*
X84257Y43198D01*
X84294Y43132D01*
X84391Y43018D01*
X84419Y42980D01*
X84434Y42968D01*
X84453Y42945D01*
X88082Y39316D01*
X88200Y39223D01*
X88315Y39126D01*
X88336Y39115D01*
X88355Y39100D01*
X88491Y39035D01*
X88625Y38967D01*
X88649Y38961D01*
X88670Y38951D01*
X88817Y38919D01*
X88963Y38883D01*
X88987Y38882D01*
X89011Y38877D01*
X89161Y38880D01*
X89312Y38878D01*
X89335Y38883D01*
X89360Y38883D01*
X89505Y38920D01*
X89652Y38952D01*
X89674Y38962D01*
X89698Y38968D01*
X89832Y39037D01*
X89967Y39102D01*
X89986Y39117D01*
X90007Y39128D01*
X90122Y39226D01*
X90239Y39319D01*
X90254Y39338D01*
X90273Y39354D01*
X90362Y39475D01*
X90455Y39593D01*
X90469Y39619D01*
X90480Y39634D01*
X90499Y39677D01*
X90567Y39810D01*
X91700Y42546D01*
X94454Y45300D01*
X95643Y45793D01*
X95731Y45842D01*
X95823Y45882D01*
X95883Y45926D01*
X95948Y45962D01*
X96022Y46030D01*
X96103Y46089D01*
X96151Y46146D01*
X96206Y46196D01*
X96263Y46279D01*
X96328Y46355D01*
X96362Y46422D01*
X96404Y46483D01*
X96441Y46576D01*
X96487Y46666D01*
X96505Y46738D01*
X96532Y46807D01*
X96546Y46906D01*
X96571Y47004D01*
X96572Y47078D01*
X96583Y47152D01*
X96574Y47252D01*
X96576Y47352D01*
X96560Y47425D01*
X96554Y47499D01*
X96523Y47595D01*
X96501Y47693D01*
X96469Y47760D01*
X96447Y47831D01*
X96395Y47917D01*
X96352Y48008D01*
X96305Y48066D01*
X96267Y48129D01*
X96197Y48201D01*
X96134Y48280D01*
X96076Y48326D01*
X96024Y48379D01*
X95940Y48434D01*
X95861Y48496D01*
X95771Y48542D01*
X95731Y48568D01*
X95697Y48580D01*
X95643Y48607D01*
X94454Y49100D01*
X91700Y51854D01*
X90209Y55452D01*
X90209Y59348D01*
X91700Y62946D01*
X94454Y65700D01*
X95643Y66193D01*
X95731Y66242D01*
X95823Y66282D01*
X95883Y66326D01*
X95948Y66362D01*
X96022Y66430D01*
X96103Y66489D01*
X96151Y66546D01*
X96206Y66596D01*
X96263Y66679D01*
X96328Y66755D01*
X96362Y66822D01*
X96404Y66883D01*
X96441Y66976D01*
X96487Y67066D01*
X96505Y67138D01*
X96532Y67207D01*
X96546Y67306D01*
X96571Y67404D01*
X96572Y67478D01*
X96583Y67552D01*
X96574Y67652D01*
X96576Y67752D01*
X96560Y67825D01*
X96554Y67899D01*
X96523Y67995D01*
X96501Y68093D01*
X96469Y68160D01*
X96447Y68231D01*
X96395Y68317D01*
X96352Y68408D01*
X96305Y68466D01*
X96267Y68529D01*
X96197Y68601D01*
X96134Y68680D01*
X96076Y68726D01*
X96024Y68779D01*
X95940Y68834D01*
X95861Y68896D01*
X95771Y68942D01*
X95731Y68968D01*
X95697Y68980D01*
X95643Y69007D01*
X94454Y69500D01*
X91700Y72254D01*
X90209Y75852D01*
X90209Y79748D01*
X91700Y83346D01*
X94454Y86100D01*
X96222Y86833D01*
X96258Y86852D01*
X96297Y86866D01*
X96410Y86937D01*
X96527Y87002D01*
X96557Y87029D01*
X96592Y87051D01*
X96686Y87146D01*
X96785Y87236D01*
X96808Y87270D01*
X96837Y87299D01*
X96907Y87413D01*
X96983Y87523D01*
X96998Y87561D01*
X97020Y87595D01*
X97062Y87723D01*
X97111Y87847D01*
X97117Y87887D01*
X97130Y87926D01*
X97143Y88059D01*
X97162Y88192D01*
X97159Y88232D01*
X97162Y88273D01*
X97144Y88406D01*
X97133Y88539D01*
X97121Y88578D01*
X97115Y88618D01*
X97067Y88743D01*
X97026Y88871D01*
X97005Y88906D01*
X96991Y88944D01*
X96915Y89055D01*
X96846Y89169D01*
X96818Y89199D01*
X96795Y89232D01*
X96697Y89323D01*
X96604Y89419D01*
X96569Y89441D01*
X96539Y89469D01*
X96331Y89597D01*
X95110Y90220D01*
X93921Y91083D01*
X92883Y92121D01*
X92020Y93310D01*
X91353Y94618D01*
X90899Y96015D01*
X90889Y96076D01*
X99399Y96076D01*
X99425Y96079D01*
X99451Y96077D01*
X99598Y96099D01*
X99745Y96116D01*
X99770Y96124D01*
X99796Y96128D01*
X99933Y96183D01*
X99994Y96205D01*
X99999Y96203D01*
X100022Y96190D01*
X100165Y96150D01*
X100306Y96105D01*
X100332Y96102D01*
X100357Y96095D01*
X100601Y96076D01*
X109111Y96076D01*
X109101Y96015D01*
X108647Y94618D01*
X107980Y93310D01*
X107117Y92121D01*
X106079Y91083D01*
X104890Y90220D01*
X103669Y89597D01*
X103635Y89575D01*
X103598Y89559D01*
X103490Y89479D01*
X103378Y89405D01*
X103351Y89375D01*
X103318Y89351D01*
X103231Y89248D01*
X103140Y89151D01*
X103119Y89116D01*
X103093Y89085D01*
X103032Y88965D01*
X102964Y88850D01*
X102953Y88811D01*
X102934Y88774D01*
X102902Y88644D01*
X102862Y88516D01*
X102860Y88476D01*
X102850Y88436D01*
X102848Y88302D01*
X102839Y88169D01*
X102845Y88128D01*
X102845Y88088D01*
X102873Y87957D01*
X102895Y87825D01*
X102910Y87787D01*
X102919Y87747D01*
X102977Y87626D01*
X103028Y87502D01*
X103051Y87469D01*
X103069Y87432D01*
X103152Y87328D01*
X103230Y87219D01*
X103261Y87192D01*
X103286Y87160D01*
X103391Y87077D01*
X103492Y86989D01*
X103528Y86969D01*
X103560Y86944D01*
X103778Y86833D01*
X105546Y86100D01*
X108300Y83346D01*
X109791Y79748D01*
X109791Y75852D01*
X108300Y72254D01*
X105546Y69500D01*
X104357Y69007D01*
X104269Y68959D01*
X104177Y68919D01*
X104117Y68874D01*
X104052Y68838D01*
X103978Y68771D01*
X103897Y68711D01*
X103849Y68654D01*
X103794Y68604D01*
X103737Y68521D01*
X103672Y68445D01*
X103638Y68378D01*
X103596Y68317D01*
X103559Y68224D01*
X103513Y68134D01*
X103496Y68062D01*
X103468Y67993D01*
X103454Y67894D01*
X103429Y67796D01*
X103428Y67722D01*
X103417Y67648D01*
X103426Y67548D01*
X103424Y67448D01*
X103440Y67375D01*
X103446Y67301D01*
X103477Y67205D01*
X103499Y67107D01*
X103531Y67040D01*
X103553Y66969D01*
X103605Y66883D01*
X103648Y66792D01*
X103695Y66734D01*
X103733Y66671D01*
X103803Y66599D01*
X103866Y66520D01*
X103924Y66474D01*
X103976Y66421D01*
X104060Y66366D01*
X104139Y66304D01*
X104229Y66258D01*
X104269Y66232D01*
X104303Y66220D01*
X104357Y66193D01*
X105546Y65700D01*
X108300Y62946D01*
X109791Y59348D01*
X109791Y55452D01*
X108300Y51854D01*
X105546Y49100D01*
X104357Y48607D01*
X104269Y48559D01*
X104177Y48519D01*
X104117Y48474D01*
X104052Y48438D01*
X103978Y48371D01*
X103897Y48311D01*
X103849Y48254D01*
X103794Y48204D01*
X103737Y48121D01*
X103672Y48045D01*
X103638Y47978D01*
X103596Y47917D01*
X103559Y47824D01*
X103513Y47734D01*
X103496Y47662D01*
X103468Y47593D01*
X103454Y47494D01*
X103429Y47396D01*
X103428Y47322D01*
X103417Y47248D01*
X103426Y47148D01*
X103424Y47048D01*
X103440Y46975D01*
X103446Y46901D01*
X103477Y46805D01*
X103499Y46707D01*
X103531Y46640D01*
X103553Y46569D01*
X103605Y46483D01*
X103648Y46392D01*
X103695Y46334D01*
X103733Y46271D01*
X103803Y46199D01*
X103866Y46120D01*
X103924Y46074D01*
X103976Y46021D01*
X104060Y45966D01*
X104139Y45904D01*
X104229Y45858D01*
X104269Y45832D01*
X104303Y45820D01*
X104357Y45793D01*
X105546Y45300D01*
X108300Y42546D01*
X109791Y38948D01*
X109791Y35052D01*
X108658Y32317D01*
X108616Y32172D01*
X108571Y32029D01*
X108569Y32005D01*
X108562Y31982D01*
X108555Y31831D01*
X108543Y31682D01*
X108546Y31658D01*
X108545Y31634D01*
X108572Y31486D01*
X108594Y31337D01*
X108603Y31315D01*
X108608Y31291D01*
X108667Y31153D01*
X108723Y31013D01*
X108737Y30993D01*
X108746Y30971D01*
X108836Y30850D01*
X108922Y30727D01*
X108940Y30711D01*
X108954Y30691D01*
X109069Y30594D01*
X109181Y30494D01*
X109202Y30482D01*
X109220Y30466D01*
X109354Y30398D01*
X109486Y30325D01*
X109509Y30319D01*
X109531Y30308D01*
X109676Y30271D01*
X109821Y30230D01*
X109850Y30228D01*
X109869Y30223D01*
X109916Y30223D01*
X110065Y30211D01*
X230581Y30211D01*
X230706Y30225D01*
X230833Y30232D01*
X230879Y30245D01*
X230927Y30251D01*
X231046Y30293D01*
X231167Y30328D01*
X231210Y30352D01*
X231255Y30368D01*
X231361Y30437D01*
X231472Y30498D01*
X231518Y30538D01*
X231548Y30557D01*
X231582Y30592D01*
X231658Y30657D01*
X264913Y63912D01*
X264960Y63971D01*
X265015Y64025D01*
X265068Y64108D01*
X265129Y64185D01*
X265162Y64254D01*
X265203Y64318D01*
X265236Y64411D01*
X265278Y64500D01*
X265294Y64574D01*
X265320Y64646D01*
X265331Y64744D01*
X265352Y64840D01*
X265350Y64917D01*
X265359Y64993D01*
X265347Y65091D01*
X265346Y65189D01*
X265327Y65263D01*
X265318Y65339D01*
X265272Y65481D01*
X265261Y65527D01*
X265252Y65544D01*
X265243Y65572D01*
X265209Y65653D01*
X265209Y69548D01*
X266700Y73146D01*
X269454Y75900D01*
X270643Y76393D01*
X270731Y76441D01*
X270823Y76481D01*
X270883Y76526D01*
X270948Y76562D01*
X271022Y76629D01*
X271103Y76689D01*
X271151Y76746D01*
X271206Y76796D01*
X271263Y76879D01*
X271328Y76955D01*
X271362Y77022D01*
X271404Y77083D01*
X271441Y77176D01*
X271487Y77266D01*
X271504Y77338D01*
X271532Y77407D01*
X271546Y77506D01*
X271571Y77604D01*
X271572Y77678D01*
X271583Y77752D01*
X271574Y77852D01*
X271576Y77952D01*
X271560Y78025D01*
X271554Y78099D01*
X271523Y78195D01*
X271501Y78293D01*
X271469Y78360D01*
X271447Y78431D01*
X271395Y78517D01*
X271352Y78608D01*
X271305Y78666D01*
X271267Y78729D01*
X271197Y78801D01*
X271134Y78880D01*
X271076Y78926D01*
X271024Y78979D01*
X270940Y79034D01*
X270861Y79096D01*
X270771Y79142D01*
X270731Y79168D01*
X270697Y79180D01*
X270643Y79207D01*
X269454Y79700D01*
X266700Y82454D01*
X266666Y82535D01*
X266629Y82602D01*
X266601Y82673D01*
X266545Y82753D01*
X266497Y82840D01*
X266446Y82896D01*
X266402Y82959D01*
X266329Y83025D01*
X266263Y83098D01*
X266200Y83141D01*
X266143Y83192D01*
X266057Y83240D01*
X265976Y83296D01*
X265905Y83324D01*
X265838Y83361D01*
X265743Y83388D01*
X265652Y83424D01*
X265576Y83435D01*
X265503Y83456D01*
X265354Y83468D01*
X265307Y83475D01*
X265288Y83473D01*
X265259Y83475D01*
X252626Y83475D01*
X175772Y160329D01*
X175673Y160408D01*
X175579Y160492D01*
X175537Y160516D01*
X175499Y160546D01*
X175385Y160600D01*
X175274Y160661D01*
X175228Y160674D01*
X175184Y160695D01*
X175060Y160721D01*
X174939Y160756D01*
X174878Y160761D01*
X174843Y160768D01*
X174795Y160767D01*
X174695Y160775D01*
X73726Y160775D01*
X71075Y163426D01*
X71075Y170176D01*
X71072Y170202D01*
X71074Y170228D01*
X71052Y170375D01*
X71035Y170522D01*
X71027Y170547D01*
X71023Y170573D01*
X70968Y170711D01*
X70918Y170850D01*
X70904Y170872D01*
X70894Y170897D01*
X70809Y171018D01*
X70729Y171143D01*
X70710Y171161D01*
X70695Y171183D01*
X70585Y171282D01*
X70478Y171385D01*
X70456Y171399D01*
X70436Y171416D01*
X70306Y171488D01*
X70179Y171564D01*
X70154Y171572D01*
X70131Y171585D01*
X69988Y171625D01*
X69847Y171670D01*
X69821Y171672D01*
X69796Y171680D01*
X69552Y171699D01*
X66857Y171699D01*
X65099Y173457D01*
X65099Y188943D01*
X65779Y189623D01*
X65796Y189643D01*
X65816Y189660D01*
X65904Y189780D01*
X65996Y189896D01*
X66007Y189920D01*
X66023Y189941D01*
X66081Y190077D01*
X66145Y190211D01*
X66150Y190237D01*
X66161Y190261D01*
X66187Y190407D01*
X66218Y190552D01*
X66218Y190578D01*
X66222Y190604D01*
X66215Y190752D01*
X66212Y190900D01*
X66206Y190926D01*
X66204Y190952D01*
X66163Y191094D01*
X66127Y191238D01*
X66115Y191262D01*
X66108Y191287D01*
X66036Y191416D01*
X65968Y191548D01*
X65951Y191568D01*
X65938Y191591D01*
X65779Y191777D01*
X65099Y192457D01*
X65099Y207943D01*
X66857Y209701D01*
X69552Y209701D01*
X69578Y209704D01*
X69604Y209702D01*
X69751Y209724D01*
X69898Y209741D01*
X69923Y209749D01*
X69949Y209753D01*
X70087Y209808D01*
X70226Y209858D01*
X70248Y209872D01*
X70273Y209882D01*
X70394Y209967D01*
X70519Y210047D01*
X70537Y210066D01*
X70559Y210081D01*
X70658Y210191D01*
X70761Y210298D01*
X70775Y210320D01*
X70792Y210340D01*
X70864Y210470D01*
X70940Y210597D01*
X70948Y210622D01*
X70961Y210645D01*
X71001Y210788D01*
X71046Y210929D01*
X71048Y210955D01*
X71056Y210980D01*
X71075Y211224D01*
X71075Y217974D01*
X73726Y220625D01*
X127495Y220625D01*
X127620Y220639D01*
X127747Y220646D01*
X127793Y220659D01*
X127841Y220665D01*
X127960Y220707D01*
X128081Y220742D01*
X128124Y220766D01*
X128169Y220782D01*
X128276Y220851D01*
X128386Y220912D01*
X128432Y220952D01*
X128462Y220971D01*
X128496Y221006D01*
X128572Y221071D01*
X166911Y259410D01*
X166928Y259431D01*
X166948Y259448D01*
X167036Y259567D01*
X167128Y259683D01*
X167139Y259707D01*
X167155Y259728D01*
X167214Y259864D01*
X167277Y259999D01*
X167283Y260024D01*
X167293Y260048D01*
X167319Y260195D01*
X167350Y260339D01*
X167350Y260365D01*
X167355Y260391D01*
X167347Y260540D01*
X167344Y260688D01*
X167338Y260713D01*
X167337Y260739D01*
X167296Y260882D01*
X167259Y261026D01*
X167247Y261049D01*
X167240Y261074D01*
X167168Y261204D01*
X167100Y261335D01*
X167083Y261355D01*
X167070Y261378D01*
X166911Y261565D01*
X166873Y261603D01*
X165449Y265040D01*
X165449Y268760D01*
X166873Y272197D01*
X169503Y274827D01*
X172940Y276251D01*
X176660Y276251D01*
X180097Y274827D01*
X182727Y272197D01*
X184151Y268760D01*
X184151Y265040D01*
X182727Y261603D01*
X180097Y258973D01*
X178968Y258505D01*
X178967Y258504D01*
X178965Y258504D01*
X178817Y258421D01*
X178664Y258336D01*
X178662Y258335D01*
X178660Y258334D01*
X178474Y258175D01*
X131371Y211072D01*
X131292Y210973D01*
X131208Y210879D01*
X131184Y210837D01*
X131154Y210799D01*
X131100Y210685D01*
X131039Y210574D01*
X131026Y210527D01*
X131005Y210484D01*
X130979Y210360D01*
X130944Y210239D01*
X130939Y210178D01*
X130932Y210143D01*
X130933Y210095D01*
X130925Y209995D01*
X130925Y207416D01*
X130928Y207390D01*
X130926Y207364D01*
X130948Y207217D01*
X130965Y207070D01*
X130973Y207045D01*
X130977Y207019D01*
X131032Y206881D01*
X131082Y206742D01*
X131096Y206720D01*
X131106Y206695D01*
X131191Y206574D01*
X131271Y206449D01*
X131290Y206431D01*
X131305Y206409D01*
X131415Y206310D01*
X131522Y206207D01*
X131544Y206193D01*
X131564Y206176D01*
X131694Y206104D01*
X131821Y206028D01*
X131846Y206020D01*
X131869Y206007D01*
X132012Y205967D01*
X132153Y205922D01*
X132179Y205920D01*
X132204Y205912D01*
X132448Y205893D01*
X148471Y205893D01*
X150229Y204135D01*
X150229Y196061D01*
X148471Y194303D01*
X131253Y194303D01*
X130429Y195127D01*
X130330Y195206D01*
X130236Y195290D01*
X130194Y195314D01*
X130156Y195344D01*
X130042Y195398D01*
X129931Y195459D01*
X129885Y195472D01*
X129841Y195493D01*
X129718Y195519D01*
X129596Y195554D01*
X129535Y195559D01*
X129500Y195566D01*
X129452Y195565D01*
X129352Y195573D01*
X128923Y195573D01*
X128774Y195556D01*
X128624Y195544D01*
X128600Y195536D01*
X128576Y195533D01*
X128435Y195483D01*
X128292Y195437D01*
X128271Y195424D01*
X128248Y195416D01*
X128122Y195334D01*
X127993Y195257D01*
X127976Y195240D01*
X127956Y195227D01*
X127851Y195118D01*
X127743Y195014D01*
X127730Y194994D01*
X127713Y194976D01*
X127636Y194847D01*
X127555Y194721D01*
X127547Y194698D01*
X127535Y194677D01*
X127489Y194534D01*
X127438Y194392D01*
X127436Y194368D01*
X127428Y194345D01*
X127416Y194196D01*
X127399Y194046D01*
X127402Y194022D01*
X127400Y193998D01*
X127423Y193849D01*
X127440Y193700D01*
X127449Y193672D01*
X127452Y193653D01*
X127470Y193609D01*
X127515Y193467D01*
X128103Y192049D01*
X128103Y189351D01*
X127515Y187933D01*
X127474Y187788D01*
X127428Y187645D01*
X127426Y187621D01*
X127420Y187598D01*
X127412Y187447D01*
X127400Y187298D01*
X127404Y187274D01*
X127403Y187250D01*
X127430Y187102D01*
X127452Y186953D01*
X127461Y186931D01*
X127465Y186907D01*
X127525Y186769D01*
X127581Y186629D01*
X127595Y186609D01*
X127604Y186587D01*
X127694Y186466D01*
X127780Y186343D01*
X127798Y186327D01*
X127812Y186307D01*
X127927Y186210D01*
X128038Y186110D01*
X128060Y186098D01*
X128078Y186082D01*
X128212Y186014D01*
X128344Y185941D01*
X128367Y185935D01*
X128388Y185924D01*
X128534Y185887D01*
X128679Y185846D01*
X128708Y185844D01*
X128727Y185839D01*
X128774Y185839D01*
X128923Y185827D01*
X129352Y185827D01*
X129478Y185841D01*
X129604Y185848D01*
X129650Y185861D01*
X129698Y185867D01*
X129817Y185909D01*
X129939Y185944D01*
X129981Y185968D01*
X130026Y185984D01*
X130133Y186053D01*
X130243Y186114D01*
X130289Y186154D01*
X130319Y186173D01*
X130353Y186208D01*
X130429Y186273D01*
X131253Y187097D01*
X148471Y187097D01*
X150229Y185339D01*
X150229Y177265D01*
X148471Y175507D01*
X131253Y175507D01*
X130429Y176331D01*
X130330Y176410D01*
X130236Y176494D01*
X130194Y176518D01*
X130156Y176548D01*
X130042Y176602D01*
X129931Y176663D01*
X129885Y176676D01*
X129841Y176697D01*
X129718Y176723D01*
X129596Y176758D01*
X129535Y176763D01*
X129500Y176770D01*
X129452Y176769D01*
X129352Y176777D01*
X119446Y176777D01*
X116795Y179428D01*
X116795Y185002D01*
X116781Y185127D01*
X116774Y185253D01*
X116761Y185300D01*
X116755Y185348D01*
X116713Y185467D01*
X116678Y185588D01*
X116654Y185630D01*
X116638Y185676D01*
X116569Y185782D01*
X116508Y185892D01*
X116468Y185939D01*
X116449Y185969D01*
X116414Y186002D01*
X116349Y186079D01*
X115570Y186858D01*
X114431Y189607D01*
X114407Y189651D01*
X114390Y189698D01*
X114322Y189803D01*
X114262Y189911D01*
X114228Y189949D01*
X114201Y189991D01*
X114111Y190077D01*
X114028Y190170D01*
X113986Y190198D01*
X113950Y190233D01*
X113843Y190297D01*
X113741Y190368D01*
X113694Y190386D01*
X113651Y190412D01*
X113533Y190450D01*
X113417Y190496D01*
X113367Y190503D01*
X113319Y190518D01*
X113195Y190528D01*
X113072Y190546D01*
X113022Y190542D01*
X112972Y190546D01*
X112849Y190528D01*
X112725Y190517D01*
X112677Y190502D01*
X112627Y190494D01*
X112512Y190449D01*
X112393Y190410D01*
X112350Y190384D01*
X112303Y190366D01*
X112201Y190295D01*
X112095Y190231D01*
X112058Y190195D01*
X112017Y190167D01*
X111934Y190075D01*
X111845Y189988D01*
X111817Y189945D01*
X111784Y189908D01*
X111724Y189799D01*
X111656Y189695D01*
X111639Y189647D01*
X111615Y189603D01*
X111581Y189483D01*
X111540Y189366D01*
X111534Y189316D01*
X111520Y189268D01*
X111501Y189024D01*
X111501Y173457D01*
X110469Y172425D01*
X110406Y172346D01*
X110337Y172274D01*
X110298Y172210D01*
X110252Y172152D01*
X110209Y172061D01*
X110158Y171975D01*
X110135Y171904D01*
X110103Y171837D01*
X110082Y171739D01*
X110051Y171643D01*
X110045Y171569D01*
X110030Y171496D01*
X110032Y171396D01*
X110023Y171296D01*
X110035Y171222D01*
X110036Y171148D01*
X110060Y171051D01*
X110075Y170951D01*
X110103Y170882D01*
X110121Y170810D01*
X110167Y170721D01*
X110204Y170627D01*
X110246Y170566D01*
X110280Y170500D01*
X110346Y170424D01*
X110403Y170341D01*
X110458Y170291D01*
X110506Y170235D01*
X110587Y170175D01*
X110662Y170108D01*
X110727Y170072D01*
X110787Y170027D01*
X110879Y169988D01*
X110967Y169939D01*
X111038Y169919D01*
X111107Y169889D01*
X111205Y169872D01*
X111302Y169844D01*
X111402Y169836D01*
X111450Y169828D01*
X111485Y169830D01*
X111546Y169825D01*
X171152Y169825D01*
X171178Y169828D01*
X171204Y169826D01*
X171351Y169848D01*
X171498Y169865D01*
X171523Y169873D01*
X171549Y169877D01*
X171687Y169932D01*
X171826Y169982D01*
X171848Y169996D01*
X171873Y170006D01*
X171994Y170091D01*
X172119Y170171D01*
X172137Y170190D01*
X172159Y170205D01*
X172258Y170315D01*
X172361Y170422D01*
X172375Y170444D01*
X172392Y170464D01*
X172464Y170594D01*
X172540Y170721D01*
X172548Y170746D01*
X172561Y170769D01*
X172601Y170912D01*
X172646Y171053D01*
X172648Y171079D01*
X172656Y171104D01*
X172675Y171348D01*
X172675Y173984D01*
X172672Y174010D01*
X172674Y174036D01*
X172652Y174183D01*
X172635Y174330D01*
X172627Y174355D01*
X172623Y174381D01*
X172568Y174519D01*
X172518Y174658D01*
X172504Y174680D01*
X172494Y174705D01*
X172409Y174826D01*
X172329Y174951D01*
X172310Y174969D01*
X172295Y174991D01*
X172185Y175090D01*
X172078Y175193D01*
X172056Y175207D01*
X172036Y175224D01*
X171906Y175296D01*
X171779Y175372D01*
X171754Y175380D01*
X171731Y175393D01*
X171588Y175433D01*
X171447Y175478D01*
X171421Y175480D01*
X171396Y175488D01*
X171152Y175507D01*
X155129Y175507D01*
X153371Y177265D01*
X153371Y185339D01*
X153584Y185552D01*
X153678Y185670D01*
X153775Y185785D01*
X153786Y185806D01*
X153801Y185825D01*
X153865Y185961D01*
X153934Y186096D01*
X153939Y186119D01*
X153950Y186140D01*
X153981Y186287D01*
X154018Y186434D01*
X154018Y186458D01*
X154023Y186480D01*
X154020Y186631D01*
X154022Y186782D01*
X154017Y186810D01*
X154017Y186829D01*
X154006Y186874D01*
X153978Y187023D01*
X153831Y187571D01*
X153831Y189177D01*
X163738Y189177D01*
X173645Y189177D01*
X173645Y187432D01*
X173640Y187400D01*
X173644Y187349D01*
X173640Y187298D01*
X173658Y187176D01*
X173668Y187053D01*
X173684Y187004D01*
X173692Y186953D01*
X173737Y186838D01*
X173775Y186721D01*
X173802Y186677D01*
X173820Y186629D01*
X173891Y186528D01*
X173954Y186422D01*
X173990Y186385D01*
X174019Y186343D01*
X174111Y186260D01*
X174197Y186172D01*
X174240Y186144D01*
X174278Y186110D01*
X174386Y186050D01*
X174490Y185983D01*
X174538Y185966D01*
X174583Y185941D01*
X174702Y185908D01*
X174818Y185866D01*
X174869Y185860D01*
X174919Y185846D01*
X175162Y185827D01*
X175772Y185827D01*
X181725Y179874D01*
X181725Y167805D01*
X181739Y167680D01*
X181746Y167553D01*
X181759Y167507D01*
X181765Y167459D01*
X181807Y167340D01*
X181842Y167218D01*
X181866Y167176D01*
X181882Y167131D01*
X181951Y167025D01*
X182012Y166914D01*
X182052Y166868D01*
X182071Y166838D01*
X182106Y166804D01*
X182121Y166786D01*
X182131Y166772D01*
X182141Y166763D01*
X182171Y166728D01*
X255928Y92971D01*
X256027Y92892D01*
X256121Y92808D01*
X256163Y92784D01*
X256201Y92754D01*
X256315Y92700D01*
X256426Y92639D01*
X256473Y92626D01*
X256516Y92605D01*
X256640Y92579D01*
X256761Y92544D01*
X256822Y92539D01*
X256857Y92532D01*
X256905Y92533D01*
X257005Y92525D01*
X265259Y92525D01*
X265335Y92533D01*
X265411Y92532D01*
X265508Y92553D01*
X265605Y92565D01*
X265677Y92590D01*
X265752Y92607D01*
X265841Y92649D01*
X265933Y92682D01*
X265998Y92724D01*
X266067Y92756D01*
X266143Y92818D01*
X266226Y92871D01*
X266279Y92926D01*
X266339Y92974D01*
X266400Y93051D01*
X266468Y93122D01*
X266508Y93187D01*
X266555Y93247D01*
X266623Y93380D01*
X266647Y93421D01*
X266653Y93439D01*
X266666Y93465D01*
X266700Y93546D01*
X269454Y96300D01*
X273052Y97791D01*
X276948Y97791D01*
X280546Y96300D01*
X283300Y93546D01*
X284791Y89948D01*
X284791Y86052D01*
X283300Y82454D01*
X280546Y79700D01*
X279357Y79207D01*
X279269Y79158D01*
X279177Y79118D01*
X279117Y79074D01*
X279052Y79038D01*
X278978Y78970D01*
X278897Y78911D01*
X278849Y78854D01*
X278794Y78804D01*
X278737Y78721D01*
X278672Y78645D01*
X278638Y78578D01*
X278596Y78517D01*
X278559Y78424D01*
X278513Y78334D01*
X278495Y78262D01*
X278468Y78193D01*
X278454Y78094D01*
X278429Y77996D01*
X278428Y77922D01*
X278417Y77848D01*
X278426Y77748D01*
X278424Y77648D01*
X278440Y77575D01*
X278446Y77501D01*
X278477Y77405D01*
X278499Y77307D01*
X278531Y77240D01*
X278553Y77169D01*
X278605Y77083D01*
X278648Y76992D01*
X278695Y76934D01*
X278733Y76871D01*
X278803Y76799D01*
X278866Y76720D01*
X278924Y76674D01*
X278976Y76621D01*
X279060Y76566D01*
X279139Y76504D01*
X279229Y76458D01*
X279269Y76432D01*
X279303Y76420D01*
X279357Y76393D01*
X280546Y75900D01*
X283300Y73146D01*
X284791Y69548D01*
X284791Y65652D01*
X283300Y62054D01*
X280546Y59300D01*
X279357Y58807D01*
X279269Y58758D01*
X279177Y58718D01*
X279117Y58674D01*
X279052Y58638D01*
X278978Y58570D01*
X278897Y58511D01*
X278849Y58454D01*
X278794Y58404D01*
X278737Y58321D01*
X278672Y58245D01*
X278638Y58178D01*
X278596Y58117D01*
X278559Y58024D01*
X278513Y57934D01*
X278495Y57862D01*
X278468Y57793D01*
X278454Y57694D01*
X278429Y57596D01*
X278428Y57522D01*
X278417Y57448D01*
X278426Y57348D01*
X278424Y57248D01*
X278440Y57175D01*
X278446Y57101D01*
X278477Y57005D01*
X278499Y56907D01*
X278531Y56840D01*
X278553Y56769D01*
X278605Y56683D01*
X278648Y56592D01*
X278695Y56534D01*
X278733Y56471D01*
X278803Y56399D01*
X278866Y56320D01*
X278924Y56274D01*
X278976Y56221D01*
X279060Y56166D01*
X279139Y56104D01*
X279229Y56058D01*
X279269Y56032D01*
X279303Y56020D01*
X279357Y55993D01*
X280546Y55500D01*
X283300Y52746D01*
X284791Y49148D01*
X284791Y45252D01*
X283300Y41654D01*
X280546Y38900D01*
X278777Y38167D01*
X278747Y38150D01*
X278733Y38145D01*
X278730Y38144D01*
X278703Y38134D01*
X278590Y38063D01*
X278473Y37998D01*
X278443Y37971D01*
X278408Y37949D01*
X278314Y37854D01*
X278215Y37764D01*
X278192Y37730D01*
X278163Y37701D01*
X278093Y37587D01*
X278017Y37477D01*
X278002Y37439D01*
X277980Y37405D01*
X277938Y37278D01*
X277889Y37153D01*
X277883Y37113D01*
X277870Y37074D01*
X277857Y36941D01*
X277838Y36808D01*
X277841Y36768D01*
X277837Y36727D01*
X277856Y36594D01*
X277867Y36461D01*
X277879Y36422D01*
X277885Y36382D01*
X277933Y36257D01*
X277974Y36129D01*
X277995Y36094D01*
X278009Y36056D01*
X278084Y35945D01*
X278154Y35831D01*
X278182Y35801D01*
X278205Y35768D01*
X278303Y35677D01*
X278396Y35581D01*
X278431Y35559D01*
X278461Y35531D01*
X278669Y35403D01*
X279890Y34780D01*
X281079Y33917D01*
X282117Y32879D01*
X282980Y31690D01*
X283647Y30382D01*
X284101Y28985D01*
X284111Y28924D01*
X275601Y28924D01*
X275575Y28921D01*
X275549Y28923D01*
X275402Y28901D01*
X275255Y28884D01*
X275230Y28876D01*
X275204Y28872D01*
X275066Y28817D01*
X275006Y28795D01*
X275001Y28797D01*
X274978Y28810D01*
X274835Y28850D01*
X274694Y28895D01*
X274668Y28897D01*
X274643Y28905D01*
X274399Y28924D01*
X265219Y28924D01*
X265212Y28932D01*
X265108Y29009D01*
X265009Y29092D01*
X264968Y29112D01*
X264931Y29140D01*
X264813Y29191D01*
X264697Y29249D01*
X264653Y29260D01*
X264611Y29278D01*
X264484Y29300D01*
X264359Y29331D01*
X264313Y29331D01*
X264268Y29339D01*
X264139Y29333D01*
X264010Y29334D01*
X263966Y29324D01*
X263920Y29321D01*
X263796Y29286D01*
X263670Y29257D01*
X263629Y29237D01*
X263585Y29225D01*
X263473Y29162D01*
X263356Y29105D01*
X263321Y29077D01*
X263281Y29055D01*
X263095Y28896D01*
X248257Y14058D01*
X245160Y10961D01*
X68039Y10961D01*
G37*
%LPD*%
%LPC*%
G36*
X200726Y160775D02*
X200726Y160775D01*
X198075Y163426D01*
X198075Y170176D01*
X198072Y170202D01*
X198074Y170228D01*
X198052Y170375D01*
X198035Y170522D01*
X198027Y170547D01*
X198023Y170573D01*
X197968Y170711D01*
X197918Y170850D01*
X197904Y170872D01*
X197894Y170897D01*
X197809Y171018D01*
X197729Y171143D01*
X197710Y171161D01*
X197695Y171183D01*
X197585Y171282D01*
X197478Y171385D01*
X197456Y171399D01*
X197436Y171416D01*
X197306Y171488D01*
X197179Y171564D01*
X197154Y171572D01*
X197131Y171585D01*
X196988Y171625D01*
X196847Y171670D01*
X196821Y171672D01*
X196796Y171680D01*
X196552Y171699D01*
X193857Y171699D01*
X192099Y173457D01*
X192099Y188943D01*
X192779Y189623D01*
X192796Y189643D01*
X192816Y189660D01*
X192903Y189779D01*
X192996Y189896D01*
X193007Y189920D01*
X193023Y189941D01*
X193081Y190077D01*
X193145Y190211D01*
X193150Y190237D01*
X193161Y190261D01*
X193187Y190407D01*
X193218Y190552D01*
X193218Y190578D01*
X193222Y190604D01*
X193215Y190752D01*
X193212Y190900D01*
X193206Y190926D01*
X193204Y190952D01*
X193163Y191094D01*
X193127Y191238D01*
X193115Y191261D01*
X193108Y191287D01*
X193035Y191416D01*
X192968Y191548D01*
X192951Y191568D01*
X192938Y191591D01*
X192779Y191777D01*
X192099Y192457D01*
X192099Y207943D01*
X193131Y208975D01*
X193194Y209054D01*
X193263Y209126D01*
X193302Y209190D01*
X193348Y209248D01*
X193391Y209339D01*
X193442Y209425D01*
X193465Y209496D01*
X193497Y209563D01*
X193518Y209661D01*
X193549Y209757D01*
X193555Y209831D01*
X193570Y209904D01*
X193568Y210004D01*
X193577Y210104D01*
X193565Y210178D01*
X193564Y210252D01*
X193540Y210349D01*
X193525Y210449D01*
X193497Y210518D01*
X193479Y210590D01*
X193433Y210679D01*
X193396Y210773D01*
X193354Y210834D01*
X193320Y210900D01*
X193254Y210976D01*
X193197Y211059D01*
X193142Y211109D01*
X193094Y211165D01*
X193013Y211225D01*
X192938Y211292D01*
X192873Y211328D01*
X192813Y211373D01*
X192721Y211412D01*
X192633Y211461D01*
X192562Y211481D01*
X192493Y211511D01*
X192395Y211528D01*
X192298Y211556D01*
X192198Y211564D01*
X192150Y211572D01*
X192115Y211570D01*
X192054Y211575D01*
X183248Y211575D01*
X183222Y211572D01*
X183196Y211574D01*
X183049Y211552D01*
X182902Y211535D01*
X182877Y211527D01*
X182851Y211523D01*
X182713Y211468D01*
X182574Y211418D01*
X182552Y211404D01*
X182527Y211394D01*
X182406Y211309D01*
X182281Y211229D01*
X182263Y211210D01*
X182241Y211195D01*
X182142Y211085D01*
X182039Y210978D01*
X182025Y210956D01*
X182008Y210936D01*
X181936Y210806D01*
X181860Y210679D01*
X181852Y210654D01*
X181839Y210631D01*
X181799Y210488D01*
X181754Y210347D01*
X181752Y210321D01*
X181744Y210296D01*
X181725Y210052D01*
X181725Y201526D01*
X175772Y195573D01*
X175162Y195573D01*
X175111Y195567D01*
X175060Y195570D01*
X174939Y195548D01*
X174816Y195533D01*
X174768Y195516D01*
X174718Y195507D01*
X174604Y195458D01*
X174488Y195416D01*
X174445Y195388D01*
X174398Y195368D01*
X174299Y195294D01*
X174195Y195227D01*
X174160Y195190D01*
X174119Y195159D01*
X174039Y195065D01*
X173953Y194976D01*
X173927Y194932D01*
X173894Y194893D01*
X173838Y194783D01*
X173774Y194677D01*
X173759Y194628D01*
X173735Y194583D01*
X173706Y194463D01*
X173668Y194345D01*
X173664Y194294D01*
X173652Y194244D01*
X173650Y194121D01*
X173640Y193998D01*
X173645Y193966D01*
X173645Y192223D01*
X163738Y192223D01*
X153831Y192223D01*
X153831Y193829D01*
X153978Y194377D01*
X154000Y194526D01*
X154027Y194675D01*
X154026Y194699D01*
X154029Y194722D01*
X154017Y194872D01*
X154009Y195023D01*
X154003Y195046D01*
X154001Y195069D01*
X153954Y195213D01*
X153913Y195358D01*
X153901Y195378D01*
X153894Y195401D01*
X153816Y195531D01*
X153742Y195662D01*
X153724Y195684D01*
X153715Y195700D01*
X153682Y195733D01*
X153584Y195848D01*
X153371Y196061D01*
X153371Y204135D01*
X155129Y205893D01*
X171152Y205893D01*
X171178Y205896D01*
X171204Y205894D01*
X171351Y205916D01*
X171498Y205933D01*
X171523Y205941D01*
X171549Y205945D01*
X171687Y206000D01*
X171826Y206050D01*
X171848Y206064D01*
X171873Y206074D01*
X171994Y206159D01*
X172119Y206239D01*
X172137Y206258D01*
X172159Y206273D01*
X172258Y206383D01*
X172361Y206490D01*
X172375Y206512D01*
X172392Y206532D01*
X172464Y206662D01*
X172540Y206789D01*
X172548Y206814D01*
X172561Y206837D01*
X172601Y206980D01*
X172646Y207121D01*
X172648Y207147D01*
X172656Y207172D01*
X172675Y207416D01*
X172675Y217974D01*
X175326Y220625D01*
X194152Y220625D01*
X194178Y220628D01*
X194204Y220626D01*
X194351Y220648D01*
X194498Y220665D01*
X194523Y220673D01*
X194549Y220677D01*
X194687Y220732D01*
X194826Y220782D01*
X194848Y220796D01*
X194873Y220806D01*
X194994Y220891D01*
X195119Y220971D01*
X195137Y220990D01*
X195159Y221005D01*
X195258Y221115D01*
X195361Y221222D01*
X195375Y221244D01*
X195392Y221264D01*
X195464Y221394D01*
X195540Y221521D01*
X195548Y221546D01*
X195561Y221569D01*
X195601Y221712D01*
X195646Y221853D01*
X195648Y221879D01*
X195656Y221904D01*
X195675Y222148D01*
X195675Y257635D01*
X195667Y257711D01*
X195668Y257788D01*
X195647Y257884D01*
X195635Y257981D01*
X195610Y258054D01*
X195593Y258128D01*
X195551Y258217D01*
X195518Y258310D01*
X195476Y258374D01*
X195443Y258443D01*
X195382Y258520D01*
X195329Y258602D01*
X195274Y258655D01*
X195226Y258715D01*
X195149Y258776D01*
X195078Y258845D01*
X195013Y258884D01*
X194952Y258931D01*
X194937Y258939D01*
X192273Y261603D01*
X190849Y265040D01*
X190849Y268760D01*
X192273Y272197D01*
X194903Y274827D01*
X198340Y276251D01*
X202060Y276251D01*
X205497Y274827D01*
X208127Y272197D01*
X209551Y268760D01*
X209551Y265040D01*
X208127Y261603D01*
X205443Y258919D01*
X205361Y258873D01*
X205304Y258822D01*
X205241Y258778D01*
X205175Y258705D01*
X205102Y258639D01*
X205059Y258576D01*
X205008Y258519D01*
X204960Y258434D01*
X204904Y258353D01*
X204876Y258281D01*
X204839Y258214D01*
X204812Y258120D01*
X204776Y258028D01*
X204765Y257953D01*
X204744Y257879D01*
X204732Y257730D01*
X204726Y257684D01*
X204727Y257665D01*
X204725Y257635D01*
X204725Y222148D01*
X204728Y222122D01*
X204726Y222096D01*
X204748Y221949D01*
X204765Y221802D01*
X204773Y221777D01*
X204777Y221751D01*
X204832Y221613D01*
X204882Y221474D01*
X204896Y221452D01*
X204906Y221427D01*
X204991Y221306D01*
X205071Y221181D01*
X205090Y221163D01*
X205105Y221141D01*
X205215Y221042D01*
X205322Y220939D01*
X205344Y220925D01*
X205364Y220908D01*
X205494Y220836D01*
X205621Y220760D01*
X205646Y220752D01*
X205669Y220739D01*
X205812Y220699D01*
X205953Y220654D01*
X205979Y220652D01*
X206004Y220644D01*
X206248Y220625D01*
X229874Y220625D01*
X232525Y217974D01*
X232525Y211224D01*
X232528Y211198D01*
X232526Y211172D01*
X232548Y211025D01*
X232565Y210878D01*
X232573Y210853D01*
X232577Y210827D01*
X232632Y210689D01*
X232682Y210550D01*
X232696Y210528D01*
X232706Y210503D01*
X232791Y210382D01*
X232871Y210257D01*
X232890Y210239D01*
X232905Y210217D01*
X233015Y210118D01*
X233122Y210015D01*
X233144Y210001D01*
X233164Y209984D01*
X233294Y209912D01*
X233421Y209836D01*
X233446Y209828D01*
X233469Y209815D01*
X233612Y209775D01*
X233753Y209730D01*
X233779Y209728D01*
X233804Y209720D01*
X234048Y209701D01*
X236743Y209701D01*
X238501Y207943D01*
X238501Y192457D01*
X237821Y191777D01*
X237804Y191757D01*
X237784Y191740D01*
X237696Y191620D01*
X237604Y191504D01*
X237593Y191480D01*
X237577Y191459D01*
X237519Y191323D01*
X237455Y191189D01*
X237450Y191163D01*
X237439Y191139D01*
X237413Y190993D01*
X237382Y190848D01*
X237382Y190822D01*
X237378Y190796D01*
X237385Y190647D01*
X237388Y190500D01*
X237394Y190474D01*
X237396Y190448D01*
X237437Y190306D01*
X237473Y190162D01*
X237485Y190138D01*
X237492Y190113D01*
X237564Y189984D01*
X237632Y189852D01*
X237649Y189832D01*
X237662Y189809D01*
X237821Y189623D01*
X238501Y188943D01*
X238501Y173457D01*
X237469Y172425D01*
X237406Y172346D01*
X237337Y172274D01*
X237298Y172210D01*
X237252Y172152D01*
X237209Y172061D01*
X237158Y171975D01*
X237135Y171904D01*
X237103Y171837D01*
X237082Y171739D01*
X237051Y171643D01*
X237045Y171569D01*
X237030Y171496D01*
X237032Y171396D01*
X237023Y171296D01*
X237035Y171222D01*
X237036Y171148D01*
X237060Y171051D01*
X237075Y170951D01*
X237103Y170882D01*
X237121Y170810D01*
X237167Y170721D01*
X237204Y170627D01*
X237246Y170566D01*
X237280Y170500D01*
X237346Y170424D01*
X237403Y170341D01*
X237458Y170291D01*
X237506Y170235D01*
X237587Y170175D01*
X237662Y170108D01*
X237727Y170072D01*
X237787Y170027D01*
X237879Y169988D01*
X237967Y169939D01*
X238038Y169919D01*
X238107Y169889D01*
X238205Y169872D01*
X238302Y169844D01*
X238402Y169836D01*
X238450Y169828D01*
X238485Y169830D01*
X238546Y169825D01*
X242854Y169825D01*
X242954Y169836D01*
X243054Y169838D01*
X243127Y169856D01*
X243200Y169865D01*
X243295Y169898D01*
X243392Y169923D01*
X243458Y169957D01*
X243528Y169982D01*
X243613Y170037D01*
X243702Y170083D01*
X243759Y170131D01*
X243821Y170171D01*
X243891Y170243D01*
X243968Y170308D01*
X244012Y170368D01*
X244063Y170422D01*
X244115Y170508D01*
X244175Y170589D01*
X244204Y170657D01*
X244242Y170721D01*
X244273Y170817D01*
X244313Y170909D01*
X244326Y170982D01*
X244349Y171053D01*
X244357Y171153D01*
X244374Y171252D01*
X244371Y171326D01*
X244377Y171400D01*
X244362Y171500D01*
X244356Y171600D01*
X244336Y171671D01*
X244325Y171745D01*
X244288Y171838D01*
X244260Y171935D01*
X244224Y172000D01*
X244196Y172069D01*
X244139Y172151D01*
X244090Y172239D01*
X244025Y172315D01*
X243997Y172355D01*
X243971Y172379D01*
X243931Y172425D01*
X242899Y173457D01*
X242899Y188943D01*
X243579Y189623D01*
X243596Y189643D01*
X243616Y189660D01*
X243703Y189779D01*
X243796Y189896D01*
X243807Y189920D01*
X243823Y189941D01*
X243881Y190077D01*
X243945Y190211D01*
X243950Y190237D01*
X243961Y190261D01*
X243987Y190407D01*
X244018Y190552D01*
X244018Y190578D01*
X244022Y190604D01*
X244015Y190752D01*
X244012Y190900D01*
X244006Y190926D01*
X244004Y190952D01*
X243963Y191094D01*
X243927Y191238D01*
X243915Y191261D01*
X243908Y191287D01*
X243835Y191416D01*
X243768Y191548D01*
X243751Y191568D01*
X243738Y191591D01*
X243579Y191777D01*
X242899Y192457D01*
X242899Y207943D01*
X244657Y209701D01*
X246530Y209701D01*
X246629Y209712D01*
X246730Y209714D01*
X246802Y209732D01*
X246876Y209741D01*
X246970Y209774D01*
X247068Y209799D01*
X247134Y209833D01*
X247204Y209858D01*
X247288Y209913D01*
X247378Y209959D01*
X247434Y210007D01*
X247497Y210047D01*
X247567Y210119D01*
X247643Y210185D01*
X247687Y210244D01*
X247739Y210298D01*
X247791Y210384D01*
X247850Y210465D01*
X247880Y210533D01*
X247918Y210597D01*
X247948Y210692D01*
X247988Y210785D01*
X248001Y210858D01*
X248024Y210929D01*
X248032Y211029D01*
X248050Y211128D01*
X248046Y211202D01*
X248052Y211276D01*
X248037Y211375D01*
X248032Y211476D01*
X248011Y211547D01*
X248000Y211621D01*
X247963Y211714D01*
X247935Y211811D01*
X247899Y211876D01*
X247872Y211945D01*
X247814Y212027D01*
X247765Y212115D01*
X247700Y212191D01*
X247673Y212231D01*
X247654Y212247D01*
X246617Y214751D01*
X246617Y217449D01*
X247650Y219942D01*
X248429Y220721D01*
X248508Y220820D01*
X248592Y220914D01*
X248616Y220957D01*
X248646Y220994D01*
X248700Y221109D01*
X248761Y221219D01*
X248774Y221266D01*
X248795Y221309D01*
X248821Y221433D01*
X248856Y221555D01*
X248861Y221615D01*
X248868Y221650D01*
X248867Y221698D01*
X248875Y221798D01*
X248875Y230350D01*
X248861Y230476D01*
X248854Y230602D01*
X248841Y230648D01*
X248835Y230696D01*
X248793Y230815D01*
X248758Y230937D01*
X248734Y230979D01*
X248718Y231024D01*
X248649Y231131D01*
X248588Y231241D01*
X248548Y231287D01*
X248529Y231317D01*
X248494Y231351D01*
X248429Y231427D01*
X247299Y232557D01*
X247299Y250043D01*
X249057Y251801D01*
X264543Y251801D01*
X265548Y250795D01*
X265569Y250779D01*
X265586Y250759D01*
X265705Y250671D01*
X265821Y250579D01*
X265845Y250568D01*
X265866Y250552D01*
X266002Y250493D01*
X266136Y250430D01*
X266162Y250424D01*
X266186Y250414D01*
X266332Y250388D01*
X266477Y250357D01*
X266503Y250357D01*
X266529Y250352D01*
X266678Y250360D01*
X266825Y250363D01*
X266851Y250369D01*
X266877Y250370D01*
X267020Y250411D01*
X267163Y250448D01*
X267187Y250460D01*
X267212Y250467D01*
X267342Y250539D01*
X267473Y250607D01*
X267493Y250624D01*
X267516Y250637D01*
X267702Y250796D01*
X267740Y250833D01*
X268319Y251168D01*
X268965Y251341D01*
X272753Y251341D01*
X272753Y242824D01*
X272756Y242798D01*
X272754Y242772D01*
X272776Y242625D01*
X272793Y242478D01*
X272801Y242453D01*
X272805Y242427D01*
X272860Y242289D01*
X272910Y242150D01*
X272924Y242128D01*
X272934Y242103D01*
X273019Y241982D01*
X273099Y241857D01*
X273118Y241839D01*
X273133Y241817D01*
X273243Y241718D01*
X273350Y241615D01*
X273372Y241601D01*
X273392Y241584D01*
X273522Y241512D01*
X273649Y241436D01*
X273674Y241428D01*
X273697Y241415D01*
X273840Y241375D01*
X273981Y241330D01*
X274007Y241328D01*
X274032Y241320D01*
X274276Y241301D01*
X275801Y241301D01*
X275801Y241299D01*
X274276Y241299D01*
X274250Y241296D01*
X274224Y241298D01*
X274077Y241276D01*
X273930Y241259D01*
X273905Y241250D01*
X273879Y241247D01*
X273741Y241192D01*
X273602Y241142D01*
X273580Y241128D01*
X273555Y241118D01*
X273434Y241033D01*
X273309Y240953D01*
X273291Y240934D01*
X273269Y240919D01*
X273170Y240809D01*
X273067Y240702D01*
X273053Y240680D01*
X273036Y240660D01*
X272964Y240530D01*
X272888Y240403D01*
X272880Y240378D01*
X272867Y240355D01*
X272827Y240212D01*
X272782Y240071D01*
X272780Y240045D01*
X272772Y240020D01*
X272753Y239776D01*
X272753Y231259D01*
X268965Y231259D01*
X268319Y231432D01*
X267740Y231767D01*
X267702Y231804D01*
X267682Y231821D01*
X267665Y231841D01*
X267545Y231929D01*
X267429Y232021D01*
X267406Y232032D01*
X267385Y232048D01*
X267249Y232107D01*
X267114Y232170D01*
X267089Y232176D01*
X267065Y232186D01*
X266919Y232212D01*
X266774Y232243D01*
X266747Y232243D01*
X266722Y232248D01*
X266573Y232240D01*
X266425Y232237D01*
X266400Y232231D01*
X266373Y232230D01*
X266231Y232189D01*
X266087Y232152D01*
X266064Y232140D01*
X266039Y232133D01*
X265909Y232061D01*
X265777Y231993D01*
X265757Y231976D01*
X265734Y231963D01*
X265548Y231805D01*
X264543Y230799D01*
X259448Y230799D01*
X259422Y230796D01*
X259396Y230798D01*
X259249Y230776D01*
X259102Y230759D01*
X259077Y230751D01*
X259051Y230747D01*
X258913Y230692D01*
X258774Y230642D01*
X258752Y230628D01*
X258727Y230618D01*
X258606Y230533D01*
X258481Y230453D01*
X258463Y230434D01*
X258441Y230419D01*
X258342Y230309D01*
X258239Y230202D01*
X258225Y230180D01*
X258208Y230160D01*
X258136Y230030D01*
X258060Y229903D01*
X258052Y229878D01*
X258039Y229855D01*
X257999Y229712D01*
X257954Y229571D01*
X257952Y229545D01*
X257944Y229520D01*
X257925Y229276D01*
X257925Y221798D01*
X257939Y221673D01*
X257946Y221547D01*
X257959Y221500D01*
X257965Y221452D01*
X258007Y221333D01*
X258042Y221212D01*
X258066Y221170D01*
X258082Y221124D01*
X258151Y221018D01*
X258212Y220908D01*
X258252Y220861D01*
X258271Y220831D01*
X258306Y220798D01*
X258371Y220721D01*
X259150Y219942D01*
X260183Y217449D01*
X260183Y214751D01*
X259140Y212234D01*
X259131Y212223D01*
X259061Y212150D01*
X259023Y212086D01*
X258977Y212028D01*
X258934Y211937D01*
X258882Y211851D01*
X258860Y211780D01*
X258828Y211713D01*
X258807Y211615D01*
X258776Y211519D01*
X258770Y211445D01*
X258754Y211372D01*
X258756Y211272D01*
X258748Y211172D01*
X258759Y211098D01*
X258760Y211024D01*
X258785Y210927D01*
X258800Y210827D01*
X258827Y210758D01*
X258845Y210686D01*
X258891Y210597D01*
X258928Y210503D01*
X258971Y210442D01*
X259005Y210376D01*
X259070Y210299D01*
X259127Y210217D01*
X259183Y210167D01*
X259231Y210111D01*
X259312Y210051D01*
X259386Y209984D01*
X259451Y209948D01*
X259511Y209904D01*
X259603Y209864D01*
X259691Y209815D01*
X259763Y209795D01*
X259831Y209765D01*
X259930Y209748D01*
X260027Y209720D01*
X260127Y209712D01*
X260174Y209704D01*
X260210Y209706D01*
X260270Y209701D01*
X262143Y209701D01*
X263901Y207943D01*
X263901Y192457D01*
X263221Y191777D01*
X263204Y191757D01*
X263184Y191740D01*
X263096Y191620D01*
X263004Y191504D01*
X262993Y191480D01*
X262977Y191459D01*
X262919Y191323D01*
X262855Y191189D01*
X262850Y191163D01*
X262839Y191139D01*
X262813Y190993D01*
X262782Y190848D01*
X262782Y190822D01*
X262778Y190796D01*
X262785Y190647D01*
X262788Y190500D01*
X262794Y190474D01*
X262796Y190448D01*
X262837Y190306D01*
X262873Y190162D01*
X262885Y190138D01*
X262892Y190113D01*
X262964Y189984D01*
X263032Y189852D01*
X263049Y189832D01*
X263062Y189809D01*
X263221Y189623D01*
X263901Y188943D01*
X263901Y173457D01*
X262869Y172425D01*
X262806Y172346D01*
X262737Y172274D01*
X262698Y172210D01*
X262652Y172152D01*
X262609Y172061D01*
X262558Y171975D01*
X262535Y171904D01*
X262503Y171837D01*
X262482Y171739D01*
X262451Y171643D01*
X262445Y171569D01*
X262430Y171496D01*
X262432Y171396D01*
X262423Y171296D01*
X262435Y171222D01*
X262436Y171148D01*
X262460Y171051D01*
X262475Y170951D01*
X262503Y170882D01*
X262521Y170810D01*
X262567Y170721D01*
X262604Y170627D01*
X262646Y170566D01*
X262680Y170500D01*
X262746Y170424D01*
X262803Y170341D01*
X262858Y170291D01*
X262906Y170235D01*
X262987Y170175D01*
X263062Y170108D01*
X263127Y170072D01*
X263187Y170027D01*
X263279Y169988D01*
X263367Y169939D01*
X263438Y169919D01*
X263507Y169889D01*
X263605Y169872D01*
X263702Y169844D01*
X263802Y169836D01*
X263850Y169828D01*
X263885Y169830D01*
X263946Y169825D01*
X268254Y169825D01*
X268354Y169836D01*
X268454Y169838D01*
X268527Y169856D01*
X268600Y169865D01*
X268695Y169898D01*
X268792Y169923D01*
X268858Y169957D01*
X268928Y169982D01*
X269013Y170037D01*
X269102Y170083D01*
X269159Y170131D01*
X269221Y170171D01*
X269291Y170243D01*
X269368Y170308D01*
X269412Y170368D01*
X269463Y170422D01*
X269515Y170508D01*
X269575Y170589D01*
X269604Y170657D01*
X269642Y170721D01*
X269673Y170817D01*
X269713Y170909D01*
X269726Y170982D01*
X269749Y171053D01*
X269757Y171153D01*
X269774Y171252D01*
X269771Y171326D01*
X269777Y171400D01*
X269762Y171500D01*
X269756Y171600D01*
X269736Y171671D01*
X269725Y171745D01*
X269688Y171838D01*
X269660Y171935D01*
X269624Y172000D01*
X269596Y172069D01*
X269539Y172151D01*
X269490Y172239D01*
X269425Y172315D01*
X269397Y172355D01*
X269371Y172379D01*
X269331Y172425D01*
X268299Y173457D01*
X268299Y188943D01*
X269305Y189948D01*
X269321Y189969D01*
X269341Y189986D01*
X269429Y190105D01*
X269521Y190221D01*
X269532Y190245D01*
X269548Y190266D01*
X269607Y190402D01*
X269670Y190536D01*
X269676Y190562D01*
X269686Y190586D01*
X269712Y190732D01*
X269743Y190877D01*
X269743Y190903D01*
X269748Y190929D01*
X269740Y191078D01*
X269737Y191225D01*
X269731Y191251D01*
X269730Y191277D01*
X269689Y191420D01*
X269652Y191563D01*
X269640Y191587D01*
X269633Y191612D01*
X269561Y191742D01*
X269493Y191873D01*
X269476Y191893D01*
X269463Y191916D01*
X269304Y192102D01*
X269267Y192140D01*
X268932Y192719D01*
X268759Y193365D01*
X268759Y197153D01*
X277276Y197153D01*
X277302Y197156D01*
X277328Y197154D01*
X277475Y197176D01*
X277622Y197193D01*
X277647Y197201D01*
X277673Y197205D01*
X277811Y197260D01*
X277950Y197310D01*
X277972Y197324D01*
X277997Y197334D01*
X278118Y197419D01*
X278243Y197499D01*
X278261Y197518D01*
X278283Y197533D01*
X278382Y197643D01*
X278485Y197750D01*
X278499Y197772D01*
X278516Y197792D01*
X278588Y197922D01*
X278664Y198049D01*
X278672Y198074D01*
X278685Y198097D01*
X278725Y198240D01*
X278770Y198381D01*
X278772Y198407D01*
X278780Y198432D01*
X278799Y198676D01*
X278799Y200201D01*
X278801Y200201D01*
X278801Y198676D01*
X278804Y198650D01*
X278802Y198624D01*
X278824Y198477D01*
X278841Y198330D01*
X278850Y198305D01*
X278853Y198279D01*
X278908Y198141D01*
X278958Y198002D01*
X278972Y197980D01*
X278982Y197955D01*
X279067Y197834D01*
X279147Y197709D01*
X279166Y197691D01*
X279181Y197669D01*
X279291Y197570D01*
X279398Y197467D01*
X279420Y197453D01*
X279440Y197436D01*
X279570Y197364D01*
X279697Y197288D01*
X279722Y197280D01*
X279745Y197267D01*
X279888Y197227D01*
X280029Y197182D01*
X280055Y197180D01*
X280080Y197172D01*
X280324Y197153D01*
X288841Y197153D01*
X288841Y193365D01*
X288668Y192719D01*
X288333Y192140D01*
X288296Y192102D01*
X288279Y192082D01*
X288259Y192065D01*
X288171Y191945D01*
X288079Y191829D01*
X288068Y191806D01*
X288052Y191785D01*
X287993Y191649D01*
X287930Y191514D01*
X287924Y191489D01*
X287914Y191465D01*
X287888Y191319D01*
X287857Y191174D01*
X287857Y191147D01*
X287852Y191122D01*
X287860Y190973D01*
X287863Y190825D01*
X287869Y190800D01*
X287870Y190773D01*
X287911Y190631D01*
X287948Y190487D01*
X287960Y190464D01*
X287967Y190439D01*
X288039Y190309D01*
X288107Y190177D01*
X288124Y190157D01*
X288137Y190134D01*
X288295Y189948D01*
X289301Y188943D01*
X289301Y173457D01*
X288269Y172425D01*
X288206Y172346D01*
X288137Y172274D01*
X288098Y172210D01*
X288052Y172152D01*
X288009Y172061D01*
X287958Y171975D01*
X287935Y171904D01*
X287903Y171837D01*
X287882Y171739D01*
X287851Y171643D01*
X287845Y171569D01*
X287830Y171496D01*
X287832Y171396D01*
X287823Y171296D01*
X287835Y171222D01*
X287836Y171148D01*
X287860Y171051D01*
X287875Y170951D01*
X287903Y170882D01*
X287921Y170810D01*
X287967Y170721D01*
X288004Y170627D01*
X288046Y170566D01*
X288080Y170500D01*
X288146Y170424D01*
X288203Y170341D01*
X288258Y170291D01*
X288306Y170235D01*
X288387Y170175D01*
X288462Y170108D01*
X288527Y170072D01*
X288587Y170027D01*
X288679Y169988D01*
X288767Y169939D01*
X288838Y169919D01*
X288907Y169889D01*
X289005Y169872D01*
X289102Y169844D01*
X289202Y169836D01*
X289250Y169828D01*
X289285Y169830D01*
X289346Y169825D01*
X293654Y169825D01*
X293754Y169836D01*
X293854Y169838D01*
X293927Y169856D01*
X294000Y169865D01*
X294095Y169898D01*
X294192Y169923D01*
X294258Y169957D01*
X294328Y169982D01*
X294413Y170037D01*
X294502Y170083D01*
X294559Y170131D01*
X294621Y170171D01*
X294691Y170243D01*
X294768Y170308D01*
X294812Y170368D01*
X294863Y170422D01*
X294915Y170508D01*
X294975Y170589D01*
X295004Y170657D01*
X295042Y170721D01*
X295073Y170817D01*
X295113Y170909D01*
X295126Y170982D01*
X295149Y171053D01*
X295157Y171153D01*
X295174Y171252D01*
X295171Y171326D01*
X295177Y171400D01*
X295162Y171500D01*
X295156Y171600D01*
X295136Y171671D01*
X295125Y171745D01*
X295088Y171838D01*
X295060Y171935D01*
X295024Y172000D01*
X294996Y172069D01*
X294939Y172151D01*
X294890Y172239D01*
X294825Y172315D01*
X294797Y172355D01*
X294771Y172379D01*
X294731Y172425D01*
X293699Y173457D01*
X293699Y188943D01*
X294705Y189948D01*
X294721Y189969D01*
X294741Y189986D01*
X294829Y190105D01*
X294921Y190221D01*
X294932Y190245D01*
X294948Y190266D01*
X295007Y190402D01*
X295070Y190536D01*
X295076Y190562D01*
X295086Y190586D01*
X295112Y190732D01*
X295143Y190877D01*
X295143Y190903D01*
X295148Y190929D01*
X295140Y191078D01*
X295137Y191225D01*
X295131Y191251D01*
X295130Y191277D01*
X295089Y191420D01*
X295052Y191563D01*
X295040Y191587D01*
X295033Y191612D01*
X294961Y191742D01*
X294893Y191873D01*
X294876Y191893D01*
X294863Y191916D01*
X294704Y192102D01*
X294667Y192140D01*
X294332Y192719D01*
X294159Y193365D01*
X294159Y197153D01*
X302676Y197153D01*
X302702Y197156D01*
X302728Y197154D01*
X302875Y197176D01*
X303022Y197193D01*
X303047Y197201D01*
X303073Y197205D01*
X303211Y197260D01*
X303350Y197310D01*
X303372Y197324D01*
X303397Y197334D01*
X303518Y197419D01*
X303643Y197499D01*
X303661Y197518D01*
X303683Y197533D01*
X303782Y197643D01*
X303885Y197750D01*
X303899Y197772D01*
X303916Y197792D01*
X303988Y197922D01*
X304064Y198049D01*
X304072Y198074D01*
X304085Y198097D01*
X304125Y198240D01*
X304170Y198381D01*
X304172Y198407D01*
X304180Y198432D01*
X304199Y198676D01*
X304199Y200201D01*
X304201Y200201D01*
X304201Y198676D01*
X304204Y198650D01*
X304202Y198624D01*
X304224Y198477D01*
X304241Y198330D01*
X304250Y198305D01*
X304253Y198279D01*
X304308Y198141D01*
X304358Y198002D01*
X304372Y197980D01*
X304382Y197955D01*
X304467Y197834D01*
X304547Y197709D01*
X304566Y197691D01*
X304581Y197669D01*
X304691Y197570D01*
X304798Y197467D01*
X304820Y197453D01*
X304840Y197436D01*
X304970Y197364D01*
X305097Y197288D01*
X305122Y197280D01*
X305145Y197267D01*
X305288Y197227D01*
X305429Y197182D01*
X305455Y197180D01*
X305480Y197172D01*
X305724Y197153D01*
X314241Y197153D01*
X314241Y193365D01*
X314068Y192719D01*
X313733Y192140D01*
X313696Y192102D01*
X313679Y192082D01*
X313659Y192065D01*
X313571Y191945D01*
X313479Y191829D01*
X313468Y191806D01*
X313452Y191785D01*
X313393Y191649D01*
X313330Y191514D01*
X313324Y191489D01*
X313314Y191465D01*
X313288Y191319D01*
X313257Y191174D01*
X313257Y191147D01*
X313252Y191122D01*
X313260Y190973D01*
X313263Y190825D01*
X313269Y190800D01*
X313270Y190773D01*
X313311Y190631D01*
X313348Y190487D01*
X313360Y190464D01*
X313367Y190439D01*
X313439Y190309D01*
X313507Y190177D01*
X313524Y190157D01*
X313537Y190134D01*
X313695Y189948D01*
X314701Y188943D01*
X314701Y173457D01*
X312943Y171699D01*
X310248Y171699D01*
X310222Y171696D01*
X310196Y171698D01*
X310049Y171676D01*
X309902Y171659D01*
X309877Y171651D01*
X309851Y171647D01*
X309713Y171592D01*
X309574Y171542D01*
X309552Y171528D01*
X309527Y171518D01*
X309406Y171433D01*
X309281Y171353D01*
X309263Y171334D01*
X309241Y171319D01*
X309142Y171209D01*
X309039Y171102D01*
X309025Y171080D01*
X309008Y171060D01*
X308936Y170930D01*
X308860Y170803D01*
X308852Y170778D01*
X308839Y170755D01*
X308799Y170612D01*
X308754Y170471D01*
X308752Y170445D01*
X308744Y170420D01*
X308725Y170176D01*
X308725Y163426D01*
X306074Y160775D01*
X200726Y160775D01*
G37*
%LPD*%
%LPC*%
G36*
X298452Y27209D02*
X298452Y27209D01*
X294854Y28700D01*
X292100Y31454D01*
X290609Y35052D01*
X290609Y38948D01*
X292100Y42546D01*
X294854Y45300D01*
X296043Y45793D01*
X296131Y45841D01*
X296223Y45881D01*
X296283Y45926D01*
X296348Y45962D01*
X296422Y46029D01*
X296503Y46089D01*
X296551Y46146D01*
X296606Y46196D01*
X296663Y46279D01*
X296728Y46355D01*
X296762Y46422D01*
X296804Y46483D01*
X296841Y46576D01*
X296887Y46666D01*
X296904Y46738D01*
X296932Y46807D01*
X296946Y46906D01*
X296971Y47004D01*
X296972Y47078D01*
X296983Y47152D01*
X296974Y47252D01*
X296976Y47352D01*
X296960Y47425D01*
X296954Y47499D01*
X296923Y47595D01*
X296901Y47693D01*
X296869Y47760D01*
X296847Y47831D01*
X296795Y47917D01*
X296752Y48008D01*
X296705Y48066D01*
X296667Y48129D01*
X296597Y48201D01*
X296534Y48280D01*
X296476Y48326D01*
X296424Y48379D01*
X296340Y48434D01*
X296261Y48496D01*
X296171Y48542D01*
X296131Y48568D01*
X296097Y48580D01*
X296043Y48607D01*
X294854Y49100D01*
X292100Y51854D01*
X290609Y55452D01*
X290609Y59348D01*
X292100Y62946D01*
X294854Y65700D01*
X296043Y66193D01*
X296131Y66241D01*
X296223Y66281D01*
X296283Y66326D01*
X296348Y66362D01*
X296422Y66429D01*
X296503Y66489D01*
X296551Y66546D01*
X296606Y66596D01*
X296663Y66679D01*
X296728Y66755D01*
X296762Y66822D01*
X296804Y66883D01*
X296841Y66976D01*
X296887Y67066D01*
X296904Y67138D01*
X296932Y67207D01*
X296946Y67306D01*
X296971Y67404D01*
X296972Y67478D01*
X296983Y67552D01*
X296974Y67652D01*
X296976Y67752D01*
X296960Y67825D01*
X296954Y67899D01*
X296923Y67995D01*
X296901Y68093D01*
X296869Y68160D01*
X296847Y68231D01*
X296795Y68317D01*
X296752Y68408D01*
X296705Y68466D01*
X296667Y68529D01*
X296597Y68601D01*
X296534Y68680D01*
X296476Y68726D01*
X296424Y68779D01*
X296340Y68834D01*
X296261Y68896D01*
X296171Y68942D01*
X296131Y68968D01*
X296097Y68980D01*
X296043Y69007D01*
X294854Y69500D01*
X292100Y72254D01*
X290609Y75852D01*
X290609Y79748D01*
X292100Y83346D01*
X294854Y86100D01*
X296043Y86593D01*
X296131Y86641D01*
X296223Y86681D01*
X296283Y86726D01*
X296348Y86762D01*
X296422Y86829D01*
X296503Y86889D01*
X296551Y86946D01*
X296606Y86996D01*
X296663Y87079D01*
X296728Y87155D01*
X296762Y87222D01*
X296804Y87283D01*
X296841Y87376D01*
X296887Y87466D01*
X296904Y87538D01*
X296932Y87607D01*
X296946Y87706D01*
X296971Y87804D01*
X296972Y87878D01*
X296983Y87952D01*
X296974Y88052D01*
X296976Y88152D01*
X296960Y88225D01*
X296954Y88299D01*
X296923Y88395D01*
X296901Y88493D01*
X296869Y88560D01*
X296847Y88631D01*
X296795Y88717D01*
X296752Y88808D01*
X296705Y88866D01*
X296667Y88929D01*
X296597Y89001D01*
X296534Y89080D01*
X296476Y89126D01*
X296424Y89179D01*
X296340Y89234D01*
X296261Y89296D01*
X296171Y89342D01*
X296131Y89368D01*
X296097Y89380D01*
X296043Y89407D01*
X294854Y89900D01*
X292100Y92654D01*
X290609Y96252D01*
X290609Y100148D01*
X292100Y103746D01*
X294854Y106500D01*
X298452Y107991D01*
X302348Y107991D01*
X305946Y106500D01*
X308700Y103746D01*
X310191Y100148D01*
X310191Y96252D01*
X308700Y92654D01*
X305946Y89900D01*
X304757Y89407D01*
X304669Y89358D01*
X304577Y89318D01*
X304517Y89274D01*
X304452Y89238D01*
X304378Y89170D01*
X304297Y89111D01*
X304249Y89054D01*
X304194Y89004D01*
X304137Y88921D01*
X304072Y88845D01*
X304038Y88778D01*
X303996Y88717D01*
X303959Y88624D01*
X303913Y88534D01*
X303895Y88462D01*
X303868Y88393D01*
X303854Y88294D01*
X303829Y88196D01*
X303828Y88122D01*
X303817Y88048D01*
X303826Y87948D01*
X303824Y87848D01*
X303840Y87775D01*
X303846Y87701D01*
X303877Y87605D01*
X303899Y87507D01*
X303931Y87440D01*
X303953Y87369D01*
X304005Y87283D01*
X304048Y87192D01*
X304095Y87134D01*
X304133Y87071D01*
X304203Y86999D01*
X304266Y86920D01*
X304324Y86874D01*
X304376Y86821D01*
X304460Y86766D01*
X304539Y86704D01*
X304629Y86658D01*
X304669Y86632D01*
X304703Y86620D01*
X304757Y86593D01*
X305946Y86100D01*
X308700Y83346D01*
X310191Y79748D01*
X310191Y75852D01*
X308700Y72254D01*
X305946Y69500D01*
X304757Y69007D01*
X304669Y68958D01*
X304577Y68918D01*
X304517Y68874D01*
X304452Y68838D01*
X304378Y68770D01*
X304297Y68711D01*
X304249Y68654D01*
X304194Y68604D01*
X304137Y68521D01*
X304072Y68445D01*
X304038Y68378D01*
X303996Y68317D01*
X303959Y68224D01*
X303913Y68134D01*
X303895Y68062D01*
X303868Y67993D01*
X303854Y67894D01*
X303829Y67796D01*
X303828Y67722D01*
X303817Y67648D01*
X303826Y67548D01*
X303824Y67448D01*
X303840Y67375D01*
X303846Y67301D01*
X303877Y67205D01*
X303899Y67107D01*
X303931Y67040D01*
X303953Y66969D01*
X304005Y66883D01*
X304048Y66792D01*
X304095Y66734D01*
X304133Y66671D01*
X304203Y66599D01*
X304266Y66520D01*
X304324Y66474D01*
X304376Y66421D01*
X304460Y66366D01*
X304539Y66304D01*
X304629Y66258D01*
X304669Y66232D01*
X304703Y66220D01*
X304757Y66193D01*
X305946Y65700D01*
X308700Y62946D01*
X310191Y59348D01*
X310191Y55452D01*
X308700Y51854D01*
X305946Y49100D01*
X304757Y48607D01*
X304669Y48558D01*
X304577Y48518D01*
X304517Y48474D01*
X304452Y48438D01*
X304378Y48370D01*
X304297Y48311D01*
X304249Y48254D01*
X304194Y48204D01*
X304137Y48121D01*
X304072Y48045D01*
X304038Y47978D01*
X303996Y47917D01*
X303959Y47824D01*
X303913Y47734D01*
X303895Y47662D01*
X303868Y47593D01*
X303854Y47494D01*
X303829Y47396D01*
X303828Y47322D01*
X303817Y47248D01*
X303826Y47148D01*
X303824Y47048D01*
X303840Y46975D01*
X303846Y46901D01*
X303877Y46805D01*
X303899Y46707D01*
X303931Y46640D01*
X303953Y46569D01*
X304005Y46483D01*
X304048Y46392D01*
X304095Y46334D01*
X304133Y46271D01*
X304203Y46199D01*
X304266Y46120D01*
X304324Y46074D01*
X304376Y46021D01*
X304460Y45966D01*
X304539Y45904D01*
X304629Y45858D01*
X304669Y45832D01*
X304703Y45820D01*
X304757Y45793D01*
X305946Y45300D01*
X308700Y42546D01*
X310191Y38948D01*
X310191Y35052D01*
X308700Y31454D01*
X305946Y28700D01*
X302348Y27209D01*
X298452Y27209D01*
G37*
%LPD*%
%LPC*%
G36*
X74078Y232291D02*
X74078Y232291D01*
X74023Y232327D01*
X73920Y232365D01*
X73821Y232412D01*
X73758Y232425D01*
X73696Y232448D01*
X73588Y232461D01*
X73480Y232484D01*
X73415Y232483D01*
X73351Y232491D01*
X73242Y232480D01*
X73132Y232478D01*
X73069Y232462D01*
X73004Y232455D01*
X72900Y232419D01*
X72795Y232392D01*
X72065Y232588D01*
X72054Y232589D01*
X72044Y232593D01*
X71803Y232634D01*
X71045Y232700D01*
X71017Y232720D01*
X70969Y232765D01*
X70875Y232820D01*
X70785Y232883D01*
X70725Y232908D01*
X70668Y232941D01*
X70564Y232973D01*
X70462Y233014D01*
X70398Y233024D01*
X70335Y233044D01*
X70226Y233051D01*
X70118Y233068D01*
X70053Y233063D01*
X69988Y233068D01*
X69879Y233051D01*
X69771Y233043D01*
X69086Y233362D01*
X69076Y233365D01*
X69067Y233371D01*
X68836Y233453D01*
X68101Y233650D01*
X68076Y233674D01*
X68038Y233727D01*
X67954Y233798D01*
X67877Y233875D01*
X67822Y233910D01*
X67772Y233952D01*
X67674Y234002D01*
X67581Y234060D01*
X67520Y234081D01*
X67462Y234111D01*
X67355Y234138D01*
X67252Y234173D01*
X67187Y234180D01*
X67124Y234196D01*
X67014Y234197D01*
X66905Y234208D01*
X66286Y234642D01*
X66277Y234647D01*
X66269Y234654D01*
X66056Y234775D01*
X65366Y235096D01*
X65347Y235125D01*
X65318Y235183D01*
X65247Y235268D01*
X65185Y235357D01*
X65137Y235401D01*
X65095Y235451D01*
X65008Y235517D01*
X64926Y235591D01*
X64869Y235622D01*
X64817Y235662D01*
X64717Y235706D01*
X64621Y235759D01*
X64558Y235777D01*
X64499Y235804D01*
X64391Y235824D01*
X64286Y235854D01*
X63752Y236388D01*
X63743Y236395D01*
X63737Y236403D01*
X63548Y236559D01*
X62925Y236996D01*
X62910Y237027D01*
X62892Y237089D01*
X62837Y237185D01*
X62791Y237284D01*
X62751Y237335D01*
X62719Y237392D01*
X62644Y237473D01*
X62577Y237559D01*
X62526Y237600D01*
X62482Y237648D01*
X62391Y237709D01*
X62306Y237778D01*
X62247Y237806D01*
X62193Y237843D01*
X62091Y237882D01*
X61992Y237929D01*
X61559Y238548D01*
X61552Y238556D01*
X61547Y238566D01*
X61388Y238752D01*
X60850Y239290D01*
X60841Y239323D01*
X60834Y239388D01*
X60797Y239491D01*
X60769Y239597D01*
X60738Y239655D01*
X60716Y239716D01*
X60657Y239808D01*
X60605Y239905D01*
X60563Y239954D01*
X60527Y240009D01*
X60448Y240085D01*
X60376Y240168D01*
X60323Y240206D01*
X60277Y240251D01*
X60183Y240308D01*
X60094Y240371D01*
X59775Y241056D01*
X59769Y241065D01*
X59766Y241075D01*
X59642Y241286D01*
X59205Y241910D01*
X59202Y241944D01*
X59206Y242009D01*
X59188Y242117D01*
X59179Y242227D01*
X59158Y242289D01*
X59147Y242353D01*
X59105Y242454D01*
X59071Y242558D01*
X59038Y242614D01*
X59012Y242674D01*
X58948Y242763D01*
X58891Y242857D01*
X58846Y242903D01*
X58807Y242956D01*
X58725Y243028D01*
X58649Y243106D01*
X58453Y243836D01*
X58449Y243846D01*
X58447Y243856D01*
X58362Y244086D01*
X58040Y244775D01*
X58043Y244810D01*
X58059Y244873D01*
X58059Y244983D01*
X58069Y245092D01*
X58060Y245157D01*
X58060Y245222D01*
X58036Y245329D01*
X58021Y245437D01*
X57997Y245498D01*
X57983Y245562D01*
X57935Y245660D01*
X57896Y245762D01*
X57859Y245816D01*
X57830Y245875D01*
X57761Y245960D01*
X57700Y246050D01*
X57634Y246803D01*
X57632Y246814D01*
X57632Y246824D01*
X57588Y247065D01*
X57391Y247800D01*
X57400Y247833D01*
X57426Y247893D01*
X57445Y248001D01*
X57474Y248107D01*
X57476Y248172D01*
X57488Y248236D01*
X57483Y248345D01*
X57487Y248455D01*
X57474Y248519D01*
X57471Y248584D01*
X57441Y248689D01*
X57420Y248797D01*
X57393Y248856D01*
X57375Y248919D01*
X57322Y249015D01*
X57277Y249114D01*
X57343Y249867D01*
X57342Y249878D01*
X57344Y249888D01*
X57343Y250069D01*
X57344Y250087D01*
X57343Y250097D01*
X57343Y250133D01*
X57276Y250891D01*
X57291Y250922D01*
X57327Y250977D01*
X57365Y251080D01*
X57412Y251179D01*
X57425Y251242D01*
X57448Y251304D01*
X57461Y251412D01*
X57484Y251520D01*
X57483Y251585D01*
X57491Y251649D01*
X57480Y251758D01*
X57478Y251868D01*
X57462Y251931D01*
X57455Y251996D01*
X57419Y252100D01*
X57392Y252205D01*
X57588Y252935D01*
X57589Y252946D01*
X57593Y252956D01*
X57634Y253197D01*
X57700Y253955D01*
X57720Y253983D01*
X57765Y254031D01*
X57820Y254125D01*
X57883Y254215D01*
X57908Y254275D01*
X57941Y254332D01*
X57973Y254436D01*
X58014Y254538D01*
X58024Y254602D01*
X58044Y254665D01*
X58051Y254774D01*
X58068Y254882D01*
X58063Y254947D01*
X58068Y255012D01*
X58051Y255121D01*
X58043Y255229D01*
X58362Y255914D01*
X58365Y255924D01*
X58371Y255933D01*
X58453Y256164D01*
X58650Y256899D01*
X58674Y256924D01*
X58727Y256962D01*
X58798Y257046D01*
X58875Y257123D01*
X58910Y257178D01*
X58952Y257228D01*
X59002Y257326D01*
X59060Y257419D01*
X59081Y257480D01*
X59111Y257538D01*
X59138Y257645D01*
X59173Y257748D01*
X59180Y257813D01*
X59196Y257876D01*
X59197Y257986D01*
X59208Y258095D01*
X59642Y258714D01*
X59647Y258723D01*
X59654Y258731D01*
X59775Y258944D01*
X60096Y259634D01*
X60125Y259653D01*
X60183Y259682D01*
X60268Y259753D01*
X60357Y259815D01*
X60401Y259863D01*
X60451Y259905D01*
X60517Y259992D01*
X60591Y260074D01*
X60622Y260131D01*
X60662Y260183D01*
X60706Y260283D01*
X60759Y260379D01*
X60777Y260442D01*
X60804Y260501D01*
X60824Y260609D01*
X60854Y260714D01*
X61388Y261248D01*
X61395Y261257D01*
X61403Y261263D01*
X61559Y261452D01*
X61996Y262075D01*
X62027Y262090D01*
X62089Y262108D01*
X62185Y262163D01*
X62284Y262209D01*
X62335Y262249D01*
X62392Y262281D01*
X62473Y262356D01*
X62559Y262423D01*
X62600Y262474D01*
X62648Y262518D01*
X62709Y262609D01*
X62778Y262694D01*
X62806Y262753D01*
X62843Y262807D01*
X62882Y262909D01*
X62929Y263008D01*
X63548Y263441D01*
X63556Y263448D01*
X63566Y263453D01*
X63752Y263612D01*
X64290Y264150D01*
X64323Y264159D01*
X64388Y264166D01*
X64491Y264203D01*
X64597Y264231D01*
X64655Y264262D01*
X64716Y264284D01*
X64808Y264343D01*
X64905Y264395D01*
X64954Y264437D01*
X65009Y264473D01*
X65085Y264552D01*
X65168Y264624D01*
X65206Y264677D01*
X65251Y264723D01*
X65308Y264817D01*
X65371Y264906D01*
X66056Y265225D01*
X66065Y265231D01*
X66075Y265234D01*
X66286Y265358D01*
X66910Y265795D01*
X66944Y265798D01*
X67009Y265794D01*
X67117Y265812D01*
X67227Y265821D01*
X67289Y265842D01*
X67353Y265853D01*
X67454Y265895D01*
X67558Y265929D01*
X67614Y265962D01*
X67674Y265988D01*
X67763Y266052D01*
X67857Y266109D01*
X67903Y266154D01*
X67956Y266193D01*
X68028Y266275D01*
X68106Y266351D01*
X68836Y266547D01*
X68846Y266551D01*
X68856Y266553D01*
X69086Y266638D01*
X69775Y266960D01*
X69810Y266957D01*
X69873Y266941D01*
X69983Y266941D01*
X70092Y266931D01*
X70157Y266940D01*
X70222Y266940D01*
X70329Y266964D01*
X70437Y266979D01*
X70498Y267003D01*
X70562Y267017D01*
X70660Y267065D01*
X70762Y267104D01*
X70816Y267141D01*
X70875Y267170D01*
X70960Y267239D01*
X71050Y267300D01*
X71803Y267366D01*
X71814Y267368D01*
X71824Y267368D01*
X72065Y267412D01*
X72800Y267609D01*
X72833Y267600D01*
X72893Y267574D01*
X73001Y267555D01*
X73107Y267526D01*
X73172Y267524D01*
X73236Y267512D01*
X73345Y267517D01*
X73455Y267513D01*
X73519Y267526D01*
X73584Y267529D01*
X73689Y267559D01*
X73797Y267580D01*
X73856Y267607D01*
X73919Y267625D01*
X74015Y267678D01*
X74114Y267723D01*
X74867Y267657D01*
X74878Y267658D01*
X74888Y267656D01*
X75133Y267657D01*
X75891Y267724D01*
X75922Y267709D01*
X75977Y267673D01*
X76080Y267635D01*
X76179Y267588D01*
X76242Y267575D01*
X76304Y267552D01*
X76412Y267539D01*
X76520Y267516D01*
X76585Y267517D01*
X76649Y267509D01*
X76758Y267520D01*
X76868Y267522D01*
X76931Y267538D01*
X76996Y267545D01*
X77100Y267581D01*
X77205Y267608D01*
X77935Y267412D01*
X77946Y267411D01*
X77956Y267407D01*
X78197Y267366D01*
X78955Y267300D01*
X78983Y267280D01*
X79031Y267235D01*
X79126Y267180D01*
X79215Y267117D01*
X79275Y267092D01*
X79332Y267059D01*
X79437Y267027D01*
X79538Y266986D01*
X79602Y266976D01*
X79665Y266956D01*
X79774Y266949D01*
X79882Y266932D01*
X79947Y266936D01*
X80012Y266932D01*
X80121Y266949D01*
X80229Y266957D01*
X80914Y266638D01*
X80924Y266635D01*
X80933Y266629D01*
X81164Y266547D01*
X81899Y266350D01*
X81924Y266326D01*
X81962Y266273D01*
X82046Y266202D01*
X82123Y266125D01*
X82178Y266090D01*
X82228Y266048D01*
X82326Y265998D01*
X82419Y265940D01*
X82480Y265919D01*
X82538Y265889D01*
X82645Y265862D01*
X82748Y265827D01*
X82813Y265820D01*
X82876Y265804D01*
X82986Y265803D01*
X83095Y265792D01*
X83714Y265358D01*
X83723Y265353D01*
X83731Y265346D01*
X83944Y265225D01*
X84634Y264904D01*
X84653Y264875D01*
X84682Y264817D01*
X84753Y264732D01*
X84815Y264643D01*
X84863Y264599D01*
X84905Y264549D01*
X84992Y264483D01*
X85074Y264409D01*
X85131Y264378D01*
X85183Y264338D01*
X85283Y264294D01*
X85379Y264241D01*
X85442Y264223D01*
X85501Y264196D01*
X85609Y264176D01*
X85714Y264146D01*
X86248Y263612D01*
X86256Y263605D01*
X86263Y263597D01*
X86452Y263441D01*
X87075Y263004D01*
X87090Y262973D01*
X87108Y262911D01*
X87163Y262815D01*
X87209Y262716D01*
X87249Y262665D01*
X87281Y262608D01*
X87356Y262527D01*
X87423Y262441D01*
X87474Y262400D01*
X87518Y262352D01*
X87609Y262291D01*
X87694Y262222D01*
X87753Y262194D01*
X87807Y262157D01*
X87909Y262118D01*
X88007Y262071D01*
X88441Y261452D01*
X88448Y261444D01*
X88453Y261434D01*
X88612Y261248D01*
X89150Y260710D01*
X89159Y260677D01*
X89166Y260612D01*
X89203Y260509D01*
X89231Y260403D01*
X89262Y260345D01*
X89284Y260284D01*
X89343Y260192D01*
X89395Y260095D01*
X89437Y260046D01*
X89473Y259991D01*
X89552Y259915D01*
X89624Y259832D01*
X89677Y259794D01*
X89723Y259749D01*
X89817Y259692D01*
X89906Y259629D01*
X90225Y258944D01*
X90231Y258935D01*
X90234Y258925D01*
X90358Y258714D01*
X90795Y258090D01*
X90798Y258056D01*
X90794Y257991D01*
X90812Y257883D01*
X90821Y257773D01*
X90842Y257711D01*
X90853Y257647D01*
X90895Y257546D01*
X90929Y257442D01*
X90962Y257386D01*
X90988Y257326D01*
X91052Y257237D01*
X91109Y257143D01*
X91154Y257097D01*
X91193Y257044D01*
X91275Y256972D01*
X91351Y256894D01*
X91547Y256164D01*
X91551Y256154D01*
X91553Y256144D01*
X91638Y255914D01*
X91960Y255225D01*
X91957Y255190D01*
X91941Y255127D01*
X91941Y255017D01*
X91931Y254908D01*
X91940Y254843D01*
X91940Y254778D01*
X91964Y254671D01*
X91979Y254563D01*
X92003Y254502D01*
X92017Y254438D01*
X92065Y254340D01*
X92104Y254238D01*
X92141Y254184D01*
X92170Y254125D01*
X92239Y254040D01*
X92300Y253950D01*
X92366Y253197D01*
X92368Y253187D01*
X92368Y253176D01*
X92412Y252935D01*
X92609Y252200D01*
X92600Y252167D01*
X92574Y252107D01*
X92555Y251999D01*
X92526Y251893D01*
X92524Y251828D01*
X92512Y251764D01*
X92517Y251655D01*
X92513Y251545D01*
X92526Y251481D01*
X92529Y251416D01*
X92559Y251311D01*
X92580Y251203D01*
X92607Y251144D01*
X92625Y251081D01*
X92678Y250985D01*
X92723Y250886D01*
X92657Y250133D01*
X92658Y250122D01*
X92656Y250112D01*
X92657Y249995D01*
X92656Y249982D01*
X92657Y249975D01*
X92657Y249867D01*
X92724Y249109D01*
X92709Y249078D01*
X92673Y249023D01*
X92635Y248920D01*
X92588Y248821D01*
X92575Y248758D01*
X92552Y248696D01*
X92539Y248588D01*
X92516Y248480D01*
X92517Y248415D01*
X92509Y248351D01*
X92520Y248242D01*
X92522Y248132D01*
X92538Y248069D01*
X92545Y248004D01*
X92581Y247900D01*
X92608Y247795D01*
X92412Y247065D01*
X92411Y247054D01*
X92407Y247044D01*
X92366Y246803D01*
X92300Y246045D01*
X92280Y246017D01*
X92235Y245969D01*
X92180Y245875D01*
X92117Y245785D01*
X92092Y245725D01*
X92059Y245668D01*
X92027Y245564D01*
X91986Y245462D01*
X91976Y245398D01*
X91956Y245335D01*
X91949Y245226D01*
X91932Y245118D01*
X91937Y245053D01*
X91932Y244988D01*
X91949Y244879D01*
X91957Y244771D01*
X91638Y244086D01*
X91635Y244076D01*
X91629Y244067D01*
X91547Y243836D01*
X91350Y243101D01*
X91326Y243076D01*
X91273Y243038D01*
X91202Y242954D01*
X91125Y242877D01*
X91090Y242822D01*
X91048Y242772D01*
X90998Y242674D01*
X90940Y242581D01*
X90919Y242520D01*
X90889Y242462D01*
X90862Y242355D01*
X90827Y242252D01*
X90820Y242187D01*
X90804Y242124D01*
X90803Y242014D01*
X90792Y241905D01*
X90358Y241286D01*
X90353Y241277D01*
X90346Y241269D01*
X90225Y241056D01*
X89904Y240366D01*
X89875Y240347D01*
X89817Y240318D01*
X89732Y240247D01*
X89643Y240185D01*
X89599Y240137D01*
X89549Y240095D01*
X89483Y240008D01*
X89409Y239926D01*
X89378Y239869D01*
X89338Y239817D01*
X89294Y239717D01*
X89241Y239621D01*
X89223Y239558D01*
X89196Y239499D01*
X89176Y239391D01*
X89146Y239286D01*
X88612Y238752D01*
X88605Y238744D01*
X88597Y238737D01*
X88441Y238548D01*
X88004Y237925D01*
X87973Y237910D01*
X87910Y237892D01*
X87815Y237837D01*
X87716Y237791D01*
X87664Y237751D01*
X87608Y237719D01*
X87528Y237645D01*
X87441Y237577D01*
X87400Y237526D01*
X87352Y237482D01*
X87291Y237391D01*
X87222Y237306D01*
X87194Y237247D01*
X87157Y237193D01*
X87118Y237091D01*
X87071Y236993D01*
X86452Y236559D01*
X86444Y236552D01*
X86434Y236547D01*
X86248Y236388D01*
X85710Y235850D01*
X85677Y235841D01*
X85612Y235834D01*
X85509Y235797D01*
X85403Y235769D01*
X85345Y235738D01*
X85284Y235716D01*
X85192Y235657D01*
X85095Y235605D01*
X85046Y235563D01*
X84991Y235527D01*
X84915Y235448D01*
X84832Y235376D01*
X84794Y235323D01*
X84749Y235277D01*
X84692Y235183D01*
X84629Y235094D01*
X83944Y234775D01*
X83935Y234769D01*
X83925Y234766D01*
X83714Y234642D01*
X83090Y234205D01*
X83056Y234202D01*
X82991Y234206D01*
X82883Y234188D01*
X82773Y234179D01*
X82711Y234158D01*
X82647Y234147D01*
X82546Y234105D01*
X82442Y234071D01*
X82386Y234038D01*
X82326Y234012D01*
X82237Y233948D01*
X82143Y233891D01*
X82097Y233846D01*
X82044Y233807D01*
X81972Y233725D01*
X81894Y233649D01*
X81164Y233453D01*
X81154Y233449D01*
X81144Y233447D01*
X80914Y233362D01*
X80225Y233040D01*
X80190Y233043D01*
X80127Y233059D01*
X80017Y233059D01*
X79908Y233069D01*
X79843Y233060D01*
X79778Y233060D01*
X79671Y233036D01*
X79563Y233021D01*
X79502Y232997D01*
X79438Y232983D01*
X79340Y232935D01*
X79238Y232896D01*
X79184Y232859D01*
X79125Y232830D01*
X79040Y232761D01*
X78950Y232700D01*
X78197Y232634D01*
X78187Y232632D01*
X78176Y232632D01*
X77935Y232588D01*
X77200Y232391D01*
X77167Y232400D01*
X77107Y232426D01*
X76999Y232445D01*
X76893Y232474D01*
X76828Y232476D01*
X76764Y232488D01*
X76655Y232483D01*
X76545Y232487D01*
X76481Y232474D01*
X76416Y232471D01*
X76311Y232441D01*
X76203Y232420D01*
X76144Y232393D01*
X76081Y232375D01*
X75985Y232322D01*
X75886Y232277D01*
X75133Y232343D01*
X75122Y232342D01*
X75112Y232344D01*
X74867Y232343D01*
X74109Y232276D01*
X74078Y232291D01*
G37*
%LPD*%
%LPC*%
G36*
X36578Y44791D02*
X36578Y44791D01*
X36523Y44827D01*
X36420Y44865D01*
X36321Y44912D01*
X36258Y44925D01*
X36196Y44948D01*
X36088Y44961D01*
X35980Y44984D01*
X35915Y44983D01*
X35851Y44991D01*
X35742Y44980D01*
X35632Y44978D01*
X35569Y44962D01*
X35504Y44955D01*
X35400Y44919D01*
X35295Y44892D01*
X34565Y45088D01*
X34554Y45089D01*
X34544Y45093D01*
X34303Y45134D01*
X33545Y45200D01*
X33517Y45220D01*
X33469Y45265D01*
X33375Y45320D01*
X33285Y45383D01*
X33225Y45408D01*
X33168Y45441D01*
X33064Y45473D01*
X32962Y45514D01*
X32898Y45524D01*
X32835Y45544D01*
X32726Y45551D01*
X32618Y45568D01*
X32553Y45563D01*
X32488Y45568D01*
X32379Y45551D01*
X32271Y45543D01*
X31586Y45862D01*
X31576Y45865D01*
X31567Y45871D01*
X31336Y45953D01*
X30601Y46150D01*
X30576Y46174D01*
X30538Y46227D01*
X30454Y46298D01*
X30377Y46375D01*
X30322Y46410D01*
X30272Y46452D01*
X30174Y46502D01*
X30081Y46560D01*
X30020Y46581D01*
X29962Y46611D01*
X29855Y46638D01*
X29752Y46673D01*
X29687Y46680D01*
X29624Y46696D01*
X29514Y46697D01*
X29405Y46708D01*
X28786Y47142D01*
X28777Y47147D01*
X28769Y47154D01*
X28556Y47275D01*
X27866Y47596D01*
X27847Y47625D01*
X27818Y47683D01*
X27747Y47768D01*
X27685Y47857D01*
X27637Y47901D01*
X27595Y47951D01*
X27508Y48017D01*
X27426Y48091D01*
X27369Y48122D01*
X27317Y48162D01*
X27217Y48206D01*
X27121Y48259D01*
X27058Y48277D01*
X26999Y48304D01*
X26891Y48324D01*
X26786Y48354D01*
X26252Y48888D01*
X26243Y48895D01*
X26237Y48903D01*
X26048Y49059D01*
X25425Y49496D01*
X25410Y49527D01*
X25392Y49589D01*
X25339Y49681D01*
X25337Y49686D01*
X25335Y49689D01*
X25291Y49784D01*
X25251Y49835D01*
X25219Y49892D01*
X25144Y49973D01*
X25077Y50059D01*
X25026Y50100D01*
X24982Y50148D01*
X24891Y50209D01*
X24806Y50278D01*
X24747Y50306D01*
X24693Y50343D01*
X24591Y50382D01*
X24492Y50429D01*
X24059Y51048D01*
X24052Y51056D01*
X24047Y51066D01*
X23888Y51252D01*
X23350Y51790D01*
X23341Y51823D01*
X23334Y51888D01*
X23297Y51991D01*
X23269Y52097D01*
X23238Y52155D01*
X23216Y52216D01*
X23157Y52308D01*
X23105Y52405D01*
X23063Y52454D01*
X23027Y52509D01*
X22948Y52585D01*
X22876Y52668D01*
X22823Y52706D01*
X22777Y52751D01*
X22683Y52808D01*
X22594Y52871D01*
X22275Y53556D01*
X22269Y53565D01*
X22266Y53575D01*
X22142Y53786D01*
X21705Y54410D01*
X21702Y54444D01*
X21706Y54509D01*
X21688Y54617D01*
X21679Y54727D01*
X21658Y54789D01*
X21647Y54853D01*
X21605Y54954D01*
X21571Y55058D01*
X21538Y55114D01*
X21512Y55174D01*
X21448Y55263D01*
X21391Y55357D01*
X21346Y55403D01*
X21307Y55456D01*
X21225Y55528D01*
X21149Y55606D01*
X20953Y56336D01*
X20949Y56346D01*
X20947Y56356D01*
X20862Y56586D01*
X20540Y57275D01*
X20543Y57310D01*
X20559Y57373D01*
X20559Y57483D01*
X20569Y57592D01*
X20560Y57657D01*
X20560Y57722D01*
X20536Y57829D01*
X20521Y57937D01*
X20497Y57998D01*
X20483Y58062D01*
X20435Y58160D01*
X20396Y58262D01*
X20359Y58316D01*
X20330Y58375D01*
X20261Y58460D01*
X20200Y58550D01*
X20134Y59303D01*
X20132Y59314D01*
X20132Y59324D01*
X20088Y59565D01*
X19891Y60300D01*
X19900Y60333D01*
X19926Y60393D01*
X19945Y60501D01*
X19974Y60607D01*
X19976Y60672D01*
X19988Y60736D01*
X19983Y60845D01*
X19987Y60955D01*
X19974Y61019D01*
X19971Y61084D01*
X19941Y61189D01*
X19920Y61297D01*
X19893Y61356D01*
X19875Y61419D01*
X19822Y61515D01*
X19777Y61614D01*
X19843Y62367D01*
X19842Y62378D01*
X19844Y62388D01*
X19843Y62633D01*
X19776Y63391D01*
X19791Y63422D01*
X19827Y63477D01*
X19865Y63580D01*
X19912Y63679D01*
X19925Y63742D01*
X19948Y63804D01*
X19961Y63912D01*
X19984Y64020D01*
X19983Y64085D01*
X19991Y64149D01*
X19980Y64258D01*
X19978Y64368D01*
X19962Y64431D01*
X19955Y64496D01*
X19919Y64600D01*
X19892Y64705D01*
X20088Y65435D01*
X20089Y65446D01*
X20093Y65456D01*
X20134Y65697D01*
X20200Y66455D01*
X20220Y66483D01*
X20265Y66531D01*
X20320Y66625D01*
X20383Y66715D01*
X20408Y66775D01*
X20441Y66832D01*
X20473Y66936D01*
X20514Y67038D01*
X20524Y67102D01*
X20544Y67165D01*
X20551Y67274D01*
X20568Y67382D01*
X20563Y67447D01*
X20568Y67512D01*
X20551Y67621D01*
X20543Y67729D01*
X20862Y68414D01*
X20865Y68424D01*
X20871Y68433D01*
X20953Y68664D01*
X21150Y69399D01*
X21174Y69424D01*
X21227Y69462D01*
X21298Y69546D01*
X21375Y69623D01*
X21410Y69678D01*
X21452Y69728D01*
X21502Y69826D01*
X21560Y69919D01*
X21581Y69980D01*
X21611Y70038D01*
X21638Y70145D01*
X21673Y70248D01*
X21680Y70313D01*
X21696Y70376D01*
X21697Y70486D01*
X21708Y70595D01*
X22142Y71214D01*
X22147Y71223D01*
X22154Y71231D01*
X22275Y71444D01*
X22596Y72134D01*
X22625Y72153D01*
X22683Y72182D01*
X22768Y72253D01*
X22857Y72315D01*
X22901Y72363D01*
X22951Y72405D01*
X23017Y72492D01*
X23091Y72574D01*
X23122Y72631D01*
X23162Y72683D01*
X23206Y72783D01*
X23259Y72879D01*
X23277Y72942D01*
X23304Y73001D01*
X23324Y73109D01*
X23354Y73214D01*
X23888Y73748D01*
X23895Y73757D01*
X23903Y73763D01*
X24042Y73931D01*
X24045Y73935D01*
X24047Y73937D01*
X24059Y73952D01*
X24496Y74575D01*
X24527Y74590D01*
X24589Y74608D01*
X24685Y74663D01*
X24784Y74709D01*
X24835Y74749D01*
X24892Y74781D01*
X24973Y74856D01*
X25059Y74923D01*
X25100Y74974D01*
X25148Y75018D01*
X25209Y75109D01*
X25278Y75194D01*
X25306Y75253D01*
X25343Y75307D01*
X25382Y75409D01*
X25429Y75508D01*
X26048Y75941D01*
X26056Y75948D01*
X26066Y75953D01*
X26252Y76112D01*
X26790Y76650D01*
X26823Y76659D01*
X26888Y76666D01*
X26991Y76703D01*
X27097Y76731D01*
X27155Y76762D01*
X27216Y76784D01*
X27308Y76843D01*
X27405Y76895D01*
X27454Y76937D01*
X27509Y76973D01*
X27585Y77052D01*
X27668Y77124D01*
X27706Y77177D01*
X27751Y77223D01*
X27808Y77317D01*
X27871Y77406D01*
X28556Y77725D01*
X28565Y77731D01*
X28575Y77734D01*
X28786Y77858D01*
X29410Y78295D01*
X29444Y78298D01*
X29509Y78294D01*
X29617Y78312D01*
X29727Y78321D01*
X29789Y78342D01*
X29853Y78353D01*
X29954Y78395D01*
X30058Y78429D01*
X30114Y78462D01*
X30174Y78488D01*
X30263Y78552D01*
X30357Y78609D01*
X30403Y78654D01*
X30456Y78693D01*
X30528Y78775D01*
X30606Y78851D01*
X31336Y79047D01*
X31346Y79051D01*
X31356Y79053D01*
X31586Y79138D01*
X32275Y79460D01*
X32279Y79459D01*
X32311Y79450D01*
X32349Y79447D01*
X32373Y79441D01*
X32424Y79441D01*
X32555Y79431D01*
X32573Y79433D01*
X32592Y79431D01*
X32657Y79440D01*
X32722Y79440D01*
X32812Y79460D01*
X32902Y79470D01*
X32919Y79476D01*
X32937Y79479D01*
X32998Y79502D01*
X33062Y79517D01*
X33144Y79557D01*
X33230Y79588D01*
X33245Y79598D01*
X33262Y79604D01*
X33316Y79641D01*
X33375Y79670D01*
X33446Y79727D01*
X33523Y79777D01*
X33535Y79790D01*
X33550Y79800D01*
X34303Y79866D01*
X34314Y79868D01*
X34324Y79868D01*
X34565Y79912D01*
X35300Y80109D01*
X35333Y80100D01*
X35393Y80074D01*
X35501Y80055D01*
X35607Y80026D01*
X35672Y80024D01*
X35736Y80012D01*
X35845Y80017D01*
X35955Y80013D01*
X36019Y80026D01*
X36084Y80029D01*
X36189Y80059D01*
X36297Y80080D01*
X36356Y80107D01*
X36419Y80125D01*
X36515Y80178D01*
X36614Y80223D01*
X37367Y80157D01*
X37378Y80158D01*
X37388Y80156D01*
X37633Y80157D01*
X38391Y80224D01*
X38422Y80209D01*
X38477Y80173D01*
X38580Y80135D01*
X38679Y80088D01*
X38742Y80075D01*
X38804Y80052D01*
X38912Y80039D01*
X39020Y80016D01*
X39085Y80017D01*
X39149Y80009D01*
X39258Y80020D01*
X39368Y80022D01*
X39431Y80038D01*
X39496Y80045D01*
X39600Y80081D01*
X39705Y80108D01*
X40435Y79912D01*
X40446Y79911D01*
X40456Y79907D01*
X40697Y79866D01*
X41455Y79800D01*
X41483Y79780D01*
X41531Y79735D01*
X41547Y79726D01*
X41560Y79713D01*
X41640Y79669D01*
X41715Y79617D01*
X41775Y79592D01*
X41832Y79559D01*
X41850Y79554D01*
X41865Y79545D01*
X41953Y79520D01*
X42038Y79486D01*
X42102Y79476D01*
X42165Y79456D01*
X42183Y79455D01*
X42201Y79450D01*
X42333Y79440D01*
X42382Y79432D01*
X42407Y79434D01*
X42445Y79431D01*
X42478Y79434D01*
X42512Y79432D01*
X42621Y79449D01*
X42729Y79457D01*
X43414Y79138D01*
X43424Y79135D01*
X43433Y79129D01*
X43664Y79047D01*
X44399Y78850D01*
X44424Y78826D01*
X44462Y78773D01*
X44546Y78702D01*
X44623Y78625D01*
X44678Y78590D01*
X44728Y78548D01*
X44826Y78498D01*
X44919Y78440D01*
X44980Y78419D01*
X45038Y78389D01*
X45145Y78362D01*
X45248Y78327D01*
X45313Y78320D01*
X45376Y78304D01*
X45486Y78303D01*
X45595Y78292D01*
X46214Y77858D01*
X46223Y77853D01*
X46231Y77846D01*
X46444Y77725D01*
X47134Y77404D01*
X47153Y77375D01*
X47182Y77317D01*
X47253Y77232D01*
X47315Y77143D01*
X47363Y77099D01*
X47405Y77049D01*
X47492Y76983D01*
X47574Y76909D01*
X47631Y76878D01*
X47683Y76838D01*
X47783Y76794D01*
X47879Y76741D01*
X47942Y76723D01*
X48001Y76696D01*
X48109Y76676D01*
X48214Y76646D01*
X48748Y76112D01*
X48756Y76105D01*
X48763Y76097D01*
X48952Y75941D01*
X49575Y75504D01*
X49590Y75473D01*
X49608Y75411D01*
X49663Y75315D01*
X49709Y75216D01*
X49749Y75165D01*
X49781Y75108D01*
X49856Y75027D01*
X49923Y74941D01*
X49974Y74900D01*
X50018Y74852D01*
X50109Y74791D01*
X50194Y74722D01*
X50253Y74694D01*
X50307Y74657D01*
X50409Y74618D01*
X50507Y74571D01*
X50941Y73952D01*
X50948Y73944D01*
X50953Y73934D01*
X51018Y73859D01*
X51021Y73854D01*
X51024Y73851D01*
X51112Y73748D01*
X51650Y73210D01*
X51659Y73177D01*
X51666Y73112D01*
X51703Y73009D01*
X51731Y72903D01*
X51762Y72845D01*
X51784Y72784D01*
X51843Y72692D01*
X51895Y72595D01*
X51937Y72546D01*
X51973Y72491D01*
X52052Y72415D01*
X52124Y72332D01*
X52177Y72294D01*
X52223Y72249D01*
X52317Y72192D01*
X52406Y72129D01*
X52725Y71444D01*
X52731Y71435D01*
X52734Y71425D01*
X52858Y71214D01*
X53295Y70590D01*
X53298Y70556D01*
X53294Y70491D01*
X53312Y70383D01*
X53321Y70273D01*
X53342Y70211D01*
X53353Y70147D01*
X53395Y70046D01*
X53429Y69942D01*
X53462Y69886D01*
X53488Y69826D01*
X53552Y69737D01*
X53609Y69643D01*
X53654Y69597D01*
X53693Y69544D01*
X53775Y69472D01*
X53851Y69394D01*
X54047Y68664D01*
X54051Y68654D01*
X54053Y68644D01*
X54138Y68414D01*
X54460Y67725D01*
X54457Y67690D01*
X54441Y67627D01*
X54441Y67517D01*
X54431Y67408D01*
X54440Y67343D01*
X54440Y67278D01*
X54464Y67171D01*
X54479Y67063D01*
X54503Y67002D01*
X54517Y66938D01*
X54565Y66840D01*
X54604Y66738D01*
X54641Y66684D01*
X54670Y66625D01*
X54739Y66540D01*
X54800Y66450D01*
X54866Y65697D01*
X54868Y65687D01*
X54868Y65676D01*
X54912Y65435D01*
X55109Y64700D01*
X55100Y64667D01*
X55074Y64607D01*
X55055Y64499D01*
X55026Y64393D01*
X55024Y64328D01*
X55012Y64264D01*
X55017Y64155D01*
X55013Y64045D01*
X55026Y63981D01*
X55029Y63916D01*
X55059Y63811D01*
X55080Y63703D01*
X55107Y63644D01*
X55125Y63581D01*
X55178Y63485D01*
X55223Y63386D01*
X55157Y62633D01*
X55158Y62622D01*
X55156Y62612D01*
X55157Y62367D01*
X55224Y61609D01*
X55209Y61578D01*
X55173Y61523D01*
X55135Y61420D01*
X55088Y61321D01*
X55075Y61258D01*
X55052Y61196D01*
X55039Y61088D01*
X55016Y60980D01*
X55017Y60915D01*
X55009Y60851D01*
X55020Y60742D01*
X55022Y60632D01*
X55038Y60569D01*
X55045Y60504D01*
X55081Y60400D01*
X55108Y60295D01*
X54912Y59565D01*
X54911Y59554D01*
X54907Y59544D01*
X54866Y59303D01*
X54800Y58545D01*
X54780Y58517D01*
X54735Y58469D01*
X54680Y58375D01*
X54617Y58285D01*
X54592Y58225D01*
X54559Y58168D01*
X54527Y58064D01*
X54486Y57962D01*
X54476Y57898D01*
X54456Y57835D01*
X54449Y57726D01*
X54432Y57618D01*
X54437Y57553D01*
X54432Y57488D01*
X54449Y57379D01*
X54457Y57271D01*
X54138Y56586D01*
X54135Y56576D01*
X54129Y56567D01*
X54047Y56336D01*
X53850Y55601D01*
X53826Y55576D01*
X53773Y55538D01*
X53702Y55454D01*
X53625Y55377D01*
X53590Y55322D01*
X53548Y55272D01*
X53498Y55174D01*
X53440Y55081D01*
X53419Y55020D01*
X53389Y54962D01*
X53362Y54855D01*
X53327Y54752D01*
X53320Y54687D01*
X53304Y54624D01*
X53303Y54514D01*
X53292Y54405D01*
X52858Y53786D01*
X52853Y53777D01*
X52846Y53769D01*
X52725Y53556D01*
X52404Y52866D01*
X52375Y52847D01*
X52317Y52818D01*
X52232Y52747D01*
X52143Y52685D01*
X52099Y52637D01*
X52049Y52595D01*
X51983Y52508D01*
X51909Y52426D01*
X51878Y52369D01*
X51838Y52317D01*
X51794Y52217D01*
X51741Y52121D01*
X51723Y52058D01*
X51696Y51999D01*
X51676Y51891D01*
X51646Y51786D01*
X51112Y51252D01*
X51105Y51244D01*
X51097Y51237D01*
X50941Y51048D01*
X50504Y50425D01*
X50473Y50410D01*
X50411Y50392D01*
X50315Y50337D01*
X50216Y50291D01*
X50165Y50251D01*
X50108Y50219D01*
X50027Y50144D01*
X49941Y50077D01*
X49900Y50026D01*
X49852Y49982D01*
X49791Y49891D01*
X49722Y49806D01*
X49694Y49747D01*
X49657Y49693D01*
X49624Y49605D01*
X49616Y49593D01*
X49611Y49576D01*
X49571Y49492D01*
X48952Y49059D01*
X48944Y49052D01*
X48934Y49047D01*
X48748Y48888D01*
X48210Y48350D01*
X48177Y48341D01*
X48112Y48334D01*
X48009Y48297D01*
X47903Y48269D01*
X47845Y48238D01*
X47784Y48216D01*
X47692Y48157D01*
X47595Y48105D01*
X47546Y48063D01*
X47491Y48027D01*
X47415Y47948D01*
X47332Y47876D01*
X47294Y47823D01*
X47249Y47777D01*
X47192Y47683D01*
X47129Y47594D01*
X46444Y47275D01*
X46435Y47269D01*
X46425Y47266D01*
X46214Y47142D01*
X45590Y46705D01*
X45556Y46702D01*
X45491Y46706D01*
X45383Y46688D01*
X45273Y46679D01*
X45211Y46658D01*
X45147Y46647D01*
X45046Y46605D01*
X44942Y46571D01*
X44886Y46538D01*
X44826Y46512D01*
X44737Y46448D01*
X44643Y46391D01*
X44597Y46346D01*
X44544Y46307D01*
X44472Y46225D01*
X44394Y46149D01*
X43664Y45953D01*
X43654Y45949D01*
X43644Y45947D01*
X43414Y45862D01*
X42725Y45540D01*
X42690Y45543D01*
X42627Y45559D01*
X42517Y45559D01*
X42408Y45569D01*
X42343Y45560D01*
X42278Y45560D01*
X42171Y45536D01*
X42063Y45521D01*
X42002Y45497D01*
X41938Y45483D01*
X41840Y45435D01*
X41738Y45396D01*
X41684Y45359D01*
X41625Y45330D01*
X41540Y45261D01*
X41450Y45200D01*
X40697Y45134D01*
X40687Y45132D01*
X40676Y45132D01*
X40435Y45088D01*
X39700Y44891D01*
X39667Y44900D01*
X39607Y44926D01*
X39499Y44945D01*
X39393Y44974D01*
X39328Y44976D01*
X39264Y44988D01*
X39155Y44983D01*
X39045Y44987D01*
X38981Y44974D01*
X38916Y44971D01*
X38811Y44941D01*
X38703Y44920D01*
X38644Y44893D01*
X38581Y44875D01*
X38485Y44822D01*
X38386Y44777D01*
X37633Y44843D01*
X37622Y44842D01*
X37612Y44844D01*
X37367Y44843D01*
X36609Y44776D01*
X36578Y44791D01*
G37*
%LPD*%
%LPC*%
G36*
X336578Y44791D02*
X336578Y44791D01*
X336523Y44827D01*
X336420Y44865D01*
X336321Y44912D01*
X336258Y44925D01*
X336196Y44948D01*
X336088Y44961D01*
X335980Y44984D01*
X335915Y44983D01*
X335851Y44991D01*
X335742Y44980D01*
X335632Y44978D01*
X335569Y44962D01*
X335504Y44955D01*
X335400Y44919D01*
X335295Y44892D01*
X334565Y45088D01*
X334554Y45089D01*
X334544Y45093D01*
X334303Y45134D01*
X333545Y45200D01*
X333517Y45220D01*
X333469Y45265D01*
X333375Y45320D01*
X333285Y45383D01*
X333225Y45408D01*
X333168Y45441D01*
X333064Y45473D01*
X332962Y45514D01*
X332898Y45524D01*
X332835Y45544D01*
X332726Y45551D01*
X332618Y45568D01*
X332553Y45563D01*
X332488Y45568D01*
X332379Y45551D01*
X332271Y45543D01*
X331586Y45862D01*
X331576Y45865D01*
X331567Y45871D01*
X331336Y45953D01*
X330601Y46150D01*
X330576Y46174D01*
X330538Y46227D01*
X330454Y46298D01*
X330377Y46375D01*
X330322Y46410D01*
X330272Y46452D01*
X330174Y46502D01*
X330081Y46560D01*
X330020Y46581D01*
X329962Y46611D01*
X329855Y46638D01*
X329752Y46673D01*
X329687Y46680D01*
X329624Y46696D01*
X329514Y46697D01*
X329405Y46708D01*
X328786Y47142D01*
X328777Y47147D01*
X328769Y47154D01*
X328556Y47275D01*
X327866Y47596D01*
X327847Y47625D01*
X327818Y47683D01*
X327747Y47768D01*
X327685Y47857D01*
X327637Y47901D01*
X327595Y47951D01*
X327508Y48017D01*
X327426Y48091D01*
X327369Y48122D01*
X327317Y48162D01*
X327217Y48206D01*
X327121Y48259D01*
X327058Y48277D01*
X326999Y48304D01*
X326891Y48324D01*
X326786Y48354D01*
X326252Y48888D01*
X326243Y48895D01*
X326237Y48903D01*
X326048Y49059D01*
X325425Y49496D01*
X325410Y49527D01*
X325392Y49589D01*
X325339Y49681D01*
X325337Y49686D01*
X325335Y49689D01*
X325291Y49784D01*
X325251Y49835D01*
X325219Y49892D01*
X325144Y49973D01*
X325077Y50059D01*
X325026Y50100D01*
X324982Y50148D01*
X324891Y50209D01*
X324806Y50278D01*
X324747Y50306D01*
X324693Y50343D01*
X324591Y50382D01*
X324492Y50429D01*
X324059Y51048D01*
X324052Y51056D01*
X324047Y51066D01*
X323888Y51252D01*
X323350Y51790D01*
X323341Y51823D01*
X323334Y51888D01*
X323297Y51991D01*
X323269Y52097D01*
X323238Y52155D01*
X323216Y52216D01*
X323157Y52308D01*
X323105Y52405D01*
X323063Y52454D01*
X323027Y52509D01*
X322948Y52585D01*
X322876Y52668D01*
X322823Y52706D01*
X322777Y52751D01*
X322683Y52808D01*
X322594Y52871D01*
X322275Y53556D01*
X322269Y53565D01*
X322266Y53575D01*
X322142Y53786D01*
X321705Y54410D01*
X321702Y54444D01*
X321706Y54509D01*
X321688Y54617D01*
X321679Y54727D01*
X321658Y54789D01*
X321647Y54853D01*
X321605Y54954D01*
X321571Y55058D01*
X321538Y55114D01*
X321512Y55174D01*
X321448Y55263D01*
X321391Y55357D01*
X321346Y55403D01*
X321307Y55456D01*
X321225Y55528D01*
X321149Y55606D01*
X320953Y56336D01*
X320949Y56346D01*
X320947Y56356D01*
X320862Y56586D01*
X320540Y57275D01*
X320543Y57310D01*
X320559Y57373D01*
X320559Y57483D01*
X320569Y57592D01*
X320560Y57657D01*
X320560Y57722D01*
X320536Y57829D01*
X320521Y57937D01*
X320497Y57998D01*
X320483Y58062D01*
X320435Y58160D01*
X320396Y58262D01*
X320359Y58316D01*
X320330Y58375D01*
X320261Y58460D01*
X320200Y58550D01*
X320134Y59303D01*
X320132Y59314D01*
X320132Y59324D01*
X320088Y59565D01*
X319891Y60300D01*
X319900Y60333D01*
X319926Y60393D01*
X319945Y60501D01*
X319974Y60607D01*
X319976Y60672D01*
X319988Y60736D01*
X319983Y60845D01*
X319987Y60955D01*
X319974Y61019D01*
X319971Y61084D01*
X319941Y61189D01*
X319920Y61297D01*
X319893Y61356D01*
X319875Y61419D01*
X319822Y61515D01*
X319777Y61614D01*
X319843Y62367D01*
X319842Y62378D01*
X319844Y62388D01*
X319843Y62633D01*
X319776Y63391D01*
X319791Y63422D01*
X319827Y63477D01*
X319865Y63580D01*
X319912Y63679D01*
X319925Y63742D01*
X319948Y63804D01*
X319961Y63912D01*
X319984Y64020D01*
X319983Y64085D01*
X319991Y64149D01*
X319980Y64258D01*
X319978Y64368D01*
X319962Y64431D01*
X319955Y64496D01*
X319919Y64600D01*
X319892Y64705D01*
X320088Y65435D01*
X320089Y65446D01*
X320093Y65456D01*
X320134Y65697D01*
X320200Y66455D01*
X320220Y66483D01*
X320265Y66531D01*
X320320Y66625D01*
X320383Y66715D01*
X320408Y66775D01*
X320441Y66832D01*
X320473Y66936D01*
X320514Y67038D01*
X320524Y67102D01*
X320544Y67165D01*
X320551Y67274D01*
X320568Y67382D01*
X320563Y67447D01*
X320568Y67512D01*
X320551Y67621D01*
X320543Y67729D01*
X320862Y68414D01*
X320865Y68424D01*
X320871Y68433D01*
X320953Y68664D01*
X321150Y69399D01*
X321174Y69424D01*
X321227Y69462D01*
X321298Y69546D01*
X321375Y69623D01*
X321410Y69678D01*
X321452Y69728D01*
X321502Y69826D01*
X321560Y69919D01*
X321581Y69980D01*
X321611Y70038D01*
X321638Y70145D01*
X321673Y70248D01*
X321680Y70313D01*
X321696Y70376D01*
X321697Y70486D01*
X321708Y70595D01*
X322142Y71214D01*
X322147Y71223D01*
X322154Y71231D01*
X322275Y71444D01*
X322596Y72134D01*
X322625Y72153D01*
X322683Y72182D01*
X322768Y72253D01*
X322857Y72315D01*
X322901Y72363D01*
X322951Y72405D01*
X323017Y72492D01*
X323091Y72574D01*
X323122Y72631D01*
X323162Y72683D01*
X323206Y72783D01*
X323259Y72879D01*
X323277Y72942D01*
X323304Y73001D01*
X323324Y73109D01*
X323354Y73214D01*
X323888Y73748D01*
X323895Y73757D01*
X323903Y73763D01*
X324042Y73931D01*
X324045Y73935D01*
X324047Y73937D01*
X324059Y73952D01*
X324496Y74575D01*
X324527Y74590D01*
X324589Y74608D01*
X324685Y74663D01*
X324784Y74709D01*
X324835Y74749D01*
X324892Y74781D01*
X324973Y74856D01*
X325059Y74923D01*
X325100Y74974D01*
X325148Y75018D01*
X325209Y75109D01*
X325278Y75194D01*
X325306Y75253D01*
X325343Y75307D01*
X325382Y75409D01*
X325429Y75508D01*
X326048Y75941D01*
X326056Y75948D01*
X326066Y75953D01*
X326252Y76112D01*
X326790Y76650D01*
X326823Y76659D01*
X326888Y76666D01*
X326991Y76703D01*
X327097Y76731D01*
X327155Y76762D01*
X327216Y76784D01*
X327308Y76843D01*
X327405Y76895D01*
X327454Y76937D01*
X327509Y76973D01*
X327585Y77052D01*
X327668Y77124D01*
X327706Y77177D01*
X327751Y77223D01*
X327808Y77317D01*
X327871Y77406D01*
X328556Y77725D01*
X328565Y77731D01*
X328575Y77734D01*
X328786Y77858D01*
X329410Y78295D01*
X329444Y78298D01*
X329509Y78294D01*
X329617Y78312D01*
X329727Y78321D01*
X329789Y78342D01*
X329853Y78353D01*
X329954Y78395D01*
X330058Y78429D01*
X330114Y78462D01*
X330174Y78488D01*
X330263Y78552D01*
X330357Y78609D01*
X330403Y78654D01*
X330456Y78693D01*
X330528Y78775D01*
X330606Y78851D01*
X331336Y79047D01*
X331346Y79051D01*
X331356Y79053D01*
X331586Y79138D01*
X332275Y79460D01*
X332279Y79459D01*
X332311Y79450D01*
X332349Y79447D01*
X332373Y79441D01*
X332424Y79441D01*
X332555Y79431D01*
X332573Y79433D01*
X332592Y79431D01*
X332657Y79440D01*
X332722Y79440D01*
X332811Y79460D01*
X332902Y79470D01*
X332919Y79476D01*
X332937Y79479D01*
X332998Y79503D01*
X333062Y79517D01*
X333144Y79557D01*
X333230Y79588D01*
X333245Y79598D01*
X333262Y79604D01*
X333316Y79641D01*
X333375Y79670D01*
X333446Y79727D01*
X333523Y79777D01*
X333535Y79790D01*
X333550Y79800D01*
X334303Y79866D01*
X334314Y79868D01*
X334324Y79868D01*
X334565Y79912D01*
X335300Y80109D01*
X335333Y80100D01*
X335393Y80074D01*
X335501Y80055D01*
X335607Y80026D01*
X335672Y80024D01*
X335736Y80012D01*
X335845Y80017D01*
X335955Y80013D01*
X336019Y80026D01*
X336084Y80029D01*
X336189Y80059D01*
X336297Y80080D01*
X336356Y80107D01*
X336419Y80125D01*
X336515Y80178D01*
X336614Y80223D01*
X337367Y80157D01*
X337378Y80158D01*
X337388Y80156D01*
X337633Y80157D01*
X338391Y80224D01*
X338422Y80209D01*
X338477Y80173D01*
X338580Y80135D01*
X338679Y80088D01*
X338742Y80075D01*
X338804Y80052D01*
X338912Y80039D01*
X339020Y80016D01*
X339085Y80017D01*
X339149Y80009D01*
X339258Y80020D01*
X339368Y80022D01*
X339431Y80038D01*
X339496Y80045D01*
X339600Y80081D01*
X339705Y80108D01*
X340435Y79912D01*
X340446Y79911D01*
X340456Y79907D01*
X340697Y79866D01*
X341455Y79800D01*
X341483Y79780D01*
X341531Y79735D01*
X341547Y79726D01*
X341560Y79713D01*
X341640Y79669D01*
X341715Y79617D01*
X341775Y79592D01*
X341832Y79559D01*
X341850Y79554D01*
X341865Y79545D01*
X341953Y79520D01*
X342038Y79486D01*
X342102Y79476D01*
X342165Y79456D01*
X342183Y79455D01*
X342201Y79450D01*
X342333Y79440D01*
X342382Y79432D01*
X342407Y79434D01*
X342445Y79431D01*
X342478Y79434D01*
X342512Y79432D01*
X342621Y79449D01*
X342729Y79457D01*
X343414Y79138D01*
X343425Y79135D01*
X343434Y79129D01*
X343664Y79047D01*
X344399Y78850D01*
X344424Y78826D01*
X344462Y78773D01*
X344546Y78702D01*
X344623Y78625D01*
X344678Y78590D01*
X344728Y78548D01*
X344826Y78498D01*
X344919Y78440D01*
X344980Y78419D01*
X345038Y78389D01*
X345145Y78362D01*
X345248Y78327D01*
X345313Y78320D01*
X345376Y78304D01*
X345486Y78303D01*
X345595Y78292D01*
X346214Y77858D01*
X346223Y77853D01*
X346231Y77846D01*
X346444Y77725D01*
X347134Y77404D01*
X347153Y77375D01*
X347182Y77317D01*
X347253Y77232D01*
X347315Y77143D01*
X347363Y77099D01*
X347405Y77049D01*
X347492Y76983D01*
X347574Y76909D01*
X347631Y76878D01*
X347683Y76838D01*
X347783Y76794D01*
X347879Y76741D01*
X347942Y76723D01*
X348001Y76696D01*
X348109Y76676D01*
X348214Y76646D01*
X348748Y76112D01*
X348756Y76105D01*
X348763Y76097D01*
X348952Y75941D01*
X349575Y75504D01*
X349590Y75473D01*
X349608Y75411D01*
X349663Y75315D01*
X349709Y75216D01*
X349749Y75165D01*
X349781Y75108D01*
X349856Y75027D01*
X349923Y74941D01*
X349974Y74900D01*
X350018Y74852D01*
X350109Y74791D01*
X350194Y74722D01*
X350253Y74694D01*
X350307Y74657D01*
X350409Y74618D01*
X350507Y74571D01*
X350941Y73952D01*
X350948Y73944D01*
X350953Y73934D01*
X351018Y73859D01*
X351021Y73854D01*
X351024Y73851D01*
X351112Y73748D01*
X351650Y73210D01*
X351659Y73177D01*
X351666Y73112D01*
X351703Y73009D01*
X351731Y72903D01*
X351762Y72845D01*
X351784Y72784D01*
X351843Y72692D01*
X351895Y72595D01*
X351937Y72546D01*
X351973Y72491D01*
X352052Y72415D01*
X352124Y72332D01*
X352177Y72294D01*
X352223Y72249D01*
X352317Y72192D01*
X352406Y72129D01*
X352725Y71444D01*
X352731Y71435D01*
X352734Y71425D01*
X352858Y71214D01*
X353295Y70590D01*
X353298Y70556D01*
X353294Y70491D01*
X353312Y70383D01*
X353321Y70273D01*
X353342Y70211D01*
X353353Y70147D01*
X353395Y70046D01*
X353429Y69942D01*
X353462Y69886D01*
X353488Y69826D01*
X353552Y69737D01*
X353609Y69643D01*
X353654Y69597D01*
X353693Y69544D01*
X353775Y69472D01*
X353851Y69394D01*
X354047Y68664D01*
X354051Y68654D01*
X354053Y68644D01*
X354138Y68414D01*
X354460Y67725D01*
X354457Y67690D01*
X354441Y67627D01*
X354441Y67517D01*
X354431Y67408D01*
X354440Y67343D01*
X354440Y67278D01*
X354464Y67171D01*
X354479Y67063D01*
X354503Y67002D01*
X354517Y66938D01*
X354565Y66840D01*
X354604Y66738D01*
X354641Y66684D01*
X354670Y66625D01*
X354739Y66540D01*
X354800Y66450D01*
X354866Y65697D01*
X354868Y65687D01*
X354868Y65676D01*
X354912Y65435D01*
X355109Y64700D01*
X355100Y64667D01*
X355074Y64607D01*
X355055Y64499D01*
X355026Y64393D01*
X355024Y64328D01*
X355012Y64264D01*
X355017Y64155D01*
X355013Y64045D01*
X355026Y63981D01*
X355029Y63916D01*
X355059Y63811D01*
X355080Y63703D01*
X355107Y63644D01*
X355125Y63581D01*
X355178Y63485D01*
X355223Y63386D01*
X355157Y62633D01*
X355158Y62622D01*
X355156Y62612D01*
X355157Y62367D01*
X355224Y61609D01*
X355209Y61578D01*
X355173Y61523D01*
X355135Y61420D01*
X355088Y61321D01*
X355075Y61258D01*
X355052Y61196D01*
X355039Y61088D01*
X355016Y60980D01*
X355017Y60915D01*
X355009Y60851D01*
X355020Y60742D01*
X355022Y60632D01*
X355038Y60569D01*
X355045Y60504D01*
X355081Y60400D01*
X355108Y60295D01*
X354912Y59565D01*
X354911Y59554D01*
X354907Y59544D01*
X354866Y59303D01*
X354800Y58545D01*
X354780Y58517D01*
X354735Y58469D01*
X354680Y58375D01*
X354617Y58285D01*
X354592Y58225D01*
X354559Y58168D01*
X354527Y58064D01*
X354486Y57962D01*
X354476Y57898D01*
X354456Y57835D01*
X354449Y57726D01*
X354432Y57618D01*
X354437Y57553D01*
X354432Y57488D01*
X354449Y57379D01*
X354457Y57271D01*
X354138Y56586D01*
X354135Y56576D01*
X354129Y56567D01*
X354047Y56336D01*
X353850Y55601D01*
X353826Y55576D01*
X353773Y55538D01*
X353702Y55454D01*
X353625Y55377D01*
X353590Y55322D01*
X353548Y55272D01*
X353498Y55174D01*
X353440Y55081D01*
X353419Y55020D01*
X353389Y54962D01*
X353362Y54855D01*
X353327Y54752D01*
X353320Y54687D01*
X353304Y54624D01*
X353303Y54514D01*
X353292Y54405D01*
X352858Y53786D01*
X352853Y53777D01*
X352846Y53769D01*
X352725Y53556D01*
X352404Y52866D01*
X352375Y52847D01*
X352317Y52818D01*
X352232Y52747D01*
X352143Y52685D01*
X352099Y52637D01*
X352049Y52595D01*
X351983Y52508D01*
X351909Y52426D01*
X351878Y52369D01*
X351838Y52317D01*
X351794Y52217D01*
X351741Y52121D01*
X351723Y52058D01*
X351696Y51999D01*
X351676Y51891D01*
X351646Y51786D01*
X351112Y51252D01*
X351105Y51244D01*
X351097Y51237D01*
X350941Y51048D01*
X350504Y50425D01*
X350473Y50410D01*
X350411Y50392D01*
X350315Y50337D01*
X350216Y50291D01*
X350165Y50251D01*
X350108Y50219D01*
X350027Y50144D01*
X349941Y50077D01*
X349900Y50026D01*
X349852Y49982D01*
X349791Y49891D01*
X349722Y49806D01*
X349694Y49747D01*
X349657Y49693D01*
X349624Y49605D01*
X349616Y49593D01*
X349611Y49576D01*
X349571Y49492D01*
X348952Y49059D01*
X348944Y49052D01*
X348934Y49047D01*
X348748Y48888D01*
X348210Y48350D01*
X348177Y48341D01*
X348112Y48334D01*
X348009Y48297D01*
X347903Y48269D01*
X347845Y48238D01*
X347784Y48216D01*
X347692Y48157D01*
X347595Y48105D01*
X347546Y48063D01*
X347491Y48027D01*
X347415Y47948D01*
X347332Y47876D01*
X347294Y47823D01*
X347249Y47777D01*
X347192Y47683D01*
X347129Y47594D01*
X346444Y47275D01*
X346435Y47269D01*
X346425Y47266D01*
X346214Y47142D01*
X345590Y46705D01*
X345556Y46702D01*
X345491Y46706D01*
X345383Y46688D01*
X345273Y46679D01*
X345211Y46658D01*
X345147Y46647D01*
X345046Y46605D01*
X344942Y46571D01*
X344886Y46538D01*
X344826Y46512D01*
X344737Y46448D01*
X344643Y46391D01*
X344597Y46346D01*
X344544Y46307D01*
X344472Y46225D01*
X344394Y46149D01*
X343664Y45953D01*
X343654Y45949D01*
X343644Y45947D01*
X343414Y45862D01*
X342725Y45540D01*
X342690Y45543D01*
X342627Y45559D01*
X342517Y45559D01*
X342408Y45569D01*
X342343Y45560D01*
X342278Y45560D01*
X342171Y45536D01*
X342063Y45521D01*
X342002Y45497D01*
X341938Y45483D01*
X341840Y45435D01*
X341738Y45396D01*
X341684Y45359D01*
X341625Y45330D01*
X341540Y45261D01*
X341450Y45200D01*
X340697Y45134D01*
X340687Y45132D01*
X340676Y45132D01*
X340435Y45088D01*
X339700Y44891D01*
X339667Y44900D01*
X339607Y44926D01*
X339499Y44945D01*
X339393Y44974D01*
X339328Y44976D01*
X339264Y44988D01*
X339155Y44983D01*
X339045Y44987D01*
X338981Y44974D01*
X338916Y44971D01*
X338811Y44941D01*
X338703Y44920D01*
X338644Y44893D01*
X338581Y44875D01*
X338485Y44822D01*
X338386Y44777D01*
X337633Y44843D01*
X337622Y44842D01*
X337612Y44844D01*
X337367Y44843D01*
X336609Y44776D01*
X336578Y44791D01*
G37*
%LPD*%
%LPC*%
G36*
X334118Y245499D02*
X334118Y245499D01*
X327870Y248087D01*
X323087Y252870D01*
X320499Y259118D01*
X320499Y265882D01*
X323087Y272130D01*
X327870Y276913D01*
X334118Y279501D01*
X340882Y279501D01*
X347130Y276913D01*
X351913Y272130D01*
X354501Y265882D01*
X354501Y259118D01*
X351913Y252870D01*
X347130Y248087D01*
X340882Y245499D01*
X334118Y245499D01*
G37*
%LPD*%
%LPC*%
G36*
X34118Y245499D02*
X34118Y245499D01*
X27870Y248087D01*
X23087Y252870D01*
X20499Y259118D01*
X20499Y265882D01*
X23087Y272130D01*
X27870Y276913D01*
X34118Y279501D01*
X40882Y279501D01*
X47130Y276913D01*
X51913Y272130D01*
X54501Y265882D01*
X54501Y259118D01*
X51913Y252870D01*
X47130Y248087D01*
X40882Y245499D01*
X34118Y245499D01*
G37*
%LPD*%
%LPC*%
G36*
X184118Y-42001D02*
X184118Y-42001D01*
X177870Y-39413D01*
X173087Y-34630D01*
X170499Y-28382D01*
X170499Y-21618D01*
X173087Y-15370D01*
X177870Y-10587D01*
X184118Y-7999D01*
X190882Y-7999D01*
X197130Y-10587D01*
X201913Y-15370D01*
X204501Y-21618D01*
X204501Y-28382D01*
X201913Y-34630D01*
X197130Y-39413D01*
X190882Y-42001D01*
X184118Y-42001D01*
G37*
%LPD*%
%LPC*%
G36*
X317065Y123749D02*
X317065Y123749D01*
X312011Y125843D01*
X308143Y129711D01*
X306049Y134765D01*
X306049Y140235D01*
X308143Y145289D01*
X312011Y149157D01*
X317065Y151251D01*
X322535Y151251D01*
X327589Y149157D01*
X331457Y145289D01*
X333551Y140235D01*
X333551Y134765D01*
X331457Y129711D01*
X327589Y125843D01*
X322535Y123749D01*
X317065Y123749D01*
G37*
%LPD*%
%LPC*%
G36*
X52465Y123749D02*
X52465Y123749D01*
X47411Y125843D01*
X43543Y129711D01*
X41449Y134765D01*
X41449Y140235D01*
X43543Y145289D01*
X47411Y149157D01*
X52465Y151251D01*
X57935Y151251D01*
X62989Y149157D01*
X66857Y145289D01*
X68951Y140235D01*
X68951Y134765D01*
X66857Y129711D01*
X62989Y125843D01*
X57935Y123749D01*
X52465Y123749D01*
G37*
%LPD*%
%LPC*%
G36*
X317065Y-26251D02*
X317065Y-26251D01*
X312011Y-24157D01*
X308143Y-20289D01*
X306049Y-15235D01*
X306049Y-9765D01*
X308143Y-4711D01*
X312011Y-843D01*
X317065Y1251D01*
X322535Y1251D01*
X327589Y-843D01*
X331457Y-4711D01*
X333551Y-9765D01*
X333551Y-15235D01*
X331457Y-20289D01*
X327589Y-24157D01*
X322535Y-26251D01*
X317065Y-26251D01*
G37*
%LPD*%
%LPC*%
G36*
X52465Y-26251D02*
X52465Y-26251D01*
X47411Y-24157D01*
X43543Y-20289D01*
X41449Y-15235D01*
X41449Y-9765D01*
X43543Y-4711D01*
X47411Y-843D01*
X52465Y1251D01*
X57935Y1251D01*
X62989Y-843D01*
X66857Y-4711D01*
X68951Y-9765D01*
X68951Y-15235D01*
X66857Y-20289D01*
X62989Y-24157D01*
X57935Y-26251D01*
X52465Y-26251D01*
G37*
%LPD*%
%LPC*%
G36*
X278847Y244347D02*
X278847Y244347D01*
X278847Y251341D01*
X282635Y251341D01*
X283281Y251168D01*
X283860Y250833D01*
X284333Y250360D01*
X284668Y249781D01*
X284841Y249135D01*
X284841Y244347D01*
X278847Y244347D01*
G37*
%LPD*%
%LPC*%
G36*
X307247Y203247D02*
X307247Y203247D01*
X307247Y209241D01*
X312035Y209241D01*
X312681Y209068D01*
X313260Y208733D01*
X313733Y208260D01*
X314068Y207681D01*
X314241Y207035D01*
X314241Y203247D01*
X307247Y203247D01*
G37*
%LPD*%
%LPC*%
G36*
X281847Y203247D02*
X281847Y203247D01*
X281847Y209241D01*
X286635Y209241D01*
X287281Y209068D01*
X287860Y208733D01*
X288333Y208260D01*
X288668Y207681D01*
X288841Y207035D01*
X288841Y203247D01*
X281847Y203247D01*
G37*
%LPD*%
%LPC*%
G36*
X268759Y203247D02*
X268759Y203247D01*
X268759Y207035D01*
X268932Y207681D01*
X269267Y208260D01*
X269740Y208733D01*
X270319Y209068D01*
X270965Y209241D01*
X275753Y209241D01*
X275753Y203247D01*
X268759Y203247D01*
G37*
%LPD*%
%LPC*%
G36*
X294159Y203247D02*
X294159Y203247D01*
X294159Y207035D01*
X294332Y207681D01*
X294667Y208260D01*
X295140Y208733D01*
X295719Y209068D01*
X296365Y209241D01*
X301153Y209241D01*
X301153Y203247D01*
X294159Y203247D01*
G37*
%LPD*%
%LPC*%
G36*
X278847Y231259D02*
X278847Y231259D01*
X278847Y238253D01*
X284841Y238253D01*
X284841Y233465D01*
X284668Y232819D01*
X284333Y232240D01*
X283860Y231767D01*
X283281Y231432D01*
X282635Y231259D01*
X278847Y231259D01*
G37*
%LPD*%
%LPC*%
G36*
X102124Y100324D02*
X102124Y100324D01*
X102124Y107311D01*
X102185Y107301D01*
X103582Y106847D01*
X104890Y106180D01*
X106079Y105317D01*
X107117Y104279D01*
X107980Y103090D01*
X108647Y101782D01*
X109101Y100385D01*
X109111Y100324D01*
X102124Y100324D01*
G37*
%LPD*%
%LPC*%
G36*
X90889Y100324D02*
X90889Y100324D01*
X90899Y100385D01*
X91353Y101782D01*
X92020Y103090D01*
X92883Y104279D01*
X93921Y105317D01*
X95110Y106180D01*
X96418Y106847D01*
X97815Y107301D01*
X97876Y107311D01*
X97876Y100324D01*
X90889Y100324D01*
G37*
%LPD*%
%LPC*%
G36*
X277124Y24676D02*
X277124Y24676D01*
X284111Y24676D01*
X284101Y24615D01*
X283647Y23218D01*
X282980Y21910D01*
X282117Y20721D01*
X281079Y19683D01*
X279890Y18820D01*
X278582Y18153D01*
X277185Y17699D01*
X277124Y17689D01*
X277124Y24676D01*
G37*
%LPD*%
%LPC*%
G36*
X272815Y17699D02*
X272815Y17699D01*
X271418Y18153D01*
X270110Y18820D01*
X268921Y19683D01*
X267883Y20721D01*
X267020Y21910D01*
X266353Y23218D01*
X265899Y24615D01*
X265889Y24676D01*
X272876Y24676D01*
X272876Y17689D01*
X272815Y17699D01*
G37*
%LPD*%
D10*
X304200Y181200D03*
X304200Y200200D03*
D11*
X256800Y241300D03*
X275800Y241300D03*
D12*
X200200Y266900D03*
X174800Y266900D03*
D10*
X101000Y181200D03*
X101000Y200200D03*
X202600Y181200D03*
X202600Y200200D03*
X253400Y181200D03*
X253400Y200200D03*
X278800Y200200D03*
X278800Y181200D03*
D13*
X163738Y181302D03*
X163738Y190700D03*
X163738Y200098D03*
X139862Y200098D03*
X139862Y181302D03*
D10*
X75600Y200200D03*
X75600Y181200D03*
X228000Y181200D03*
X228000Y200200D03*
D14*
X37500Y62500D03*
X337500Y62500D03*
X75000Y250000D03*
D15*
X275000Y26800D03*
X275000Y47200D03*
X275000Y67600D03*
X275000Y88000D03*
X300400Y37000D03*
X300400Y57400D03*
X300400Y77800D03*
X300400Y98200D03*
X100000Y98200D03*
X100000Y77800D03*
X100000Y57400D03*
X100000Y37000D03*
X74600Y88000D03*
X74600Y67600D03*
X74600Y47200D03*
X74600Y26800D03*
D16*
X163738Y190700D02*
X177200Y190700D01*
X253400Y200200D02*
X253400Y216100D01*
X139862Y181302D02*
X121320Y181302D01*
X121320Y190700D01*
D17*
X121320Y190700D03*
X253400Y216100D03*
D16*
X253400Y241300D02*
X256800Y241300D01*
X253400Y241300D02*
X253400Y216100D01*
X173898Y200098D02*
X163738Y200098D01*
X173898Y200098D02*
X177200Y203400D01*
X177200Y216100D01*
X202600Y216100D02*
X202600Y200200D01*
X202600Y216100D02*
X200000Y216100D01*
X177200Y216100D01*
X228000Y216100D02*
X228000Y200200D01*
X228000Y216100D02*
X202600Y216100D01*
X200200Y216300D02*
X200200Y266900D01*
X200200Y216300D02*
X200000Y216100D01*
X139862Y200098D02*
X129702Y200098D01*
X126400Y203400D01*
X126400Y212500D01*
X126400Y216100D01*
X101000Y216100D02*
X101000Y200200D01*
X101000Y216100D02*
X126400Y216100D01*
X101000Y216100D02*
X75600Y216100D01*
X75600Y200200D01*
X126400Y212500D02*
X174800Y260900D01*
X174800Y266900D01*
X101000Y181200D02*
X101000Y165300D01*
X177200Y165300D01*
X173898Y181302D02*
X163738Y181302D01*
X173898Y181302D02*
X177200Y178000D01*
X177200Y165300D01*
X75600Y165300D02*
X75600Y181200D01*
X75600Y165300D02*
X101000Y165300D01*
X254500Y88000D02*
X275000Y88000D01*
X254500Y88000D02*
X177200Y165300D01*
X202600Y165300D02*
X202600Y181200D01*
X202600Y165300D02*
X228000Y165300D01*
X253400Y165300D01*
X278800Y165300D01*
X304200Y165300D01*
X304200Y181200D01*
X278800Y181200D02*
X278800Y165300D01*
X253400Y165300D02*
X253400Y181200D01*
X228000Y181200D02*
X228000Y165300D01*
X275000Y67600D02*
X233086Y25686D01*
X95314Y25686D01*
X74600Y46399D01*
X74600Y47200D01*
X243286Y15486D02*
X275000Y47200D01*
X243286Y15486D02*
X69914Y15486D01*
X63286Y22113D01*
X63286Y56286D01*
X74600Y67600D01*
M02*
