G04 EAGLE Gerber RS-274X export*
G75*
%MOMM*%
%FSLAX34Y34*%
%LPD*%
%INBottom Copper*%
%IPPOS*%
%AMOC8*
5,1,8,0,0,1.08239X$1,22.5*%
G01*
%ADD10C,1.270000*%
%ADD11C,1.358000*%
%ADD12C,0.756400*%
%ADD13C,0.304800*%

G36*
X370502Y-46996D02*
X370502Y-46996D01*
X370528Y-46998D01*
X370675Y-46976D01*
X370822Y-46959D01*
X370847Y-46951D01*
X370873Y-46947D01*
X371011Y-46892D01*
X371150Y-46842D01*
X371172Y-46828D01*
X371197Y-46818D01*
X371318Y-46733D01*
X371443Y-46653D01*
X371461Y-46634D01*
X371483Y-46619D01*
X371582Y-46509D01*
X371685Y-46402D01*
X371699Y-46380D01*
X371716Y-46360D01*
X371788Y-46230D01*
X371864Y-46103D01*
X371872Y-46078D01*
X371885Y-46055D01*
X371925Y-45912D01*
X371970Y-45771D01*
X371972Y-45745D01*
X371980Y-45720D01*
X371999Y-45476D01*
X371999Y295476D01*
X371996Y295502D01*
X371998Y295528D01*
X371976Y295675D01*
X371959Y295822D01*
X371951Y295847D01*
X371947Y295873D01*
X371892Y296011D01*
X371842Y296150D01*
X371828Y296172D01*
X371818Y296197D01*
X371733Y296318D01*
X371653Y296443D01*
X371634Y296461D01*
X371619Y296483D01*
X371509Y296582D01*
X371402Y296685D01*
X371380Y296699D01*
X371360Y296716D01*
X371230Y296788D01*
X371103Y296864D01*
X371078Y296872D01*
X371055Y296885D01*
X370912Y296925D01*
X370771Y296970D01*
X370745Y296972D01*
X370720Y296980D01*
X370476Y296999D01*
X4524Y296999D01*
X4498Y296996D01*
X4472Y296998D01*
X4325Y296976D01*
X4178Y296959D01*
X4153Y296951D01*
X4127Y296947D01*
X3989Y296892D01*
X3850Y296842D01*
X3828Y296828D01*
X3803Y296818D01*
X3682Y296733D01*
X3557Y296653D01*
X3539Y296634D01*
X3517Y296619D01*
X3418Y296509D01*
X3315Y296402D01*
X3301Y296380D01*
X3284Y296360D01*
X3212Y296230D01*
X3136Y296103D01*
X3128Y296078D01*
X3115Y296055D01*
X3075Y295912D01*
X3030Y295771D01*
X3028Y295745D01*
X3020Y295720D01*
X3001Y295476D01*
X3001Y-45476D01*
X3004Y-45502D01*
X3002Y-45528D01*
X3024Y-45675D01*
X3041Y-45822D01*
X3049Y-45847D01*
X3053Y-45873D01*
X3108Y-46011D01*
X3158Y-46150D01*
X3172Y-46172D01*
X3182Y-46197D01*
X3267Y-46318D01*
X3347Y-46443D01*
X3366Y-46461D01*
X3381Y-46483D01*
X3491Y-46582D01*
X3598Y-46685D01*
X3620Y-46699D01*
X3640Y-46716D01*
X3770Y-46788D01*
X3897Y-46864D01*
X3922Y-46872D01*
X3945Y-46885D01*
X4088Y-46925D01*
X4229Y-46970D01*
X4255Y-46972D01*
X4280Y-46980D01*
X4524Y-46999D01*
X370476Y-46999D01*
X370502Y-46996D01*
G37*
%LPC*%
G36*
X184118Y-42001D02*
X184118Y-42001D01*
X177870Y-39413D01*
X173087Y-34630D01*
X170499Y-28382D01*
X170499Y-21618D01*
X173087Y-15370D01*
X177870Y-10587D01*
X179014Y-10113D01*
X179058Y-10089D01*
X179106Y-10072D01*
X179210Y-10005D01*
X179319Y-9944D01*
X179356Y-9910D01*
X179399Y-9883D01*
X179485Y-9794D01*
X179577Y-9710D01*
X179606Y-9669D01*
X179641Y-9632D01*
X179705Y-9525D01*
X179775Y-9423D01*
X179794Y-9376D01*
X179820Y-9333D01*
X179857Y-9215D01*
X179903Y-9099D01*
X179910Y-9049D01*
X179926Y-9001D01*
X179936Y-8878D01*
X179954Y-8754D01*
X179950Y-8704D01*
X179954Y-8654D01*
X179935Y-8531D01*
X179925Y-8407D01*
X179910Y-8359D01*
X179902Y-8309D01*
X179856Y-8194D01*
X179818Y-8075D01*
X179792Y-8032D01*
X179773Y-7985D01*
X179702Y-7883D01*
X179638Y-7777D01*
X179603Y-7741D01*
X179574Y-7699D01*
X179482Y-7616D01*
X179395Y-7527D01*
X179353Y-7499D01*
X179316Y-7466D01*
X179207Y-7406D01*
X179102Y-7338D01*
X179055Y-7322D01*
X179011Y-7297D01*
X178891Y-7263D01*
X178774Y-7222D01*
X178724Y-7216D01*
X178675Y-7202D01*
X178431Y-7183D01*
X102733Y-7183D01*
X78677Y16874D01*
X78617Y16921D01*
X78564Y16976D01*
X78481Y17029D01*
X78404Y17090D01*
X78335Y17123D01*
X78271Y17164D01*
X78178Y17197D01*
X78089Y17239D01*
X78014Y17255D01*
X77942Y17281D01*
X77844Y17292D01*
X77748Y17312D01*
X77672Y17311D01*
X77596Y17320D01*
X77498Y17308D01*
X77400Y17306D01*
X77326Y17288D01*
X77250Y17279D01*
X77108Y17233D01*
X77062Y17221D01*
X77045Y17213D01*
X77017Y17204D01*
X76548Y17009D01*
X72652Y17009D01*
X69054Y18500D01*
X66300Y21254D01*
X64809Y24852D01*
X64809Y28748D01*
X66300Y32346D01*
X69054Y35100D01*
X70243Y35593D01*
X70331Y35642D01*
X70423Y35682D01*
X70483Y35726D01*
X70548Y35762D01*
X70622Y35830D01*
X70703Y35889D01*
X70751Y35946D01*
X70806Y35996D01*
X70863Y36079D01*
X70928Y36155D01*
X70962Y36222D01*
X71004Y36283D01*
X71041Y36376D01*
X71087Y36466D01*
X71105Y36538D01*
X71132Y36607D01*
X71146Y36706D01*
X71171Y36804D01*
X71172Y36878D01*
X71183Y36952D01*
X71174Y37052D01*
X71176Y37152D01*
X71160Y37225D01*
X71154Y37299D01*
X71123Y37395D01*
X71101Y37493D01*
X71069Y37560D01*
X71047Y37631D01*
X70995Y37717D01*
X70952Y37808D01*
X70905Y37866D01*
X70867Y37929D01*
X70797Y38001D01*
X70734Y38080D01*
X70676Y38126D01*
X70624Y38179D01*
X70540Y38234D01*
X70461Y38296D01*
X70371Y38342D01*
X70331Y38368D01*
X70297Y38380D01*
X70243Y38407D01*
X69054Y38900D01*
X66300Y41654D01*
X64809Y45252D01*
X64809Y49148D01*
X66300Y52746D01*
X69054Y55500D01*
X70243Y55993D01*
X70331Y56042D01*
X70423Y56082D01*
X70483Y56126D01*
X70548Y56162D01*
X70622Y56230D01*
X70703Y56289D01*
X70751Y56346D01*
X70806Y56396D01*
X70863Y56479D01*
X70928Y56555D01*
X70962Y56622D01*
X71004Y56683D01*
X71041Y56776D01*
X71087Y56866D01*
X71105Y56938D01*
X71132Y57007D01*
X71146Y57106D01*
X71171Y57204D01*
X71172Y57278D01*
X71183Y57352D01*
X71174Y57452D01*
X71176Y57552D01*
X71160Y57625D01*
X71154Y57699D01*
X71123Y57795D01*
X71101Y57893D01*
X71069Y57960D01*
X71047Y58031D01*
X70995Y58117D01*
X70952Y58208D01*
X70905Y58266D01*
X70867Y58329D01*
X70797Y58401D01*
X70734Y58480D01*
X70676Y58526D01*
X70624Y58579D01*
X70540Y58634D01*
X70461Y58696D01*
X70371Y58742D01*
X70331Y58768D01*
X70297Y58780D01*
X70243Y58807D01*
X69054Y59300D01*
X66300Y62054D01*
X64809Y65652D01*
X64809Y69548D01*
X66300Y73146D01*
X69054Y75900D01*
X70243Y76393D01*
X70331Y76442D01*
X70423Y76482D01*
X70483Y76526D01*
X70548Y76562D01*
X70622Y76630D01*
X70703Y76689D01*
X70751Y76746D01*
X70806Y76796D01*
X70863Y76879D01*
X70928Y76955D01*
X70962Y77022D01*
X71004Y77083D01*
X71041Y77176D01*
X71087Y77266D01*
X71105Y77338D01*
X71132Y77407D01*
X71146Y77506D01*
X71171Y77604D01*
X71172Y77678D01*
X71183Y77752D01*
X71174Y77852D01*
X71176Y77952D01*
X71160Y78025D01*
X71154Y78099D01*
X71123Y78195D01*
X71101Y78293D01*
X71069Y78360D01*
X71047Y78431D01*
X70995Y78517D01*
X70952Y78608D01*
X70905Y78666D01*
X70867Y78729D01*
X70797Y78801D01*
X70734Y78880D01*
X70676Y78926D01*
X70624Y78979D01*
X70540Y79034D01*
X70461Y79096D01*
X70371Y79142D01*
X70331Y79168D01*
X70297Y79180D01*
X70243Y79207D01*
X69054Y79700D01*
X66300Y82454D01*
X64809Y86052D01*
X64809Y89948D01*
X66300Y93546D01*
X69054Y96300D01*
X72652Y97791D01*
X76548Y97791D01*
X80146Y96300D01*
X82900Y93546D01*
X84391Y89948D01*
X84391Y86052D01*
X82900Y82454D01*
X80146Y79700D01*
X78957Y79207D01*
X78869Y79159D01*
X78777Y79119D01*
X78717Y79074D01*
X78652Y79038D01*
X78578Y78971D01*
X78497Y78911D01*
X78449Y78854D01*
X78394Y78804D01*
X78337Y78721D01*
X78272Y78645D01*
X78238Y78578D01*
X78196Y78517D01*
X78159Y78424D01*
X78113Y78334D01*
X78096Y78262D01*
X78068Y78193D01*
X78054Y78094D01*
X78029Y77996D01*
X78028Y77922D01*
X78017Y77848D01*
X78026Y77748D01*
X78024Y77648D01*
X78040Y77575D01*
X78046Y77501D01*
X78077Y77405D01*
X78099Y77307D01*
X78131Y77240D01*
X78153Y77169D01*
X78205Y77083D01*
X78248Y76992D01*
X78295Y76934D01*
X78333Y76871D01*
X78403Y76799D01*
X78466Y76720D01*
X78524Y76674D01*
X78576Y76621D01*
X78660Y76566D01*
X78739Y76504D01*
X78829Y76458D01*
X78869Y76432D01*
X78903Y76420D01*
X78957Y76393D01*
X80146Y75900D01*
X82900Y73146D01*
X84391Y69548D01*
X84391Y65652D01*
X82900Y62054D01*
X80146Y59300D01*
X78957Y58807D01*
X78869Y58759D01*
X78777Y58719D01*
X78717Y58674D01*
X78652Y58638D01*
X78578Y58571D01*
X78497Y58511D01*
X78449Y58454D01*
X78394Y58404D01*
X78337Y58321D01*
X78272Y58245D01*
X78238Y58178D01*
X78196Y58117D01*
X78159Y58024D01*
X78113Y57934D01*
X78096Y57862D01*
X78068Y57793D01*
X78054Y57694D01*
X78029Y57596D01*
X78028Y57522D01*
X78017Y57448D01*
X78026Y57348D01*
X78024Y57248D01*
X78040Y57175D01*
X78046Y57101D01*
X78077Y57005D01*
X78099Y56907D01*
X78131Y56840D01*
X78153Y56769D01*
X78205Y56683D01*
X78248Y56592D01*
X78295Y56534D01*
X78333Y56471D01*
X78403Y56399D01*
X78466Y56320D01*
X78524Y56274D01*
X78576Y56221D01*
X78660Y56166D01*
X78739Y56104D01*
X78829Y56058D01*
X78869Y56032D01*
X78903Y56020D01*
X78957Y55993D01*
X80146Y55500D01*
X82900Y52746D01*
X84391Y49148D01*
X84391Y45252D01*
X82900Y41654D01*
X80146Y38900D01*
X78957Y38407D01*
X78869Y38359D01*
X78777Y38319D01*
X78717Y38274D01*
X78652Y38238D01*
X78578Y38171D01*
X78497Y38111D01*
X78449Y38054D01*
X78394Y38004D01*
X78337Y37921D01*
X78272Y37845D01*
X78238Y37778D01*
X78196Y37717D01*
X78159Y37624D01*
X78113Y37534D01*
X78096Y37462D01*
X78068Y37393D01*
X78054Y37294D01*
X78029Y37196D01*
X78028Y37122D01*
X78017Y37048D01*
X78026Y36948D01*
X78024Y36848D01*
X78040Y36775D01*
X78046Y36701D01*
X78077Y36605D01*
X78099Y36507D01*
X78131Y36440D01*
X78153Y36369D01*
X78205Y36283D01*
X78248Y36192D01*
X78295Y36134D01*
X78333Y36071D01*
X78403Y35999D01*
X78466Y35920D01*
X78524Y35874D01*
X78576Y35821D01*
X78660Y35766D01*
X78739Y35704D01*
X78829Y35658D01*
X78869Y35632D01*
X78903Y35620D01*
X78957Y35593D01*
X80146Y35100D01*
X82900Y32346D01*
X84391Y28748D01*
X84391Y24589D01*
X84394Y24565D01*
X84392Y24541D01*
X84406Y24445D01*
X84412Y24337D01*
X84425Y24290D01*
X84431Y24242D01*
X84441Y24214D01*
X84443Y24197D01*
X84475Y24116D01*
X84508Y24002D01*
X84532Y23960D01*
X84548Y23914D01*
X84567Y23885D01*
X84572Y23873D01*
X84613Y23814D01*
X84617Y23808D01*
X84678Y23698D01*
X84718Y23652D01*
X84737Y23622D01*
X84766Y23593D01*
X84771Y23587D01*
X84780Y23579D01*
X84837Y23512D01*
X106036Y2313D01*
X106135Y2234D01*
X106229Y2150D01*
X106271Y2126D01*
X106309Y2096D01*
X106423Y2042D01*
X106534Y1981D01*
X106580Y1968D01*
X106624Y1947D01*
X106747Y1921D01*
X106869Y1886D01*
X106930Y1881D01*
X106965Y1874D01*
X107013Y1875D01*
X107113Y1867D01*
X124404Y1867D01*
X124504Y1878D01*
X124604Y1880D01*
X124676Y1898D01*
X124750Y1906D01*
X124845Y1940D01*
X124942Y1965D01*
X125008Y1999D01*
X125078Y2024D01*
X125163Y2078D01*
X125252Y2124D01*
X125308Y2173D01*
X125371Y2213D01*
X125441Y2285D01*
X125517Y2350D01*
X125561Y2410D01*
X125613Y2464D01*
X125665Y2550D01*
X125724Y2631D01*
X125754Y2699D01*
X125792Y2763D01*
X125823Y2858D01*
X125862Y2951D01*
X125876Y3024D01*
X125898Y3095D01*
X125906Y3195D01*
X125924Y3294D01*
X125920Y3368D01*
X125926Y3442D01*
X125911Y3541D01*
X125906Y3642D01*
X125886Y3713D01*
X125874Y3787D01*
X125837Y3880D01*
X125810Y3977D01*
X125773Y4041D01*
X125746Y4111D01*
X125688Y4193D01*
X125639Y4281D01*
X125574Y4357D01*
X125547Y4397D01*
X125520Y4421D01*
X125481Y4467D01*
X103185Y26763D01*
X103086Y26842D01*
X102992Y26926D01*
X102950Y26950D01*
X102912Y26980D01*
X102798Y27034D01*
X102687Y27095D01*
X102640Y27108D01*
X102597Y27129D01*
X102473Y27155D01*
X102351Y27190D01*
X102291Y27195D01*
X102256Y27202D01*
X102208Y27201D01*
X102108Y27209D01*
X98052Y27209D01*
X94454Y28700D01*
X91700Y31454D01*
X90209Y35052D01*
X90209Y38948D01*
X91700Y42546D01*
X94454Y45300D01*
X95643Y45793D01*
X95731Y45842D01*
X95823Y45882D01*
X95883Y45926D01*
X95948Y45962D01*
X96022Y46030D01*
X96103Y46089D01*
X96151Y46146D01*
X96206Y46196D01*
X96263Y46279D01*
X96328Y46355D01*
X96362Y46422D01*
X96404Y46483D01*
X96441Y46576D01*
X96487Y46666D01*
X96505Y46738D01*
X96532Y46807D01*
X96546Y46906D01*
X96571Y47004D01*
X96572Y47078D01*
X96583Y47152D01*
X96574Y47252D01*
X96576Y47352D01*
X96560Y47425D01*
X96554Y47499D01*
X96523Y47595D01*
X96501Y47693D01*
X96469Y47760D01*
X96447Y47831D01*
X96395Y47917D01*
X96352Y48008D01*
X96305Y48066D01*
X96267Y48129D01*
X96197Y48201D01*
X96134Y48280D01*
X96076Y48326D01*
X96024Y48379D01*
X95940Y48434D01*
X95861Y48496D01*
X95771Y48542D01*
X95731Y48568D01*
X95697Y48580D01*
X95643Y48607D01*
X94454Y49100D01*
X91700Y51854D01*
X90209Y55452D01*
X90209Y59348D01*
X91700Y62946D01*
X94454Y65700D01*
X95643Y66193D01*
X95731Y66242D01*
X95823Y66282D01*
X95883Y66326D01*
X95948Y66362D01*
X96022Y66430D01*
X96103Y66489D01*
X96151Y66546D01*
X96206Y66596D01*
X96263Y66679D01*
X96328Y66755D01*
X96362Y66822D01*
X96404Y66883D01*
X96441Y66976D01*
X96487Y67066D01*
X96505Y67138D01*
X96532Y67207D01*
X96546Y67306D01*
X96571Y67404D01*
X96572Y67478D01*
X96583Y67552D01*
X96574Y67652D01*
X96576Y67752D01*
X96560Y67825D01*
X96554Y67899D01*
X96523Y67995D01*
X96501Y68093D01*
X96469Y68160D01*
X96447Y68231D01*
X96395Y68317D01*
X96352Y68408D01*
X96305Y68466D01*
X96267Y68529D01*
X96197Y68601D01*
X96134Y68680D01*
X96076Y68726D01*
X96024Y68779D01*
X95940Y68834D01*
X95861Y68896D01*
X95771Y68942D01*
X95731Y68968D01*
X95697Y68980D01*
X95643Y69007D01*
X94454Y69500D01*
X91700Y72254D01*
X90209Y75852D01*
X90209Y79748D01*
X91700Y83346D01*
X94454Y86100D01*
X96222Y86833D01*
X96258Y86852D01*
X96297Y86866D01*
X96410Y86937D01*
X96527Y87002D01*
X96557Y87029D01*
X96592Y87051D01*
X96686Y87146D01*
X96785Y87236D01*
X96808Y87270D01*
X96837Y87299D01*
X96907Y87413D01*
X96983Y87523D01*
X96998Y87561D01*
X97020Y87595D01*
X97062Y87723D01*
X97111Y87847D01*
X97117Y87887D01*
X97130Y87926D01*
X97143Y88059D01*
X97162Y88192D01*
X97159Y88232D01*
X97162Y88273D01*
X97144Y88406D01*
X97133Y88539D01*
X97121Y88578D01*
X97115Y88618D01*
X97067Y88743D01*
X97026Y88871D01*
X97005Y88906D01*
X96991Y88944D01*
X96915Y89055D01*
X96846Y89169D01*
X96818Y89199D01*
X96795Y89232D01*
X96697Y89323D01*
X96604Y89419D01*
X96569Y89441D01*
X96539Y89469D01*
X96331Y89597D01*
X95110Y90220D01*
X93921Y91083D01*
X92883Y92121D01*
X92020Y93310D01*
X91353Y94618D01*
X90899Y96015D01*
X90889Y96076D01*
X99399Y96076D01*
X99425Y96079D01*
X99451Y96077D01*
X99598Y96099D01*
X99745Y96116D01*
X99770Y96124D01*
X99796Y96128D01*
X99933Y96183D01*
X99994Y96205D01*
X99999Y96203D01*
X100022Y96190D01*
X100165Y96150D01*
X100306Y96105D01*
X100332Y96102D01*
X100357Y96095D01*
X100601Y96076D01*
X109111Y96076D01*
X109101Y96015D01*
X108647Y94618D01*
X107980Y93310D01*
X107117Y92121D01*
X106079Y91083D01*
X104890Y90220D01*
X103669Y89597D01*
X103635Y89575D01*
X103598Y89559D01*
X103490Y89479D01*
X103378Y89405D01*
X103351Y89375D01*
X103318Y89351D01*
X103231Y89248D01*
X103140Y89151D01*
X103119Y89116D01*
X103093Y89085D01*
X103032Y88965D01*
X102964Y88850D01*
X102953Y88811D01*
X102934Y88774D01*
X102902Y88644D01*
X102862Y88516D01*
X102860Y88476D01*
X102850Y88436D01*
X102848Y88302D01*
X102839Y88169D01*
X102845Y88128D01*
X102845Y88088D01*
X102873Y87957D01*
X102895Y87825D01*
X102910Y87787D01*
X102919Y87747D01*
X102977Y87626D01*
X103028Y87502D01*
X103051Y87469D01*
X103069Y87432D01*
X103152Y87328D01*
X103230Y87219D01*
X103261Y87192D01*
X103286Y87160D01*
X103391Y87077D01*
X103492Y86989D01*
X103528Y86969D01*
X103560Y86944D01*
X103778Y86833D01*
X105546Y86100D01*
X108300Y83346D01*
X109791Y79748D01*
X109791Y75852D01*
X109757Y75772D01*
X109736Y75698D01*
X109706Y75628D01*
X109689Y75531D01*
X109662Y75436D01*
X109658Y75360D01*
X109644Y75285D01*
X109649Y75187D01*
X109645Y75088D01*
X109658Y75013D01*
X109662Y74937D01*
X109689Y74842D01*
X109707Y74746D01*
X109738Y74675D01*
X109759Y74602D01*
X109807Y74516D01*
X109846Y74426D01*
X109892Y74365D01*
X109929Y74298D01*
X110026Y74184D01*
X110054Y74146D01*
X110069Y74134D01*
X110087Y74112D01*
X163742Y20457D01*
X163841Y20378D01*
X163935Y20294D01*
X163977Y20270D01*
X164015Y20240D01*
X164129Y20186D01*
X164240Y20125D01*
X164287Y20112D01*
X164330Y20091D01*
X164454Y20065D01*
X164575Y20030D01*
X164636Y20025D01*
X164671Y20018D01*
X164719Y20019D01*
X164819Y20011D01*
X265501Y20011D01*
X265537Y20015D01*
X265573Y20012D01*
X265710Y20035D01*
X265848Y20051D01*
X265881Y20063D01*
X265917Y20068D01*
X266045Y20121D01*
X266176Y20168D01*
X266206Y20188D01*
X266239Y20201D01*
X266352Y20282D01*
X266469Y20357D01*
X266494Y20383D01*
X266523Y20404D01*
X266614Y20508D01*
X266711Y20608D01*
X266729Y20639D01*
X266753Y20665D01*
X266819Y20788D01*
X266890Y20907D01*
X266901Y20941D01*
X266918Y20973D01*
X266954Y21107D01*
X266996Y21239D01*
X266999Y21275D01*
X267008Y21309D01*
X267013Y21448D01*
X267024Y21586D01*
X267019Y21622D01*
X267020Y21658D01*
X266993Y21794D01*
X266972Y21931D01*
X266959Y21964D01*
X266952Y21999D01*
X266859Y22226D01*
X266353Y23218D01*
X265899Y24615D01*
X265889Y24676D01*
X274399Y24676D01*
X274425Y24679D01*
X274451Y24677D01*
X274598Y24699D01*
X274745Y24716D01*
X274770Y24724D01*
X274796Y24728D01*
X274933Y24783D01*
X275073Y24833D01*
X275095Y24847D01*
X275120Y24857D01*
X275241Y24942D01*
X275366Y25022D01*
X275384Y25041D01*
X275406Y25056D01*
X275505Y25166D01*
X275608Y25273D01*
X275622Y25295D01*
X275639Y25315D01*
X275711Y25445D01*
X275787Y25572D01*
X275795Y25597D01*
X275808Y25620D01*
X275848Y25763D01*
X275893Y25904D01*
X275895Y25930D01*
X275902Y25955D01*
X275922Y26199D01*
X275922Y27401D01*
X275919Y27427D01*
X275921Y27453D01*
X275899Y27600D01*
X275882Y27747D01*
X275873Y27772D01*
X275869Y27798D01*
X275815Y27935D01*
X275765Y28075D01*
X275750Y28097D01*
X275741Y28122D01*
X275656Y28243D01*
X275576Y28368D01*
X275557Y28386D01*
X275542Y28408D01*
X275432Y28507D01*
X275325Y28610D01*
X275302Y28624D01*
X275283Y28641D01*
X275153Y28713D01*
X275026Y28789D01*
X275001Y28797D01*
X274978Y28810D01*
X274835Y28850D01*
X274694Y28895D01*
X274668Y28897D01*
X274643Y28905D01*
X274399Y28924D01*
X265889Y28924D01*
X265899Y28985D01*
X266353Y30382D01*
X267020Y31690D01*
X267883Y32879D01*
X268921Y33917D01*
X270110Y34780D01*
X271331Y35403D01*
X271365Y35425D01*
X271402Y35441D01*
X271510Y35522D01*
X271622Y35595D01*
X271649Y35625D01*
X271682Y35649D01*
X271769Y35752D01*
X271861Y35849D01*
X271881Y35884D01*
X271907Y35915D01*
X271968Y36035D01*
X272036Y36150D01*
X272048Y36189D01*
X272066Y36226D01*
X272098Y36355D01*
X272138Y36484D01*
X272140Y36524D01*
X272150Y36564D01*
X272152Y36698D01*
X272161Y36831D01*
X272155Y36871D01*
X272155Y36912D01*
X272127Y37044D01*
X272105Y37175D01*
X272090Y37213D01*
X272081Y37253D01*
X272023Y37374D01*
X271972Y37498D01*
X271949Y37531D01*
X271931Y37568D01*
X271848Y37672D01*
X271770Y37781D01*
X271739Y37808D01*
X271714Y37840D01*
X271609Y37923D01*
X271508Y38011D01*
X271472Y38031D01*
X271440Y38056D01*
X271223Y38167D01*
X269454Y38900D01*
X266700Y41654D01*
X265209Y45252D01*
X265209Y49148D01*
X266700Y52746D01*
X269454Y55500D01*
X270643Y55993D01*
X270731Y56041D01*
X270823Y56081D01*
X270883Y56126D01*
X270948Y56162D01*
X271022Y56229D01*
X271103Y56289D01*
X271151Y56346D01*
X271206Y56396D01*
X271263Y56479D01*
X271328Y56555D01*
X271362Y56622D01*
X271404Y56683D01*
X271441Y56776D01*
X271487Y56866D01*
X271504Y56938D01*
X271532Y57007D01*
X271546Y57106D01*
X271571Y57204D01*
X271572Y57278D01*
X271583Y57352D01*
X271574Y57452D01*
X271576Y57552D01*
X271560Y57625D01*
X271554Y57699D01*
X271523Y57795D01*
X271501Y57893D01*
X271469Y57960D01*
X271447Y58031D01*
X271395Y58117D01*
X271352Y58208D01*
X271305Y58266D01*
X271267Y58329D01*
X271197Y58401D01*
X271134Y58480D01*
X271076Y58526D01*
X271024Y58579D01*
X270940Y58634D01*
X270861Y58696D01*
X270771Y58742D01*
X270731Y58768D01*
X270697Y58780D01*
X270643Y58807D01*
X269454Y59300D01*
X266700Y62054D01*
X265209Y65652D01*
X265209Y69548D01*
X266700Y73146D01*
X269454Y75900D01*
X270643Y76393D01*
X270731Y76441D01*
X270823Y76481D01*
X270883Y76526D01*
X270948Y76562D01*
X271022Y76629D01*
X271103Y76689D01*
X271151Y76746D01*
X271206Y76796D01*
X271263Y76879D01*
X271328Y76955D01*
X271362Y77022D01*
X271404Y77083D01*
X271441Y77176D01*
X271487Y77266D01*
X271504Y77338D01*
X271532Y77407D01*
X271546Y77506D01*
X271571Y77604D01*
X271572Y77678D01*
X271583Y77752D01*
X271574Y77852D01*
X271576Y77952D01*
X271560Y78025D01*
X271554Y78099D01*
X271523Y78195D01*
X271501Y78293D01*
X271469Y78360D01*
X271447Y78431D01*
X271395Y78517D01*
X271352Y78608D01*
X271305Y78666D01*
X271267Y78729D01*
X271197Y78801D01*
X271134Y78880D01*
X271076Y78926D01*
X271024Y78979D01*
X270940Y79034D01*
X270861Y79096D01*
X270771Y79142D01*
X270731Y79168D01*
X270697Y79180D01*
X270643Y79207D01*
X269454Y79700D01*
X266700Y82454D01*
X265209Y86052D01*
X265209Y89948D01*
X266700Y93546D01*
X269454Y96300D01*
X273052Y97791D01*
X276948Y97791D01*
X280546Y96300D01*
X283300Y93546D01*
X284791Y89948D01*
X284791Y86052D01*
X283300Y82454D01*
X280546Y79700D01*
X279357Y79207D01*
X279269Y79158D01*
X279177Y79118D01*
X279117Y79074D01*
X279052Y79038D01*
X278978Y78970D01*
X278897Y78911D01*
X278849Y78854D01*
X278794Y78804D01*
X278737Y78721D01*
X278672Y78645D01*
X278638Y78578D01*
X278596Y78517D01*
X278559Y78424D01*
X278513Y78334D01*
X278495Y78262D01*
X278468Y78193D01*
X278454Y78094D01*
X278429Y77996D01*
X278428Y77922D01*
X278417Y77848D01*
X278426Y77748D01*
X278424Y77648D01*
X278440Y77575D01*
X278446Y77501D01*
X278477Y77405D01*
X278499Y77307D01*
X278531Y77240D01*
X278553Y77169D01*
X278605Y77083D01*
X278648Y76992D01*
X278695Y76934D01*
X278733Y76871D01*
X278803Y76799D01*
X278866Y76720D01*
X278924Y76674D01*
X278976Y76621D01*
X279060Y76566D01*
X279139Y76504D01*
X279229Y76458D01*
X279269Y76432D01*
X279303Y76420D01*
X279357Y76393D01*
X280546Y75900D01*
X283300Y73146D01*
X284791Y69548D01*
X284791Y65652D01*
X283300Y62054D01*
X280546Y59300D01*
X279357Y58807D01*
X279269Y58758D01*
X279177Y58718D01*
X279117Y58674D01*
X279052Y58638D01*
X278978Y58570D01*
X278897Y58511D01*
X278849Y58454D01*
X278794Y58404D01*
X278737Y58321D01*
X278672Y58245D01*
X278638Y58178D01*
X278596Y58117D01*
X278559Y58024D01*
X278513Y57934D01*
X278495Y57862D01*
X278468Y57793D01*
X278454Y57694D01*
X278429Y57596D01*
X278428Y57522D01*
X278417Y57448D01*
X278426Y57348D01*
X278424Y57248D01*
X278440Y57175D01*
X278446Y57101D01*
X278477Y57005D01*
X278499Y56907D01*
X278531Y56840D01*
X278553Y56769D01*
X278605Y56683D01*
X278648Y56592D01*
X278695Y56534D01*
X278733Y56471D01*
X278803Y56399D01*
X278866Y56320D01*
X278924Y56274D01*
X278976Y56221D01*
X279060Y56166D01*
X279139Y56104D01*
X279229Y56058D01*
X279269Y56032D01*
X279303Y56020D01*
X279357Y55993D01*
X280546Y55500D01*
X283300Y52746D01*
X284791Y49148D01*
X284791Y45252D01*
X283300Y41654D01*
X280546Y38900D01*
X278777Y38167D01*
X278747Y38150D01*
X278733Y38145D01*
X278730Y38144D01*
X278703Y38134D01*
X278590Y38063D01*
X278473Y37998D01*
X278443Y37971D01*
X278408Y37949D01*
X278314Y37854D01*
X278215Y37764D01*
X278192Y37730D01*
X278163Y37701D01*
X278093Y37587D01*
X278017Y37477D01*
X278002Y37439D01*
X277980Y37405D01*
X277938Y37278D01*
X277889Y37153D01*
X277883Y37113D01*
X277870Y37074D01*
X277857Y36941D01*
X277838Y36808D01*
X277841Y36768D01*
X277837Y36727D01*
X277856Y36594D01*
X277867Y36461D01*
X277879Y36422D01*
X277885Y36382D01*
X277933Y36257D01*
X277974Y36129D01*
X277995Y36094D01*
X278009Y36056D01*
X278084Y35945D01*
X278154Y35831D01*
X278182Y35801D01*
X278205Y35768D01*
X278303Y35677D01*
X278396Y35581D01*
X278431Y35559D01*
X278461Y35531D01*
X278669Y35403D01*
X279890Y34780D01*
X281079Y33917D01*
X282117Y32879D01*
X282980Y31690D01*
X283647Y30382D01*
X283991Y29322D01*
X284006Y29289D01*
X284015Y29255D01*
X284079Y29131D01*
X284136Y29005D01*
X284158Y28977D01*
X284175Y28945D01*
X284265Y28839D01*
X284349Y28729D01*
X284377Y28707D01*
X284401Y28679D01*
X284512Y28597D01*
X284620Y28509D01*
X284652Y28494D01*
X284681Y28472D01*
X284808Y28417D01*
X284933Y28356D01*
X284968Y28348D01*
X285001Y28334D01*
X285138Y28310D01*
X285273Y28279D01*
X285308Y28279D01*
X285344Y28273D01*
X285482Y28280D01*
X285621Y28280D01*
X285656Y28289D01*
X285692Y28290D01*
X285825Y28329D01*
X285960Y28361D01*
X285992Y28377D01*
X286027Y28387D01*
X286148Y28455D01*
X286272Y28517D01*
X286300Y28540D01*
X286331Y28557D01*
X286517Y28716D01*
X290547Y32745D01*
X290595Y32805D01*
X290649Y32859D01*
X290703Y32941D01*
X290764Y33018D01*
X290796Y33087D01*
X290838Y33152D01*
X290871Y33245D01*
X290913Y33334D01*
X290929Y33408D01*
X290954Y33480D01*
X290965Y33578D01*
X290986Y33674D01*
X290985Y33751D01*
X290993Y33827D01*
X290982Y33925D01*
X290980Y34023D01*
X290961Y34097D01*
X290952Y34173D01*
X290907Y34315D01*
X290895Y34361D01*
X290886Y34378D01*
X290877Y34406D01*
X290609Y35053D01*
X290609Y38948D01*
X292100Y42546D01*
X294854Y45300D01*
X296043Y45793D01*
X296131Y45841D01*
X296223Y45881D01*
X296283Y45926D01*
X296348Y45962D01*
X296422Y46029D01*
X296503Y46089D01*
X296551Y46146D01*
X296606Y46196D01*
X296663Y46279D01*
X296728Y46355D01*
X296762Y46422D01*
X296804Y46483D01*
X296841Y46576D01*
X296887Y46666D01*
X296904Y46738D01*
X296932Y46807D01*
X296946Y46906D01*
X296971Y47004D01*
X296972Y47078D01*
X296983Y47152D01*
X296974Y47252D01*
X296976Y47352D01*
X296960Y47425D01*
X296954Y47499D01*
X296923Y47595D01*
X296901Y47693D01*
X296869Y47760D01*
X296847Y47831D01*
X296795Y47917D01*
X296752Y48008D01*
X296705Y48066D01*
X296667Y48129D01*
X296597Y48201D01*
X296534Y48280D01*
X296476Y48326D01*
X296424Y48379D01*
X296340Y48434D01*
X296261Y48496D01*
X296171Y48542D01*
X296131Y48568D01*
X296097Y48580D01*
X296043Y48607D01*
X294854Y49100D01*
X292100Y51854D01*
X290609Y55452D01*
X290609Y59348D01*
X292100Y62946D01*
X294854Y65700D01*
X296043Y66193D01*
X296131Y66241D01*
X296223Y66281D01*
X296283Y66326D01*
X296348Y66362D01*
X296422Y66429D01*
X296503Y66489D01*
X296551Y66546D01*
X296606Y66596D01*
X296663Y66679D01*
X296728Y66755D01*
X296762Y66822D01*
X296804Y66883D01*
X296841Y66976D01*
X296887Y67066D01*
X296904Y67138D01*
X296932Y67207D01*
X296946Y67306D01*
X296971Y67404D01*
X296972Y67478D01*
X296983Y67552D01*
X296974Y67652D01*
X296976Y67752D01*
X296960Y67825D01*
X296954Y67899D01*
X296923Y67995D01*
X296901Y68093D01*
X296869Y68160D01*
X296847Y68231D01*
X296795Y68317D01*
X296752Y68408D01*
X296705Y68466D01*
X296667Y68529D01*
X296597Y68601D01*
X296534Y68680D01*
X296476Y68726D01*
X296424Y68779D01*
X296340Y68834D01*
X296261Y68896D01*
X296171Y68942D01*
X296131Y68968D01*
X296097Y68980D01*
X296043Y69007D01*
X294854Y69500D01*
X292100Y72254D01*
X290609Y75852D01*
X290609Y79748D01*
X292100Y83346D01*
X294854Y86100D01*
X296043Y86593D01*
X296131Y86641D01*
X296223Y86681D01*
X296283Y86726D01*
X296348Y86762D01*
X296422Y86829D01*
X296503Y86889D01*
X296551Y86946D01*
X296606Y86996D01*
X296663Y87079D01*
X296728Y87155D01*
X296762Y87222D01*
X296804Y87283D01*
X296841Y87376D01*
X296887Y87466D01*
X296904Y87538D01*
X296932Y87607D01*
X296946Y87706D01*
X296971Y87804D01*
X296972Y87878D01*
X296983Y87952D01*
X296974Y88052D01*
X296976Y88152D01*
X296960Y88225D01*
X296954Y88299D01*
X296923Y88395D01*
X296901Y88493D01*
X296869Y88560D01*
X296847Y88631D01*
X296795Y88717D01*
X296752Y88808D01*
X296705Y88866D01*
X296667Y88929D01*
X296597Y89001D01*
X296534Y89080D01*
X296476Y89126D01*
X296424Y89179D01*
X296340Y89234D01*
X296261Y89296D01*
X296171Y89342D01*
X296131Y89368D01*
X296097Y89380D01*
X296043Y89407D01*
X294854Y89900D01*
X292100Y92654D01*
X290609Y96252D01*
X290609Y100147D01*
X290643Y100228D01*
X290664Y100302D01*
X290694Y100372D01*
X290711Y100469D01*
X290738Y100563D01*
X290742Y100640D01*
X290756Y100715D01*
X290751Y100813D01*
X290755Y100912D01*
X290742Y100987D01*
X290738Y101063D01*
X290711Y101158D01*
X290693Y101254D01*
X290662Y101325D01*
X290641Y101398D01*
X290593Y101484D01*
X290554Y101574D01*
X290508Y101635D01*
X290471Y101702D01*
X290374Y101816D01*
X290346Y101854D01*
X290332Y101866D01*
X290313Y101888D01*
X286072Y106129D01*
X282975Y109226D01*
X282975Y179495D01*
X282961Y179620D01*
X282954Y179747D01*
X282941Y179793D01*
X282935Y179841D01*
X282893Y179960D01*
X282858Y180081D01*
X282834Y180124D01*
X282818Y180169D01*
X282749Y180275D01*
X282688Y180386D01*
X282648Y180432D01*
X282629Y180462D01*
X282594Y180495D01*
X282529Y180572D01*
X254230Y208871D01*
X254131Y208950D01*
X254037Y209034D01*
X253995Y209058D01*
X253957Y209088D01*
X253843Y209142D01*
X253732Y209203D01*
X253685Y209216D01*
X253642Y209237D01*
X253518Y209263D01*
X253397Y209298D01*
X253336Y209303D01*
X253301Y209310D01*
X253253Y209309D01*
X253153Y209317D01*
X252051Y209317D01*
X249558Y210350D01*
X248779Y211129D01*
X248679Y211208D01*
X248586Y211292D01*
X248544Y211316D01*
X248506Y211346D01*
X248391Y211400D01*
X248281Y211461D01*
X248234Y211474D01*
X248191Y211495D01*
X248067Y211521D01*
X247945Y211556D01*
X247885Y211561D01*
X247850Y211568D01*
X247802Y211567D01*
X247702Y211575D01*
X149225Y211575D01*
X149100Y211561D01*
X148973Y211554D01*
X148927Y211541D01*
X148879Y211535D01*
X148760Y211493D01*
X148639Y211458D01*
X148596Y211434D01*
X148551Y211418D01*
X148445Y211349D01*
X148334Y211288D01*
X148288Y211248D01*
X148258Y211229D01*
X148225Y211194D01*
X148148Y211129D01*
X128549Y191530D01*
X128470Y191431D01*
X128386Y191337D01*
X128362Y191295D01*
X128332Y191257D01*
X128278Y191143D01*
X128217Y191032D01*
X128204Y190985D01*
X128183Y190942D01*
X128157Y190818D01*
X128122Y190697D01*
X128117Y190636D01*
X128110Y190601D01*
X128111Y190553D01*
X128103Y190453D01*
X128103Y189351D01*
X127070Y186858D01*
X125162Y184950D01*
X122669Y183917D01*
X119971Y183917D01*
X117478Y184950D01*
X115570Y186858D01*
X114537Y189351D01*
X114537Y192049D01*
X115570Y194542D01*
X117478Y196450D01*
X119971Y197483D01*
X121073Y197483D01*
X121198Y197497D01*
X121325Y197504D01*
X121371Y197517D01*
X121419Y197523D01*
X121538Y197565D01*
X121659Y197600D01*
X121702Y197624D01*
X121747Y197640D01*
X121853Y197709D01*
X121964Y197770D01*
X122010Y197810D01*
X122040Y197829D01*
X122073Y197864D01*
X122150Y197929D01*
X144846Y220625D01*
X247702Y220625D01*
X247827Y220639D01*
X247953Y220646D01*
X248000Y220659D01*
X248048Y220665D01*
X248167Y220707D01*
X248288Y220742D01*
X248330Y220766D01*
X248376Y220782D01*
X248482Y220851D01*
X248592Y220912D01*
X248639Y220952D01*
X248669Y220971D01*
X248702Y221006D01*
X248779Y221071D01*
X249558Y221850D01*
X252051Y222883D01*
X254749Y222883D01*
X257242Y221850D01*
X259150Y219942D01*
X260183Y217449D01*
X260183Y216347D01*
X260197Y216222D01*
X260204Y216095D01*
X260217Y216049D01*
X260223Y216001D01*
X260265Y215882D01*
X260300Y215761D01*
X260324Y215718D01*
X260340Y215673D01*
X260409Y215567D01*
X260470Y215456D01*
X260510Y215410D01*
X260529Y215380D01*
X260564Y215347D01*
X260629Y215270D01*
X292025Y183874D01*
X292025Y113605D01*
X292039Y113480D01*
X292046Y113353D01*
X292059Y113307D01*
X292065Y113259D01*
X292107Y113140D01*
X292142Y113019D01*
X292166Y112976D01*
X292182Y112931D01*
X292251Y112824D01*
X292312Y112714D01*
X292352Y112668D01*
X292371Y112638D01*
X292406Y112604D01*
X292471Y112528D01*
X296712Y108287D01*
X296771Y108240D01*
X296825Y108185D01*
X296908Y108132D01*
X296985Y108071D01*
X297054Y108038D01*
X297118Y107997D01*
X297211Y107964D01*
X297300Y107922D01*
X297374Y107906D01*
X297446Y107880D01*
X297544Y107869D01*
X297640Y107848D01*
X297717Y107850D01*
X297793Y107841D01*
X297891Y107853D01*
X297989Y107854D01*
X298063Y107873D01*
X298139Y107882D01*
X298281Y107928D01*
X298327Y107939D01*
X298344Y107948D01*
X298372Y107957D01*
X298453Y107991D01*
X302348Y107991D01*
X305946Y106500D01*
X308700Y103746D01*
X310191Y100148D01*
X310191Y96253D01*
X310157Y96172D01*
X310136Y96098D01*
X310106Y96028D01*
X310089Y95931D01*
X310062Y95837D01*
X310058Y95760D01*
X310044Y95685D01*
X310049Y95587D01*
X310045Y95488D01*
X310058Y95413D01*
X310062Y95337D01*
X310089Y95242D01*
X310107Y95146D01*
X310138Y95075D01*
X310159Y95002D01*
X310207Y94916D01*
X310246Y94826D01*
X310292Y94765D01*
X310329Y94698D01*
X310426Y94584D01*
X310454Y94546D01*
X310468Y94534D01*
X310487Y94512D01*
X328335Y76664D01*
X328335Y25429D01*
X325238Y22332D01*
X295723Y-7183D01*
X196569Y-7183D01*
X196518Y-7189D01*
X196468Y-7186D01*
X196346Y-7209D01*
X196222Y-7223D01*
X196175Y-7240D01*
X196125Y-7249D01*
X196011Y-7298D01*
X195894Y-7340D01*
X195852Y-7368D01*
X195806Y-7388D01*
X195706Y-7462D01*
X195601Y-7529D01*
X195566Y-7565D01*
X195526Y-7596D01*
X195446Y-7690D01*
X195359Y-7780D01*
X195333Y-7823D01*
X195301Y-7862D01*
X195244Y-7972D01*
X195180Y-8079D01*
X195165Y-8127D01*
X195142Y-8172D01*
X195112Y-8293D01*
X195074Y-8411D01*
X195070Y-8461D01*
X195058Y-8510D01*
X195056Y-8634D01*
X195046Y-8758D01*
X195054Y-8808D01*
X195053Y-8858D01*
X195079Y-8980D01*
X195098Y-9103D01*
X195116Y-9150D01*
X195127Y-9199D01*
X195181Y-9311D01*
X195227Y-9427D01*
X195255Y-9468D01*
X195277Y-9514D01*
X195355Y-9611D01*
X195426Y-9713D01*
X195463Y-9747D01*
X195494Y-9786D01*
X195592Y-9863D01*
X195684Y-9946D01*
X195728Y-9971D01*
X195768Y-10002D01*
X195986Y-10113D01*
X197130Y-10587D01*
X201913Y-15370D01*
X204501Y-21618D01*
X204501Y-28382D01*
X201913Y-34630D01*
X197130Y-39413D01*
X190882Y-42001D01*
X184118Y-42001D01*
G37*
%LPD*%
%LPC*%
G36*
X334118Y245499D02*
X334118Y245499D01*
X327870Y248087D01*
X323087Y252870D01*
X320499Y259118D01*
X320499Y265882D01*
X323087Y272130D01*
X327870Y276913D01*
X334118Y279501D01*
X340882Y279501D01*
X347130Y276913D01*
X351913Y272130D01*
X354501Y265882D01*
X354501Y259118D01*
X351913Y252870D01*
X347130Y248087D01*
X340882Y245499D01*
X334118Y245499D01*
G37*
%LPD*%
%LPC*%
G36*
X34118Y245499D02*
X34118Y245499D01*
X27870Y248087D01*
X23087Y252870D01*
X20499Y259118D01*
X20499Y265882D01*
X23087Y272130D01*
X27870Y276913D01*
X34118Y279501D01*
X40882Y279501D01*
X47130Y276913D01*
X51913Y272130D01*
X54501Y265882D01*
X54501Y259118D01*
X51913Y252870D01*
X47130Y248087D01*
X40882Y245499D01*
X34118Y245499D01*
G37*
%LPD*%
%LPC*%
G36*
X317065Y123749D02*
X317065Y123749D01*
X312011Y125843D01*
X308143Y129711D01*
X306049Y134765D01*
X306049Y140235D01*
X308143Y145289D01*
X312011Y149157D01*
X317065Y151251D01*
X322535Y151251D01*
X327589Y149157D01*
X331457Y145289D01*
X333551Y140235D01*
X333551Y134765D01*
X331457Y129711D01*
X327589Y125843D01*
X322535Y123749D01*
X317065Y123749D01*
G37*
%LPD*%
%LPC*%
G36*
X52465Y123749D02*
X52465Y123749D01*
X47411Y125843D01*
X43543Y129711D01*
X41449Y134765D01*
X41449Y140235D01*
X43543Y145289D01*
X47411Y149157D01*
X52465Y151251D01*
X57935Y151251D01*
X62989Y149157D01*
X66857Y145289D01*
X68951Y140235D01*
X68951Y134765D01*
X66857Y129711D01*
X62989Y125843D01*
X57935Y123749D01*
X52465Y123749D01*
G37*
%LPD*%
%LPC*%
G36*
X317065Y-26251D02*
X317065Y-26251D01*
X312011Y-24157D01*
X308143Y-20289D01*
X306049Y-15235D01*
X306049Y-9765D01*
X308143Y-4711D01*
X312011Y-843D01*
X317065Y1251D01*
X322535Y1251D01*
X327589Y-843D01*
X331457Y-4711D01*
X333551Y-9765D01*
X333551Y-15235D01*
X331457Y-20289D01*
X327589Y-24157D01*
X322535Y-26251D01*
X317065Y-26251D01*
G37*
%LPD*%
%LPC*%
G36*
X52465Y-26251D02*
X52465Y-26251D01*
X47411Y-24157D01*
X43543Y-20289D01*
X41449Y-15235D01*
X41449Y-9765D01*
X43543Y-4711D01*
X47411Y-843D01*
X52465Y1251D01*
X57935Y1251D01*
X62989Y-843D01*
X66857Y-4711D01*
X68951Y-9765D01*
X68951Y-15235D01*
X66857Y-20289D01*
X62989Y-24157D01*
X57935Y-26251D01*
X52465Y-26251D01*
G37*
%LPD*%
%LPC*%
G36*
X198340Y257549D02*
X198340Y257549D01*
X194903Y258973D01*
X192273Y261603D01*
X190849Y265040D01*
X190849Y268760D01*
X192273Y272197D01*
X194903Y274827D01*
X198340Y276251D01*
X202060Y276251D01*
X205497Y274827D01*
X208127Y272197D01*
X209551Y268760D01*
X209551Y265040D01*
X208127Y261603D01*
X205497Y258973D01*
X202060Y257549D01*
X198340Y257549D01*
G37*
%LPD*%
%LPC*%
G36*
X172940Y257549D02*
X172940Y257549D01*
X169503Y258973D01*
X166873Y261603D01*
X165449Y265040D01*
X165449Y268760D01*
X166873Y272197D01*
X169503Y274827D01*
X172940Y276251D01*
X176660Y276251D01*
X180097Y274827D01*
X182727Y272197D01*
X184151Y268760D01*
X184151Y265040D01*
X182727Y261603D01*
X180097Y258973D01*
X176660Y257549D01*
X172940Y257549D01*
G37*
%LPD*%
%LPC*%
G36*
X102124Y100324D02*
X102124Y100324D01*
X102124Y107311D01*
X102185Y107301D01*
X103582Y106847D01*
X104890Y106180D01*
X106079Y105317D01*
X107117Y104279D01*
X107980Y103090D01*
X108647Y101782D01*
X109101Y100385D01*
X109111Y100324D01*
X102124Y100324D01*
G37*
%LPD*%
%LPC*%
G36*
X90889Y100324D02*
X90889Y100324D01*
X90899Y100385D01*
X91353Y101782D01*
X92020Y103090D01*
X92883Y104279D01*
X93921Y105317D01*
X95110Y106180D01*
X96418Y106847D01*
X97815Y107301D01*
X97876Y107311D01*
X97876Y100324D01*
X90889Y100324D01*
G37*
%LPD*%
D10*
X200200Y266900D03*
X174800Y266900D03*
D11*
X275000Y26800D03*
X275000Y47200D03*
X275000Y67600D03*
X275000Y88000D03*
X300400Y37000D03*
X300400Y57400D03*
X300400Y77800D03*
X300400Y98200D03*
X100000Y98200D03*
X100000Y77800D03*
X100000Y57400D03*
X100000Y37000D03*
X74600Y88000D03*
X74600Y67600D03*
X74600Y47200D03*
X74600Y26800D03*
D12*
X121320Y190700D03*
X253400Y216100D03*
D13*
X146720Y216100D02*
X121320Y190700D01*
X146720Y216100D02*
X253400Y216100D01*
X287500Y182000D01*
X287500Y111100D02*
X300400Y98200D01*
X287500Y111100D02*
X287500Y182000D01*
X75150Y26800D02*
X74600Y26800D01*
X75150Y26800D02*
X104608Y-2658D01*
X293849Y-2658D01*
X323810Y27303D01*
X323810Y74790D01*
X300400Y98200D01*
X132957Y3390D02*
X100000Y36347D01*
X100000Y37000D01*
X291344Y3390D02*
X317762Y29808D01*
X291344Y3390D02*
X132957Y3390D01*
X317762Y29808D02*
X317762Y61268D01*
X301230Y77800D01*
X300400Y77800D01*
X300400Y57400D02*
X311714Y46086D01*
X311714Y32313D01*
X288838Y9438D01*
X147962Y9438D01*
X100000Y57400D01*
X300400Y37000D02*
X300400Y36199D01*
X279687Y15486D01*
X162314Y15486D01*
X100000Y77800D01*
M02*
