G04 EAGLE Gerber RS-274X export*
G75*
%MOMM*%
%FSLAX34Y34*%
%LPD*%
%INSoldermask Top*%
%IPPOS*%
%AMOC8*
5,1,8,0,0,1.08239X$1,22.5*%
G01*
%ADD10C,3.203200*%
%ADD11R,1.703200X1.503200*%
%ADD12R,1.503200X1.703200*%
%ADD13C,1.473200*%
%ADD14R,1.676400X0.762000*%
%ADD15C,1.561200*%
%ADD16C,2.553200*%

G36*
X77660Y234596D02*
X77660Y234596D01*
X77703Y234608D01*
X77769Y234615D01*
X80294Y235292D01*
X80335Y235311D01*
X80398Y235330D01*
X82768Y236435D01*
X82805Y236461D01*
X82864Y236490D01*
X85006Y237990D01*
X85037Y238021D01*
X85090Y238061D01*
X86939Y239910D01*
X86965Y239946D01*
X87010Y239994D01*
X88510Y242136D01*
X88529Y242177D01*
X88565Y242232D01*
X89670Y244602D01*
X89682Y244645D01*
X89708Y244706D01*
X90385Y247231D01*
X90389Y247276D01*
X90404Y247340D01*
X90632Y249945D01*
X90628Y249989D01*
X90632Y250055D01*
X90404Y252660D01*
X90392Y252703D01*
X90385Y252769D01*
X89708Y255294D01*
X89689Y255335D01*
X89670Y255398D01*
X88565Y257768D01*
X88539Y257805D01*
X88510Y257864D01*
X87010Y260006D01*
X86979Y260037D01*
X86939Y260090D01*
X85090Y261939D01*
X85054Y261965D01*
X85006Y262010D01*
X82864Y263510D01*
X82823Y263529D01*
X82768Y263565D01*
X80398Y264670D01*
X80355Y264682D01*
X80294Y264708D01*
X77769Y265385D01*
X77724Y265389D01*
X77660Y265404D01*
X75055Y265632D01*
X75011Y265628D01*
X74945Y265632D01*
X72340Y265404D01*
X72297Y265392D01*
X72231Y265385D01*
X69706Y264708D01*
X69665Y264689D01*
X69602Y264670D01*
X67232Y263565D01*
X67195Y263539D01*
X67136Y263510D01*
X64994Y262010D01*
X64963Y261979D01*
X64910Y261939D01*
X63061Y260090D01*
X63035Y260054D01*
X62990Y260006D01*
X61490Y257864D01*
X61471Y257823D01*
X61435Y257768D01*
X60330Y255398D01*
X60318Y255355D01*
X60292Y255294D01*
X59615Y252769D01*
X59612Y252724D01*
X59596Y252660D01*
X59368Y250055D01*
X59372Y250011D01*
X59368Y249945D01*
X59596Y247340D01*
X59608Y247297D01*
X59615Y247231D01*
X60292Y244706D01*
X60311Y244665D01*
X60330Y244602D01*
X61435Y242232D01*
X61461Y242195D01*
X61490Y242136D01*
X62990Y239994D01*
X63021Y239963D01*
X63061Y239910D01*
X64910Y238061D01*
X64946Y238035D01*
X64994Y237990D01*
X67136Y236490D01*
X67177Y236471D01*
X67232Y236435D01*
X69602Y235330D01*
X69645Y235318D01*
X69706Y235292D01*
X72231Y234615D01*
X72276Y234612D01*
X72340Y234596D01*
X74945Y234368D01*
X74989Y234372D01*
X75055Y234368D01*
X77660Y234596D01*
G37*
G36*
X340160Y47096D02*
X340160Y47096D01*
X340203Y47108D01*
X340269Y47115D01*
X342794Y47792D01*
X342835Y47811D01*
X342898Y47830D01*
X345268Y48935D01*
X345305Y48961D01*
X345364Y48990D01*
X347506Y50490D01*
X347537Y50521D01*
X347590Y50561D01*
X349439Y52410D01*
X349465Y52446D01*
X349510Y52494D01*
X351010Y54636D01*
X351029Y54677D01*
X351065Y54732D01*
X352170Y57102D01*
X352182Y57145D01*
X352208Y57206D01*
X352885Y59731D01*
X352889Y59776D01*
X352904Y59840D01*
X353132Y62445D01*
X353128Y62489D01*
X353132Y62555D01*
X352904Y65160D01*
X352892Y65203D01*
X352885Y65269D01*
X352208Y67794D01*
X352189Y67835D01*
X352170Y67898D01*
X351065Y70268D01*
X351039Y70305D01*
X351010Y70364D01*
X349510Y72506D01*
X349479Y72537D01*
X349439Y72590D01*
X347590Y74439D01*
X347554Y74465D01*
X347506Y74510D01*
X345364Y76010D01*
X345323Y76029D01*
X345268Y76065D01*
X342898Y77170D01*
X342855Y77182D01*
X342794Y77208D01*
X340269Y77885D01*
X340224Y77889D01*
X340160Y77904D01*
X337555Y78132D01*
X337511Y78128D01*
X337445Y78132D01*
X334840Y77904D01*
X334797Y77892D01*
X334731Y77885D01*
X332206Y77208D01*
X332165Y77189D01*
X332102Y77170D01*
X329732Y76065D01*
X329695Y76039D01*
X329636Y76010D01*
X327494Y74510D01*
X327463Y74479D01*
X327410Y74439D01*
X325561Y72590D01*
X325535Y72554D01*
X325490Y72506D01*
X323990Y70364D01*
X323971Y70323D01*
X323935Y70268D01*
X322830Y67898D01*
X322818Y67855D01*
X322792Y67794D01*
X322115Y65269D01*
X322112Y65224D01*
X322096Y65160D01*
X321868Y62555D01*
X321872Y62511D01*
X321868Y62445D01*
X322096Y59840D01*
X322108Y59797D01*
X322115Y59731D01*
X322792Y57206D01*
X322811Y57165D01*
X322830Y57102D01*
X323935Y54732D01*
X323961Y54695D01*
X323990Y54636D01*
X325490Y52494D01*
X325521Y52463D01*
X325561Y52410D01*
X327410Y50561D01*
X327446Y50535D01*
X327494Y50490D01*
X329636Y48990D01*
X329677Y48971D01*
X329732Y48935D01*
X332102Y47830D01*
X332145Y47818D01*
X332206Y47792D01*
X334731Y47115D01*
X334776Y47112D01*
X334840Y47096D01*
X337445Y46868D01*
X337489Y46872D01*
X337555Y46868D01*
X340160Y47096D01*
G37*
G36*
X40160Y47096D02*
X40160Y47096D01*
X40203Y47108D01*
X40269Y47115D01*
X42794Y47792D01*
X42835Y47811D01*
X42898Y47830D01*
X45268Y48935D01*
X45305Y48961D01*
X45364Y48990D01*
X47506Y50490D01*
X47537Y50521D01*
X47590Y50561D01*
X49439Y52410D01*
X49465Y52446D01*
X49510Y52494D01*
X51010Y54636D01*
X51029Y54677D01*
X51065Y54732D01*
X52170Y57102D01*
X52182Y57145D01*
X52208Y57206D01*
X52885Y59731D01*
X52889Y59776D01*
X52904Y59840D01*
X53132Y62445D01*
X53128Y62489D01*
X53132Y62555D01*
X52904Y65160D01*
X52892Y65203D01*
X52885Y65269D01*
X52208Y67794D01*
X52189Y67835D01*
X52170Y67898D01*
X51065Y70268D01*
X51039Y70305D01*
X51010Y70364D01*
X49510Y72506D01*
X49479Y72537D01*
X49439Y72590D01*
X47590Y74439D01*
X47554Y74465D01*
X47506Y74510D01*
X45364Y76010D01*
X45323Y76029D01*
X45268Y76065D01*
X42898Y77170D01*
X42855Y77182D01*
X42794Y77208D01*
X40269Y77885D01*
X40224Y77889D01*
X40160Y77904D01*
X37555Y78132D01*
X37511Y78128D01*
X37445Y78132D01*
X34840Y77904D01*
X34797Y77892D01*
X34731Y77885D01*
X32206Y77208D01*
X32165Y77189D01*
X32102Y77170D01*
X29732Y76065D01*
X29695Y76039D01*
X29636Y76010D01*
X27494Y74510D01*
X27463Y74479D01*
X27410Y74439D01*
X25561Y72590D01*
X25535Y72554D01*
X25490Y72506D01*
X23990Y70364D01*
X23971Y70323D01*
X23935Y70268D01*
X22830Y67898D01*
X22818Y67855D01*
X22792Y67794D01*
X22115Y65269D01*
X22112Y65224D01*
X22096Y65160D01*
X21868Y62555D01*
X21872Y62511D01*
X21868Y62445D01*
X22096Y59840D01*
X22108Y59797D01*
X22115Y59731D01*
X22792Y57206D01*
X22811Y57165D01*
X22830Y57102D01*
X23935Y54732D01*
X23961Y54695D01*
X23990Y54636D01*
X25490Y52494D01*
X25521Y52463D01*
X25561Y52410D01*
X27410Y50561D01*
X27446Y50535D01*
X27494Y50490D01*
X29636Y48990D01*
X29677Y48971D01*
X29732Y48935D01*
X32102Y47830D01*
X32145Y47818D01*
X32206Y47792D01*
X34731Y47115D01*
X34776Y47112D01*
X34840Y47096D01*
X37445Y46868D01*
X37489Y46872D01*
X37555Y46868D01*
X40160Y47096D01*
G37*
D10*
X187500Y-25000D03*
X37500Y262500D03*
X337500Y262500D03*
D11*
X304200Y181200D03*
X304200Y200200D03*
D12*
X256800Y241300D03*
X275800Y241300D03*
D13*
X200200Y266900D03*
X174800Y266900D03*
D11*
X101000Y181200D03*
X101000Y200200D03*
X202600Y181200D03*
X202600Y200200D03*
X253400Y181200D03*
X253400Y200200D03*
X278800Y200200D03*
X278800Y181200D03*
D14*
X163738Y181302D03*
X163738Y190700D03*
X163738Y200098D03*
X139862Y200098D03*
X139862Y181302D03*
D11*
X75600Y200200D03*
X75600Y181200D03*
X228000Y181200D03*
X228000Y200200D03*
D15*
X275000Y26800D03*
X275000Y47200D03*
X275000Y67600D03*
X275000Y88000D03*
X300400Y37000D03*
X300400Y57400D03*
X300400Y77800D03*
X300400Y98200D03*
D16*
X319800Y137500D03*
X319800Y-12500D03*
D15*
X100000Y98200D03*
X100000Y77800D03*
X100000Y57400D03*
X100000Y37000D03*
X74600Y88000D03*
X74600Y67600D03*
X74600Y47200D03*
X74600Y26800D03*
D16*
X55200Y-12500D03*
X55200Y137500D03*
M02*
