solid 
   facet normal -1.000000e+00 -0.000000e+00 -0.000000e+00
      outer loop
         vertex -2.000000e+00 -8.000000e+00 1.900000e+01
         vertex -2.000000e+00 -1.750000e+00 1.900000e+01
         vertex -2.000000e+00 -1.750000e+00 3.000000e+00
      endloop
   endfacet
   facet normal -1.000000e+00 -0.000000e+00 0.000000e+00
      outer loop
         vertex -2.000000e+00 -1.750000e+00 3.000000e+00
         vertex -2.000000e+00 1.425000e+01 3.000000e+00
         vertex -2.000000e+00 -8.000000e+00 0.000000e+00
      endloop
   endfacet
   facet normal -1.000000e+00 0.000000e+00 0.000000e+00
      outer loop
         vertex -2.000000e+00 1.425000e+01 3.000000e+00
         vertex -2.000000e+00 1.425000e+01 1.900000e+01
         vertex -2.000000e+00 4.800000e+01 1.900000e+01
      endloop
   endfacet
   facet normal -1.000000e+00 0.000000e+00 0.000000e+00
      outer loop
         vertex -2.000000e+00 4.800000e+01 1.900000e+01
         vertex -2.000000e+00 4.800000e+01 0.000000e+00
         vertex -2.000000e+00 1.425000e+01 3.000000e+00
      endloop
   endfacet
   facet normal -1.000000e+00 0.000000e+00 0.000000e+00
      outer loop
         vertex -2.000000e+00 4.800000e+01 0.000000e+00
         vertex -2.000000e+00 -8.000000e+00 0.000000e+00
         vertex -2.000000e+00 1.425000e+01 3.000000e+00
      endloop
   endfacet
   facet normal -1.000000e+00 0.000000e+00 0.000000e+00
      outer loop
         vertex -2.000000e+00 -8.000000e+00 0.000000e+00
         vertex -2.000000e+00 -8.000000e+00 1.900000e+01
         vertex -2.000000e+00 -1.750000e+00 3.000000e+00
      endloop
   endfacet
   facet normal 1.000000e+00 -0.000000e+00 0.000000e+00
      outer loop
         vertex 3.950000e+01 1.425000e+01 3.000000e+00
         vertex 3.950000e+01 -1.750000e+00 3.000000e+00
         vertex 3.950000e+01 -8.000000e+00 0.000000e+00
      endloop
   endfacet
   facet normal 1.000000e+00 0.000000e+00 0.000000e+00
      outer loop
         vertex 3.950000e+01 -1.750000e+00 3.000000e+00
         vertex 3.950000e+01 -1.750000e+00 1.900000e+01
         vertex 3.950000e+01 -8.000000e+00 1.900000e+01
      endloop
   endfacet
   facet normal 1.000000e+00 0.000000e+00 0.000000e+00
      outer loop
         vertex 3.950000e+01 -8.000000e+00 1.900000e+01
         vertex 3.950000e+01 -8.000000e+00 0.000000e+00
         vertex 3.950000e+01 -1.750000e+00 3.000000e+00
      endloop
   endfacet
   facet normal 1.000000e+00 0.000000e+00 0.000000e+00
      outer loop
         vertex 3.950000e+01 -8.000000e+00 0.000000e+00
         vertex 3.950000e+01 4.800000e+01 0.000000e+00
         vertex 3.950000e+01 1.425000e+01 3.000000e+00
      endloop
   endfacet
   facet normal 1.000000e+00 0.000000e+00 0.000000e+00
      outer loop
         vertex 3.950000e+01 4.800000e+01 0.000000e+00
         vertex 3.950000e+01 4.800000e+01 1.900000e+01
         vertex 3.950000e+01 1.425000e+01 3.000000e+00
      endloop
   endfacet
   facet normal 1.000000e+00 -0.000000e+00 0.000000e+00
      outer loop
         vertex 3.950000e+01 4.800000e+01 1.900000e+01
         vertex 3.950000e+01 1.425000e+01 1.900000e+01
         vertex 3.950000e+01 1.425000e+01 3.000000e+00
      endloop
   endfacet
   facet normal 1.000000e+00 -1.387779e-16 -6.700539e-17
      outer loop
         vertex -5.814581e-15 -7.000000e+00 0.000000e+00
         vertex -2.664535e-15 1.425000e+01 3.000000e+00
         vertex -4.884981e-15 -1.750000e+00 3.000000e+00
      endloop
   endfacet
   facet normal 1.000000e+00 -1.586541e-16 -1.183809e-17
      outer loop
         vertex 0.000000e+00 3.000000e+01 1.700000e+01
         vertex -2.475126e-15 1.425000e+01 1.900000e+01
         vertex -2.664535e-15 1.425000e+01 3.000000e+00
      endloop
   endfacet
   facet normal 1.000000e+00 -1.571508e-16 0.000000e+00
      outer loop
         vertex 0.000000e+00 3.000000e+01 1.700000e+01
         vertex 0.000000e+00 3.000000e+01 1.900000e+01
         vertex -2.475126e-15 1.425000e+01 1.900000e+01
      endloop
   endfacet
   facet normal 1.000000e+00 -1.691768e-16 0.000000e+00
      outer loop
         vertex -2.664535e-15 1.425000e+01 3.000000e+00
         vertex 0.000000e+00 3.000000e+01 0.000000e+00
         vertex 0.000000e+00 3.000000e+01 1.700000e+01
      endloop
   endfacet
   facet normal 1.000000e+00 -1.571508e-16 6.313647e-17
      outer loop
         vertex -2.664535e-15 1.425000e+01 3.000000e+00
         vertex -5.814581e-15 -7.000000e+00 0.000000e+00
         vertex 0.000000e+00 3.000000e+01 0.000000e+00
      endloop
   endfacet
   facet normal 1.000000e+00 -1.770667e-16 0.000000e+00
      outer loop
         vertex -4.884981e-15 -1.750000e+00 3.000000e+00
         vertex -5.814581e-15 -7.000000e+00 1.900000e+01
         vertex -5.814581e-15 -7.000000e+00 0.000000e+00
      endloop
   endfacet
   facet normal 1.000000e+00 -1.571509e-16 6.534859e-18
      outer loop
         vertex -4.884981e-15 -1.750000e+00 3.000000e+00
         vertex -4.989539e-15 -1.750000e+00 1.900000e+01
         vertex -5.814581e-15 -7.000000e+00 1.900000e+01
      endloop
   endfacet
   facet normal -1.000000e+00 0.000000e+00 0.000000e+00
      outer loop
         vertex 3.750000e+01 -1.750000e+00 3.000000e+00
         vertex 3.750000e+01 -7.000000e+00 1.900000e+01
         vertex 3.750000e+01 -1.750000e+00 1.900000e+01
      endloop
   endfacet
   facet normal -1.000000e+00 0.000000e+00 0.000000e+00
      outer loop
         vertex 3.750000e+01 -1.750000e+00 3.000000e+00
         vertex 3.750000e+01 -7.000000e+00 0.000000e+00
         vertex 3.750000e+01 -7.000000e+00 1.900000e+01
      endloop
   endfacet
   facet normal -1.000000e+00 0.000000e+00 0.000000e+00
      outer loop
         vertex 3.750000e+01 1.425000e+01 3.000000e+00
         vertex 3.750000e+01 3.000000e+01 0.000000e+00
         vertex 3.750000e+01 -7.000000e+00 0.000000e+00
      endloop
   endfacet
   facet normal -1.000000e+00 0.000000e+00 -0.000000e+00
      outer loop
         vertex 3.750000e+01 1.425000e+01 3.000000e+00
         vertex 3.750000e+01 3.000000e+01 1.700000e+01
         vertex 3.750000e+01 3.000000e+01 0.000000e+00
      endloop
   endfacet
   facet normal -1.000000e+00 -0.000000e+00 -0.000000e+00
      outer loop
         vertex 3.750000e+01 1.425000e+01 1.900000e+01
         vertex 3.750000e+01 3.000000e+01 1.900000e+01
         vertex 3.750000e+01 3.000000e+01 1.700000e+01
      endloop
   endfacet
   facet normal -1.000000e+00 0.000000e+00 0.000000e+00
      outer loop
         vertex 3.750000e+01 3.000000e+01 1.700000e+01
         vertex 3.750000e+01 1.425000e+01 3.000000e+00
         vertex 3.750000e+01 1.425000e+01 1.900000e+01
      endloop
   endfacet
   facet normal -1.000000e+00 0.000000e+00 -0.000000e+00
      outer loop
         vertex 3.750000e+01 -7.000000e+00 0.000000e+00
         vertex 3.750000e+01 -1.750000e+00 3.000000e+00
         vertex 3.750000e+01 1.425000e+01 3.000000e+00
      endloop
   endfacet
   facet normal 0.000000e+00 0.000000e+00 1.000000e+00
      outer loop
         vertex -5.814581e-15 -7.000000e+00 1.900000e+01
         vertex -4.989539e-15 -1.750000e+00 1.900000e+01
         vertex -2.000000e+00 -1.750000e+00 1.900000e+01
      endloop
   endfacet
   facet normal 0.000000e+00 0.000000e+00 1.000000e+00
      outer loop
         vertex -2.000000e+00 -1.750000e+00 1.900000e+01
         vertex -2.000000e+00 -8.000000e+00 1.900000e+01
         vertex -5.814581e-15 -7.000000e+00 1.900000e+01
      endloop
   endfacet
   facet normal -0.000000e+00 -0.000000e+00 1.000000e+00
      outer loop
         vertex -2.000000e+00 -8.000000e+00 1.900000e+01
         vertex -1.866025e+00 -8.500000e+00 1.900000e+01
         vertex -1.500000e+00 -8.866025e+00 1.900000e+01
      endloop
   endfacet
   facet normal 0.000000e+00 0.000000e+00 1.000000e+00
      outer loop
         vertex -1.500000e+00 -8.866025e+00 1.900000e+01
         vertex -1.000000e+00 -9.000000e+00 1.900000e+01
         vertex -2.000000e+00 -8.000000e+00 1.900000e+01
      endloop
   endfacet
   facet normal 0.000000e+00 0.000000e+00 1.000000e+00
      outer loop
         vertex -1.000000e+00 -9.000000e+00 1.900000e+01
         vertex 3.850000e+01 -9.000000e+00 1.900000e+01
         vertex -5.814581e-15 -7.000000e+00 1.900000e+01
      endloop
   endfacet
   facet normal 0.000000e+00 -0.000000e+00 1.000000e+00
      outer loop
         vertex 3.850000e+01 -9.000000e+00 1.900000e+01
         vertex 3.900000e+01 -8.866025e+00 1.900000e+01
         vertex 3.950000e+01 -8.000000e+00 1.900000e+01
      endloop
   endfacet
   facet normal 0.000000e+00 -0.000000e+00 1.000000e+00
      outer loop
         vertex 3.900000e+01 -8.866025e+00 1.900000e+01
         vertex 3.936602e+01 -8.500000e+00 1.900000e+01
         vertex 3.950000e+01 -8.000000e+00 1.900000e+01
      endloop
   endfacet
   facet normal 0.000000e+00 0.000000e+00 1.000000e+00
      outer loop
         vertex 3.950000e+01 -8.000000e+00 1.900000e+01
         vertex 3.950000e+01 -1.750000e+00 1.900000e+01
         vertex 3.750000e+01 -7.000000e+00 1.900000e+01
      endloop
   endfacet
   facet normal -0.000000e+00 0.000000e+00 1.000000e+00
      outer loop
         vertex 3.950000e+01 -1.750000e+00 1.900000e+01
         vertex 3.750000e+01 -1.750000e+00 1.900000e+01
         vertex 3.750000e+01 -7.000000e+00 1.900000e+01
      endloop
   endfacet
   facet normal -0.000000e+00 0.000000e+00 1.000000e+00
      outer loop
         vertex 3.750000e+01 -7.000000e+00 1.900000e+01
         vertex -5.814581e-15 -7.000000e+00 1.900000e+01
         vertex 3.850000e+01 -9.000000e+00 1.900000e+01
      endloop
   endfacet
   facet normal -0.000000e+00 0.000000e+00 1.000000e+00
      outer loop
         vertex -5.814581e-15 -7.000000e+00 1.900000e+01
         vertex -2.000000e+00 -8.000000e+00 1.900000e+01
         vertex -1.000000e+00 -9.000000e+00 1.900000e+01
      endloop
   endfacet
   facet normal 0.000000e+00 0.000000e+00 1.000000e+00
      outer loop
         vertex 3.850000e+01 -9.000000e+00 1.900000e+01
         vertex 3.950000e+01 -8.000000e+00 1.900000e+01
         vertex 3.750000e+01 -7.000000e+00 1.900000e+01
      endloop
   endfacet
   facet normal 0.000000e+00 0.000000e+00 1.000000e+00
      outer loop
         vertex 3.750000e+01 3.000000e+01 1.900000e+01
         vertex 3.750000e+01 1.425000e+01 1.900000e+01
         vertex 3.950000e+01 1.425000e+01 1.900000e+01
      endloop
   endfacet
   facet normal 0.000000e+00 0.000000e+00 1.000000e+00
      outer loop
         vertex 3.950000e+01 1.425000e+01 1.900000e+01
         vertex 3.950000e+01 4.800000e+01 1.900000e+01
         vertex 3.750000e+01 3.000000e+01 1.900000e+01
      endloop
   endfacet
   facet normal 0.000000e+00 0.000000e+00 1.000000e+00
      outer loop
         vertex 3.950000e+01 4.800000e+01 1.900000e+01
         vertex 3.936602e+01 4.850000e+01 1.900000e+01
         vertex 3.900000e+01 4.886602e+01 1.900000e+01
      endloop
   endfacet
   facet normal 0.000000e+00 0.000000e+00 1.000000e+00
      outer loop
         vertex 3.900000e+01 4.886602e+01 1.900000e+01
         vertex 3.850000e+01 4.900000e+01 1.900000e+01
         vertex 3.950000e+01 4.800000e+01 1.900000e+01
      endloop
   endfacet
   facet normal -0.000000e+00 0.000000e+00 1.000000e+00
      outer loop
         vertex 3.850000e+01 4.900000e+01 1.900000e+01
         vertex -1.000000e+00 4.900000e+01 1.900000e+01
         vertex 3.750000e+01 3.000000e+01 1.900000e+01
      endloop
   endfacet
   facet normal -0.000000e+00 0.000000e+00 1.000000e+00
      outer loop
         vertex -1.000000e+00 4.900000e+01 1.900000e+01
         vertex -1.500000e+00 4.886602e+01 1.900000e+01
         vertex -1.866025e+00 4.850000e+01 1.900000e+01
      endloop
   endfacet
   facet normal 0.000000e+00 0.000000e+00 1.000000e+00
      outer loop
         vertex -1.866025e+00 4.850000e+01 1.900000e+01
         vertex -2.000000e+00 4.800000e+01 1.900000e+01
         vertex -1.000000e+00 4.900000e+01 1.900000e+01
      endloop
   endfacet
   facet normal 0.000000e+00 0.000000e+00 1.000000e+00
      outer loop
         vertex -2.000000e+00 4.800000e+01 1.900000e+01
         vertex -2.000000e+00 1.425000e+01 1.900000e+01
         vertex 0.000000e+00 3.000000e+01 1.900000e+01
      endloop
   endfacet
   facet normal 0.000000e+00 -0.000000e+00 1.000000e+00
      outer loop
         vertex -2.000000e+00 1.425000e+01 1.900000e+01
         vertex -2.475126e-15 1.425000e+01 1.900000e+01
         vertex 0.000000e+00 3.000000e+01 1.900000e+01
      endloop
   endfacet
   facet normal 0.000000e+00 0.000000e+00 1.000000e+00
      outer loop
         vertex 0.000000e+00 3.000000e+01 1.900000e+01
         vertex 3.750000e+01 3.000000e+01 1.900000e+01
         vertex -1.000000e+00 4.900000e+01 1.900000e+01
      endloop
   endfacet
   facet normal 0.000000e+00 0.000000e+00 1.000000e+00
      outer loop
         vertex 3.750000e+01 3.000000e+01 1.900000e+01
         vertex 3.950000e+01 4.800000e+01 1.900000e+01
         vertex 3.850000e+01 4.900000e+01 1.900000e+01
      endloop
   endfacet
   facet normal -0.000000e+00 0.000000e+00 1.000000e+00
      outer loop
         vertex -1.000000e+00 4.900000e+01 1.900000e+01
         vertex -2.000000e+00 4.800000e+01 1.900000e+01
         vertex 0.000000e+00 3.000000e+01 1.900000e+01
      endloop
   endfacet
   facet normal 0.000000e+00 -1.000000e+00 0.000000e+00
      outer loop
         vertex 3.750000e+01 1.425000e+01 3.000000e+00
         vertex 3.950000e+01 1.425000e+01 3.000000e+00
         vertex 3.950000e+01 1.425000e+01 1.900000e+01
      endloop
   endfacet
   facet normal 0.000000e+00 -1.000000e+00 0.000000e+00
      outer loop
         vertex 3.950000e+01 1.425000e+01 1.900000e+01
         vertex 3.750000e+01 1.425000e+01 1.900000e+01
         vertex 3.750000e+01 1.425000e+01 3.000000e+00
      endloop
   endfacet
   facet normal 0.000000e+00 -1.000000e+00 0.000000e+00
      outer loop
         vertex -2.000000e+00 1.425000e+01 3.000000e+00
         vertex -2.664535e-15 1.425000e+01 3.000000e+00
         vertex -2.475126e-15 1.425000e+01 1.900000e+01
      endloop
   endfacet
   facet normal 0.000000e+00 -1.000000e+00 0.000000e+00
      outer loop
         vertex -2.475126e-15 1.425000e+01 1.900000e+01
         vertex -2.000000e+00 1.425000e+01 1.900000e+01
         vertex -2.000000e+00 1.425000e+01 3.000000e+00
      endloop
   endfacet
   facet normal 0.000000e+00 0.000000e+00 1.000000e+00
      outer loop
         vertex 3.950000e+01 -1.750000e+00 3.000000e+00
         vertex 3.950000e+01 1.425000e+01 3.000000e+00
         vertex 3.750000e+01 1.425000e+01 3.000000e+00
      endloop
   endfacet
   facet normal 0.000000e+00 0.000000e+00 1.000000e+00
      outer loop
         vertex 3.750000e+01 1.425000e+01 3.000000e+00
         vertex 3.750000e+01 -1.750000e+00 3.000000e+00
         vertex 3.950000e+01 -1.750000e+00 3.000000e+00
      endloop
   endfacet
   facet normal 0.000000e+00 0.000000e+00 1.000000e+00
      outer loop
         vertex -2.000000e+00 1.425000e+01 3.000000e+00
         vertex -2.000000e+00 -1.750000e+00 3.000000e+00
         vertex -4.884981e-15 -1.750000e+00 3.000000e+00
      endloop
   endfacet
   facet normal 0.000000e+00 0.000000e+00 1.000000e+00
      outer loop
         vertex -4.884981e-15 -1.750000e+00 3.000000e+00
         vertex -2.664535e-15 1.425000e+01 3.000000e+00
         vertex -2.000000e+00 1.425000e+01 3.000000e+00
      endloop
   endfacet
   facet normal 0.000000e+00 1.000000e+00 0.000000e+00
      outer loop
         vertex -4.884981e-15 -1.750000e+00 3.000000e+00
         vertex -2.000000e+00 -1.750000e+00 3.000000e+00
         vertex -2.000000e+00 -1.750000e+00 1.900000e+01
      endloop
   endfacet
   facet normal 0.000000e+00 1.000000e+00 0.000000e+00
      outer loop
         vertex -2.000000e+00 -1.750000e+00 1.900000e+01
         vertex -4.989539e-15 -1.750000e+00 1.900000e+01
         vertex -4.884981e-15 -1.750000e+00 3.000000e+00
      endloop
   endfacet
   facet normal 0.000000e+00 1.000000e+00 0.000000e+00
      outer loop
         vertex 3.950000e+01 -1.750000e+00 3.000000e+00
         vertex 3.750000e+01 -1.750000e+00 3.000000e+00
         vertex 3.750000e+01 -1.750000e+00 1.900000e+01
      endloop
   endfacet
   facet normal 0.000000e+00 1.000000e+00 0.000000e+00
      outer loop
         vertex 3.750000e+01 -1.750000e+00 1.900000e+01
         vertex 3.950000e+01 -1.750000e+00 1.900000e+01
         vertex 3.950000e+01 -1.750000e+00 3.000000e+00
      endloop
   endfacet
   facet normal -9.659258e-01 2.588190e-01 0.000000e+00
      outer loop
         vertex -1.866025e+00 4.850000e+01 1.900000e+01
         vertex -1.866025e+00 4.850000e+01 0.000000e+00
         vertex -2.000000e+00 4.800000e+01 0.000000e+00
      endloop
   endfacet
   facet normal -9.659258e-01 2.588190e-01 0.000000e+00
      outer loop
         vertex -2.000000e+00 4.800000e+01 1.900000e+01
         vertex -1.866025e+00 4.850000e+01 1.900000e+01
         vertex -2.000000e+00 4.800000e+01 0.000000e+00
      endloop
   endfacet
   facet normal -7.071054e-01 7.071082e-01 0.000000e+00
      outer loop
         vertex -1.500000e+00 4.886602e+01 1.900000e+01
         vertex -1.500000e+00 4.886602e+01 0.000000e+00
         vertex -1.866025e+00 4.850000e+01 0.000000e+00
      endloop
   endfacet
   facet normal -7.071054e-01 7.071082e-01 0.000000e+00
      outer loop
         vertex -1.866025e+00 4.850000e+01 1.900000e+01
         vertex -1.500000e+00 4.886602e+01 1.900000e+01
         vertex -1.866025e+00 4.850000e+01 0.000000e+00
      endloop
   endfacet
   facet normal -2.588215e-01 9.659252e-01 0.000000e+00
      outer loop
         vertex -1.000000e+00 4.900000e+01 1.900000e+01
         vertex -1.000000e+00 4.900000e+01 0.000000e+00
         vertex -1.500000e+00 4.886602e+01 0.000000e+00
      endloop
   endfacet
   facet normal -2.588215e-01 9.659252e-01 0.000000e+00
      outer loop
         vertex -1.500000e+00 4.886602e+01 1.900000e+01
         vertex -1.000000e+00 4.900000e+01 1.900000e+01
         vertex -1.500000e+00 4.886602e+01 0.000000e+00
      endloop
   endfacet
   facet normal 0.000000e+00 -0.000000e+00 -1.000000e+00
      outer loop
         vertex 3.750000e+01 3.000000e+01 0.000000e+00
         vertex 3.950000e+01 4.800000e+01 0.000000e+00
         vertex 3.950000e+01 -8.000000e+00 0.000000e+00
      endloop
   endfacet
   facet normal -0.000000e+00 -0.000000e+00 -1.000000e+00
      outer loop
         vertex 3.900000e+01 4.886602e+01 0.000000e+00
         vertex 3.936602e+01 4.850000e+01 0.000000e+00
         vertex 3.950000e+01 4.800000e+01 0.000000e+00
      endloop
   endfacet
   facet normal 0.000000e+00 0.000000e+00 -1.000000e+00
      outer loop
         vertex 3.950000e+01 4.800000e+01 0.000000e+00
         vertex 3.850000e+01 4.900000e+01 0.000000e+00
         vertex 3.900000e+01 4.886602e+01 0.000000e+00
      endloop
   endfacet
   facet normal 0.000000e+00 0.000000e+00 -1.000000e+00
      outer loop
         vertex 3.746545e+01 4.700000e+01 0.000000e+00
         vertex -1.000000e+00 4.900000e+01 0.000000e+00
         vertex 3.850000e+01 4.900000e+01 0.000000e+00
      endloop
   endfacet
   facet normal 0.000000e+00 -0.000000e+00 -1.000000e+00
      outer loop
         vertex -1.866025e+00 4.850000e+01 0.000000e+00
         vertex -1.500000e+00 4.886602e+01 0.000000e+00
         vertex -1.000000e+00 4.900000e+01 0.000000e+00
      endloop
   endfacet
   facet normal 0.000000e+00 0.000000e+00 -1.000000e+00
      outer loop
         vertex -1.000000e+00 4.900000e+01 0.000000e+00
         vertex -2.000000e+00 4.800000e+01 0.000000e+00
         vertex -1.866025e+00 4.850000e+01 0.000000e+00
      endloop
   endfacet
   facet normal 0.000000e+00 0.000000e+00 -1.000000e+00
      outer loop
         vertex 0.000000e+00 3.000000e+01 0.000000e+00
         vertex -2.000000e+00 -8.000000e+00 0.000000e+00
         vertex -2.000000e+00 4.800000e+01 0.000000e+00
      endloop
   endfacet
   facet normal 0.000000e+00 0.000000e+00 -1.000000e+00
      outer loop
         vertex -1.500000e+00 -8.866025e+00 0.000000e+00
         vertex -1.866025e+00 -8.500000e+00 0.000000e+00
         vertex -2.000000e+00 -8.000000e+00 0.000000e+00
      endloop
   endfacet
   facet normal 0.000000e+00 0.000000e+00 -1.000000e+00
      outer loop
         vertex -2.000000e+00 -8.000000e+00 0.000000e+00
         vertex -1.000000e+00 -9.000000e+00 0.000000e+00
         vertex -1.500000e+00 -8.866025e+00 0.000000e+00
      endloop
   endfacet
   facet normal 0.000000e+00 0.000000e+00 -1.000000e+00
      outer loop
         vertex 3.750000e+01 -7.000000e+00 0.000000e+00
         vertex 3.850000e+01 -9.000000e+00 0.000000e+00
         vertex -1.000000e+00 -9.000000e+00 0.000000e+00
      endloop
   endfacet
   facet normal -0.000000e+00 0.000000e+00 -1.000000e+00
      outer loop
         vertex 3.950000e+01 -8.000000e+00 0.000000e+00
         vertex 3.900000e+01 -8.866025e+00 0.000000e+00
         vertex 3.850000e+01 -9.000000e+00 0.000000e+00
      endloop
   endfacet
   facet normal -0.000000e+00 0.000000e+00 -1.000000e+00
      outer loop
         vertex 3.950000e+01 -8.000000e+00 0.000000e+00
         vertex 3.936602e+01 -8.500000e+00 0.000000e+00
         vertex 3.900000e+01 -8.866025e+00 0.000000e+00
      endloop
   endfacet
   facet normal 0.000000e+00 -0.000000e+00 -1.000000e+00
      outer loop
         vertex -1.000000e+00 -9.000000e+00 0.000000e+00
         vertex -5.814581e-15 -7.000000e+00 0.000000e+00
         vertex 3.750000e+01 -7.000000e+00 0.000000e+00
      endloop
   endfacet
   facet normal 0.000000e+00 0.000000e+00 -1.000000e+00
      outer loop
         vertex -2.000000e+00 -8.000000e+00 0.000000e+00
         vertex 0.000000e+00 3.000000e+01 0.000000e+00
         vertex -5.814581e-15 -7.000000e+00 0.000000e+00
      endloop
   endfacet
   facet normal -0.000000e+00 -0.000000e+00 -1.000000e+00
      outer loop
         vertex -2.000000e+00 4.800000e+01 0.000000e+00
         vertex -3.473895e-02 4.700000e+01 0.000000e+00
         vertex 0.000000e+00 3.000000e+01 0.000000e+00
      endloop
   endfacet
   facet normal 0.000000e+00 0.000000e+00 -1.000000e+00
      outer loop
         vertex -1.000000e+00 4.900000e+01 0.000000e+00
         vertex 3.746545e+01 4.700000e+01 0.000000e+00
         vertex -3.473895e-02 4.700000e+01 0.000000e+00
      endloop
   endfacet
   facet normal 0.000000e+00 0.000000e+00 -1.000000e+00
      outer loop
         vertex 3.950000e+01 4.800000e+01 0.000000e+00
         vertex 3.750000e+01 3.000000e+01 0.000000e+00
         vertex 3.746545e+01 4.700000e+01 0.000000e+00
      endloop
   endfacet
   facet normal 0.000000e+00 0.000000e+00 -1.000000e+00
      outer loop
         vertex 3.950000e+01 -8.000000e+00 0.000000e+00
         vertex 3.750000e+01 -7.000000e+00 0.000000e+00
         vertex 3.750000e+01 3.000000e+01 0.000000e+00
      endloop
   endfacet
   facet normal 0.000000e+00 -0.000000e+00 -1.000000e+00
      outer loop
         vertex 3.746545e+01 4.700000e+01 0.000000e+00
         vertex 3.850000e+01 4.900000e+01 0.000000e+00
         vertex 3.950000e+01 4.800000e+01 0.000000e+00
      endloop
   endfacet
   facet normal 0.000000e+00 0.000000e+00 -1.000000e+00
      outer loop
         vertex -3.473895e-02 4.700000e+01 0.000000e+00
         vertex -2.000000e+00 4.800000e+01 0.000000e+00
         vertex -1.000000e+00 4.900000e+01 0.000000e+00
      endloop
   endfacet
   facet normal 0.000000e+00 0.000000e+00 -1.000000e+00
      outer loop
         vertex -5.814581e-15 -7.000000e+00 0.000000e+00
         vertex -1.000000e+00 -9.000000e+00 0.000000e+00
         vertex -2.000000e+00 -8.000000e+00 0.000000e+00
      endloop
   endfacet
   facet normal 0.000000e+00 0.000000e+00 -1.000000e+00
      outer loop
         vertex 3.950000e+01 -8.000000e+00 0.000000e+00
         vertex 3.850000e+01 -9.000000e+00 0.000000e+00
         vertex 3.750000e+01 -7.000000e+00 0.000000e+00
      endloop
   endfacet
   facet normal -2.588198e-01 -9.659256e-01 0.000000e+00
      outer loop
         vertex -1.500000e+00 -8.866025e+00 1.900000e+01
         vertex -1.500000e+00 -8.866025e+00 0.000000e+00
         vertex -1.000000e+00 -9.000000e+00 0.000000e+00
      endloop
   endfacet
   facet normal -2.588198e-01 -9.659256e-01 0.000000e+00
      outer loop
         vertex -1.000000e+00 -9.000000e+00 1.900000e+01
         vertex -1.500000e+00 -8.866025e+00 1.900000e+01
         vertex -1.000000e+00 -9.000000e+00 0.000000e+00
      endloop
   endfacet
   facet normal -7.071063e-01 -7.071072e-01 0.000000e+00
      outer loop
         vertex -1.866025e+00 -8.500000e+00 1.900000e+01
         vertex -1.866025e+00 -8.500000e+00 0.000000e+00
         vertex -1.500000e+00 -8.866025e+00 0.000000e+00
      endloop
   endfacet
   facet normal -7.071063e-01 -7.071072e-01 0.000000e+00
      outer loop
         vertex -1.500000e+00 -8.866025e+00 1.900000e+01
         vertex -1.866025e+00 -8.500000e+00 1.900000e+01
         vertex -1.500000e+00 -8.866025e+00 0.000000e+00
      endloop
   endfacet
   facet normal -9.659258e-01 -2.588190e-01 0.000000e+00
      outer loop
         vertex -2.000000e+00 -8.000000e+00 1.900000e+01
         vertex -2.000000e+00 -8.000000e+00 0.000000e+00
         vertex -1.866025e+00 -8.500000e+00 0.000000e+00
      endloop
   endfacet
   facet normal -9.659258e-01 -2.588190e-01 0.000000e+00
      outer loop
         vertex -1.866025e+00 -8.500000e+00 1.900000e+01
         vertex -2.000000e+00 -8.000000e+00 1.900000e+01
         vertex -1.866025e+00 -8.500000e+00 0.000000e+00
      endloop
   endfacet
   facet normal 9.659252e-01 -2.588215e-01 0.000000e+00
      outer loop
         vertex 3.936602e+01 -8.500000e+00 1.900000e+01
         vertex 3.936602e+01 -8.500000e+00 0.000000e+00
         vertex 3.950000e+01 -8.000000e+00 0.000000e+00
      endloop
   endfacet
   facet normal 9.659252e-01 -2.588215e-01 0.000000e+00
      outer loop
         vertex 3.950000e+01 -8.000000e+00 1.900000e+01
         vertex 3.936602e+01 -8.500000e+00 1.900000e+01
         vertex 3.950000e+01 -8.000000e+00 0.000000e+00
      endloop
   endfacet
   facet normal 7.071077e-01 -7.071059e-01 0.000000e+00
      outer loop
         vertex 3.900000e+01 -8.866025e+00 1.900000e+01
         vertex 3.900000e+01 -8.866025e+00 0.000000e+00
         vertex 3.936602e+01 -8.500000e+00 0.000000e+00
      endloop
   endfacet
   facet normal 7.071077e-01 -7.071059e-01 0.000000e+00
      outer loop
         vertex 3.936602e+01 -8.500000e+00 1.900000e+01
         vertex 3.900000e+01 -8.866025e+00 1.900000e+01
         vertex 3.936602e+01 -8.500000e+00 0.000000e+00
      endloop
   endfacet
   facet normal 2.588198e-01 -9.659256e-01 0.000000e+00
      outer loop
         vertex 3.850000e+01 -9.000000e+00 1.900000e+01
         vertex 3.850000e+01 -9.000000e+00 0.000000e+00
         vertex 3.900000e+01 -8.866025e+00 0.000000e+00
      endloop
   endfacet
   facet normal 2.588198e-01 -9.659256e-01 0.000000e+00
      outer loop
         vertex 3.900000e+01 -8.866025e+00 1.900000e+01
         vertex 3.850000e+01 -9.000000e+00 1.900000e+01
         vertex 3.900000e+01 -8.866025e+00 0.000000e+00
      endloop
   endfacet
   facet normal 2.588215e-01 9.659252e-01 -0.000000e+00
      outer loop
         vertex 3.900000e+01 4.886602e+01 1.900000e+01
         vertex 3.900000e+01 4.886602e+01 0.000000e+00
         vertex 3.850000e+01 4.900000e+01 0.000000e+00
      endloop
   endfacet
   facet normal 2.588215e-01 9.659252e-01 0.000000e+00
      outer loop
         vertex 3.850000e+01 4.900000e+01 1.900000e+01
         vertex 3.900000e+01 4.886602e+01 1.900000e+01
         vertex 3.850000e+01 4.900000e+01 0.000000e+00
      endloop
   endfacet
   facet normal 7.071068e-01 7.071068e-01 -0.000000e+00
      outer loop
         vertex 3.936602e+01 4.850000e+01 1.900000e+01
         vertex 3.936602e+01 4.850000e+01 0.000000e+00
         vertex 3.900000e+01 4.886602e+01 0.000000e+00
      endloop
   endfacet
   facet normal 7.071068e-01 7.071068e-01 0.000000e+00
      outer loop
         vertex 3.900000e+01 4.886602e+01 1.900000e+01
         vertex 3.936602e+01 4.850000e+01 1.900000e+01
         vertex 3.900000e+01 4.886602e+01 0.000000e+00
      endloop
   endfacet
   facet normal 9.659252e-01 2.588215e-01 -0.000000e+00
      outer loop
         vertex 3.950000e+01 4.800000e+01 1.900000e+01
         vertex 3.950000e+01 4.800000e+01 0.000000e+00
         vertex 3.936602e+01 4.850000e+01 0.000000e+00
      endloop
   endfacet
   facet normal 9.659252e-01 2.588215e-01 0.000000e+00
      outer loop
         vertex 3.936602e+01 4.850000e+01 1.900000e+01
         vertex 3.950000e+01 4.800000e+01 1.900000e+01
         vertex 3.936602e+01 4.850000e+01 0.000000e+00
      endloop
   endfacet
   facet normal 0.000000e+00 1.000000e+00 0.000000e+00
      outer loop
         vertex 3.750000e+01 -7.000000e+00 0.000000e+00
         vertex -5.814581e-15 -7.000000e+00 0.000000e+00
         vertex -5.814581e-15 -7.000000e+00 1.900000e+01
      endloop
   endfacet
   facet normal 0.000000e+00 1.000000e+00 0.000000e+00
      outer loop
         vertex -5.814581e-15 -7.000000e+00 1.900000e+01
         vertex 3.750000e+01 -7.000000e+00 1.900000e+01
         vertex 3.750000e+01 -7.000000e+00 0.000000e+00
      endloop
   endfacet
   facet normal 9.999979e-01 2.043464e-03 -0.000000e+00
      outer loop
         vertex 0.000000e+00 3.000000e+01 0.000000e+00
         vertex -3.473895e-02 4.700000e+01 0.000000e+00
         vertex -3.473895e-02 4.700000e+01 1.700000e+01
      endloop
   endfacet
   facet normal 9.999979e-01 2.043464e-03 0.000000e+00
      outer loop
         vertex -3.473895e-02 4.700000e+01 1.700000e+01
         vertex 0.000000e+00 3.000000e+01 1.700000e+01
         vertex 0.000000e+00 3.000000e+01 0.000000e+00
      endloop
   endfacet
   facet normal 0.000000e+00 -1.000000e+00 0.000000e+00
      outer loop
         vertex 3.750000e+01 3.000000e+01 1.900000e+01
         vertex 0.000000e+00 3.000000e+01 1.900000e+01
         vertex 0.000000e+00 3.000000e+01 1.700000e+01
      endloop
   endfacet
   facet normal 0.000000e+00 -1.000000e+00 0.000000e+00
      outer loop
         vertex 0.000000e+00 3.000000e+01 1.700000e+01
         vertex 3.750000e+01 3.000000e+01 1.700000e+01
         vertex 3.750000e+01 3.000000e+01 1.900000e+01
      endloop
   endfacet
   facet normal -9.999979e-01 -2.032332e-03 0.000000e+00
      outer loop
         vertex 3.746545e+01 4.700000e+01 0.000000e+00
         vertex 3.750000e+01 3.000000e+01 0.000000e+00
         vertex 3.750000e+01 3.000000e+01 1.700000e+01
      endloop
   endfacet
   facet normal -9.999979e-01 -2.032332e-03 -0.000000e+00
      outer loop
         vertex 3.750000e+01 3.000000e+01 1.700000e+01
         vertex 3.746545e+01 4.700000e+01 1.700000e+01
         vertex 3.746545e+01 4.700000e+01 0.000000e+00
      endloop
   endfacet
   facet normal 0.000000e+00 -1.000000e+00 0.000000e+00
      outer loop
         vertex -1.000000e+00 -9.000000e+00 0.000000e+00
         vertex 3.850000e+01 -9.000000e+00 0.000000e+00
         vertex 3.850000e+01 -9.000000e+00 1.900000e+01
      endloop
   endfacet
   facet normal 0.000000e+00 -1.000000e+00 0.000000e+00
      outer loop
         vertex 3.850000e+01 -9.000000e+00 1.900000e+01
         vertex -1.000000e+00 -9.000000e+00 1.900000e+01
         vertex -1.000000e+00 -9.000000e+00 0.000000e+00
      endloop
   endfacet
   facet normal 0.000000e+00 1.000000e+00 0.000000e+00
      outer loop
         vertex -1.000000e+00 4.900000e+01 1.900000e+01
         vertex 3.850000e+01 4.900000e+01 1.900000e+01
         vertex 3.850000e+01 4.900000e+01 0.000000e+00
      endloop
   endfacet
   facet normal 0.000000e+00 1.000000e+00 0.000000e+00
      outer loop
         vertex 3.850000e+01 4.900000e+01 0.000000e+00
         vertex -1.000000e+00 4.900000e+01 0.000000e+00
         vertex -1.000000e+00 4.900000e+01 1.900000e+01
      endloop
   endfacet
   facet normal 0.000000e+00 -1.000000e+00 0.000000e+00
      outer loop
         vertex -3.473895e-02 4.700000e+01 0.000000e+00
         vertex 3.746545e+01 4.700000e+01 0.000000e+00
         vertex 3.746545e+01 4.700000e+01 1.700000e+01
      endloop
   endfacet
   facet normal 0.000000e+00 -1.000000e+00 0.000000e+00
      outer loop
         vertex 3.746545e+01 4.700000e+01 1.700000e+01
         vertex -3.473895e-02 4.700000e+01 1.700000e+01
         vertex -3.473895e-02 4.700000e+01 0.000000e+00
      endloop
   endfacet
   facet normal 0.000000e+00 0.000000e+00 -1.000000e+00
      outer loop
         vertex 3.746545e+01 4.700000e+01 1.700000e+01
         vertex 3.750000e+01 3.000000e+01 1.700000e+01
         vertex 0.000000e+00 3.000000e+01 1.700000e+01
      endloop
   endfacet
   facet normal 0.000000e+00 0.000000e+00 -1.000000e+00
      outer loop
         vertex 0.000000e+00 3.000000e+01 1.700000e+01
         vertex -3.473895e-02 4.700000e+01 1.700000e+01
         vertex 3.746545e+01 4.700000e+01 1.700000e+01
      endloop
   endfacet
endsolid
